<svg width="64" height="64" viewBox="0 0 64 64" fill="none" xmlns="http://www.w3.org/2000/svg">
<path d="M62.9677 19.6129H56.7742C56.2046 19.6129 55.7419 20.0741 55.7419 20.6452V21.6774H43.3548V12.3871C43.3548 11.816 42.8921 11.3548 42.3226 11.3548H38.1935C37.624 11.3548 37.1613 11.816 37.1613 12.3871V21.6774H36.6295C36.1074 21.6774 35.5953 21.7374 35.0968 21.8448V14.4516C35.0968 13.8805 34.6341 13.4194 34.0645 13.4194H29.9355C29.3659 13.4194 28.9032 13.8805 28.9032 14.4516V22.2823L28.6008 21.9798C28.4078 21.7858 28.1447 21.6774 27.871 21.6774H26.8387V16.5161C26.8387 15.9451 26.376 15.4839 25.8064 15.4839H21.6774C21.1079 15.4839 20.6452 15.9451 20.6452 16.5161V21.6774H8.25806V20.6452C8.25806 20.0741 7.79536 19.6129 7.22581 19.6129H1.03226C0.462702 19.6129 0 20.0741 0 20.6452V45.4194C0 45.9904 0.462702 46.4516 1.03226 46.4516H7.22581C7.79536 46.4516 8.25806 45.9904 8.25806 45.4194V42.3226L10.7354 44.1804C10.9143 44.315 11.1321 44.3871 11.3548 44.3871H12.9929L12.5131 44.8669C11.7656 45.6134 11.3548 46.6043 11.3548 47.6613C11.3548 49.9002 13.2707 51.7162 15.4879 51.6089C15.4849 51.6699 15.4839 51.7293 15.4839 51.7903C15.4839 54.0292 17.3957 55.8412 19.6169 55.7379C19.6139 55.7989 19.6129 55.8584 19.6129 55.9194C19.6129 58.1583 21.5207 59.9844 23.746 59.8669C23.7429 59.9279 23.7419 59.9874 23.7419 60.0484C23.7419 62.2268 25.5141 64 27.6946 64C28.7495 64 29.7414 63.5892 30.4889 62.8427L32 61.3306L33.5121 62.8427C34.2586 63.5892 35.2505 64 36.3054 64C38.4859 64 40.2581 62.2268 40.2581 60.0484C40.2581 59.9813 40.2424 59.9183 40.2384 59.8523C40.3044 59.8553 40.3684 59.871 40.4345 59.871C42.6149 59.871 44.3871 58.0978 44.3871 55.9194C44.3871 55.8523 44.3715 55.7893 44.3674 55.7233C44.4335 55.7263 44.4975 55.7419 44.5635 55.7419C46.7439 55.7419 48.5161 53.9688 48.5161 51.7903C48.5161 51.7233 48.5005 51.6603 48.4965 51.5943C48.5625 51.5973 48.6265 51.6129 48.6925 51.6129C50.873 51.6129 52.6452 49.8397 52.6452 47.6613C52.6452 46.6053 52.2344 45.6134 51.4869 44.8669L51.0081 44.3871H52.6452C52.8679 44.3871 53.0857 44.315 53.2646 44.1804L55.7419 42.3226V45.4194C55.7419 45.9904 56.2046 46.4516 56.7742 46.4516H62.9677C63.5373 46.4516 64 45.9904 64 45.4194V20.6452C64 20.0741 63.5373 19.6129 62.9677 19.6129ZM39.2258 13.4194H41.2903V21.6774H39.2258V13.4194ZM30.9677 15.4839H33.0323V22.6416C32.4874 22.9551 31.9773 23.3372 31.5212 23.7933L30.9677 24.3468V15.4839ZM22.7097 17.5484H24.7742V21.6774H22.7097V17.5484ZM6.19355 44.3871H2.06452V21.6774H6.19355V44.3871ZM11.6986 42.3226L8.25806 39.7419V23.7419H27.4435L36.3942 32.6935C36.8886 33.188 37.1613 33.8458 37.1613 34.5444C37.1613 35.9864 35.9864 37.1613 34.5433 37.1613C33.8438 37.1613 33.187 36.8886 32.6925 36.3952L27.5685 31.2702C27.1815 30.8831 26.496 30.8831 26.1089 31.2702L15.0575 42.3226H11.6986ZM29.0292 61.3831C28.6719 61.7394 28.1981 61.9355 27.6946 61.9355C26.6527 61.9355 25.8064 61.0892 25.8064 60.0484C25.8064 59.5519 26.0076 59.066 26.3599 58.7137L27.8846 57.189C27.9244 57.2334 27.9546 57.2843 27.997 57.3266L30.5403 59.871L29.0292 61.3831ZM38.1935 60.0484C38.1935 61.0892 37.3473 61.9355 36.3054 61.9355C35.8019 61.9355 35.3271 61.7394 34.9708 61.3831L29.4556 55.8669C29.1043 55.5146 28.9032 55.0297 28.9032 54.5323C28.9032 53.4914 29.7495 52.6452 30.7913 52.6452C31.2949 52.6452 31.7697 52.8412 32.126 53.1976L37.6411 58.7137C37.9924 59.066 38.1935 59.5509 38.1935 60.0484ZM42.3226 55.9194C42.3226 56.9602 41.4763 57.8064 40.4345 57.8064C39.9309 57.8064 39.4561 57.6104 39.0998 57.254L33.5847 51.7379C33.2334 51.3856 33.0323 50.9007 33.0323 50.4032C33.0323 49.3624 33.8785 48.5161 34.9204 48.5161C35.4239 48.5161 35.8987 48.7122 36.255 49.0685L41.7702 54.5847C42.1215 54.937 42.3226 55.4219 42.3226 55.9194ZM46.4516 51.7903C46.4516 52.8311 45.6053 53.6774 44.5635 53.6774C44.06 53.6774 43.5852 53.4813 43.2288 53.125L37.7137 47.6089C37.3624 47.2565 37.1613 46.7717 37.1613 46.2742C37.1613 45.2334 38.0076 44.3871 39.0494 44.3871C39.5529 44.3871 40.0277 44.5832 40.3841 44.9395L45.8992 50.4556C46.2505 50.808 46.4516 51.2928 46.4516 51.7903ZM48.6925 49.5484C48.189 49.5484 47.7142 49.3523 47.3579 48.996L41.8427 43.4798C41.4914 43.1275 41.2903 42.6426 41.2903 42.1452C41.2903 41.1043 42.1366 40.2581 43.1784 40.2581C43.682 40.2581 44.1568 40.4541 44.5131 40.8105L50.0282 46.3266C50.3795 46.6789 50.5806 47.1638 50.5806 47.6613C50.5806 48.7021 49.7344 49.5484 48.6925 49.5484ZM52.3014 42.3226H48.9435L45.9718 39.3508C45.2253 38.6043 44.2334 38.1935 43.1784 38.1935C40.998 38.1935 39.2258 39.9667 39.2258 42.1452C39.2258 42.2122 39.2414 42.2752 39.2455 42.3412C39.1794 42.3382 39.1154 42.3226 39.0494 42.3226C36.8689 42.3226 35.0968 44.0958 35.0968 46.2742C35.0968 46.3412 35.1124 46.4042 35.1164 46.4703C35.0504 46.4672 34.9864 46.4516 34.9204 46.4516C32.7399 46.4516 30.9677 48.2248 30.9677 50.4032C30.9677 50.4703 30.9834 50.5333 30.9874 50.5993C30.9214 50.5963 30.8574 50.5806 30.7913 50.5806C28.6109 50.5806 26.8387 52.3538 26.8387 54.5323C26.8387 54.7747 26.8654 55.0121 26.9078 55.2445L24.9002 57.253C24.5428 57.6104 24.0691 57.8064 23.5655 57.8064C22.5237 57.8064 21.6774 56.9602 21.6774 55.9194C21.6774 55.4229 21.8785 54.937 22.2308 54.5847L24.4718 52.3427C24.6729 52.1416 24.7742 51.877 24.7742 51.6129C24.7742 51.3488 24.6729 51.0842 24.4718 50.8831C24.068 50.4793 23.4158 50.4793 23.0121 50.8831L20.7712 53.125C20.4138 53.4813 19.94 53.6774 19.4365 53.6774C18.3947 53.6774 17.5484 52.8311 17.5484 51.7903C17.5484 51.2938 17.7495 50.808 18.1018 50.4556L20.3427 48.2137C20.5438 48.0126 20.6452 47.748 20.6452 47.4839C20.6452 47.2198 20.5438 46.9551 20.3427 46.754C19.939 46.3503 19.2868 46.3503 18.8831 46.754L16.6421 48.996C16.2848 49.3523 15.811 49.5484 15.3075 49.5484C14.2656 49.5484 13.4194 48.7021 13.4194 47.6613C13.4194 47.1648 13.6205 46.6789 13.9728 46.3266L26.8387 33.4597L31.2329 37.8548C32.1174 38.7384 33.2923 39.2258 34.5433 39.2258C37.125 39.2258 39.2258 37.126 39.2258 34.5444C39.2258 33.2944 38.7384 32.1174 37.8538 31.2339L32.4274 25.8064L32.9808 25.253C33.9551 24.2797 35.2505 23.7419 36.6295 23.7419H55.7419V39.7419L52.3014 42.3226ZM61.9355 44.3871H57.8064V21.6774H61.9355V44.3871Z" fill="#FA541C"/>
<path d="M20.0403 13.4194H25.8065C26.0801 13.4194 26.3432 13.311 26.5363 13.1169L30.3629 9.29032H42.3226C42.5963 9.29032 42.8594 9.18196 43.0524 8.9879L48.5161 3.52419V7.22581H50.5806V1.03226C50.5806 0.46119 50.1179 0 49.5484 0H43.3548V2.06452H47.0564L41.8952 7.22581H29.9355C29.6618 7.22581 29.3987 7.33417 29.2056 7.52823L25.379 11.3548H19.6129C19.3392 11.3548 19.0761 11.4632 18.8831 11.6573L13.7218 16.8185L15.1815 18.2782L20.0403 13.4194Z" fill="#FA541C"/>
</svg>
