<svg width="64" height="64" viewBox="0 0 64 64" fill="none" xmlns="http://www.w3.org/2000/svg">
<rect width="64" height="64" rx="32" fill="white"/>
<path d="M25.25 41.0001C25.0511 41.0001 24.8603 40.921 24.7197 40.7804C24.579 40.6397 24.5 40.449 24.5 40.2501V23.7501C24.5 23.6197 24.5339 23.4916 24.5985 23.3784C24.6631 23.2652 24.7561 23.1708 24.8682 23.1044C24.9804 23.0381 25.108 23.0021 25.2383 23.0001C25.3686 22.9981 25.4972 23.03 25.6114 23.0928L40.6114 31.3428C40.7291 31.4075 40.8273 31.5027 40.8956 31.6183C40.964 31.7339 41 31.8657 41 32C41 32.1343 40.964 32.2662 40.8956 32.3818C40.8273 32.4974 40.7291 32.5925 40.6114 32.6572L25.6114 40.9072C25.5007 40.9681 25.3764 41 25.25 41.0001Z" fill="#FA541C"/>
</svg>
