<svg width="64" height="64" viewBox="0 0 64 64" fill="none" xmlns="http://www.w3.org/2000/svg">
<path d="M13.1196 10.6893H29.8681C30.386 10.6893 30.8056 10.2695 30.8056 9.75179C30.8056 9.23404 30.386 8.81429 29.8681 8.81429H13.1196C12.6017 8.81429 12.1821 9.23404 12.1821 9.75179C12.1821 10.2695 12.6017 10.6893 13.1196 10.6893Z" fill="#FA541C"/>
<path d="M17.689 16.9412C17.689 17.4589 18.1087 17.8787 18.6265 17.8787H35.3328C35.8507 17.8787 36.2703 17.4589 36.2703 16.9412C36.2703 16.4234 35.8507 16.0037 35.3328 16.0037H18.6265C18.1087 16.0037 17.689 16.4234 17.689 16.9412Z" fill="#FA541C"/>
<path d="M7.65501 17.8787H15.4244C15.9423 17.8787 16.3619 17.4589 16.3619 16.9412C16.3619 16.4234 15.9423 16.0037 15.4244 16.0037H7.65501C7.13714 16.0037 6.71751 16.4234 6.71751 16.9412C6.71751 17.4589 7.13726 17.8787 7.65501 17.8787Z" fill="#FA541C"/>
<path d="M7.65501 22.432H25.3089C25.8268 22.432 26.2464 22.0122 26.2464 21.4945C26.2464 20.9767 25.8268 20.557 25.3089 20.557H7.65501C7.13714 20.557 6.71751 20.9767 6.71751 21.4945C6.71751 22.0122 7.13726 22.432 7.65501 22.432Z" fill="#FA541C"/>
<path d="M7.65501 46.6968H18.9049C19.4228 46.6968 19.8424 46.2771 19.8424 45.7593C19.8424 45.2416 19.4228 44.8218 18.9049 44.8218H7.65501C7.13714 44.8218 6.71751 45.2416 6.71751 45.7593C6.71751 46.2771 7.13726 46.6968 7.65501 46.6968Z" fill="#FA541C"/>
<path d="M63.5223 56.9992L61.1372 54.6144C60.7712 54.2481 60.1776 54.2482 59.8115 54.6144C59.4454 54.9805 59.4454 55.5741 59.8116 55.9401L62.0259 58.1544L59.0961 61.0841L50.8224 52.8101L53.7521 49.8804L56.7183 52.8465C57.0845 53.2126 57.678 53.2126 58.0441 52.8465C58.4102 52.4804 58.4102 51.8867 58.0441 51.5207L54.9072 48.384C54.4159 47.8926 53.6874 47.782 53.0874 48.0487L50.4819 45.4431C53.8591 40.4999 54.0821 34.0351 51.1525 28.8901C51.349 28.8176 51.5574 28.746 51.7801 28.674C52.32 28.4996 52.6828 28.0007 52.6828 27.4325C52.6826 26.8644 52.3199 26.3656 51.78 26.1912C49.2806 25.3841 48.5205 24.624 47.7135 22.1245C47.55 21.6184 47.1012 21.2681 46.5778 21.2262V6.16686C46.5778 5.26611 45.845 4.53323 44.9442 4.53323H42.988V2.57698C42.988 1.67623 42.2552 0.943359 41.3545 0.943359H1.6335C0.73275 0.943359 0 1.67623 0 2.57698V56.3206C0 57.2214 0.73275 57.9542 1.6335 57.9542H3.58975V59.9105C3.58975 60.8112 4.3225 61.544 5.22325 61.544H13.875C14.3929 61.544 14.8125 61.1242 14.8125 60.6065C14.8125 60.0887 14.3929 59.669 13.875 59.669H5.46488V57.9542H41.3543C42.255 57.9542 42.9878 57.2214 42.9878 56.3206V51.2895C43.5709 51.0749 44.1436 50.825 44.7026 50.5389V59.669H18.25C17.7321 59.669 17.3125 60.0887 17.3125 60.6065C17.3125 61.1242 17.7321 61.544 18.25 61.544H44.9441C45.8449 61.544 46.5776 60.8112 46.5776 59.9105V49.7329L48.9904 52.1456C48.7238 52.7456 48.8344 53.474 49.3256 53.9654L57.9409 62.5806C58.2594 62.8991 58.6778 63.0584 59.0961 63.0584C59.5145 63.0584 59.9328 62.8991 60.2513 62.5806L63.5224 59.3095C64.1592 58.6726 64.1592 57.6361 63.5223 56.9992ZM49.7721 27.4326C48.1565 28.1642 47.2035 29.1174 46.4721 30.7327C45.7405 29.1172 44.7875 28.1642 43.1721 27.4326C44.7876 26.7011 45.7406 25.7481 46.4721 24.1325C47.2035 25.7481 48.1565 26.701 49.7721 27.4326ZM41.1641 28.674C43.6634 29.4811 44.4235 30.2412 45.2306 32.7405C45.4049 33.2802 45.9036 33.643 46.4717 33.6431C46.727 33.6431 46.9681 33.5694 47.1724 33.4397C48.3351 36.9585 47.5228 40.9925 44.7285 43.7867C40.7819 47.7334 34.3599 47.7334 30.4134 43.7867C26.4668 39.84 26.4668 33.4182 30.4134 29.4716C32.3251 27.5597 34.8671 26.5069 37.5709 26.5069C38.5334 26.5069 39.4746 26.642 40.3747 26.9009C40.302 27.0644 40.2615 27.2445 40.2615 27.4325C40.2615 28.0006 40.6241 28.4996 41.1641 28.674ZM41.1128 56.0792H1.875V2.81836H41.1128V11.3762C41.1128 11.894 41.5324 12.3137 42.0503 12.3137C42.5681 12.3137 42.9878 11.894 42.9878 11.3762V6.40823H44.7026V22.7122C44.1463 22.4264 43.574 22.1741 42.9878 21.9579V15.7512C42.9878 15.2335 42.5681 14.8137 42.0503 14.8137C41.5324 14.8137 41.1128 15.2335 41.1128 15.7512V21.3994C39.9645 21.1344 38.7785 20.996 37.5709 20.996C37.0979 20.996 36.6283 21.018 36.1628 21.0592C36.0059 20.7609 35.6934 20.5571 35.3329 20.5571H28.6504C28.1325 20.5571 27.7129 20.9769 27.7129 21.4946C27.7129 22.0124 28.1325 22.4321 28.6504 22.4321H31.0085C29.5571 23.104 28.2069 24.0029 27.0018 25.1109H7.655C7.13713 25.1109 6.7175 25.5306 6.7175 26.0484C6.7175 26.5661 7.13713 26.9859 7.655 26.9859H25.2661C24.2559 28.273 23.476 29.6829 22.9269 31.1602H7.655C7.13713 31.1602 6.7175 31.58 6.7175 32.0977C6.7175 32.6155 7.13713 33.0352 7.655 33.0352H22.3614C22.1545 33.9172 22.025 34.8136 21.9726 35.714H7.655C7.13713 35.714 6.7175 36.1337 6.7175 36.6515C6.7175 37.1692 7.13713 37.589 7.655 37.589H21.9753C22.0301 38.4895 22.162 39.386 22.3716 40.2677H7.655C7.13713 40.2677 6.7175 40.6875 6.7175 41.2052C6.7175 41.723 7.13713 42.1427 7.655 42.1427H22.9429C23.2896 43.0669 23.7274 43.9641 24.2549 44.8215H22.107C21.5891 44.8215 21.1695 45.2412 21.1695 45.759C21.1695 46.2767 21.5891 46.6965 22.107 46.6965H25.6111C25.8966 47.0351 26.1976 47.3649 26.5165 47.6836C27.1458 48.3127 27.8161 48.876 28.5184 49.3752H7.655C7.13713 49.3752 6.7175 49.795 6.7175 50.3127C6.7175 50.8305 7.13713 51.2502 7.655 51.2502H32.0385C33.817 51.9202 35.694 52.2552 37.5709 52.2552C38.76 52.2552 39.9487 52.1191 41.1128 51.8501V56.0792ZM27.8424 46.3577C22.478 40.9934 22.478 32.265 27.8424 26.9006C30.441 24.302 33.896 22.8709 37.5709 22.8709C39.8836 22.8709 42.1091 23.438 44.089 24.506C43.6863 25.0022 43.1859 25.3654 42.4985 25.6842C40.9696 24.995 39.2981 24.6319 37.5709 24.6319C34.3662 24.6319 31.3535 25.8799 29.0875 28.1459C24.4099 32.8236 24.4099 40.4349 29.0875 45.1126C31.4264 47.4515 34.4986 48.6209 37.5709 48.6209C40.6431 48.6209 43.7154 47.4515 46.0544 45.1126C49.7976 41.3691 50.541 35.749 48.2926 31.2552C48.6123 30.608 48.9804 30.1337 49.4821 29.749C52.5189 35.0092 51.7937 41.8634 47.2994 46.3577C41.9351 51.722 33.2066 51.722 27.8424 46.3577ZM47.8784 48.382C48.1329 48.1585 48.3824 47.9265 48.6253 47.6836C48.8683 47.4406 49.0981 47.1896 49.3219 46.9349L51.6838 49.2969L50.2385 50.7421L47.8784 48.382Z" fill="#FA541C"/>
<path d="M32.1821 31.78C32.1821 32.2977 32.6017 32.7175 33.1196 32.7175H42.0035C42.5214 32.7175 42.941 32.2977 42.941 31.78C42.941 31.2622 42.5214 30.8425 42.0035 30.8425H33.1196C32.6018 30.8425 32.1821 31.2622 32.1821 31.78Z" fill="#FA541C"/>
<path d="M30.9889 35.2711C30.9889 35.7888 31.4085 36.2086 31.9264 36.2086H43.197C43.7149 36.2086 44.1345 35.7888 44.1345 35.2711C44.1345 34.7533 43.7149 34.3336 43.197 34.3336H31.9264C31.4085 34.3336 30.9889 34.7533 30.9889 35.2711Z" fill="#FA541C"/>
<path d="M43.197 37.8257H31.9264C31.4085 37.8257 30.9889 38.2454 30.9889 38.7632C30.9889 39.2809 31.4085 39.7007 31.9264 39.7007H43.197C43.7149 39.7007 44.1345 39.2809 44.1345 38.7632C44.1345 38.2454 43.7147 37.8257 43.197 37.8257Z" fill="#FA541C"/>
<path d="M40.4124 41.3185H34.7109C34.193 41.3185 33.7734 41.7382 33.7734 42.256C33.7734 42.7737 34.193 43.1935 34.7109 43.1935H40.4124C40.9303 43.1935 41.3499 42.7737 41.3499 42.256C41.3499 41.7382 40.9303 41.3185 40.4124 41.3185Z" fill="#FA541C"/>
<path d="M50.9966 22.0358H51.869V22.9082C51.869 23.4259 52.2886 23.8457 52.8065 23.8457C53.3243 23.8457 53.744 23.4259 53.744 22.9082V22.0358H54.6163C55.1342 22.0358 55.5538 21.6161 55.5538 21.0983C55.5538 20.5806 55.1342 20.1608 54.6163 20.1608H53.744V19.2886C53.744 18.7708 53.3243 18.3511 52.8065 18.3511C52.2886 18.3511 51.869 18.7708 51.869 19.2886V20.1609H50.9966C50.4787 20.1609 50.0591 20.5807 50.0591 21.0984C50.0591 21.6162 50.4787 22.0358 50.9966 22.0358Z" fill="#FA541C"/>
</svg>
