<svg width="61" height="60" viewBox="0 0 61 60" fill="none" xmlns="http://www.w3.org/2000/svg">
<path d="M52.3741 26.2929C52.2813 26.2 52.171 26.1264 52.0497 26.0761C51.9284 26.0259 51.7983 26 51.667 26H37.667C36.3414 26.0015 35.0705 26.5288 34.1331 27.4661C33.1957 28.4035 32.6685 29.6744 32.667 31V55C32.6685 56.3256 33.1957 57.5965 34.1331 58.5339C35.0705 59.4712 36.3414 59.9985 37.667 60H55.667C56.9926 59.9985 58.2635 59.4712 59.2009 58.5339C60.1382 57.5965 60.6655 56.3256 60.667 55V35C60.667 34.8687 60.6411 34.7386 60.5909 34.6173C60.5406 34.496 60.467 34.3857 60.3741 34.2929L52.3741 26.2929ZM52.667 29.4141L57.2529 34H55.667C54.8716 33.9991 54.1091 33.6827 53.5467 33.1203C52.9843 32.5579 52.6679 31.7954 52.667 31V29.4141ZM58.667 55C58.6661 55.7954 58.3497 56.5579 57.7873 57.1203C57.2249 57.6827 56.4624 57.9991 55.667 58H37.667C36.8716 57.9991 36.1091 57.6827 35.5467 57.1203C34.9843 56.5579 34.6679 55.7954 34.667 55V31C34.6679 30.2046 34.9843 29.4421 35.5467 28.8797C36.1091 28.3173 36.8716 28.0009 37.667 28H50.667V31C50.6685 32.3256 51.1957 33.5965 52.1331 34.5339C53.0705 35.4712 54.3414 35.9985 55.667 36H58.667V55Z" fill="#FA541C"/>
<path d="M53.667 40H45.667C45.4018 40 45.1474 40.1054 44.9599 40.2929C44.7723 40.4804 44.667 40.7348 44.667 41C44.667 41.2652 44.7723 41.5196 44.9599 41.7071C45.1474 41.8946 45.4018 42 45.667 42H53.667C53.9322 42 54.1866 41.8946 54.3741 41.7071C54.5616 41.5196 54.667 41.2652 54.667 41C54.667 40.7348 54.5616 40.4804 54.3741 40.2929C54.1866 40.1054 53.9322 40 53.667 40Z" fill="#FA541C"/>
<path d="M39.667 48H47.667C47.9322 48 48.1866 47.8946 48.3741 47.7071C48.5616 47.5196 48.667 47.2652 48.667 47C48.667 46.7348 48.5616 46.4804 48.3741 46.2929C48.1866 46.1054 47.9322 46 47.667 46H39.667C39.4018 46 39.1474 46.1054 38.9599 46.2929C38.7723 46.4804 38.667 46.7348 38.667 47C38.667 47.2652 38.7723 47.5196 38.9599 47.7071C39.1474 47.8946 39.4018 48 39.667 48Z" fill="#FA541C"/>
<path d="M53.667 52H47.667C47.4018 52 47.1474 52.1054 46.9599 52.2929C46.7723 52.4804 46.667 52.7348 46.667 53C46.667 53.2652 46.7723 53.5196 46.9599 53.7071C47.1474 53.8946 47.4018 54 47.667 54H53.667C53.9322 54 54.1866 53.8946 54.3741 53.7071C54.5616 53.5196 54.667 53.2652 54.667 53C54.667 52.7348 54.5616 52.4804 54.3741 52.2929C54.1866 52.1054 53.9322 52 53.667 52Z" fill="#FA541C"/>
<path d="M39.667 42H41.667C41.9322 42 42.1866 41.8946 42.3741 41.7071C42.5616 41.5196 42.667 41.2652 42.667 41C42.667 40.7348 42.5616 40.4804 42.3741 40.2929C42.1866 40.1054 41.9322 40 41.667 40H39.667C39.4018 40 39.1474 40.1054 38.9599 40.2929C38.7723 40.4804 38.667 40.7348 38.667 41C38.667 41.2652 38.7723 41.5196 38.9599 41.7071C39.1474 41.8946 39.4018 42 39.667 42Z" fill="#FA541C"/>
<path d="M53.667 46H51.667C51.4018 46 51.1474 46.1054 50.9599 46.2929C50.7723 46.4804 50.667 46.7348 50.667 47C50.667 47.2652 50.7723 47.5196 50.9599 47.7071C51.1474 47.8946 51.4018 48 51.667 48H53.667C53.9322 48 54.1866 47.8946 54.3741 47.7071C54.5616 47.5196 54.667 47.2652 54.667 47C54.667 46.7348 54.5616 46.4804 54.3741 46.2929C54.1866 46.1054 53.9322 46 53.667 46Z" fill="#FA541C"/>
<path d="M43.667 52H39.667C39.4018 52 39.1474 52.1054 38.9599 52.2929C38.7723 52.4804 38.667 52.7348 38.667 53C38.667 53.2652 38.7723 53.5196 38.9599 53.7071C39.1474 53.8946 39.4018 54 39.667 54H43.667C43.9322 54 44.1866 53.8946 44.3741 53.7071C44.5616 53.5196 44.667 53.2652 44.667 53C44.667 52.7348 44.5616 52.4804 44.3741 52.2929C44.1866 52.1054 43.9322 52 43.667 52Z" fill="#FA541C"/>
<path d="M39.667 36H43.667C43.9322 36 44.1866 35.8946 44.3741 35.7071C44.5616 35.5196 44.667 35.2652 44.667 35C44.667 34.7348 44.5616 34.4804 44.3741 34.2929C44.1866 34.1054 43.9322 34 43.667 34H39.667C39.4018 34 39.1474 34.1054 38.9599 34.2929C38.7723 34.4804 38.667 34.7348 38.667 35C38.667 35.2652 38.7723 35.5196 38.9599 35.7071C39.1474 35.8946 39.4018 36 39.667 36Z" fill="#FA541C"/>
<path d="M5.66699 34H23.667C24.9926 33.9985 26.2635 33.4712 27.2009 32.5339C28.1382 31.5965 28.6655 30.3256 28.667 29V9C28.667 8.86868 28.6411 8.73864 28.5909 8.61731C28.5406 8.49598 28.467 8.38574 28.3741 8.29288L20.3741 0.292875C20.2813 0.200018 20.171 0.12636 20.0497 0.0761085C19.9284 0.0258568 19.7983 -4.78443e-06 19.667 6.63931e-10H5.66699C4.34137 0.00148882 3.07046 0.528751 2.1331 1.46611C1.19574 2.40347 0.668481 3.67437 0.666992 5V29C0.668481 30.3256 1.19574 31.5965 2.1331 32.5339C3.07046 33.4712 4.34137 33.9985 5.66699 34ZM20.667 3.41412L25.2529 8H23.667C22.8716 7.99907 22.1091 7.68271 21.5467 7.1203C20.9843 6.55789 20.6679 5.79537 20.667 5V3.41412ZM2.66699 5C2.66792 4.20463 2.98429 3.44211 3.54669 2.8797C4.1091 2.31729 4.87163 2.00093 5.66699 2H18.667V5C18.6685 6.32563 19.1957 7.59653 20.1331 8.53389C21.0705 9.47125 22.3414 9.99851 23.667 10H26.667V29C26.6661 29.7954 26.3497 30.5579 25.7873 31.1203C25.2249 31.6827 24.4624 31.9991 23.667 32H5.66699C4.87163 31.9991 4.1091 31.6827 3.54669 31.1203C2.98429 30.5579 2.66792 29.7954 2.66699 29V5Z" fill="#FA541C"/>
<path d="M13.667 16H21.667C21.9322 16 22.1866 15.8946 22.3741 15.7071C22.5616 15.5196 22.667 15.2652 22.667 15C22.667 14.7348 22.5616 14.4804 22.3741 14.2929C22.1866 14.1054 21.9322 14 21.667 14H13.667C13.4018 14 13.1474 14.1054 12.9599 14.2929C12.7723 14.4804 12.667 14.7348 12.667 15C12.667 15.2652 12.7723 15.5196 12.9599 15.7071C13.1474 15.8946 13.4018 16 13.667 16Z" fill="#FA541C"/>
<path d="M7.66699 22H15.667C15.9322 22 16.1866 21.8946 16.3741 21.7071C16.5616 21.5196 16.667 21.2652 16.667 21C16.667 20.7348 16.5616 20.4804 16.3741 20.2929C16.1866 20.1054 15.9322 20 15.667 20H7.66699C7.40178 20 7.14742 20.1054 6.95989 20.2929C6.77235 20.4804 6.66699 20.7348 6.66699 21C6.66699 21.2652 6.77235 21.5196 6.95989 21.7071C7.14742 21.8946 7.40178 22 7.66699 22Z" fill="#FA541C"/>
<path d="M21.667 26H15.667C15.4018 26 15.1474 26.1054 14.9599 26.2929C14.7723 26.4804 14.667 26.7348 14.667 27C14.667 27.2652 14.7723 27.5196 14.9599 27.7071C15.1474 27.8946 15.4018 28 15.667 28H21.667C21.9322 28 22.1866 27.8946 22.3741 27.7071C22.5616 27.5196 22.667 27.2652 22.667 27C22.667 26.7348 22.5616 26.4804 22.3741 26.2929C22.1866 26.1054 21.9322 26 21.667 26Z" fill="#FA541C"/>
<path d="M7.66699 16H9.66699C9.93221 16 10.1866 15.8946 10.3741 15.7071C10.5616 15.5196 10.667 15.2652 10.667 15C10.667 14.7348 10.5616 14.4804 10.3741 14.2929C10.1866 14.1054 9.93221 14 9.66699 14H7.66699C7.40178 14 7.14742 14.1054 6.95989 14.2929C6.77235 14.4804 6.66699 14.7348 6.66699 15C6.66699 15.2652 6.77235 15.5196 6.95989 15.7071C7.14742 15.8946 7.40178 16 7.66699 16Z" fill="#FA541C"/>
<path d="M21.667 20H19.667C19.4018 20 19.1474 20.1054 18.9599 20.2929C18.7723 20.4804 18.667 20.7348 18.667 21C18.667 21.2652 18.7723 21.5196 18.9599 21.7071C19.1474 21.8946 19.4018 22 19.667 22H21.667C21.9322 22 22.1866 21.8946 22.3741 21.7071C22.5616 21.5196 22.667 21.2652 22.667 21C22.667 20.7348 22.5616 20.4804 22.3741 20.2929C22.1866 20.1054 21.9322 20 21.667 20Z" fill="#FA541C"/>
<path d="M7.66699 28H11.667C11.9322 28 12.1866 27.8946 12.3741 27.7071C12.5616 27.5196 12.667 27.2652 12.667 27C12.667 26.7348 12.5616 26.4804 12.3741 26.2929C12.1866 26.1054 11.9322 26 11.667 26H7.66699C7.40178 26 7.14742 26.1054 6.95989 26.2929C6.77235 26.4804 6.66699 26.7348 6.66699 27C6.66699 27.2652 6.77235 27.5196 6.95989 27.7071C7.14742 27.8946 7.40178 28 7.66699 28Z" fill="#FA541C"/>
<path d="M7.66699 10H11.667C11.9322 10 12.1866 9.89464 12.3741 9.70711C12.5616 9.51957 12.667 9.26522 12.667 9C12.667 8.73478 12.5616 8.48043 12.3741 8.29289C12.1866 8.10536 11.9322 8 11.667 8H7.66699C7.40178 8 7.14742 8.10536 6.95989 8.29289C6.77235 8.48043 6.66699 8.73478 6.66699 9C6.66699 9.26522 6.77235 9.51957 6.95989 9.70711C7.14742 9.89464 7.40178 10 7.66699 10Z" fill="#FA541C"/>
<path d="M27.667 49.9997H15.667C13.8111 49.9977 12.0319 49.2595 10.7196 47.9472C9.40728 46.6349 8.66911 44.8556 8.66703 42.9997V41.414L10.9599 43.7069C11.0528 43.7997 11.163 43.8734 11.2843 43.9236C11.4057 43.9739 11.5357 43.9998 11.667 43.9998C11.7984 43.9998 11.9284 43.9739 12.0497 43.9236C12.171 43.8734 12.2813 43.7997 12.3742 43.7069C12.467 43.614 12.5407 43.5038 12.5909 43.3824C12.6412 43.2611 12.6671 43.1311 12.6671 42.9997C12.6671 42.8684 12.6412 42.7384 12.5909 42.617C12.5407 42.4957 12.467 42.3855 12.3742 42.2926L8.37415 38.2926C8.28129 38.1997 8.17105 38.1261 8.04972 38.0758C7.92839 38.0256 7.79835 37.9997 7.66703 37.9997C7.5357 37.9997 7.40566 38.0256 7.28433 38.0758C7.163 38.1261 7.05276 38.1997 6.9599 38.2926L2.9599 42.2926C2.77236 42.4801 2.667 42.7345 2.667 42.9997C2.667 43.265 2.77236 43.5193 2.9599 43.7069C3.14744 43.8944 3.4018 43.9998 3.66703 43.9998C3.93225 43.9998 4.18661 43.8944 4.37415 43.7069L6.66703 41.414V42.9997C6.66971 45.3859 7.61878 47.6735 9.30602 49.3607C10.9933 51.048 13.2809 51.9971 15.667 51.9997H27.667C27.9322 51.9997 28.1866 51.8944 28.3741 51.7068C28.5617 51.5193 28.667 51.2649 28.667 50.9997C28.667 50.7345 28.5617 50.4802 28.3741 50.2926C28.1866 50.1051 27.9322 49.9997 27.667 49.9997Z" fill="#FA541C"/>
<path d="M58.3741 16.2929C58.2813 16.2 58.171 16.1263 58.0497 16.0761C57.9284 16.0258 57.7983 16 57.667 16C57.5357 16 57.4056 16.0258 57.2843 16.0761C57.163 16.1263 57.0527 16.2 56.9599 16.2929L54.667 18.5858V17C54.6643 14.6139 53.7152 12.3262 52.028 10.639C50.3407 8.95175 48.0531 8.00268 45.667 8H33.667C33.4018 8 33.1474 8.10536 32.9599 8.29289C32.7723 8.48043 32.667 8.73478 32.667 9C32.667 9.26522 32.7723 9.51957 32.9599 9.70711C33.1474 9.89464 33.4018 10 33.667 10H45.667C47.5229 10.0021 49.3021 10.7403 50.6144 12.0526C51.9267 13.3649 52.6649 15.1441 52.667 17V18.5858L50.3741 16.2929C50.1866 16.1053 49.9322 16 49.667 16C49.4018 16 49.1474 16.1053 48.9599 16.2929C48.7723 16.4804 48.667 16.7348 48.667 17C48.667 17.2652 48.7723 17.5196 48.9599 17.7071L52.9599 21.7071C53.0527 21.8 53.163 21.8737 53.2843 21.9239C53.4056 21.9742 53.5357 22 53.667 22C53.7983 22 53.9284 21.9742 54.0497 21.9239C54.171 21.8737 54.2813 21.8 54.3741 21.7071L58.3741 17.7071C58.467 17.6143 58.5406 17.504 58.5909 17.3827C58.6412 17.2614 58.667 17.1313 58.667 17C58.667 16.8687 58.6412 16.7386 58.5909 16.6173C58.5406 16.496 58.467 16.3857 58.3741 16.2929Z" fill="#FA541C"/>
</svg>
