<svg width="55" height="60" viewBox="0 0 55 60" fill="none" xmlns="http://www.w3.org/2000/svg">
<path d="M54.3742 10.2928L44.3742 0.292846C44.1866 0.105343 43.9323 7.34787e-06 43.667 0H18.667C17.6065 0.00121318 16.5898 0.42303 15.8399 1.17291C15.0901 1.9228 14.6682 2.93951 14.667 4V33H16.667V4C16.6676 3.46975 16.8785 2.9614 17.2535 2.58646C17.6284 2.21151 18.1368 2.00061 18.667 2H42.667V8C42.6682 9.06049 43.0901 10.0772 43.8399 10.8271C44.5898 11.577 45.6065 11.9988 46.667 12H52.667V56C52.6664 56.5302 52.4555 57.0386 52.0806 57.4135C51.7056 57.7885 51.1973 57.9994 50.667 58H18.667C18.1751 58.0004 17.7004 57.8191 17.334 57.491L16 58.9812C16.7331 59.6378 17.6829 60.0006 18.667 60H50.667C51.7275 59.9988 52.7442 59.577 53.4941 58.8271C54.244 58.0772 54.6658 57.0605 54.667 56V11C54.667 10.7348 54.5617 10.4804 54.3742 10.2928ZM44.667 8V3.41419L51.2528 10H46.667C46.1368 9.99939 45.6284 9.78849 45.2535 9.41354C44.8785 9.0386 44.6676 8.53025 44.667 8Z" fill="#FA541C"/>
<path d="M18.667 4H22.667V6H18.667V4Z" fill="#FA541C"/>
<path d="M24.667 4H31.667V6H24.667V4Z" fill="#FA541C"/>
<path d="M18.667 8H24.667V10H18.667V8Z" fill="#FA541C"/>
<path d="M18.667 14H25.667V16H18.667V14Z" fill="#FA541C"/>
<path d="M27.667 14H35.667V16H27.667V14Z" fill="#FA541C"/>
<path d="M18.667 18H27.667V20H18.667V18Z" fill="#FA541C"/>
<path d="M23.667 22H33.667V24H23.667V22Z" fill="#FA541C"/>
<path d="M35.667 22H44.667V24H35.667V22Z" fill="#FA541C"/>
<path d="M46.667 22H50.667V24H46.667V22Z" fill="#FA541C"/>
<path d="M18.667 26H28.667V28H18.667V26Z" fill="#FA541C"/>
<path d="M30.667 26H39.667V28H30.667V26Z" fill="#FA541C"/>
<path d="M41.667 26H50.667V28H41.667V26Z" fill="#FA541C"/>
<path d="M18.667 30H33.667V32H18.667V30Z" fill="#FA541C"/>
<path d="M35.667 30H44.667V32H35.667V30Z" fill="#FA541C"/>
<path d="M46.667 30H50.667V32H46.667V30Z" fill="#FA541C"/>
<path d="M24.667 49C24.4018 49 24.1475 49.1054 23.9599 49.2929C23.7724 49.4804 23.667 49.7348 23.667 50V56C23.667 56.2652 23.7724 56.5196 23.9599 56.7071C24.1475 56.8946 24.4018 57 24.667 57H30.667C30.9322 57 31.1866 56.8946 31.3741 56.7071C31.5617 56.5196 31.667 56.2652 31.667 56V50C31.667 49.7348 31.5617 49.4804 31.3741 49.2929C31.1866 49.1054 30.9322 49 30.667 49H24.667ZM29.667 55H25.667V51H29.667V55Z" fill="#FA541C"/>
<path d="M33.667 56C33.667 56.2652 33.7724 56.5196 33.9599 56.7071C34.1475 56.8946 34.4018 57 34.667 57H40.667C40.9322 57 41.1866 56.8946 41.3741 56.7071C41.5617 56.5196 41.667 56.2652 41.667 56V45C41.667 44.7348 41.5617 44.4804 41.3741 44.2929C41.1866 44.1054 40.9322 44 40.667 44H34.667C34.4018 44 34.1475 44.1054 33.9599 44.2929C33.7724 44.4804 33.667 44.7348 33.667 45V56ZM35.667 46H39.667V55H35.667V46Z" fill="#FA541C"/>
<path d="M44.667 57H50.667C50.9322 57 51.1866 56.8946 51.3741 56.7071C51.5617 56.5196 51.667 56.2652 51.667 56V41C51.667 40.7348 51.5617 40.4804 51.3741 40.2929C51.1866 40.1054 50.9322 40 50.667 40H44.667C44.4018 40 44.1475 40.1054 43.9599 40.2929C43.7724 40.4804 43.667 40.7348 43.667 41V56C43.667 56.2652 43.7724 56.5196 43.9599 56.7071C44.1475 56.8946 44.4018 57 44.667 57ZM45.667 42H49.667V55H45.667V42Z" fill="#FA541C"/>
<path d="M2.667 45.9991C2.66977 43.6867 3.56152 41.4638 5.15768 39.7905C6.75384 38.1173 8.93221 37.1217 11.242 37.0099L9.95985 38.292L11.3742 39.7063L14.3742 36.7063C14.5617 36.5187 14.667 36.2644 14.667 35.9991C14.667 35.7339 14.5617 35.4796 14.3742 35.292L11.3742 32.292L9.95985 33.7063L11.261 35.0074C8.87594 35.0957 6.58424 35.9572 4.73171 37.4621C2.87917 38.9669 1.5663 41.0334 0.991166 43.3498C0.416034 45.6662 0.609846 48.1068 1.54336 50.3034C2.47687 52.5 4.09945 54.3334 6.16627 55.527L7.16773 53.7958C5.80147 53.003 4.66691 51.8659 3.87719 50.4979C3.08748 49.1299 2.67021 47.5787 2.667 45.9991Z" fill="#FA541C"/>
<path d="M22.667 46C22.6632 44.0697 22.1535 42.1742 21.1885 40.5024C20.2236 38.8306 18.8373 37.441 17.1677 36.4722L16.1663 38.2034C17.8507 39.1758 19.1749 40.6677 19.9404 42.4556C20.706 44.2436 20.8718 46.2314 20.4131 48.1215C19.9543 50.0116 18.8956 51.7022 17.3956 52.9403C15.8955 54.1783 14.0348 54.8972 12.092 54.9892L13.3742 53.7072L11.9599 52.2929L8.95986 55.2929C8.77233 55.4804 8.66698 55.7348 8.66698 56C8.66698 56.2652 8.77233 56.5196 8.95986 56.7072L11.9599 59.7072L13.3742 58.2929L12.073 56.9917C14.9169 56.8835 17.6086 55.6785 19.5836 53.6293C21.5586 51.5802 22.6636 48.846 22.667 46Z" fill="#FA541C"/>
<path d="M12.3742 46.7072C12.5617 46.5196 12.667 46.2652 12.667 46V41H10.667V45.5858L7.95988 48.2928L9.37418 49.7072L12.3742 46.7072Z" fill="#FA541C"/>
</svg>
