<svg width="64" height="64" viewBox="0 0 64 64" fill="none" xmlns="http://www.w3.org/2000/svg">
<g clip-path="url(#clip0_18484_12626)">
<path d="M55.0047 0H52.2531C51.0435 0 51.0435 1.87527 52.2531 1.87527H55.0047C57.8464 1.87527 60.1583 4.17885 60.1583 7.01026V28.7099C60.1583 31.5414 57.8465 33.845 55.0047 33.845H51.8839C51.678 33.845 51.4778 33.9128 51.3142 34.0379L45.5876 38.4183V34.7827C45.5876 34.2648 45.1679 33.845 44.65 33.845H33.2383C32.3038 33.845 31.4057 33.5984 30.6136 33.1294V22.6039C30.6136 20.6324 29.6094 18.8905 28.0846 17.86V7.01026C28.0846 4.17885 30.3965 1.87527 33.2383 1.87527H46.3772C47.5866 1.87527 47.5866 0 46.3772 0H33.2383C29.3625 0 26.2093 3.14483 26.2093 7.01026V17.0358C25.78 16.9333 25.3327 16.8774 24.8724 16.8774H7.70788C4.54229 16.8774 1.9668 19.4463 1.9668 22.6039V24.6286C1.9668 25.838 3.84207 25.838 3.84207 24.6286V22.6039C3.84207 20.4803 5.57619 18.7527 7.70788 18.7527H24.8725C27.0042 18.7527 28.7384 20.4803 28.7384 22.6039V33.5027C28.7272 33.5855 28.7277 33.6689 28.7384 33.751V39.7159C28.7384 39.8338 28.7313 39.9512 28.7207 40.0679H26.787C24.6563 40.0679 22.8801 41.6058 22.5118 43.6269C22.4265 43.6591 22.3446 43.7039 22.2687 43.7625L18.075 47.0005V44.5047C18.075 43.9869 17.6553 43.567 17.1374 43.567H7.70788C5.57619 43.567 3.84207 41.8394 3.84207 39.7159V30.2544C3.84207 29.0449 1.9668 29.0449 1.9668 30.2544V39.716C1.9668 42.8736 4.54229 45.4424 7.70788 45.4424H16.1999V48.9092C16.1999 49.6613 17.1131 50.1125 17.7106 49.6514L22.4406 45.9993V56.5477C22.4406 58.9386 24.3905 60.8837 26.7871 60.8837H32.5411V63.0716C32.5411 63.8235 33.4543 64.2752 34.0517 63.8139L37.8467 60.8837H38.9679C41.3645 60.8837 43.3144 58.9385 43.3144 56.5477V54.8829C43.3144 53.6735 41.4391 53.6735 41.4391 54.8829V56.5477C41.4391 57.9046 40.3306 59.0084 38.9679 59.0084H37.5268C37.3194 59.0084 37.1179 59.0772 36.9539 59.2038L34.4162 61.163V59.9459C34.4162 59.4281 33.9966 59.0083 33.4786 59.0083H26.787C25.4244 59.0083 24.3158 57.9044 24.3158 56.5476V44.404C24.3158 43.0471 25.4243 41.9433 26.787 41.9433H38.9679C40.3305 41.9433 41.4391 43.0472 41.4391 44.404V49.0071C41.4391 50.2165 43.3144 50.2165 43.3144 49.0071V44.4042C43.3144 42.0132 41.3645 40.0682 38.9679 40.0682H30.6029C30.6101 39.951 30.6137 35.2152 30.6137 35.2152C31.4404 35.5476 32.3268 35.7204 33.2384 35.7204H43.7125V40.3161C43.7125 41.0663 44.6218 41.518 45.2198 41.0608L52.2016 35.7204H55.0048C58.8805 35.7204 62.0337 32.5756 62.0337 28.71V7.01026C62.0336 3.14483 58.8804 0 55.0047 0V0Z" fill="#FA541C"/>
<path d="M46.4645 6.92751C45.274 6.62359 44.0608 7.56422 44.0608 8.7944C44.0608 10.1385 43.571 11.4338 42.6822 12.4411L40.0989 15.3644C39.9316 15.1077 39.6426 14.9378 39.3134 14.9378H34.2702C33.7522 14.9378 33.3325 15.3576 33.3325 15.8754V27.2227C33.3325 27.7405 33.7522 28.1603 34.2702 28.1603H39.3134C39.6923 28.1603 40.0179 27.9352 40.1658 27.6119C41.1868 28.2357 42.37 28.573 43.5738 28.573H52.4865C53.8485 28.573 54.972 27.3912 54.9081 26.0328C54.8798 25.4312 54.9108 17.3534 54.9108 17.174C54.9108 15.8373 53.8232 14.7496 52.4893 14.7496L47.8545 14.7358L48.0464 14.2813C48.9234 12.2044 48.779 9.79605 47.6606 7.83864C47.3996 7.38132 46.9746 7.0579 46.4645 6.92751C46.9746 7.0579 45.9542 6.79724 46.4645 6.92751C46.9746 7.0579 45.2741 6.62359 46.4645 6.92751ZM38.3758 26.2851H35.2078V16.8131H38.3758V26.2851ZM52.4865 16.6248C52.7893 16.6248 53.0356 16.8711 53.0356 17.1739C53.0356 17.3523 53.0337 17.8365 53.0312 18.4929C53.0174 22.1175 53.0081 25.5502 53.0349 26.1208C53.0446 26.3267 52.9445 26.464 52.884 26.5275C52.7792 26.6372 52.6381 26.6976 52.4865 26.6976H43.5738C42.5113 26.6976 41.4716 26.3294 40.6457 25.661L40.251 25.3414V18.024L44.088 13.6822C45.2797 12.3315 45.9361 10.5957 45.9361 8.79428C45.9361 8.74127 46.0085 8.72752 46.0325 8.76877C46.8629 10.2219 46.9699 12.0097 46.3189 13.5516L45.5789 15.3042C45.4568 15.5934 45.4875 15.9243 45.6604 16.1861C45.8336 16.4479 46.1261 16.6057 46.4398 16.6067L52.4865 16.6248Z" fill="#FA541C"/>
<path d="M9.99525 32.5663C9.4773 32.5663 9.05762 32.9861 9.05762 33.5039C9.05762 34.0217 9.4773 34.4416 9.99525 34.4416H12.7592L12.2428 37.5644C12.1583 38.0752 12.5041 38.5579 13.0149 38.6424C13.0668 38.651 13.1182 38.6552 13.169 38.6552C13.6195 38.6552 14.017 38.3295 14.093 37.8703L14.6598 34.4417H16.9218L16.4054 37.5645C16.3209 38.0753 16.6667 38.558 17.1775 38.6425C17.2294 38.6512 17.2808 38.6553 17.3316 38.6553C17.7821 38.6553 18.1796 38.3296 18.2556 37.8704L18.8224 34.4418H22.5846C23.1025 34.4418 23.5222 34.022 23.5222 33.5042C23.5222 32.9863 23.1025 32.5665 22.5846 32.5665H19.1324L19.5106 30.2792H22.5846C23.1025 30.2792 23.5222 29.8594 23.5222 29.3416C23.5222 28.8237 23.1025 28.4039 22.5846 28.4039H19.8207L20.337 25.2811C20.4215 24.7703 20.0757 24.2876 19.5649 24.2031C19.0534 24.1183 18.5714 24.4644 18.4869 24.9752L17.92 28.4038H15.6581L16.1744 25.281C16.2589 24.7702 15.9131 24.2875 15.4023 24.203C14.8902 24.1182 14.4089 24.4642 14.3243 24.9751L13.7574 28.4037H9.99525C9.4773 28.4037 9.05762 28.8235 9.05762 29.3413C9.05762 29.8591 9.4773 30.279 9.99525 30.279H13.4474L13.0692 32.5663H9.99525ZM15.3482 30.279H17.6101L17.2319 32.5663H14.97L15.3482 30.279Z" fill="#FA541C"/>
<path d="M32.8659 46.7817C32.1088 46.1584 31.1015 45.9125 30.0911 46.1581C28.7963 46.4726 27.4897 47.683 27.4897 49.6782C27.4897 50.92 27.9429 51.9979 28.8752 52.9735C29.6367 53.7705 30.7356 54.5284 32.4381 55.431C32.5755 55.5039 32.7264 55.5403 32.8773 55.5403C33.0282 55.5403 33.1791 55.5039 33.3165 55.431C36.2867 53.8564 38.2647 52.2755 38.2647 49.6782C38.2647 47.6721 36.9118 46.4741 35.5708 46.1766C34.5634 45.9531 33.5868 46.1904 32.8659 46.7817ZM36.3893 49.6782C36.3893 51.0791 35.46 52.1151 32.8772 53.537C30.2943 52.115 29.3649 51.079 29.3649 49.6782C29.3649 48.6358 29.9685 48.1177 30.5334 47.9804C30.6376 47.9552 30.7491 47.9409 30.8637 47.9409C31.2887 47.9409 31.7559 48.1372 32.0439 48.6956C32.2081 49.0134 32.5399 49.2105 32.8958 49.2031C33.2532 49.196 33.5756 48.9862 33.7268 48.6621C34.0302 48.0118 34.6683 47.8974 35.1644 48.0075C35.7567 48.1387 36.3893 48.6466 36.3893 49.6782Z" fill="#FA541C"/>
</g>
<defs>
<clipPath id="clip0_18484_12626">
<rect width="64" height="64" fill="white"/>
</clipPath>
</defs>
</svg>
