<svg width="60" height="60" viewBox="0 0 60 60" fill="none" xmlns="http://www.w3.org/2000/svg">
<path d="M59.7098 11.29L48.7098 0.29C48.5191 0.105804 48.2649 0.00197429 47.9998 0H22.9998C22.2049 0.00237409 21.4432 0.319207 20.8811 0.881302C20.319 1.4434 20.0022 2.20508 19.9998 3V9.05C14.6134 9.30247 9.5311 11.62 5.80844 15.5212C2.08578 19.4224 0.00878906 24.6076 0.00878906 30C0.00878906 35.3924 2.08578 40.5776 5.80844 44.4788C9.5311 48.3801 14.6134 50.6975 19.9998 50.95V57C20.0022 57.7949 20.319 58.5566 20.8811 59.1187C21.4432 59.6808 22.2049 59.9976 22.9998 60H56.9998C57.7948 59.9976 58.5564 59.6808 59.1185 59.1187C59.6806 58.5566 59.9975 57.7949 59.9998 57V12C59.9979 11.7349 59.894 11.4807 59.7098 11.29ZM48.9998 3.41L56.5898 11H49.9998C49.7346 11 49.4803 10.8946 49.2927 10.7071C49.1052 10.5196 48.9998 10.2652 48.9998 10V3.41ZM1.99984 30C2.00635 25.1363 3.87557 20.4598 7.22335 16.9316C10.5711 13.4034 15.1432 11.2916 19.9998 11.03V29.59L6.89984 42.69C3.74635 39.2159 1.99953 34.6919 1.99984 30ZM8.30984 44.1L21.4098 31H39.9698C39.7877 34.5832 38.5927 38.0412 36.5238 40.9725C34.4548 43.9037 31.5968 46.1878 28.2815 47.5596C24.9662 48.9313 21.3299 49.3344 17.7947 48.722C14.2595 48.1096 10.9705 46.5069 8.30984 44.1ZM57.9998 57C57.9998 57.2652 57.8945 57.5196 57.7069 57.7071C57.5194 57.8946 57.2651 58 56.9998 58H22.9998C22.7346 58 22.4803 57.8946 22.2927 57.7071C22.1052 57.5196 21.9998 57.2652 21.9998 57V50.95C27.3844 50.6899 32.4631 48.3703 36.1856 44.471C39.9081 40.5717 41.9897 35.3909 41.9998 30C41.9998 29.7348 41.8945 29.4804 41.7069 29.2929C41.5194 29.1054 41.2651 29 40.9998 29H21.9998V3C21.9998 2.73478 22.1052 2.48043 22.2927 2.29289C22.4803 2.10536 22.7346 2 22.9998 2H46.9998V10C47.0022 10.7949 47.319 11.5566 47.8811 12.1187C48.4432 12.6808 49.2049 12.9976 49.9998 13H57.9998V57Z" fill="#FA541C"/>
<path d="M24.9998 5C24.7346 5 24.4802 5.10536 24.2927 5.29289C24.1051 5.48043 23.9998 5.73478 23.9998 6V26C23.9998 26.2652 24.1051 26.5196 24.2927 26.7071C24.4802 26.8946 24.7346 27 24.9998 27H44.9998C45.265 27 45.5193 26.8946 45.7069 26.7071C45.8944 26.5196 45.9998 26.2652 45.9998 26C45.9937 20.4323 43.7792 15.0944 39.8423 11.1575C35.9053 7.22054 30.5674 5.00609 24.9998 5ZM25.9998 25V7.03C30.6841 7.28152 35.1101 9.25553 38.4272 12.5726C41.7442 15.8897 43.7183 20.3157 43.9698 25H25.9998Z" fill="#FA541C"/>
<path d="M46.9997 38C45.2197 38 43.4796 38.5278 41.9996 39.5168C40.5196 40.5057 39.366 41.9113 38.6848 43.5559C38.0036 45.2004 37.8254 47.01 38.1727 48.7558C38.5199 50.5016 39.3771 52.1053 40.6358 53.364C41.8944 54.6226 43.4981 55.4798 45.2439 55.8271C46.9897 56.1743 48.7993 55.9961 50.4439 55.3149C52.0884 54.6337 53.494 53.4802 54.483 52.0001C55.4719 50.5201 55.9997 48.78 55.9997 47C55.996 44.6142 55.0466 42.3272 53.3596 40.6401C51.6726 38.9531 49.3855 38.0037 46.9997 38ZM46.9997 54C45.6153 54 44.2619 53.5895 43.1107 52.8203C41.9596 52.0511 41.0624 50.9579 40.5326 49.6788C40.0028 48.3997 39.8641 46.9922 40.1342 45.6344C40.4043 44.2765 41.071 43.0292 42.05 42.0503C43.0289 41.0713 44.2762 40.4046 45.6341 40.1345C46.992 39.8644 48.3994 40.003 49.6785 40.5328C50.9576 41.0627 52.0508 41.9599 52.82 43.111C53.5892 44.2622 53.9997 45.6155 53.9997 47C53.9976 48.8559 53.2594 50.6351 51.9471 51.9474C50.6348 53.2597 48.8556 53.9979 46.9997 54Z" fill="#FA541C"/>
<path d="M44.9998 48.5862L42.7068 46.2932L41.2928 47.7072L44.2928 50.7072C44.4803 50.8947 44.7346 51 44.9998 51C45.2649 51 45.5192 50.8947 45.7068 50.7072L51.7068 44.7072L50.2928 43.2932L44.9998 48.5862Z" fill="#FA541C"/>
<path d="M47.9998 17H55.9998V19H47.9998V17Z" fill="#FA541C"/>
<path d="M47.9998 23H55.9998V25H47.9998V23Z" fill="#FA541C"/>
<path d="M47.9998 29H55.9998V31H47.9998V29Z" fill="#FA541C"/>
</svg>
