<svg width="59" height="52" viewBox="0 0 59 52" fill="none" xmlns="http://www.w3.org/2000/svg">
<path d="M8.16156 18.172L18.5056 7.828M34.5056 18.172L24.1616 7.828M40.1616 18.172L50.5056 7.828M1.3335 38H9.3335V51H1.3335V38ZM33.3335 37H41.3335V51H33.3335V37ZM17.3335 21H25.3335V51H17.3335V21ZM49.3335 21H57.3335V51H49.3335V21ZM9.3335 21C9.3335 23.2091 7.54263 25 5.3335 25C3.12436 25 1.3335 23.2091 1.3335 21C1.3335 18.7909 3.12436 17 5.3335 17C7.54263 17 9.3335 18.7909 9.3335 21ZM41.3335 21C41.3335 23.2091 39.5426 25 37.3335 25C35.1244 25 33.3335 23.2091 33.3335 21C33.3335 18.7909 35.1244 17 37.3335 17C39.5426 17 41.3335 18.7909 41.3335 21ZM25.3335 5C25.3335 7.20914 23.5426 9 21.3335 9C19.1244 9 17.3335 7.20914 17.3335 5C17.3335 2.79086 19.1244 1 21.3335 1C23.5426 1 25.3335 2.79086 25.3335 5ZM57.3335 5C57.3335 7.20914 55.5426 9 53.3335 9C51.1244 9 49.3335 7.20914 49.3335 5C49.3335 2.79086 51.1244 1 53.3335 1C55.5426 1 57.3335 2.79086 57.3335 5Z" stroke="#FA541C" stroke-width="2" stroke-miterlimit="10"/>
</svg>
