<svg width="366" height="366" viewBox="0 0 366 366" fill="none" xmlns="http://www.w3.org/2000/svg">
<path d="M315.751 306.862C269.339 360.251 164.29 358.661 141.769 350.221C9.48538 345.666 -22.0684 193.795 42.7295 93.9797C75.8902 36.2827 185.753 -33.808 295.361 50.9245C366.225 107.235 380.8 241.745 315.751 306.862Z" fill="#919EAB" fill-opacity="0.08"/>
<path d="M319.683 270.625C333.579 277.303 344.183 254.494 329.882 248.411C330.903 245.119 331.682 241.757 332.211 238.352C348.024 238.201 348.637 212.204 331.708 214.437C331.05 211.171 330.14 207.96 328.988 204.833C343.139 196.422 331.283 174.407 317.136 185.133C314.975 182.747 312.618 180.548 310.089 178.558C313.143 172.697 317.965 165.084 312.05 162.305C298.52 155.828 293.163 161.57 290.019 168.37C286.919 167.504 283.752 166.9 280.551 166.565C280.306 160.224 282.745 155.074 276.038 155.21C261.601 155.044 257.056 161.182 257.652 168.63C254.447 169.546 251.318 170.708 248.293 172.105C240.095 157.118 219.48 172.973 228.695 185.818C226.26 188.257 224.006 190.872 221.953 193.641C208.056 185.454 196.116 208.998 210.922 215.375C209.9 218.666 209.122 222.028 208.593 225.434C192.78 225.584 192.167 251.581 209.096 249.347C209.754 252.614 210.663 255.826 211.816 258.952C205.786 262.42 203.58 270.551 207.073 276.28C210.365 281.741 221.258 284.275 226.685 280.467C226.963 280.272 223.404 278.866 223.662 278.653C225.822 281.039 228.18 283.238 230.709 285.228C221.987 300.35 243.733 311.376 250.781 295.415C253.881 296.281 257.048 296.885 260.249 297.221C259.949 314.98 284.716 311.533 283.146 295.155C286.351 294.239 289.479 293.078 292.505 291.68C300.718 306.668 321.327 290.812 312.117 277.968C314.553 275.528 316.806 272.914 318.859 270.145C319.121 270.314 319.395 270.478 319.683 270.625ZM250.296 271.518C202.553 247.051 242.588 168.173 290.517 192.269C338.259 216.734 298.223 295.619 250.296 271.518Z" fill="#C4CDD5"/>
<path d="M333.181 238.316C348.313 236.946 348.046 212.199 331.71 214.437C331.052 211.17 330.143 207.96 328.99 204.833C350.111 190.957 333.506 171.349 317.139 185.133C314.978 182.747 312.62 180.547 310.091 178.556C312.182 175.227 312.543 171.015 311.317 167.682C306.071 176.917 300.903 186.197 295.813 195.522C329.828 219.267 305.695 279.71 264.915 275.553C262.266 282.738 258.989 289.649 255.629 296.54C257.166 296.83 258.709 297.057 260.257 297.219C259.98 304.485 263.897 310.471 275.899 309.885C282.586 309.612 283.554 301.773 283.155 295.155C286.359 294.239 289.488 293.077 292.514 291.68C301.513 304.635 326.16 299.051 312.117 277.967C314.553 275.528 316.806 272.913 318.859 270.145C332.757 278.331 344.697 254.787 329.891 248.41C330.912 245.119 331.69 241.757 332.22 238.352C332.536 238.351 332.856 238.346 333.181 238.316Z" fill="#C4CDD5"/>
<path d="M325.669 271.304C339.566 277.983 350.171 255.172 335.869 249.089C336.89 245.797 337.668 242.436 338.198 239.03C354.01 238.88 354.623 212.883 337.695 215.117C337.036 211.85 336.127 208.639 334.974 205.512C349.125 197.1 337.271 175.087 323.122 185.812C320.962 183.426 318.605 181.226 316.075 179.236C324.798 164.114 303.051 153.088 296.003 169.05C292.903 168.183 289.736 167.579 286.535 167.244C286.836 149.485 262.069 152.931 263.638 169.31C260.433 170.225 257.305 171.387 254.279 172.785C246.081 157.796 225.466 173.651 234.682 186.496C232.246 188.936 229.993 191.55 227.94 194.319C214.042 186.132 202.103 209.678 216.908 216.054C215.887 219.346 215.108 222.708 214.579 226.113C198.767 226.263 198.154 252.259 215.083 250.027C215.74 253.294 216.65 256.505 217.803 259.632C203.652 268.043 215.507 290.057 229.655 279.331C231.815 281.717 234.172 283.917 236.702 285.907C227.979 301.03 249.725 312.055 256.774 296.094C259.873 296.96 263.04 297.564 266.241 297.899C265.941 315.658 290.709 312.212 289.139 295.834C292.343 294.918 295.472 293.756 298.497 292.359C306.697 307.346 327.31 291.492 318.096 278.647C320.531 276.207 322.785 273.592 324.838 270.823C325.11 270.992 325.381 271.158 325.669 271.304ZM256.283 272.197C208.54 247.731 248.576 168.851 296.504 192.948C344.246 217.414 304.21 296.292 256.283 272.197Z" fill="#DFE3E8"/>
<path d="M352.093 67.1667C338.445 8.11771 211.727 -15.2933 172.919 51.3224C156.288 91.5166 200.588 158.482 255.599 160.223C256.45 171.301 244.751 180.851 244.751 180.851C270.917 183.951 287.155 165.982 295.782 151.686C331.492 134.976 357.661 97.1662 352.093 67.1667Z" fill="#22B8CF"/>
<path opacity="0.24" d="M352.094 67.1658C343.541 23.1117 270.386 1.95487 221.966 15.9385C196.089 69.6517 307.744 87.3751 305.621 113.387C303.891 127.812 271.633 134.519 270.152 158.353C269.887 162.612 270.737 165.302 268.886 169.12C265.396 176.317 256.147 179.604 245.883 180.966C271.387 183.425 287.281 165.767 295.783 151.681C331.493 134.975 357.662 97.1653 352.094 67.1658Z" fill="#116E95"/>
<path d="M224.498 155.184C225.082 140.397 225.374 132.998 222.309 127.448C205.897 100.983 169.415 109.444 153.551 126.482C143.827 134.572 145.508 137.119 139.769 139.827C123.907 147.304 110.437 128.182 87.4352 127.841C62.0617 127.473 43.0427 150.236 38.4632 156.18C-4.46449 226.329 50.1926 283.565 105.944 286.534C168.71 286.13 139.318 258.669 157.331 228.132C159.047 225.584 164.257 217.862 173.889 212.851C184.769 207.191 191.024 210.332 202.289 203.998C224.303 188.54 222.627 182.217 224.498 155.184Z" fill="#B3200E"/>
<path d="M30.959 237.94C93.5627 303.177 71.3763 249.003 92.538 234.613C104.634 227.609 116.417 240.345 127.313 233.73C141.085 225.369 129.029 200.911 142.379 188.175C168.588 169.214 213.26 212.519 224.568 153.363C222.655 180.876 225.038 188.23 202.284 203.999C191.018 210.332 184.762 207.186 173.882 212.851C164.25 217.862 159.043 225.584 157.326 228.133C145.029 246.375 155.145 261.205 145.97 274.03C112.622 304.671 49.0795 278.248 30.959 237.94Z" fill="#770508"/>
<path d="M319.161 213.173C319.161 213.173 322.53 209.145 328.85 208.955C335.17 208.765 343.783 205.015 347.482 204.685C348.374 204.605 348.817 204.348 348.893 204.023C349.049 203.352 344.943 202.374 341.302 202.253C334.843 202.038 331.076 204.516 330.206 203.242C329.233 201.819 333.4 197.932 332.637 197.062C332.045 196.386 329.211 198.553 326.178 199.874C324.025 200.811 315.604 210.882 315.604 210.882L319.161 213.173Z" fill="#FDBAB9"/>
<path d="M319.368 205.863C320.935 209.023 322.501 212.185 324.069 215.349C314.263 269.283 264.341 336.803 206.677 281.222C184.093 265.363 184 241.11 202.154 217.43C207.752 209.953 219.402 211.562 222.711 220.298C227.932 234.081 236.737 243.653 246.852 245.524C270.521 246.442 279.54 233.474 296.314 220.333C303.507 214.767 311.229 209.921 319.368 205.863Z" fill="#FA541C"/>
<path opacity="0.24" d="M226.741 276.772C235.455 274.81 238.745 266.72 250.69 265.992C265.795 265.075 272.285 277.3 281.947 274.082C289.833 271.451 291.141 261.426 296.642 248.523C300.906 238.513 308.303 225.344 322.09 211.365L324.067 215.354C314.242 269.326 264.339 336.791 206.675 281.227C197.916 273.973 190.103 266.273 189.121 254.693C207.14 275.259 218.918 278.533 226.741 276.772Z" fill="#B3200E"/>
<path d="M224.927 348.817C225.334 335.298 226.134 315.252 228.186 305.462C233.512 280.053 239.998 273.622 238.261 257.309C234.745 233.219 221.345 216.272 208.245 203.586C192.936 200.982 189.84 199.886 173.78 207.921C120.008 234.23 114.268 317.418 116.189 345.311C127.027 348.913 140.437 352.016 156.471 353.386C152.58 325.438 153.996 307.034 159.903 284.653C166.186 307.288 167.503 325.546 168.707 354.062C185.081 354.481 203.806 353.08 224.927 348.817Z" fill="#FA541C"/>
<path opacity="0.24" d="M203.654 328.769C209.526 307.957 227.791 294.917 223.287 287.413C219.242 280.671 203.975 290.328 190.354 281.597C175.271 271.928 180.057 251.15 169.455 247.993C159.195 244.94 141.393 260.446 137.156 278.366C133.524 307.324 154.706 317.314 125.924 348.193C134.763 350.513 144.934 352.398 156.471 353.384C152.579 325.436 153.996 307.033 159.903 284.651C166.185 307.286 167.503 325.544 168.707 354.061C179.027 354.325 190.28 353.865 202.489 352.421C201.287 344.724 201.408 336.728 203.654 328.769Z" fill="#B3200E"/>
<path d="M205.598 177.072C205.598 177.072 206.048 188.656 205.598 196.432C205.268 202.125 210.191 205.367 210.191 205.367C210.191 205.367 212.888 209.998 198.277 210.772C183.666 211.547 169.436 210.772 169.436 210.772C169.436 210.772 183.727 201.267 186.992 198.74C190.258 196.214 192.009 177.33 189.918 165.367L205.598 177.072Z" fill="#FDBAB9"/>
<path d="M209.338 139.701C209.338 139.701 216.777 157.637 216.738 168.476C216.698 179.314 209.119 185.533 203.377 182.858C197.634 180.182 188.969 168.91 188.969 168.91C181.92 177.083 172.887 147.78 184.287 153.67C179.032 134.451 206.414 126.447 209.338 139.701Z" fill="#FDBAB9"/>
<path d="M197.063 177.918C186.779 177.918 181.396 161.974 183.212 161.955C185.031 161.536 187.097 178.665 199.369 176.202C200.279 175.983 200.609 177.428 199.686 177.618C198.825 177.814 197.946 177.915 197.063 177.918Z" fill="#116E95"/>
<path d="M206.257 175.528C206.953 178.109 199.659 180.005 199.009 177.413C198.314 174.831 205.608 172.935 206.257 175.528Z" fill="#116E95"/>
<path d="M185.488 159.51C187.254 166.668 180.658 168.381 178.715 161.271C176.949 154.113 183.544 152.4 185.488 159.51Z" fill="#116E95"/>
<path d="M69.1712 63.7902C77.4218 28.0933 154.025 13.943 177.483 54.2096C187.534 78.5068 160.757 118.988 127.502 120.041C126.988 126.737 134.06 132.509 134.06 132.509C118.247 134.383 108.426 123.522 103.212 114.879C81.6238 104.781 65.8052 81.9267 69.1712 63.7902Z" fill="#FFC81A"/>
<path d="M113.037 72.1406C112.756 80.4636 100.495 79.8115 100.502 71.7055C100.795 63.3874 113.035 64.0518 113.037 72.1406Z" fill="#B7860D"/>
<path d="M134.241 72.8749C133.976 81.1243 121.96 80.4649 121.955 72.4483C122.23 64.2026 134.229 64.8755 134.241 72.8749Z" fill="#B7860D"/>
<path d="M155.026 73.5982C154.781 81.7741 142.999 81.1085 142.983 73.1802C143.243 65.0056 155.003 65.6859 155.026 73.5982Z" fill="#B7860D"/>
<path d="M243.336 97.845H219.138V93.0437C221.765 90.0124 232.333 79.6105 234.037 76.3879C235.517 74.059 235.587 70.9296 233.977 69.0529C233.184 68.154 232.052 67.7046 230.583 67.7046C227.219 67.6813 225.435 70.3731 225.467 73.6447H218.436C218.713 56.0083 249.148 59.3559 240.838 77.4029C239.212 81.2322 231.241 88.7792 228.153 92.1955H243.331L243.336 97.845Z" fill="#D2FCF4"/>
<path d="M268.359 84.5567H272.358V90.2062H268.359V97.844H261.351V90.2062H246.876L246.561 85.7934L261.277 62.5419H268.359V84.5567ZM253.544 84.5567H261.351V72.0955L260.89 72.8947L253.544 84.5567Z" fill="#D2FCF4"/>
<path d="M278.613 100.874H273.4L286.393 62.5419H291.606L278.613 100.874Z" fill="#D2FCF4"/>
<path d="M318.667 66.4533L305.016 97.844H297.621L311.296 68.1914H293.742V62.5419H318.667V66.4533Z" fill="#D2FCF4"/>
</svg>
