<svg width="20" height="26" viewBox="0 0 20 26" fill="none" xmlns="http://www.w3.org/2000/svg">
<path d="M10 14.75C9.13472 14.75 8.28886 14.4934 7.56939 14.0127C6.84993 13.5319 6.28917 12.8487 5.95804 12.0492C5.6269 11.2498 5.54027 10.3701 5.70908 9.52148C5.87789 8.67281 6.29456 7.89326 6.90642 7.28141C7.51827 6.66955 8.29782 6.25287 9.14649 6.08406C9.99516 5.91525 10.8748 6.00189 11.6743 6.33303C12.4737 6.66416 13.157 7.22491 13.6377 7.94438C14.1184 8.66384 14.375 9.50971 14.375 10.375C14.3737 11.5349 13.9123 12.6469 13.0921 13.4671C12.272 14.2873 11.1599 14.7487 10 14.75ZM10 7.75C9.48084 7.75 8.97332 7.90395 8.54164 8.19239C8.10996 8.48083 7.77351 8.8908 7.57483 9.37045C7.37615 9.85011 7.32416 10.3779 7.42545 10.8871C7.52674 11.3963 7.77674 11.864 8.14386 12.2312C8.51097 12.5983 8.9787 12.8483 9.4879 12.9496C9.9971 13.0508 10.5249 12.9989 11.0046 12.8002C11.4842 12.6015 11.8942 12.265 12.1826 11.8334C12.4711 11.4017 12.625 10.8942 12.625 10.375C12.6242 9.67904 12.3474 9.0118 11.8553 8.51969C11.3632 8.02757 10.696 7.75076 10 7.75Z" fill="#212B36"/>
<path d="M10 25.25L2.61895 16.5449C2.57703 16.4949 2.31427 16.1498 2.31427 16.1498C1.05331 14.489 0.372054 12.4603 0.37501 10.375C0.37501 7.82229 1.38907 5.37414 3.19411 3.5691C4.99914 1.76406 7.4473 0.75 10 0.75C12.5527 0.75 15.0009 1.76406 16.8059 3.5691C18.611 5.37414 19.625 7.82229 19.625 10.375C19.6281 12.4594 18.9474 14.4873 17.6871 16.1476L17.6857 16.1498C17.6857 16.1498 17.4232 16.4949 17.3841 16.5413L10 25.25ZM3.71095 15.0956C3.71182 15.0962 3.91517 15.3653 3.96172 15.4232L10 22.5444L16.0463 15.4132C16.0847 15.3649 16.2898 15.0939 16.2902 15.0932C17.3203 13.7361 17.877 12.0787 17.875 10.375C17.875 8.28642 17.0453 6.28338 15.5685 4.80653C14.0916 3.32968 12.0886 2.5 10 2.5C7.91143 2.5 5.90839 3.32968 4.43154 4.80653C2.95469 6.28338 2.12501 8.28642 2.12501 10.375C2.12307 12.0797 2.68018 13.7379 3.71095 15.0956Z" fill="#212B36"/>
</svg>
