<svg width="16" height="15" viewBox="0 0 16 15" fill="none" xmlns="http://www.w3.org/2000/svg">
<path d="M12.875 14.999H1.625C1.32675 14.9986 1.04084 14.88 0.829949 14.6691C0.619057 14.4582 0.500402 14.1723 0.5 13.874V2.62402C0.500402 2.32578 0.619057 2.03986 0.829949 1.82897C1.04084 1.61808 1.32675 1.49943 1.625 1.49902H7.25V2.62402H1.625V13.874H12.875V8.24902H14V13.874C13.9996 14.1723 13.8809 14.4582 13.6701 14.6691C13.4592 14.88 13.1732 14.9986 12.875 14.999Z" fill="#FA541C"/>
<path d="M9.5 0.374023V1.49902H13.2046L8.375 6.32865L9.17037 7.12402L14 2.2944V5.99902H15.125V0.374023H9.5Z" fill="#FA541C"/>
</svg>
