<svg width="26" height="18" viewBox="0 0 26 18" fill="none" xmlns="http://www.w3.org/2000/svg">
<path d="M23.5 0.0540771H2.5C2.03587 0.0540771 1.59075 0.238452 1.26256 0.56664C0.934374 0.894829 0.75 1.33995 0.75 1.80408V15.8041C0.75 16.2682 0.934374 16.7133 1.26256 17.0415C1.59075 17.3697 2.03587 17.5541 2.5 17.5541H23.5C23.9641 17.5541 24.4092 17.3697 24.7374 17.0415C25.0656 16.7133 25.25 16.2682 25.25 15.8041V1.80408C25.25 1.33995 25.0656 0.894829 24.7374 0.56664C24.4092 0.238452 23.9641 0.0540771 23.5 0.0540771ZM21.575 1.80408L13 7.73658L4.425 1.80408H21.575ZM2.5 15.8041V2.60033L12.5013 9.52158C12.6477 9.62319 12.8217 9.67764 13 9.67764C13.1783 9.67764 13.3523 9.62319 13.4987 9.52158L23.5 2.60033V15.8041H2.5Z" fill="#212B36"/>
</svg>
