<svg width="14" height="24" viewBox="0 0 14 24" fill="none" xmlns="http://www.w3.org/2000/svg">
<path d="M12.25 0.5H1.75C1.28601 0.500463 0.841163 0.684987 0.513075 1.01307C0.184987 1.34116 0.000463292 1.78601 0 2.25V21.5C0.000532642 21.964 0.185079 22.4088 0.513152 22.7368C0.841225 23.0649 1.28603 23.2495 1.75 23.25H12.25C12.7139 23.2494 13.1587 23.0648 13.4867 22.7367C13.8148 22.4087 13.9994 21.9639 14 21.5V2.25C13.9995 1.78603 13.8149 1.34122 13.4868 1.01315C13.1588 0.685078 12.714 0.500533 12.25 0.5ZM12.25 2.25V4H1.75V2.25H12.25ZM1.75 21.5V5.75H12.25V21.5H1.75Z" fill="#212B36"/>
</svg>
