<svg width="26" height="26" viewBox="0 0 26 26" fill="none" xmlns="http://www.w3.org/2000/svg">
<path d="M13 25.25C10.5772 25.25 8.20877 24.5316 6.19427 23.1855C4.17977 21.8395 2.60965 19.9263 1.68248 17.6879C0.755308 15.4495 0.512717 12.9864 0.985386 10.6102C1.45805 8.23388 2.62475 6.05114 4.33795 4.33795C6.05114 2.62475 8.23388 1.45805 10.6102 0.985386C12.9864 0.512717 15.4495 0.755308 17.6879 1.68248C19.9263 2.60965 21.8395 4.17977 23.1855 6.19427C24.5316 8.20877 25.25 10.5772 25.25 13C25.25 16.2489 23.9594 19.3647 21.6621 21.6621C19.3647 23.9594 16.2489 25.25 13 25.25ZM13 2.50001C10.9233 2.50001 8.89324 3.11582 7.16652 4.26957C5.4398 5.42333 4.09399 7.06321 3.29927 8.98183C2.50455 10.9005 2.29662 13.0117 2.70176 15.0485C3.10691 17.0853 4.10693 18.9562 5.57538 20.4246C7.04384 21.8931 8.91476 22.8931 10.9516 23.2983C12.9884 23.7034 15.0996 23.4955 17.0182 22.7007C18.9368 21.906 20.5767 20.5602 21.7304 18.8335C22.8842 17.1068 23.5 15.0767 23.5 13C23.5 10.2152 22.3938 7.54452 20.4246 5.57538C18.4555 3.60625 15.7848 2.50001 13 2.50001Z" fill="#212B36"/>
<path d="M17.0163 18.25L12.125 13.3588V5.12501H13.875V12.6325L18.25 17.0163L17.0163 18.25Z" fill="#212B36"/>
</svg>
