<svg width="466" height="467" viewBox="0 0 466 467" fill="none" xmlns="http://www.w3.org/2000/svg">
<path fill-rule="evenodd" clip-rule="evenodd" d="M239.494 454.498C212.7 454.498 192.231 450.807 184.067 449.175C154.461 443.251 97.2314 431.803 55.8555 383.876C-6.74278 311.365 3.00464 197.127 51.56 121.719C55.3606 115.815 66.1282 98.4173 84.6729 79.4835C84.7997 79.7609 85.0323 79.9917 85.3423 80.1114C86.5651 80.5835 87.7847 81.1144 88.9677 81.6898C89.1419 81.7744 89.3266 81.8146 89.5085 81.8146C89.9136 81.8146 90.3048 81.6154 90.5349 81.2667C90.5611 81.2272 90.5849 81.1857 90.6069 81.1423C90.9061 80.5453 90.6572 79.8222 90.0513 79.5274C88.8145 78.9263 87.5396 78.371 86.262 77.8767C103.459 60.654 127.053 42.4035 157.663 30.5176C145.725 37.6171 134.829 46.9439 126.123 57.7703C125.929 57.8673 125.782 58.0454 125.729 58.2629C109.049 79.2556 100.605 105.8 108.684 132.671C109.419 135.116 110.309 137.661 111.35 140.242C111.274 140.425 111.195 140.606 111.115 140.788C110.847 141.4 111.134 142.109 111.754 142.373C111.913 142.439 112.076 142.471 112.238 142.471C112.254 142.471 112.269 142.471 112.283 142.471C117.828 155.227 126.978 168.312 139.141 173.538C140.38 174.07 141.648 174.519 142.94 174.885C143.744 175.357 144.608 175.793 145.537 176.192C151.172 178.614 163.397 180.369 173.359 180.369C178.079 180.369 182.287 179.976 185.051 179.071C207.903 171.598 222.923 151.146 210.495 128.464C206.515 121.201 201.363 114.566 197.927 107.038C194.489 99.5097 192.924 90.5751 196.427 83.0769C203.015 68.9814 224.251 64.0934 239.052 64.0934C239.705 64.0934 240.343 64.1029 240.97 64.1215C241.738 64.1444 242.5 64.1826 243.26 64.2359C251.764 68.2616 259.086 74.551 264.374 82.7652C276.104 100.981 279.075 123.138 277.359 144.283C275.521 166.91 265.836 184.188 251.321 201.546C238.824 216.488 225.062 230.833 216.758 248.38C209.132 264.49 206.64 282.339 206.296 299.962C206.228 303.378 207.397 339.047 207.47 348.882C207.482 350.271 208.616 351.393 210.025 351.409C214.75 353.288 228.208 356.41 229.369 356.423C236.729 356.505 257.578 356.734 265.251 356.819C265.261 356.819 265.272 356.819 265.283 356.819C266.847 356.819 268.129 355.583 268.147 354.039C268.694 306.192 283.635 260.578 321.456 228.444C335.218 216.752 350.039 207.23 360.74 192.472C368.538 181.717 374.317 171.049 377.812 159.721L433.226 157.072C435.09 156.982 436.763 156.214 438.002 155.014C465.853 229.748 455.408 317.923 418.791 372.778C418.325 372.794 417.855 372.802 417.386 372.802C409.61 372.802 401.55 370.811 393.13 368.822C384.708 366.832 375.923 364.841 366.692 364.841C360.599 364.841 354.31 365.709 347.803 368.016C313.83 380.062 318.512 425.485 320.419 437.642C320.689 439.355 322.025 440.695 323.737 441.017C293.447 451.443 263.855 454.498 239.494 454.498ZM228.01 450.258C228.173 450.318 228.338 450.378 228.505 450.438C232.563 451.882 247.46 451.92 253.147 451.92C253.473 451.92 253.77 451.92 254.031 451.92C276.368 451.92 288.749 432.455 288.749 410.454C288.749 388.855 265.948 372.819 243.98 372.242C240.781 371.44 237.431 371.013 233.979 371.013C211.642 371.013 193.536 388.85 193.536 410.85C193.536 430.854 208.504 447.415 228.01 450.258ZM419.413 183.37C417.406 183.37 415.411 184.718 415.161 187.11C411.434 222.752 383.412 235.207 321.593 295.869C256.474 359.769 305.403 429.676 312.132 438.61C312.594 439.222 313.281 439.621 314.049 439.724C314.185 439.743 314.318 439.751 314.45 439.751C316.286 439.751 317.692 438.032 317.214 436.21C313.352 421.451 306.804 369.514 386.696 322.134C459.121 279.183 437.236 213.745 423.189 185.701C422.389 184.105 420.899 183.37 419.413 183.37ZM75.3982 167.965C75.3388 167.965 75.2785 167.969 75.2178 167.977C73.9342 168.165 72.6289 168.301 71.3375 168.381C70.6631 168.422 70.1508 168.995 70.1936 169.66C70.2348 170.299 70.7729 170.79 71.4138 170.79C71.4398 170.79 71.4661 170.789 71.4923 170.787C72.8514 170.702 74.2254 170.56 75.576 170.362C75.9375 170.31 76.2388 170.107 76.4233 169.827C76.5802 169.589 76.6529 169.297 76.6074 168.994C76.5177 168.396 75.995 167.965 75.3982 167.965ZM60.9319 167.889C60.3409 167.889 59.8203 168.312 59.7243 168.905C59.6178 169.562 60.0726 170.181 60.7402 170.285C62.0863 170.497 63.4592 170.654 64.8207 170.752C64.8511 170.755 64.8816 170.757 64.9117 170.757C65.3369 170.757 65.718 170.539 65.9375 170.206C66.0463 170.042 66.1154 169.849 66.1313 169.639C66.181 168.975 65.675 168.397 65.0008 168.348C63.7075 168.255 62.4039 168.105 61.126 167.905C61.0608 167.894 60.996 167.889 60.9319 167.889ZM85.5449 165.341C85.399 165.341 85.2509 165.366 85.1067 165.421C83.8964 165.878 82.6521 166.291 81.4093 166.646C80.7599 166.831 80.3865 167.5 80.5753 168.141C80.7309 168.669 81.2196 169.01 81.7504 169.01C81.8633 169.01 81.9784 168.994 82.0924 168.962C83.4006 168.588 84.7096 168.154 85.9833 167.673C86.234 167.578 86.4348 167.41 86.5707 167.205C86.777 166.893 86.8335 166.49 86.6879 166.114C86.501 165.636 86.037 165.341 85.5449 165.341ZM50.8183 165.139C50.3319 165.139 49.8715 165.426 49.6805 165.897C49.4293 166.515 49.7351 167.216 50.3627 167.464C51.6302 167.963 52.933 168.414 54.2356 168.804C54.3546 168.841 54.4748 168.858 54.5931 168.858C55.0056 168.858 55.3939 168.651 55.6191 168.309C55.68 168.217 55.729 168.115 55.7633 168.004C55.9604 167.366 55.596 166.692 54.9495 166.498C53.7123 166.127 52.4751 165.699 51.271 165.224C51.1225 165.166 50.9691 165.139 50.8183 165.139ZM94.8641 160.605C94.6314 160.605 94.3961 160.67 94.1878 160.806C93.1116 161.511 91.9893 162.181 90.8524 162.796C90.2599 163.117 90.0432 163.849 90.3692 164.433C90.592 164.833 91.0106 165.058 91.4426 165.058C91.6419 165.058 91.8439 165.009 92.031 164.908C93.228 164.261 94.4094 163.557 95.5428 162.814C95.6862 162.721 95.8034 162.602 95.8915 162.468C96.1495 162.076 96.1635 161.557 95.8848 161.144C95.649 160.793 95.2604 160.605 94.8641 160.605ZM41.5584 160.28C41.1672 160.28 40.7827 160.465 40.546 160.807C40.1497 161.358 40.3098 162.108 40.8682 162.482C41.1666 162.683 41.4675 162.88 41.7717 163.074C42.6115 163.612 43.4804 164.132 44.3535 164.62C44.5439 164.725 44.7511 164.776 44.9555 164.776C45.3582 164.776 45.7502 164.58 45.9821 164.228C45.9959 164.208 46.0089 164.185 46.0214 164.165C46.3545 163.586 46.1478 162.85 45.5597 162.522C44.7295 162.058 43.9041 161.565 43.1056 161.054C42.8165 160.869 42.5299 160.679 42.2466 160.49C42.0355 160.348 41.7958 160.28 41.5584 160.28ZM102.901 153.972C102.579 153.972 102.257 154.097 102.017 154.346C101.124 155.267 100.179 156.163 99.2059 157.009C98.701 157.45 98.653 158.212 99.1001 158.711C99.3421 158.979 99.6786 159.118 100.018 159.118C100.305 159.118 100.595 159.017 100.828 158.815C101.852 157.925 102.847 156.981 103.788 156.01C103.841 155.955 103.889 155.896 103.929 155.833C104.243 155.356 104.18 154.712 103.748 154.307C103.51 154.083 103.206 153.972 102.901 153.972ZM35.0209 154.997C34.7039 154.997 34.3873 155.118 34.1476 155.358C33.6721 155.835 33.6812 156.596 34.1631 157.063C34.6401 157.524 35.1318 157.98 35.6246 158.419C35.8587 158.627 36.1523 158.731 36.4449 158.731C36.7791 158.731 37.1118 158.597 37.3535 158.334C37.398 158.285 37.4376 158.234 37.4725 158.181C37.7945 157.693 37.7185 157.033 37.2664 156.63C36.7985 156.214 36.3312 155.781 35.8784 155.342C35.6401 155.112 35.3303 154.997 35.0209 154.997ZM109.267 145.757C108.85 145.757 108.445 145.966 108.217 146.341C107.541 147.446 106.82 148.521 106.067 149.549C105.672 150.089 105.796 150.842 106.342 151.232C106.56 151.386 106.81 151.461 107.059 151.461C107.438 151.461 107.814 151.287 108.052 150.96C108.519 150.324 108.977 149.666 109.415 149.001C109.721 148.537 110.02 148.065 110.314 147.585C110.663 147.015 110.477 146.275 109.899 145.931C109.7 145.814 109.482 145.757 109.267 145.757ZM95.2227 82.6757C94.8304 82.6757 94.445 82.8612 94.2084 83.2052L94.1955 83.2251C93.8331 83.7743 93.9823 84.5107 94.5354 84.8796C95.6287 85.6089 96.7002 86.3914 97.7202 87.2053C97.9478 87.3861 98.2203 87.4741 98.4911 87.4741C98.8469 87.4741 99.201 87.3213 99.443 87.0269C99.4703 86.9938 99.4943 86.9594 99.5184 86.9242C99.8549 86.4133 99.7524 85.7235 99.262 85.3317C98.1866 84.4747 97.0584 83.6511 95.9083 82.8835C95.6979 82.7431 95.4591 82.6757 95.2227 82.6757ZM96.8471 73.3494C96.5845 73.3494 96.3295 73.482 96.1979 73.7224C96.1098 73.8735 96.0224 74.0244 95.9372 74.1775C95.3708 75.1815 94.8541 76.2236 94.4036 77.272C94.2408 77.6508 94.4203 78.0875 94.8049 78.2478C94.9011 78.2879 95.0009 78.307 95.0993 78.307C95.3509 78.307 95.5921 78.1825 95.733 77.9688C95.7567 77.9326 95.778 77.8938 95.7955 77.8526C96.2253 76.8529 96.7181 75.859 97.2603 74.8979C97.342 74.7519 97.4238 74.6094 97.5071 74.4686C97.7154 74.1121 97.592 73.6569 97.2314 73.451C97.1112 73.3824 96.9782 73.3494 96.8471 73.3494ZM101.575 67.177C101.377 67.177 101.18 67.2528 101.031 67.4035C100.103 68.347 99.2235 69.3605 98.4158 70.4154C98.169 70.7487 98.2315 71.2113 98.5648 71.4585C98.701 71.5599 98.8613 71.6087 99.0184 71.6087C99.2475 71.6087 99.4751 71.5064 99.6241 71.3125C100.393 70.3056 101.233 69.339 102.118 68.4394C102.151 68.404 102.182 68.3661 102.209 68.3265C102.401 68.0338 102.365 67.6384 102.1 67.3868C101.954 67.2468 101.764 67.177 101.575 67.177ZM107.687 62.335C107.551 62.335 107.414 62.3708 107.289 62.446C106.152 63.1387 105.046 63.9079 104.006 64.7326C103.68 64.9921 103.629 65.4592 103.89 65.7798C104.039 65.9626 104.259 66.0576 104.48 66.0576C104.647 66.0576 104.813 66.0038 104.953 65.8933C105.946 65.1067 106.999 64.3734 108.084 63.7133C108.184 63.6536 108.262 63.575 108.322 63.4855C108.475 63.2517 108.488 62.9413 108.33 62.6881C108.187 62.4604 107.94 62.335 107.687 62.335ZM114.817 59.1119C114.742 59.1119 114.665 59.1231 114.589 59.1469C113.314 59.5465 112.051 60.027 110.836 60.5757C110.456 60.7467 110.291 61.189 110.464 61.5629C110.592 61.8362 110.866 61.9974 111.152 61.9974C111.258 61.9974 111.365 61.9756 111.466 61.9295C112.626 61.406 113.83 60.9474 115.046 60.5665C115.219 60.5121 115.36 60.4021 115.452 60.2627C115.57 60.0822 115.609 59.8522 115.538 59.6308C115.436 59.3141 115.139 59.1119 114.817 59.1119ZM122.534 57.691C122.517 57.691 122.501 57.6915 122.485 57.6924C121.149 57.7744 119.804 57.9385 118.492 58.181C118.081 58.2571 117.812 58.647 117.888 59.0502C117.956 59.4079 118.274 59.6576 118.63 59.6576C118.676 59.6576 118.724 59.6535 118.771 59.6448C120.022 59.4134 121.304 59.2568 122.578 59.179C122.828 59.1638 123.04 59.032 123.167 58.8408C123.251 58.7116 123.296 58.5553 123.287 58.3898C123.263 57.9952 122.929 57.691 122.534 57.691ZM327.15 439.812C327.729 439.113 328.033 438.19 327.891 437.202C326.958 430.725 331.487 425.365 369.107 419.33C355.305 428.049 341.165 434.737 327.15 439.812ZM375.407 94.7965C371.173 81.7687 364.733 69.4856 355.746 58.9494C349.582 51.7232 342.375 45.4886 334.457 40.2261C349.385 47.3755 363.541 56.2326 376.4 66.8444C386.417 75.1107 395.38 84.2006 403.34 93.945L375.407 94.7965Z" fill="#FEE9D1"/>
<path fill-rule="evenodd" clip-rule="evenodd" d="M314.051 439.728C313.283 439.625 312.595 439.226 312.134 438.614C305.404 429.68 256.475 359.773 321.594 295.873C383.413 235.211 411.435 222.756 415.163 187.114C415.597 182.952 421.31 181.953 423.19 185.705C437.237 213.749 459.123 279.187 386.697 322.139C306.805 369.518 313.353 421.454 317.216 436.214C317.727 438.165 316.078 440 314.051 439.728Z" fill="#FDAB76"/>
<path fill-rule="evenodd" clip-rule="evenodd" d="M323.959 441.053C322.141 440.808 320.701 439.427 320.42 437.642C318.513 425.485 313.83 380.062 347.804 368.016C364.167 362.215 379.15 365.519 393.131 368.822C411.107 373.069 427.427 377.317 442.892 362.211C444.337 360.799 446.77 362.03 446.426 364.008C443.977 378.035 433.079 410.527 384.587 417.064C332.685 424.061 326.844 429.926 327.892 437.201C328.215 439.445 326.238 441.358 323.959 441.053Z" fill="#FDAB76"/>
<path fill-rule="evenodd" clip-rule="evenodd" d="M309.004 428.263C308.621 428.263 308.257 428.047 308.084 427.693C303.558 418.231 300.178 408.172 298.306 397.787C297.35 392.6 296.784 387.33 296.622 382.042C296.494 376.754 296.72 371.444 297.396 366.181C298.696 355.647 301.714 345.328 306.058 335.613C310.416 325.894 316.172 316.815 322.897 308.534C329.62 300.242 337.418 292.823 345.946 286.341C350.218 283.108 354.685 280.117 359.348 277.428C363.913 274.849 368.246 272.227 372.445 269.244C380.822 263.349 388.564 256.544 395.226 248.777C398.598 244.929 401.651 240.809 404.441 236.515C407.175 232.212 409.731 227.672 411.57 222.977L411.594 222.915C411.735 222.556 412.086 222.333 412.456 222.333C412.566 222.333 412.679 222.354 412.788 222.395C413.223 222.56 413.459 223.017 413.355 223.452C412.72 226.096 411.877 228.578 410.871 231.04C409.884 233.501 408.746 235.901 407.505 238.248C405.05 242.959 402.105 247.415 398.877 251.66C392.381 260.129 384.522 267.569 375.86 273.878C371.54 277.015 366.921 279.897 362.357 282.502C357.911 285.042 353.634 287.883 349.537 290.96C341.337 297.113 333.902 304.253 327.338 312.081C314.257 327.752 304.975 346.662 301.919 366.795C300.359 376.839 300.34 387.122 301.746 397.25C303.134 407.391 306.068 417.32 309.937 426.894C310.147 427.406 309.897 427.985 309.377 428.192C309.256 428.241 309.129 428.263 309.004 428.263Z" fill="#FEE9D1"/>
<path fill-rule="evenodd" clip-rule="evenodd" d="M322.522 433.83C322.245 433.83 321.979 433.682 321.843 433.423C321.742 433.23 321.732 433.016 321.8 432.826L321.806 432.812C321.965 432.372 321.915 431.963 321.9 431.543L321.86 430.289L321.832 427.786C321.833 426.116 321.87 424.447 321.944 422.78C322.096 419.445 322.383 416.112 322.836 412.799C323.759 406.18 325.284 399.58 327.995 393.365C330.678 387.191 334.739 381.292 340.635 377.439C343.571 375.546 346.884 374.199 350.316 373.514C352.581 373.046 354.885 372.839 357.182 372.839C358.366 372.839 359.546 372.894 360.719 372.995C374.231 374.539 387.473 377.09 400.751 379.163C405.442 379.851 410.179 380.487 414.854 380.487C416.77 380.487 418.676 380.38 420.565 380.125C422.179 379.893 423.769 379.546 425.312 379.057C426.841 378.531 428.343 377.917 429.745 377.107C432.569 375.519 435.051 373.347 437.271 370.938L437.277 370.93C437.439 370.755 437.664 370.665 437.888 370.665C438.085 370.665 438.282 370.735 438.441 370.875C438.773 371.172 438.801 371.675 438.51 372.008C436.261 374.558 433.692 376.915 430.689 378.689C429.199 379.592 427.59 380.296 425.95 380.896C424.295 381.459 422.593 381.868 420.876 382.152C418.665 382.471 416.458 382.601 414.262 382.601C409.592 382.601 404.966 382.012 400.416 381.398C393.707 380.457 387.082 379.232 380.434 378.173C373.808 377.11 367.102 376.083 360.503 375.32C359.291 375.205 358.075 375.143 356.861 375.143C354.812 375.143 352.77 375.32 350.775 375.716C347.594 376.323 344.552 377.532 341.831 379.248C336.345 382.689 332.366 388.164 329.664 394.091C326.929 400.047 325.304 406.496 324.274 413.002C323.766 416.262 323.42 419.549 323.21 422.846C323.106 424.494 323.038 426.144 323.005 427.797L322.987 430.274L323.003 431.51C323.014 431.92 322.995 432.34 323.2 432.73C323.394 433.099 323.248 433.554 322.873 433.745C322.761 433.802 322.641 433.83 322.522 433.83Z" fill="#FEE9D1"/>
<path fill-rule="evenodd" clip-rule="evenodd" d="M265.283 356.825C265.271 356.825 265.26 356.825 265.251 356.825C257.577 356.74 236.729 356.511 229.368 356.429C228.208 356.416 214.749 353.294 210.025 351.415C210.025 351.415 210.025 351.415 210.028 351.415C217.387 351.497 238.235 351.726 245.909 351.81C245.92 351.812 245.93 351.812 245.941 351.812C247.505 351.812 248.787 350.576 248.805 349.032C249.351 301.187 264.292 255.571 302.114 223.437C315.876 211.745 330.697 202.223 341.397 187.465C347.796 178.64 352.837 169.873 356.369 160.752L377.812 159.727C374.316 171.055 368.537 181.723 360.739 192.478C350.038 207.236 335.217 216.758 321.456 228.451C283.634 260.584 268.693 306.199 268.147 354.045C268.129 355.589 266.847 356.825 265.283 356.825ZM173.358 180.375C163.397 180.375 151.172 178.62 145.537 176.198C144.607 175.799 143.744 175.363 142.939 174.891C146.072 175.782 149.337 176.198 152.617 176.198C157.047 176.198 161.505 175.439 165.709 174.064C188.561 166.591 203.58 146.138 191.152 123.457C187.173 116.194 182.02 109.559 178.584 102.031C175.148 94.5028 173.581 85.5677 177.084 78.0695C183.673 63.974 204.909 59.0859 219.709 59.0859C220.363 59.0859 221.001 59.0954 221.627 59.1142C229.288 59.3424 236.631 61.1049 243.26 64.2421C242.5 64.1888 241.737 64.1506 240.969 64.1277C240.343 64.1091 239.705 64.0996 239.051 64.0996C224.251 64.0996 203.015 68.9877 196.426 83.0831C192.923 90.5813 194.489 99.5159 197.926 107.044C201.362 114.572 206.515 121.207 210.494 128.47C222.922 151.153 207.903 171.605 185.051 179.078C182.287 179.982 178.078 180.375 173.358 180.375ZM357.725 95.3417C353.595 80.2604 346.657 65.9637 336.403 53.9421C323.169 38.4253 305.119 27.4812 285.564 20.9141C286.564 21.1048 287.557 21.303 288.548 21.5086C304.826 24.8895 320.711 31.096 334.456 40.2323C342.375 45.4948 349.582 51.7294 355.745 58.9557C364.733 69.4919 371.172 81.7749 375.406 94.8027L357.725 95.3417Z" fill="#B3200E"/>
<path fill-rule="evenodd" clip-rule="evenodd" d="M253.148 451.919C247.462 451.919 232.564 451.881 228.506 450.437C228.34 450.377 228.175 450.317 228.011 450.257C229.96 450.541 231.952 450.688 233.981 450.688C256.318 450.688 274.425 432.851 274.425 410.849C274.425 392.249 261.482 376.624 243.981 372.24C265.95 372.818 288.75 388.853 288.75 410.453C288.75 432.453 276.37 451.919 254.033 451.919C253.772 451.919 253.475 451.919 253.148 451.919Z" fill="#B3200E"/>
<path fill-rule="evenodd" clip-rule="evenodd" d="M245.943 351.808C245.931 351.808 245.922 351.808 245.911 351.808C238.237 351.723 217.389 351.494 210.03 351.412C210.028 351.412 210.028 351.412 210.026 351.412C208.618 351.396 207.483 350.274 207.472 348.885C207.398 339.05 206.23 303.381 206.297 299.965C206.642 282.342 209.134 264.493 216.759 248.383C225.064 230.836 238.825 216.491 251.323 201.549C265.837 184.191 275.522 166.913 277.36 144.286C279.077 123.141 276.105 100.984 264.376 82.7682C259.087 74.5539 251.765 68.2646 243.261 64.2389C236.633 61.1016 229.29 59.3392 221.629 59.1109C221.003 59.0921 220.365 59.0826 219.711 59.0826C204.911 59.0826 183.675 63.9707 177.086 78.0663C173.583 85.5645 175.15 94.4995 178.586 102.027C182.022 109.556 187.175 116.19 191.154 123.453C203.582 146.134 188.563 166.588 165.711 174.061C161.507 175.436 157.049 176.195 152.619 176.195C149.339 176.195 146.074 175.778 142.941 174.888C141.649 174.522 140.382 174.073 139.143 173.541C126.979 168.315 117.83 155.23 112.285 142.474C112.676 142.459 113.046 142.259 113.265 141.926C113.304 141.87 113.336 141.809 113.365 141.746C113.905 140.51 114.398 139.239 114.831 137.967C115.046 137.335 114.7 136.652 114.059 136.44C113.931 136.398 113.799 136.377 113.671 136.377C113.158 136.377 112.679 136.696 112.511 137.201C112.163 138.222 111.773 139.244 111.352 140.245C110.31 137.664 109.421 135.119 108.685 132.674C100.606 105.803 109.051 79.2586 125.731 58.2659C125.721 58.3066 125.715 58.3489 125.711 58.3922C125.686 58.8024 126.003 59.1557 126.42 59.1811C127.694 59.2588 128.976 59.4156 130.229 59.6478C130.277 59.6564 130.324 59.6605 130.37 59.6605C130.628 59.6605 130.865 59.5295 131.003 59.3213C131.056 59.2421 131.093 59.1516 131.112 59.0534C131.189 58.6492 130.918 58.26 130.508 58.1839C129.194 57.9408 127.849 57.7757 126.513 57.6947C126.497 57.6936 126.481 57.6932 126.465 57.6932C126.343 57.6932 126.227 57.7219 126.125 57.7732C134.83 46.9469 145.726 37.62 157.664 30.5205C162.565 27.6057 167.644 25.0653 172.817 22.9514C190.553 15.7025 210.546 12.5 230.428 12.5C230.908 12.5 231.389 12.5 231.87 12.5057C244.593 12.6045 257.246 14.0069 269.208 16.4917C274.729 17.6384 280.203 19.11 285.566 20.9108C305.121 27.478 323.171 38.4221 336.405 53.9388C346.659 65.9605 353.597 80.2572 357.726 95.3384L312.441 96.7187C306.859 96.8889 302.422 101.396 302.422 106.897V147.907L280.439 170.056L306.808 163.118L306.747 162.905C307.162 163.001 307.595 163.052 308.039 163.052C308.13 163.052 308.223 163.05 308.316 163.046L356.371 160.749C352.838 169.87 347.798 178.637 341.399 187.461C330.698 202.219 315.877 211.741 302.116 223.434C264.294 255.567 249.353 301.183 248.806 349.028C248.789 350.572 247.507 351.808 245.943 351.808ZM124.897 136.358C124.836 136.358 124.774 136.369 124.713 136.391C124.444 136.492 124.311 136.787 124.413 137.051C127.123 144.038 130.038 148.005 130.16 148.169C130.263 148.306 130.42 148.379 130.58 148.379C130.686 148.379 130.793 148.347 130.886 148.281C131.117 148.114 131.168 147.795 130.998 147.566C130.969 147.527 128.04 143.534 125.383 136.686C125.304 136.483 125.106 136.358 124.897 136.358ZM115.876 126.274C115.256 126.274 114.725 126.737 114.661 127.359C114.53 128.628 114.342 129.906 114.104 131.161C113.979 131.815 114.416 132.445 115.081 132.568C115.158 132.582 115.233 132.588 115.309 132.588C115.727 132.588 116.112 132.377 116.334 132.041C116.418 131.911 116.479 131.766 116.509 131.605C116.761 130.285 116.958 128.937 117.096 127.602C117.165 126.939 116.674 126.348 116.003 126.281C115.959 126.276 115.918 126.274 115.876 126.274ZM120.504 121.635C120.778 123.804 121.145 125.827 121.567 127.696C121.62 127.935 121.835 128.097 122.072 128.097C122.11 128.097 122.147 128.094 122.186 128.085C122.464 128.025 122.642 127.752 122.58 127.475C122.187 125.731 121.843 123.848 121.577 121.837C122.53 121.92 123.493 121.962 124.453 121.962C124.572 121.962 124.692 121.962 124.812 121.96C125.075 121.957 125.304 121.823 125.437 121.621C125.516 121.502 125.561 121.36 125.559 121.207C125.554 120.798 125.218 120.47 124.803 120.47C124.801 120.47 124.798 120.47 124.795 120.47C124.676 120.471 124.559 120.473 124.44 120.473C123.424 120.473 122.404 120.422 121.395 120.325C120.085 108.155 121.822 91.7151 133.311 73.4339C135.575 69.8324 137.994 66.4285 140.558 63.2291C140.592 63.4349 140.712 63.6256 140.906 63.7442C141.096 63.8603 141.286 63.9778 141.471 64.0971C142.354 64.6624 143.218 65.2793 144.039 65.9302C144.18 66.041 144.347 66.095 144.513 66.095C144.734 66.095 144.952 65.9999 145.103 65.8176C145.119 65.7971 145.133 65.7766 145.148 65.7554C145.356 65.4391 145.292 65.0119 144.988 64.7706C144.127 64.0878 143.221 63.4411 142.295 62.8483C142.1 62.7236 141.903 62.6005 141.704 62.4788C141.585 62.4063 141.454 62.3732 141.324 62.3732C141.298 62.3732 141.274 62.3744 141.249 62.3768C161.089 38.1613 189.595 25.7687 224.575 25.7687C241.984 25.7687 260.999 28.8387 281.344 35.0485C281.396 35.0643 281.447 35.0717 281.497 35.0717C281.718 35.0717 281.924 34.9306 281.993 34.7115C282.078 34.4419 281.924 34.1554 281.65 34.0717C261.139 27.8115 242.016 24.6771 224.452 24.6771C212.134 24.6771 200.582 26.2192 189.859 29.3063C165.527 36.3126 146.204 50.9781 132.429 72.8956C120.759 91.4646 119.024 108.176 120.375 120.531C120.274 120.643 120.206 120.784 120.189 120.943C120.157 121.223 120.286 121.483 120.504 121.635ZM115.977 117.917C115.945 117.917 115.913 117.917 115.881 117.92C115.208 117.972 114.703 118.55 114.756 119.215C114.806 119.84 114.841 120.471 114.865 121.09C114.889 121.741 115.431 122.252 116.086 122.252C116.102 122.252 116.116 122.252 116.133 122.25C116.546 122.236 116.905 122.02 117.113 121.703C117.246 121.501 117.32 121.259 117.31 121.002C117.286 120.35 117.248 119.687 117.197 119.029C117.145 118.397 116.61 117.917 115.977 117.917ZM132.458 119.469C132.396 119.469 132.333 119.477 132.269 119.493C131.051 119.802 129.804 120.042 128.562 120.205C128.149 120.26 127.857 120.634 127.913 121.041C127.963 121.415 128.288 121.687 128.66 121.687C128.694 121.687 128.727 121.685 128.761 121.681C130.064 121.51 131.372 121.259 132.647 120.934C132.838 120.887 132.992 120.77 133.091 120.62C133.204 120.451 133.245 120.238 133.191 120.028C133.103 119.692 132.795 119.469 132.458 119.469ZM139.643 116.692C139.521 116.692 139.399 116.721 139.285 116.781C138.181 117.368 137.029 117.895 135.861 118.345C135.471 118.495 135.279 118.927 135.433 119.31C135.548 119.603 135.835 119.783 136.136 119.783C136.228 119.783 136.321 119.767 136.412 119.733C137.636 119.259 138.845 118.706 140.003 118.092C140.117 118.031 140.21 117.944 140.277 117.843C140.423 117.622 140.444 117.332 140.31 117.084C140.172 116.834 139.912 116.692 139.643 116.692ZM145.943 112.301C145.762 112.301 145.579 112.364 145.435 112.493C144.502 113.327 143.513 114.11 142.491 114.823C142.149 115.063 142.069 115.526 142.311 115.862C142.459 116.066 142.691 116.176 142.928 116.176C143.079 116.176 143.233 116.132 143.364 116.039C144.436 115.29 145.475 114.47 146.451 113.597C146.499 113.552 146.542 113.502 146.576 113.45C146.758 113.174 146.738 112.799 146.502 112.544C146.353 112.383 146.148 112.301 145.943 112.301ZM150.977 106.537C150.733 106.537 150.494 106.653 150.348 106.869C149.65 107.898 148.882 108.894 148.065 109.829C147.797 110.141 147.829 110.61 148.145 110.878C148.287 111 148.464 111.058 148.638 111.058C148.85 111.058 149.061 110.971 149.212 110.799C150.068 109.819 150.872 108.776 151.605 107.696L151.611 107.688C151.836 107.347 151.741 106.889 151.396 106.664C151.268 106.578 151.122 106.537 150.977 106.537ZM154.47 99.7525C154.161 99.7525 153.871 99.942 153.759 100.242C153.329 101.404 152.823 102.553 152.255 103.656C152.066 104.023 152.215 104.471 152.587 104.656C152.698 104.711 152.815 104.738 152.929 104.738C153.179 104.738 153.421 104.615 153.563 104.398C153.578 104.376 153.59 104.354 153.603 104.329C154.199 103.173 154.73 101.969 155.179 100.752C155.321 100.365 155.119 99.9388 154.727 99.7983C154.642 99.7668 154.555 99.7525 154.47 99.7525ZM156.203 92.3405C155.821 92.3405 155.493 92.6251 155.451 93.0076C155.321 94.2369 155.111 95.4711 154.829 96.6764C154.736 97.0769 154.989 97.4769 155.397 97.5691C155.454 97.582 155.51 97.5882 155.566 97.5882C155.823 97.5882 156.062 97.4584 156.199 97.2493C156.248 97.1782 156.283 97.098 156.304 97.0107C156.598 95.7468 156.818 94.4519 156.954 93.1625C156.999 92.7535 156.696 92.3874 156.281 92.3445C156.256 92.3418 156.23 92.3405 156.203 92.3405ZM156.281 86.6414C156.26 86.6414 156.241 86.6422 156.222 86.6436C155.807 86.6766 155.494 87.034 155.526 87.4441C155.573 88.0397 155.603 88.65 155.614 89.2582C155.623 89.6645 155.959 89.9886 156.371 89.9888C156.376 89.9888 156.381 89.9886 156.385 89.9886C156.645 89.9834 156.873 89.8495 157.006 89.6492C157.084 89.5288 157.129 89.3846 157.127 89.2301C157.115 88.593 157.084 87.9533 157.034 87.3285C157.002 86.9383 156.672 86.6414 156.281 86.6414ZM147.417 67.2167C147.228 67.2167 147.037 67.2863 146.891 67.4262C146.589 67.7114 146.584 68.1836 146.874 68.4791C147.299 68.9123 147.717 69.364 148.116 69.8218C148.265 69.9934 148.476 70.0815 148.69 70.0815C148.864 70.0815 149.039 70.0225 149.182 69.9022C149.238 69.8544 149.284 69.8004 149.323 69.7423C149.501 69.4722 149.486 69.1088 149.263 68.8518C148.845 68.3721 148.406 67.8982 147.96 67.4436C147.811 67.2926 147.614 67.2167 147.417 67.2167ZM134.183 59.1223C133.862 59.1223 133.566 59.3249 133.463 59.6396C133.335 60.0314 133.553 60.45 133.952 60.5758C135.165 60.9591 136.367 61.4216 137.527 61.95C137.63 61.9968 137.737 62.0189 137.843 62.0189C138.095 62.0189 138.335 61.8953 138.478 61.6808C138.497 61.6513 138.515 61.6199 138.531 61.5874C138.705 61.2137 138.54 60.7712 138.162 60.5985C136.946 60.0441 135.684 59.5595 134.414 59.1579C134.337 59.1338 134.26 59.1223 134.183 59.1223Z" fill="#FA541C"/>
<path fill-rule="evenodd" clip-rule="evenodd" d="M248.029 384.463C248.009 384.3 247.909 384.15 247.749 384.07C243.457 381.926 238.825 380.838 233.981 380.838C233.694 380.838 233.462 381.067 233.462 381.35C233.462 381.371 233.463 381.391 233.465 381.411C233.495 381.666 233.714 381.864 233.981 381.864C238.661 381.864 243.135 382.914 247.28 384.985C247.355 385.023 247.435 385.04 247.514 385.04C247.703 385.04 247.885 384.938 247.977 384.759C248.026 384.664 248.042 384.561 248.029 384.463ZM204.811 414.777C205.934 422.899 210.509 430.232 217.522 434.899C217.649 434.984 217.727 435.116 217.746 435.256C217.764 435.377 217.737 435.505 217.662 435.615C217.562 435.76 217.399 435.839 217.232 435.839C217.131 435.839 217.03 435.81 216.942 435.752C209.68 430.919 204.944 423.325 203.784 414.915C203.6 413.579 203.505 412.223 203.505 410.855C203.505 399.782 209.662 389.645 219.571 384.398C219.65 384.357 219.735 384.336 219.818 384.336C220.002 384.336 220.18 384.434 220.275 384.606C220.305 384.662 220.324 384.721 220.333 384.78C220.363 384.986 220.262 385.199 220.064 385.302C210.49 390.371 204.543 400.165 204.543 410.859C204.543 412.18 204.634 413.488 204.811 414.777ZM228.011 450.267C229.96 450.551 231.952 450.698 233.981 450.698C256.318 450.698 274.425 432.862 274.425 410.859C274.425 392.259 261.482 376.634 243.981 372.251C240.783 371.449 237.433 371.022 233.981 371.022C211.644 371.022 193.538 388.859 193.538 410.859C193.538 430.863 208.506 447.424 228.011 450.267Z" fill="#FA541C"/>
<path fill-rule="evenodd" clip-rule="evenodd" d="M84.6721 79.4853C84.5418 79.2 84.5235 78.8652 84.6485 78.5507C84.84 78.0745 85.3001 77.7848 85.7881 77.7848C85.9369 77.7848 86.088 77.8116 86.2351 77.8683C86.2438 77.8718 86.2524 77.8751 86.2613 77.8784C85.725 78.4154 85.1958 78.9506 84.6721 79.4853Z" fill="#FDAB76"/>
<path fill-rule="evenodd" clip-rule="evenodd" d="M112.284 142.471C111.962 141.726 111.649 140.982 111.351 140.242C111.773 139.241 112.162 138.22 112.51 137.198C112.678 136.693 113.157 136.374 113.67 136.374C113.798 136.374 113.93 136.395 114.058 136.438C114.699 136.649 115.045 137.333 114.83 137.964C114.398 139.236 113.904 140.507 113.364 141.743C113.335 141.806 113.303 141.868 113.265 141.923C113.045 142.256 112.675 142.457 112.284 142.471ZM115.308 132.586C115.233 132.586 115.157 132.579 115.08 132.565C114.415 132.442 113.978 131.812 114.103 131.159C114.342 129.904 114.529 128.625 114.66 127.356C114.725 126.734 115.255 126.272 115.875 126.272C115.917 126.272 115.959 126.273 116.002 126.278C116.673 126.346 117.164 126.936 117.095 127.599C116.957 128.935 116.76 130.283 116.508 131.602C116.478 131.763 116.417 131.909 116.334 132.038C116.111 132.374 115.726 132.586 115.308 132.586Z" fill="#FDAB76"/>
<path fill-rule="evenodd" clip-rule="evenodd" d="M36.4443 158.729C36.1517 158.729 35.8581 158.624 35.624 158.416C35.1312 157.977 34.6395 157.521 34.1625 157.06C33.6806 156.593 33.6715 155.832 34.147 155.355C34.3867 155.115 34.7033 154.994 35.0203 154.994C35.3297 154.994 35.6395 155.109 35.8778 155.339C36.3306 155.778 36.7979 156.211 37.2658 156.628C37.7179 157.03 37.7939 157.69 37.4719 158.178C37.437 158.231 37.3974 158.282 37.3529 158.331C37.1112 158.594 36.7785 158.729 36.4443 158.729Z" fill="#FDAB76"/>
<path fill-rule="evenodd" clip-rule="evenodd" d="M21.3124 116.909C21.2515 116.909 21.1899 116.904 21.1281 116.895C20.4596 116.795 19.9995 116.181 20.1001 115.523C20.3069 114.175 20.5764 112.816 20.901 111.486C21.0359 110.934 21.5372 110.563 22.0898 110.563C22.1847 110.563 22.281 110.574 22.3773 110.596C23.034 110.752 23.4389 111.403 23.2807 112.05C22.9727 113.313 22.7171 114.602 22.5209 115.883C22.4941 116.058 22.4299 116.219 22.3377 116.359C22.1162 116.694 21.7324 116.909 21.3124 116.909Z" fill="#FDAB76"/>
<path fill-rule="evenodd" clip-rule="evenodd" d="M24.0809 106.763C23.9315 106.763 23.7797 106.737 23.6325 106.68C23.0037 106.435 22.6949 105.736 22.9427 105.115C23.4509 103.848 24.0212 102.583 24.6373 101.358C24.849 100.934 25.2827 100.689 25.7333 100.689C25.9165 100.689 26.1026 100.729 26.2777 100.815C26.883 101.111 27.1306 101.834 26.8305 102.43C26.2447 103.594 25.7027 104.795 25.2202 106.001C25.1894 106.078 25.1511 106.149 25.107 106.216C24.8796 106.561 24.4895 106.763 24.0809 106.763Z" fill="#FDAB76"/>
<path fill-rule="evenodd" clip-rule="evenodd" d="M29.0683 97.4767C28.8313 97.4767 28.5918 97.4089 28.3809 97.2677C27.8295 96.8981 27.6811 96.1628 28.0428 95.6144L28.0574 95.5933C28.8372 94.463 29.6755 93.3539 30.5485 92.2962C30.7906 92.003 31.1433 91.851 31.4991 91.851C31.7706 91.851 32.0435 91.9394 32.2706 92.1213C32.7604 92.5134 32.862 93.2021 32.5254 93.7123C32.5019 93.7479 32.4759 93.783 32.4484 93.8171C31.6188 94.822 30.8223 95.8754 30.0813 96.9486C29.8446 97.2918 29.4598 97.4767 29.0683 97.4767Z" fill="#FDAB76"/>
<path fill-rule="evenodd" clip-rule="evenodd" d="M36.0144 89.5125C35.6861 89.5125 35.3585 89.3831 35.1175 89.1273C34.6572 88.6392 34.6884 87.8787 35.1816 87.4234C36.1966 86.4949 37.2654 85.5984 38.3579 84.7593C38.5813 84.5875 38.8466 84.5042 39.1097 84.5042C39.474 84.5042 39.8343 84.6636 40.0756 84.9683C40.4056 85.3847 40.4139 85.9476 40.1372 86.3669C40.0652 86.4761 39.9734 86.5754 39.8633 86.6602C38.8261 87.4572 37.8111 88.3084 36.8473 89.1903C36.6116 89.4058 36.3127 89.5125 36.0144 89.5125Z" fill="#FDAB76"/>
<path fill-rule="evenodd" clip-rule="evenodd" d="M98.4921 87.4707C98.2212 87.4707 97.9488 87.3826 97.7212 87.2018C96.7012 86.3879 95.6297 85.6054 94.5364 84.8761C93.9833 84.5072 93.8341 83.7708 94.1965 83.2216L94.2094 83.2018C94.446 82.8578 94.8314 82.6723 95.2237 82.6723C95.4601 82.6723 95.6989 82.7397 95.9093 82.88C97.0593 83.6477 98.1876 84.4712 99.2629 85.3282C99.7533 85.72 99.8559 86.4099 99.5194 86.9207C99.4953 86.9559 99.4713 86.9903 99.444 87.0235C99.202 87.3179 98.8479 87.4707 98.4921 87.4707Z" fill="#FDAB76"/>
<path fill-rule="evenodd" clip-rule="evenodd" d="M44.588 83.282C44.1648 83.282 43.7532 83.0656 43.5268 82.6787C43.1889 82.1019 43.3896 81.3647 43.9753 81.0319C45.1756 80.3498 46.4206 79.7105 47.6752 79.1313C47.8431 79.054 48.0197 79.0172 48.1936 79.0172C48.6537 79.0172 49.0944 79.274 49.3028 79.7116C49.4892 80.1033 49.4428 80.5432 49.2201 80.881C49.0997 81.0632 48.9284 81.2158 48.7136 81.3148C47.5216 81.865 46.3392 82.4725 45.1985 83.1206C45.0058 83.2299 44.7956 83.282 44.588 83.282Z" fill="#FDAB76"/>
<path fill-rule="evenodd" clip-rule="evenodd" d="M89.5089 81.8117C89.327 81.8117 89.1424 81.7715 88.9682 81.6869C87.7852 81.1115 86.5656 80.5806 85.3428 80.1084C85.0329 79.9888 84.8002 79.758 84.6734 79.4806C85.1971 78.946 85.7263 78.4108 86.2625 77.8738C87.5401 78.3681 88.815 78.9234 90.0517 79.5245C90.6577 79.8192 90.9066 80.5424 90.6074 81.1394C90.5854 81.1828 90.5615 81.2243 90.5354 81.2638C90.3053 81.6125 89.9141 81.8117 89.5089 81.8117Z" fill="#FDAB76"/>
<path fill-rule="evenodd" clip-rule="evenodd" d="M54.3575 79.081C53.8347 79.081 53.3509 78.7487 53.1884 78.231C52.9885 77.5946 53.3506 76.9196 53.9966 76.7233C55.3224 76.3195 56.6802 75.9674 58.0313 75.6766C58.1195 75.6575 58.2075 75.6483 58.2942 75.6483C58.8567 75.6483 59.3633 76.0329 59.4881 76.5967C59.561 76.9243 59.491 77.2503 59.3189 77.5111C59.1495 77.7679 58.8817 77.9614 58.5539 78.0318C57.2699 78.3084 55.9797 78.6429 54.7194 79.027C54.599 79.0636 54.4772 79.081 54.3575 79.081Z" fill="#FDAB76"/>
<path fill-rule="evenodd" clip-rule="evenodd" d="M79.4858 78.2451C79.3919 78.2451 79.2964 78.2344 79.2009 78.212C77.9209 77.9112 76.6122 77.6618 75.3101 77.4705C74.6418 77.3725 74.1804 76.7587 74.2802 76.1003C74.3714 75.5025 74.8935 75.0725 75.4899 75.0725C75.5498 75.0725 75.6102 75.0768 75.6713 75.0858C77.0425 75.2872 78.421 75.55 79.7688 75.8665C80.4262 76.0211 80.832 76.6713 80.6756 77.3191C80.6421 77.4571 80.5858 77.584 80.5115 77.6964C80.2879 78.0352 79.9015 78.2451 79.4858 78.2451Z" fill="#FDAB76"/>
<path fill-rule="evenodd" clip-rule="evenodd" d="M64.8307 77.1096C64.1974 77.1096 63.661 76.6289 63.6115 75.9967C63.56 75.3329 64.0644 74.7537 64.7376 74.702C65.9848 74.6074 67.2499 74.5596 68.5039 74.5596C68.6394 74.5596 68.7743 74.56 68.9094 74.5613C69.5854 74.567 70.1288 75.1113 70.1228 75.7771C70.1207 76.0152 70.0489 76.2366 69.9261 76.4228C69.7075 76.7541 69.3285 76.9726 68.8988 76.9726C68.8955 76.9726 68.8922 76.9726 68.8889 76.9726C68.7559 76.9715 68.6225 76.9708 68.4892 76.9708C67.3021 76.9708 66.1056 77.0165 64.9259 77.106C64.894 77.1083 64.8623 77.1096 64.8307 77.1096Z" fill="#FDAB76"/>
<path fill-rule="evenodd" clip-rule="evenodd" d="M20.8019 125.359C20.1444 125.359 19.6004 124.844 19.5798 124.192C19.5591 123.537 19.5515 122.873 19.5578 122.216C19.5629 121.553 20.1104 121.021 20.7809 121.021C20.7849 121.021 20.7889 121.021 20.7929 121.021C21.4688 121.027 22.0117 121.572 22.0053 122.238C21.9997 122.863 22.0064 123.495 22.0266 124.116C22.0348 124.372 21.9614 124.611 21.83 124.809C21.6191 125.13 21.2579 125.346 20.8412 125.359C20.828 125.359 20.815 125.359 20.8019 125.359Z" fill="#FDAB76"/>
<path fill-rule="evenodd" clip-rule="evenodd" d="M71.4147 170.788C70.7738 170.788 70.2356 170.297 70.1944 169.658C70.1516 168.993 70.664 168.42 71.3384 168.379C72.6298 168.299 73.9351 168.163 75.2186 167.975C75.2794 167.967 75.3396 167.962 75.3991 167.962C75.9959 167.962 76.5185 168.393 76.6083 168.992C76.6538 169.295 76.581 169.587 76.4241 169.825C76.2397 170.105 75.9384 170.308 75.5768 170.36C74.2263 170.558 72.8522 170.7 71.4932 170.785C71.4669 170.787 71.4406 170.788 71.4147 170.788ZM64.9125 170.755C64.8824 170.755 64.852 170.753 64.8215 170.75C63.4601 170.652 62.0871 170.494 60.7411 170.283C60.0734 170.179 59.6186 169.56 59.7252 168.903C59.8212 168.31 60.3417 167.887 60.9328 167.887C60.9969 167.887 61.0616 167.891 61.1269 167.902C62.4048 168.103 63.7083 168.253 65.0017 168.346C65.6759 168.395 66.1818 168.973 66.1321 169.637C66.1163 169.847 66.0472 170.04 65.9384 170.204C65.7188 170.537 65.3377 170.755 64.9125 170.755ZM81.7512 169.007C81.2204 169.007 80.7318 168.666 80.5762 168.139C80.3874 167.498 80.7608 166.829 81.4102 166.644C82.653 166.289 83.8973 165.876 85.1076 165.419C85.2518 165.364 85.3999 165.339 85.5457 165.339C86.0379 165.339 86.5018 165.634 86.6887 166.112C86.8344 166.488 86.7778 166.891 86.5715 167.203C86.4356 167.408 86.2348 167.576 85.9842 167.67C84.7104 168.152 83.4014 168.586 82.0932 168.96C81.9793 168.992 81.8642 169.007 81.7512 169.007ZM54.594 168.856C54.4757 168.856 54.3555 168.839 54.2364 168.802C52.9338 168.412 51.631 167.961 50.3635 167.462C49.7359 167.214 49.4302 166.513 49.6813 165.895C49.8723 165.424 50.3328 165.137 50.8192 165.137C50.97 165.137 51.1233 165.164 51.2719 165.222C52.4759 165.697 53.7132 166.125 54.9504 166.496C55.5969 166.69 55.9613 167.364 55.7642 168.002C55.7299 168.112 55.6808 168.215 55.6199 168.307C55.3948 168.649 55.0065 168.856 54.594 168.856ZM91.4435 165.056C91.0114 165.056 90.5928 164.831 90.3701 164.431C90.0441 163.847 90.2608 163.115 90.8533 162.794C91.9902 162.179 93.1125 161.509 94.1886 160.804C94.397 160.668 94.6322 160.603 94.8649 160.603C95.2613 160.603 95.6499 160.791 95.8856 161.141C96.1643 161.555 96.1504 162.074 95.8924 162.466C95.8042 162.6 95.6871 162.718 95.5436 162.812C94.4103 163.555 93.2288 164.259 92.0318 164.906C91.8448 165.007 91.6427 165.056 91.4435 165.056ZM44.9563 164.774C44.752 164.774 44.5448 164.723 44.3544 164.617C43.4813 164.13 42.6123 163.61 41.7726 163.072C41.4684 162.878 41.1674 162.68 40.869 162.48C40.3107 162.106 40.1506 161.356 40.5469 160.805C40.7836 160.463 41.1681 160.278 41.5592 160.278C41.7966 160.278 42.0363 160.346 42.2474 160.488C42.5308 160.677 42.8173 160.867 43.1064 161.051C43.905 161.563 44.7303 162.055 45.5605 162.519C46.1487 162.848 46.3554 163.583 46.0222 164.163C46.0097 164.183 45.9967 164.205 45.9829 164.226C45.751 164.578 45.359 164.774 44.9563 164.774ZM100.019 159.116C99.6795 159.116 99.3429 158.977 99.101 158.709C98.6538 158.21 98.7019 157.448 99.2067 157.007C100.18 156.161 101.125 155.264 102.018 154.344C102.258 154.095 102.58 153.97 102.902 153.97C103.207 153.97 103.511 154.08 103.749 154.305C104.181 154.71 104.244 155.354 103.93 155.831C103.89 155.894 103.841 155.953 103.789 156.008C102.848 156.979 101.853 157.923 100.829 158.813C100.596 159.015 100.306 159.116 100.019 159.116ZM107.06 151.458C106.811 151.458 106.561 151.384 106.343 151.229C105.797 150.84 105.673 150.087 106.068 149.547C106.821 148.519 107.542 147.444 108.218 146.339C108.446 145.963 108.851 145.755 109.268 145.755C109.483 145.755 109.701 145.812 109.899 145.929C110.478 146.273 110.664 147.013 110.314 147.583C110.021 148.063 109.721 148.535 109.415 148.999C108.978 149.663 108.52 150.322 108.053 150.958C107.814 151.285 107.439 151.458 107.06 151.458ZM112.239 142.468C112.077 142.468 111.914 142.437 111.755 142.37C111.135 142.107 110.848 141.398 111.116 140.786C111.196 140.604 111.274 140.422 111.351 140.239C111.649 140.98 111.962 141.723 112.284 142.468C112.27 142.468 112.255 142.468 112.239 142.468Z" fill="#FDAB76"/>
<path fill-rule="evenodd" clip-rule="evenodd" d="M116.084 122.245C115.429 122.245 114.887 121.734 114.863 121.083C114.839 120.464 114.804 119.833 114.754 119.208C114.701 118.543 115.206 117.966 115.879 117.913C115.911 117.91 115.943 117.91 115.975 117.91C116.609 117.91 117.144 118.39 117.195 119.022C117.246 119.68 117.285 120.343 117.309 120.995C117.318 121.252 117.245 121.494 117.112 121.696C116.903 122.013 116.544 122.229 116.131 122.243C116.115 122.245 116.1 122.245 116.084 122.245Z" fill="#FDAB76"/>
<path fill-rule="evenodd" clip-rule="evenodd" d="M101.762 107.615C101.688 107.386 101.474 107.228 101.23 107.224L94.2697 107.072C92.5976 104.326 90.4689 101.822 87.9214 99.6861L88.9147 92.9025C88.9495 92.6644 88.8272 92.4309 88.6102 92.3209L81.1848 88.5568C80.9678 88.4466 80.7039 88.4843 80.5276 88.6506L75.5008 93.3891C72.2549 92.5889 68.9492 92.3376 65.7082 92.5937L61.5384 87.102C61.3922 86.9094 61.138 86.8295 60.9058 86.9029L52.9528 89.4129C52.7206 89.4863 52.5608 89.6968 52.5556 89.9371L52.4027 96.7933C49.6141 98.4403 47.0722 100.537 44.9029 103.047L38.0165 102.068C37.7748 102.033 37.5378 102.153 37.4261 102.368L33.6045 109.682C33.4928 109.896 33.5311 110.155 33.6999 110.329L38.5106 115.281C37.6982 118.477 37.4431 121.734 37.703 124.926L32.1277 129.033C31.9323 129.177 31.8509 129.428 31.9256 129.657L34.4738 137.49C34.5481 137.719 34.7621 137.877 35.0058 137.881L41.9666 138.033C43.6386 140.78 45.7674 143.283 48.3149 145.419L47.3216 152.202C47.2866 152.44 47.4089 152.674 47.6259 152.785L55.0515 156.548C55.2685 156.658 55.5324 156.621 55.7087 156.455L60.7355 151.716C63.9814 152.516 67.2873 152.767 70.5282 152.512L74.6979 158.003C74.8441 158.196 75.0981 158.276 75.3306 158.202L83.2834 155.692C83.5158 155.62 83.6753 155.408 83.6807 155.168L83.8336 148.313C86.6221 146.664 89.1639 144.568 91.3335 142.058L98.2203 143.037C98.4606 143.072 98.6978 142.952 98.81 142.737L102.632 135.423C102.743 135.209 102.706 134.95 102.536 134.776L97.725 129.824C98.5376 126.628 98.7924 123.371 98.5328 120.179L104.108 116.072C104.304 115.928 104.386 115.677 104.31 115.448L101.762 107.615Z" fill="#FDAB76"/>
<path fill-rule="evenodd" clip-rule="evenodd" d="M74.4143 128.019C71.3531 131.439 66.0385 131.769 62.5661 128.752C60.884 127.292 59.8803 125.274 59.7398 123.069C59.5989 120.865 60.3375 118.739 61.8211 117.083C64.8824 113.662 70.197 113.334 73.6692 116.349C76.828 119.093 77.3897 123.672 75.16 127.052C74.939 127.386 74.6901 127.71 74.4143 128.019Z" fill="#FEE9D1"/>
<path fill-rule="evenodd" clip-rule="evenodd" d="M85.2331 133.701C85.6161 133.121 85.9716 132.519 86.2977 131.894C86.4003 131.698 86.4996 131.501 86.596 131.3C87.0702 130.317 87.4641 129.297 87.7716 128.257L87.7845 128.214C87.7962 128.175 87.8079 128.134 87.8191 128.094C87.8417 128.015 87.8635 127.937 87.8851 127.858C87.9418 127.651 87.8529 127.439 87.6798 127.329C87.6377 127.302 87.5905 127.281 87.5396 127.267C87.2785 127.198 87.0106 127.351 86.9399 127.608C86.5782 128.931 86.0692 130.225 85.427 131.454C82.2397 137.555 76.195 141.283 69.7238 141.872C66.1245 142.201 62.3931 141.556 58.9477 139.811C58.3433 139.504 57.7592 139.17 57.1975 138.81C53.415 136.388 50.6165 132.789 49.2216 128.5C47.6188 123.575 48.0598 118.328 50.463 113.729C55.4272 104.23 67.3032 100.485 76.9423 105.371C77.5367 105.672 78.1133 106.002 78.6699 106.359C81.0827 107.904 83.1253 109.952 84.6441 112.362C84.6834 112.424 84.7345 112.474 84.7932 112.512C84.947 112.61 85.1517 112.62 85.318 112.517C85.5475 112.377 85.6192 112.08 85.4759 111.852C83.8813 109.322 81.7368 107.172 79.2039 105.551C78.6196 105.177 78.0145 104.829 77.3907 104.514C67.2705 99.3833 54.7991 103.322 49.5924 113.287C47.0693 118.116 46.6066 123.622 48.289 128.795C49.7533 133.297 52.6914 137.075 56.6622 139.618C57.2521 139.995 57.8654 140.346 58.4993 140.668C63.4018 143.154 68.9932 143.609 74.2433 141.953C78.8153 140.51 82.6521 137.615 85.2331 133.701Z" fill="#FEE9D1"/>
<path fill-rule="evenodd" clip-rule="evenodd" d="M140.558 63.2264C140.531 63.0557 140.563 62.8747 140.663 62.7162C140.796 62.5225 141.017 62.3965 141.249 62.3741C141.017 62.6578 140.789 62.9395 140.558 63.2264Z" fill="#FDAB76"/>
<path fill-rule="evenodd" clip-rule="evenodd" d="M121.576 121.831C121.336 121.811 121.095 121.787 120.856 121.76C120.725 121.746 120.605 121.7 120.504 121.629C120.459 121.266 120.414 120.897 120.374 120.526C120.513 120.371 120.719 120.276 120.94 120.276C120.967 120.276 120.994 120.278 121.023 120.279C121.146 120.294 121.271 120.306 121.395 120.319C121.451 120.83 121.512 121.335 121.576 121.831Z" fill="#FDAB76"/>
<path fill-rule="evenodd" clip-rule="evenodd" d="M128.66 121.68C128.288 121.68 127.963 121.408 127.913 121.034C127.857 120.627 128.149 120.253 128.563 120.198C129.805 120.035 131.051 119.795 132.269 119.486C132.333 119.47 132.396 119.462 132.458 119.462C132.795 119.462 133.103 119.685 133.191 120.021C133.245 120.231 133.204 120.444 133.092 120.613C132.992 120.763 132.838 120.88 132.648 120.927C131.372 121.252 130.064 121.503 128.761 121.674C128.728 121.678 128.694 121.68 128.66 121.68ZM136.136 119.776C135.835 119.776 135.548 119.596 135.433 119.303C135.279 118.92 135.471 118.488 135.861 118.338C137.029 117.888 138.181 117.361 139.286 116.774C139.399 116.714 139.521 116.685 139.643 116.685C139.912 116.685 140.172 116.827 140.31 117.077C140.444 117.325 140.423 117.615 140.278 117.836C140.21 117.937 140.117 118.024 140.004 118.085C138.845 118.699 137.637 119.252 136.412 119.726C136.321 119.76 136.228 119.776 136.136 119.776ZM142.928 116.169C142.691 116.169 142.459 116.059 142.311 115.855C142.069 115.519 142.149 115.056 142.491 114.816C143.513 114.103 144.502 113.32 145.435 112.486C145.579 112.357 145.762 112.294 145.943 112.294C146.148 112.294 146.353 112.376 146.502 112.537C146.738 112.792 146.759 113.167 146.576 113.443C146.542 113.495 146.499 113.545 146.451 113.59C145.475 114.463 144.436 115.283 143.364 116.032C143.233 116.125 143.079 116.169 142.928 116.169ZM148.638 111.051C148.464 111.051 148.287 110.993 148.145 110.871C147.829 110.603 147.797 110.134 148.065 109.822C148.882 108.887 149.65 107.891 150.348 106.862C150.494 106.645 150.733 106.53 150.977 106.53C151.123 106.53 151.268 106.571 151.397 106.657C151.741 106.882 151.836 107.34 151.611 107.681L151.605 107.689C150.873 108.769 150.068 109.812 149.212 110.792C149.062 110.964 148.85 111.051 148.638 111.051ZM152.929 104.731C152.815 104.731 152.698 104.704 152.587 104.649C152.216 104.464 152.066 104.016 152.256 103.649C152.823 102.546 153.329 101.397 153.759 100.235C153.871 99.935 154.161 99.7455 154.47 99.7455C154.555 99.7455 154.642 99.7598 154.727 99.7913C155.119 99.9318 155.321 100.358 155.179 100.745C154.73 101.962 154.2 103.166 153.603 104.322C153.591 104.347 153.578 104.369 153.563 104.391C153.421 104.608 153.179 104.731 152.929 104.731ZM155.567 97.5812C155.51 97.5812 155.454 97.575 155.397 97.5621C154.99 97.4699 154.736 97.0699 154.829 96.6694C155.111 95.4641 155.321 94.2298 155.451 93.0006C155.493 92.6181 155.821 92.3335 156.203 92.3335C156.23 92.3335 156.256 92.3348 156.281 92.3374C156.696 92.3804 156.999 92.7465 156.954 93.1555C156.818 94.4448 156.599 95.7398 156.304 97.0037C156.283 97.091 156.248 97.1712 156.2 97.2422C156.062 97.4514 155.823 97.5812 155.567 97.5812Z" fill="#FDAB76"/>
<path fill-rule="evenodd" clip-rule="evenodd" d="M148.688 70.0722C148.475 70.0722 148.264 69.9841 148.115 69.8125C147.716 69.3547 147.297 68.9029 146.873 68.4698C146.583 68.1743 146.587 67.7021 146.89 67.4169C147.036 67.277 147.227 67.2074 147.416 67.2074C147.613 67.2074 147.81 67.2833 147.959 67.4342C148.405 67.8889 148.844 68.3628 149.262 68.8425C149.485 69.0995 149.499 69.4629 149.322 69.733C149.283 69.791 149.237 69.845 149.18 69.8929C149.038 70.0132 148.863 70.0722 148.688 70.0722Z" fill="#FDAB76"/>
<path fill-rule="evenodd" clip-rule="evenodd" d="M95.1001 78.3017C95.0017 78.3017 94.9019 78.2826 94.8057 78.2425C94.4211 78.0822 94.2416 77.6455 94.4044 77.2667C94.8549 76.2183 95.3716 75.1762 95.938 74.1722C96.0232 74.0191 96.1106 73.8682 96.1987 73.7171C96.3303 73.4767 96.5853 73.3441 96.8479 73.3441C96.979 73.3441 97.112 73.3771 97.2322 73.4457C97.5928 73.6516 97.7162 74.1068 97.5079 74.4633C97.4246 74.6041 97.3428 74.7466 97.2611 74.8927C96.7189 75.8537 96.2261 76.8476 95.7963 77.8473C95.7788 77.8885 95.7575 77.9273 95.7338 77.9635C95.5929 78.1772 95.3517 78.3017 95.1001 78.3017ZM99.0192 71.6034C98.8621 71.6034 98.7018 71.5546 98.5656 71.4532C98.2323 71.206 98.1698 70.7434 98.4166 70.4101C99.2243 69.3552 100.104 68.3417 101.032 67.3982C101.181 67.2474 101.378 67.1717 101.575 67.1717C101.764 67.1717 101.955 67.2415 102.101 67.3815C102.365 67.6331 102.402 68.0285 102.21 68.3212C102.183 68.3608 102.152 68.3987 102.119 68.4341C101.234 69.3337 100.394 70.3003 99.6249 71.3072C99.4759 71.5011 99.2483 71.6034 99.0192 71.6034Z" fill="#FDAB76"/>
<path fill-rule="evenodd" clip-rule="evenodd" d="M144.513 66.0862C144.346 66.0862 144.18 66.0322 144.039 65.9213C143.218 65.2705 142.354 64.6536 141.471 64.0883C141.285 63.969 141.096 63.8515 140.906 63.7353C140.712 63.6168 140.592 63.4261 140.558 63.2202C140.789 62.9334 141.016 62.6516 141.249 62.368C141.274 62.3656 141.298 62.3643 141.324 62.3643C141.454 62.3643 141.585 62.3975 141.704 62.47C141.902 62.5917 142.1 62.7148 142.295 62.8395C143.221 63.4323 144.127 64.079 144.987 64.7617C145.292 65.0031 145.356 65.4303 145.148 65.7466C145.133 65.7678 145.119 65.7883 145.103 65.8088C144.952 65.9911 144.734 66.0862 144.513 66.0862Z" fill="#FDAB76"/>
<path fill-rule="evenodd" clip-rule="evenodd" d="M104.481 66.0511C104.26 66.0511 104.041 65.9561 103.892 65.7733C103.63 65.4527 103.682 64.9856 104.007 64.7261C105.047 63.9015 106.153 63.1322 107.291 62.4395C107.416 62.3644 107.552 62.3286 107.688 62.3286C107.942 62.3286 108.188 62.4539 108.331 62.6817C108.49 62.9349 108.477 63.2452 108.323 63.479C108.264 63.5685 108.185 63.6471 108.086 63.7068C107.001 64.367 105.948 65.1002 104.954 65.8868C104.815 65.9973 104.648 66.0511 104.481 66.0511Z" fill="#FDAB76"/>
<path fill-rule="evenodd" clip-rule="evenodd" d="M137.844 62.0095C137.738 62.0095 137.63 61.9874 137.528 61.9405C136.368 61.4121 135.166 60.9496 133.952 60.5663C133.553 60.4405 133.335 60.0219 133.464 59.6301C133.566 59.3155 133.863 59.1128 134.183 59.1128C134.26 59.1128 134.337 59.1243 134.414 59.1485C135.685 59.55 136.946 60.0347 138.163 60.5891C138.541 60.7618 138.706 61.2042 138.531 61.5779C138.515 61.6104 138.498 61.6418 138.478 61.6713C138.336 61.8859 138.095 62.0095 137.844 62.0095Z" fill="#FDAB76"/>
<path fill-rule="evenodd" clip-rule="evenodd" d="M111.154 61.9924C110.868 61.9924 110.594 61.8312 110.466 61.558C110.293 61.184 110.458 60.7417 110.838 60.5707C112.053 60.022 113.316 59.5415 114.591 59.1419C114.667 59.1181 114.744 59.1069 114.819 59.1069C115.141 59.1069 115.437 59.3091 115.54 59.6258C115.611 59.8473 115.572 60.0773 115.453 60.2577C115.362 60.3971 115.221 60.5071 115.048 60.5616C113.832 60.9425 112.628 61.401 111.468 61.9245C111.367 61.9706 111.259 61.9924 111.154 61.9924ZM125.731 58.2579C125.784 58.0404 125.931 57.8624 126.125 57.7653C125.994 57.9293 125.862 58.0931 125.731 58.2579Z" fill="#FDAB76"/>
<path fill-rule="evenodd" clip-rule="evenodd" d="M130.369 59.6535C130.323 59.6535 130.276 59.6494 130.228 59.6407C128.975 59.4085 127.693 59.2518 126.419 59.1741C126.002 59.1487 125.685 58.7954 125.71 58.3851C125.714 58.3419 125.72 58.2996 125.73 58.2588C125.861 58.094 125.993 57.9302 126.124 57.7662C126.226 57.7149 126.342 57.6861 126.464 57.6861C126.48 57.6861 126.496 57.6866 126.512 57.6877C127.848 57.7687 129.193 57.9338 130.507 58.1769C130.917 58.253 131.188 58.6421 131.111 59.0464C131.092 59.1446 131.055 59.235 131.002 59.3143C130.864 59.5225 130.627 59.6535 130.369 59.6535Z" fill="#FDAB76"/>
<path fill-rule="evenodd" clip-rule="evenodd" d="M118.631 59.6502C118.275 59.6502 117.958 59.4005 117.889 59.0427C117.814 58.6396 118.083 58.2497 118.493 58.1736C119.806 57.9311 121.15 57.7669 122.487 57.685C122.503 57.6841 122.519 57.6836 122.535 57.6836C122.931 57.6836 123.264 57.9878 123.288 58.3824C123.298 58.5479 123.253 58.7041 123.168 58.8334C123.042 59.0246 122.83 59.1564 122.58 59.1716C121.306 59.2494 120.024 59.406 118.772 59.6374C118.726 59.6461 118.678 59.6502 118.631 59.6502Z" fill="#FDAB76"/>
<path fill-rule="evenodd" clip-rule="evenodd" d="M124.454 121.953C123.494 121.953 122.531 121.912 121.577 121.828C121.513 121.333 121.452 120.828 121.396 120.316C122.404 120.414 123.425 120.464 124.441 120.464C124.56 120.464 124.677 120.463 124.795 120.461C124.798 120.461 124.803 120.461 124.803 120.461C125.218 120.461 125.555 120.79 125.56 121.199C125.561 121.352 125.516 121.494 125.438 121.612C125.305 121.814 125.076 121.948 124.813 121.952C124.693 121.953 124.572 121.953 124.454 121.953ZM120.505 121.626C120.287 121.475 120.157 121.214 120.189 120.935C120.207 120.775 120.274 120.635 120.375 120.523C120.415 120.894 120.46 121.263 120.505 121.626Z" fill="#FDAB76"/>
<path fill-rule="evenodd" clip-rule="evenodd" d="M156.37 89.9815C155.958 89.9813 155.621 89.6572 155.613 89.2509C155.602 88.6427 155.572 88.0324 155.525 87.4368C155.493 87.0267 155.806 86.6693 156.221 86.6363C156.24 86.6349 156.259 86.6341 156.28 86.6341C156.671 86.6341 157.001 86.931 157.033 87.3213C157.083 87.9461 157.113 88.5857 157.126 89.2228C157.128 89.3774 157.083 89.5215 157.004 89.6419C156.871 89.8422 156.644 89.9761 156.384 89.9813C156.379 89.9813 156.375 89.9815 156.37 89.9815Z" fill="#FDAB76"/>
<path fill-rule="evenodd" clip-rule="evenodd" d="M146.769 79.6821C146.718 79.529 146.575 79.4239 146.412 79.4202L141.754 79.3195C140.636 77.4816 139.211 75.8062 137.506 74.3764L138.171 69.8373C138.195 69.678 138.113 69.5219 137.968 69.4482L132.999 66.9294C132.854 66.8557 132.677 66.881 132.559 66.9921L129.195 70.163C127.023 69.6275 124.812 69.4594 122.642 69.6307L119.852 65.9559C119.754 65.8271 119.584 65.7736 119.428 65.8227L114.108 67.5023C113.952 67.5512 113.845 67.6922 113.842 67.8531L113.739 72.4409C111.874 73.5429 110.172 74.9461 108.72 76.6252L104.112 75.9704C103.95 75.9475 103.792 76.028 103.718 76.171L101.16 81.0654C101.085 81.2084 101.111 81.3822 101.224 81.4986L104.442 84.8118C103.899 86.9513 103.729 89.1302 103.902 91.2663L100.171 94.0146C100.042 94.1111 99.9872 94.2786 100.037 94.4317L101.742 99.674C101.792 99.8271 101.934 99.9313 102.098 99.936L106.755 100.035C107.875 101.875 109.298 103.549 111.004 104.98L110.338 109.518C110.316 109.677 110.398 109.834 110.542 109.908L115.512 112.426C115.656 112.5 115.834 112.475 115.951 112.364L119.315 109.193C121.486 109.728 123.699 109.897 125.868 109.725L128.658 113.4C128.756 113.529 128.926 113.583 129.081 113.532L134.403 111.853C134.559 111.804 134.665 111.663 134.669 111.502L134.772 106.915C136.637 105.813 138.338 104.41 139.79 102.73L144.397 103.385C144.559 103.409 144.718 103.328 144.793 103.185L147.349 98.2904C147.425 98.1473 147.399 97.9734 147.287 97.8572L144.067 94.5439C144.61 92.4045 144.782 90.2256 144.607 88.0894L148.338 85.341C148.469 85.2447 148.524 85.0772 148.474 84.9241L146.769 79.6821Z" fill="#FDAB76"/>
<path fill-rule="evenodd" clip-rule="evenodd" d="M128.545 93.4097C127.536 94.5387 126.14 95.2121 124.616 95.3065C123.091 95.4011 121.62 94.9052 120.474 93.91C118.111 91.8564 117.883 88.2964 119.966 85.9603C122.053 83.6311 125.673 83.4069 128.037 85.4605C129.183 86.4553 129.867 87.8301 129.963 89.3315C130.04 90.552 129.723 91.7375 129.058 92.7448C128.906 92.9762 128.734 93.1987 128.545 93.4097Z" fill="#FEE9D1"/>
<path fill-rule="evenodd" clip-rule="evenodd" d="M136.075 97.3608C136.335 96.9656 136.577 96.5543 136.801 96.1269C137.245 95.2781 137.602 94.3839 137.862 93.4667C137.873 93.4255 137.884 93.3842 137.896 93.3428C137.984 93.0233 137.846 92.6965 137.578 92.5251C137.514 92.4834 137.44 92.4511 137.362 92.4302C136.96 92.3232 136.546 92.5598 136.436 92.9557C136.202 93.8143 135.871 94.6516 135.456 95.4448V95.4452C135.434 95.4887 135.41 95.5323 135.387 95.5752C134.387 97.4438 132.953 98.9962 131.216 100.137C130.272 100.756 129.237 101.254 128.132 101.613L128.105 101.621C128.078 101.631 128.051 101.639 128.023 101.648C124.786 102.67 121.337 102.389 118.315 100.856C117.924 100.658 117.546 100.442 117.182 100.209C114.733 98.641 112.922 96.3105 112.018 93.534C110.981 90.3446 111.267 86.9488 112.823 83.9714C114.379 80.9965 117.018 78.7914 120.256 77.7689C123.493 76.7473 126.942 77.0282 129.964 78.5609C130.349 78.7555 130.722 78.9693 131.083 79.1999C132.644 80.2002 133.968 81.5256 134.95 83.0862C135.011 83.1823 135.089 83.2603 135.181 83.3178C135.418 83.4699 135.734 83.4835 135.99 83.3263C136.344 83.1084 136.455 82.6506 136.234 82.3005C135.134 80.5545 133.655 79.0711 131.908 77.952C131.504 77.6936 131.086 77.4548 130.657 77.2366C127.273 75.522 123.416 75.2075 119.794 76.3509C116.172 77.4944 113.217 79.9555 111.478 83.2897C109.738 86.6209 109.417 90.4202 110.579 93.9884C111.589 97.0948 113.616 99.7018 116.355 101.456C116.762 101.716 117.185 101.958 117.623 102.18C124.171 105.5 132.145 103.317 136.075 97.3608Z" fill="#FEE9D1"/>
<path fill-rule="evenodd" clip-rule="evenodd" d="M302.421 147.903L280.438 170.052L306.807 163.115L302.421 147.903Z" fill="#D2FCF4"/>
<path fill-rule="evenodd" clip-rule="evenodd" d="M433.226 157.073L308.315 163.043C305.107 163.196 302.421 160.677 302.421 157.514V106.895C302.421 101.394 306.858 96.8867 312.44 96.7165L425.018 93.2852C433.401 93.2852 440.197 99.9793 440.197 108.237V149.865C440.197 153.714 437.13 156.885 433.226 157.073Z" fill="#D2FCF4"/>
<path fill-rule="evenodd" clip-rule="evenodd" d="M422.947 104.417L323.066 108.098C322.085 108.134 321.312 108.775 321.346 109.525L321.383 110.39C321.415 111.132 322.224 111.702 323.194 111.667L423.078 108.074C424.061 108.04 424.833 107.399 424.802 106.647L424.759 105.694C424.727 104.95 423.918 104.38 422.947 104.417Z" fill="#22B8CF"/>
<path fill-rule="evenodd" clip-rule="evenodd" d="M414.007 129.322L314.126 132.985C313.145 133.021 312.374 133.684 312.408 134.461L312.448 135.356C312.48 136.124 313.291 136.716 314.26 136.682L414.147 133.111C415.128 133.076 415.9 132.415 415.866 131.637L415.823 130.648C415.789 129.878 414.98 129.286 414.007 129.322Z" fill="#22B8CF"/>
<path fill-rule="evenodd" clip-rule="evenodd" d="M425.677 139.743L314.331 143.884C313.238 143.925 312.374 144.597 312.408 145.382L312.448 146.286C312.482 147.063 313.382 147.657 314.464 147.617L425.814 143.57C426.908 143.53 427.772 142.858 427.739 142.073L427.695 141.076C427.661 140.297 426.759 139.704 425.677 139.743Z" fill="#22B8CF"/>
<path fill-rule="evenodd" clip-rule="evenodd" d="M368.183 119.102L313.744 120.665C313.21 120.681 312.81 121.404 312.855 122.275L312.904 123.281C312.947 124.144 313.409 124.828 313.938 124.813L368.382 123.355C368.917 123.341 369.318 122.618 369.275 121.745L369.218 120.635C369.175 119.771 368.714 119.086 368.183 119.102Z" fill="#22B8CF"/>
<path fill-rule="evenodd" clip-rule="evenodd" d="M428.171 117.248L376.714 118.7C376.21 118.714 375.835 119.437 375.878 120.308L375.929 121.314C375.972 122.178 376.411 122.863 376.912 122.848L428.371 121.5C428.878 121.488 429.253 120.765 429.209 119.892L429.153 118.782C429.11 117.919 428.671 117.233 428.171 117.248Z" fill="#22B8CF"/>
<path fill-rule="evenodd" clip-rule="evenodd" d="M112.759 436.264C112.759 436.264 111.73 442.005 111.225 447.688C111.027 449.909 112.765 451.838 115.028 451.931C122.711 452.247 139.148 452.859 145.045 452.6C145.931 452.561 146.512 451.667 146.183 450.854C145.907 450.174 145.377 449.623 144.702 449.318L117.552 437.028L112.759 436.264Z" fill="#22B8CF"/>
<path fill-rule="evenodd" clip-rule="evenodd" d="M111.916 432.89L112.743 439.757C112.743 439.757 117.498 441.938 120.747 439.482L118.777 431.829L111.916 432.89Z" fill="#FDBAB9"/>
<path fill-rule="evenodd" clip-rule="evenodd" d="M112.537 303.775C112.179 305.568 110.618 393.269 120.136 432.569C120.29 433.212 119.96 433.872 119.342 434.121C117.882 434.708 115.019 435.559 111.59 435.674C110.529 435.708 109.575 435.029 109.276 434.025C106.556 424.905 93.5197 379.218 91.8192 335.576C89.9189 286.809 91.8192 333.915 91.8192 333.915L92.9336 303.771L112.537 303.775Z" fill="#212B36"/>
<path fill-rule="evenodd" clip-rule="evenodd" d="M81.5281 439.258C81.5281 439.258 79.8891 442.158 78.3024 449.86C78.016 451.25 79.0026 452.581 80.4366 452.72C82.9737 452.966 86.8796 453.282 90.0082 453.26C91.4506 453.25 92.5762 452.014 92.4024 450.603C92.0559 447.792 90.9762 443.179 87.6408 439.585L81.5281 439.258Z" fill="#22B8CF"/>
<path fill-rule="evenodd" clip-rule="evenodd" d="M80.0877 430.421L82.0206 440.806C82.0206 440.806 83.9319 442.206 87.7125 441.191L86.7899 430.017L80.0877 430.421Z" fill="#FDBAB9"/>
<path fill-rule="evenodd" clip-rule="evenodd" d="M74.8669 306.468C67.083 352.739 76.5554 420.831 79.7499 434.159C79.9454 434.975 80.614 435.6 81.4536 435.736C82.8796 435.97 85.2273 436.159 87.542 435.498C88.3393 435.269 88.8995 434.56 88.9321 433.744C89.3606 422.969 88.5893 356.822 95.8421 330.681C96.2095 329.356 97.0317 328.201 98.1679 327.405L112.244 317.548L113.324 301.614L74.8669 306.468Z" fill="#212B36"/>
<path fill-rule="evenodd" clip-rule="evenodd" d="M193.369 184.947C191.079 182.221 188.178 183.511 188.178 183.511C184.746 197.794 166.747 209.374 148.254 215.035C149.462 220.101 152.243 228.669 158.141 235.402C188.829 218.407 193.369 184.947 193.369 184.947Z" fill="#FDBAB9"/>
<path fill-rule="evenodd" clip-rule="evenodd" d="M192.813 185.642C193.053 186.393 190.276 187.536 188.641 184.466C188.585 182.995 187.676 176.69 188.569 175.49C193.324 169.105 202.542 161.1 202.542 161.1C204.101 162.615 202.818 164.102 202.818 164.102L198.345 168.691C199.281 170.356 200.422 171.761 200.955 173.776C201.361 175.301 201.113 176.931 200.33 178.319C199.547 179.713 198.475 181.523 197.463 182.941C195.547 185.623 192.813 185.642 192.813 185.642Z" fill="#FDBAB9"/>
<path fill-rule="evenodd" clip-rule="evenodd" d="M196.387 171.669L192.311 175.072L191.032 178.46L194.666 182.432C194.666 182.432 195.888 175.709 196.795 174.253C197.704 172.799 197.233 172.095 196.387 171.669Z" fill="#FDBAB9"/>
<path fill-rule="evenodd" clip-rule="evenodd" d="M124.465 218.795C101.139 218.415 75.4007 224.827 75.4007 224.827C68.4476 264.79 74.1849 310.886 74.1849 310.886C92.2438 315.551 112.616 308.034 112.616 308.034C115.617 291.329 129.621 244.321 129.621 244.321C141.019 242.927 150.407 239.688 158.139 235.405C152.242 228.672 149.461 220.104 148.253 215.038C140.006 217.564 131.661 218.912 124.465 218.795Z" fill="#116E95"/>
<path fill-rule="evenodd" clip-rule="evenodd" d="M84.3475 247.074L75.4003 224.825C75.4003 224.825 53.6118 239.408 50.0285 257.896C54.1455 258.196 61.637 259.251 68.9698 262.897C70.5812 254.168 84.3475 247.074 84.3475 247.074Z" fill="#116E95"/>
<path fill-rule="evenodd" clip-rule="evenodd" d="M100.45 285.234L113.801 239.309C113.953 238.788 114.404 238.407 114.952 238.344C117.37 238.067 124.38 237.287 132.472 236.613C142.22 235.8 153.541 235.141 160.306 235.702C161.267 235.781 161.849 236.783 161.421 237.636C157.573 245.301 141.751 276.484 133.827 286.699C133.565 287.039 133.157 287.236 132.726 287.231L101.749 286.949C100.847 286.939 100.203 286.088 100.45 285.234Z" fill="#22B8CF"/>
<path fill-rule="evenodd" clip-rule="evenodd" d="M133.857 232.634L143.537 231.046C144.051 230.961 144.474 231.447 144.309 231.935L143.352 234.795C143.269 235.044 143.048 235.224 142.783 235.259L133.469 236.486C132.988 236.549 132.591 236.116 132.701 235.651L133.294 233.153C133.358 232.885 133.579 232.68 133.857 232.634Z" fill="#77F0ED"/>
<path fill-rule="evenodd" clip-rule="evenodd" d="M126.608 240.71L127.406 236.618C127.486 236.208 127.829 235.898 128.25 235.856L147.802 233.902C148.459 233.835 148.986 234.43 148.833 235.063L147.589 240.161C147.49 240.569 147.129 240.865 146.704 240.885L127.6 241.832C126.978 241.864 126.491 241.311 126.608 240.71Z" fill="#77F0ED"/>
<path fill-rule="evenodd" clip-rule="evenodd" d="M103.39 268.007C103.39 268.007 78.926 281.625 70.6717 269.997C68.9579 267.582 68.5483 265.183 68.9704 262.895C61.6376 259.249 54.146 258.194 50.0291 257.895C48.9488 263.468 49.5201 269.398 52.8452 275.388C67.3037 301.439 106.627 273.949 106.627 273.949L103.39 268.007Z" fill="#FDBAB9"/>
<path fill-rule="evenodd" clip-rule="evenodd" d="M103.674 274.142C103.674 274.142 101.815 266.609 102.565 263.936C103.315 261.264 104.768 257.829 109.613 258.591C114.458 259.355 120.173 261.366 120.173 261.366C120.173 261.366 119.884 264.847 116.203 263.723L118.485 265.464C118.485 265.464 118.16 268.25 115.049 266.762L117.173 269.07C117.173 269.07 115.838 271.359 113.549 269.891C111.261 268.423 110.163 275.049 103.674 274.142Z" fill="#FDBAB9"/>
<path fill-rule="evenodd" clip-rule="evenodd" d="M100.838 200.136L93.416 221.278C93.293 221.628 93.439 222.017 93.7684 222.197C95.7915 223.298 103.08 226.482 111.864 220.997C112.779 220.425 113.403 219.493 113.542 218.435L115.946 200.136H100.838Z" fill="#FDBAB9"/>
<path fill-rule="evenodd" clip-rule="evenodd" d="M116.987 180.559C116.987 180.559 125.138 195.67 124.093 201.776C123.048 207.881 112.947 207.442 104.126 202.483L97.9626 186.166L116.987 180.559Z" fill="#FDBAB9"/>
<path fill-rule="evenodd" clip-rule="evenodd" d="M104.515 194.465C104.874 194.308 105.006 193.876 104.793 193.552C104.139 192.57 102.914 190.566 102.525 188.81C102.525 188.81 101.059 187.887 106.254 186.662C111.448 185.437 119.194 183.536 120.822 179.181C122.41 174.935 118.239 164.257 111.585 172.766C111.331 173.089 110.836 173.096 110.583 172.772C109.492 171.373 106.624 168.47 102.642 170.23C98.9159 171.877 98.496 174.567 98.5473 175.923C98.5633 176.321 98.2011 176.632 97.8021 176.556C95.9188 176.202 91.398 175.899 89.2878 180.466C87.5498 184.229 88.6795 186.359 89.7082 187.401C90.0417 187.738 89.8956 188.294 89.4385 188.431C88.2005 188.806 86.6015 189.839 86.7615 192.697C86.983 196.646 91.4664 196.299 92.7429 196.119C92.9522 196.089 93.1628 196.16 93.3046 196.313C94.3991 197.507 99.331 202.572 104.668 203.183C105.131 203.237 105.488 202.787 105.338 202.353L103.027 195.74C102.919 195.432 103.068 195.096 103.371 194.964L104.515 194.465Z" fill="#063963"/>
<path fill-rule="evenodd" clip-rule="evenodd" d="M105.446 195.412C105.446 195.412 99.6424 191.491 99.2178 194.794C98.7947 198.096 104.444 199.578 107.242 198.347L105.446 195.412Z" fill="#FDBAB9"/>
</svg>
