<svg width="86" height="26" viewBox="0 0 86 26" fill="none" xmlns="http://www.w3.org/2000/svg">
<path d="M30.3606 10.0418C30.3606 7.50012 32.2138 5.72532 35.5816 5.72532C37.6365 5.72532 39.318 6.38142 40.229 7.02413C40.3594 7.1159 40.592 7.33854 40.4525 7.75261C40.2738 8.19859 39.946 8.86927 39.7108 9.30495C39.5739 9.55881 39.2244 9.52536 39.0453 9.43462C38.3964 9.1058 37.332 8.54954 36.3543 8.44696C36.1067 8.42001 35.8577 8.40924 35.6087 8.41471C34.7476 8.43393 34.0282 8.7329 33.7749 9.38985C33.7252 9.51416 33.6975 9.64614 33.6931 9.77991C33.6694 10.6456 34.8742 10.9587 36.3337 11.2094C39.0472 11.6743 41.1 12.4698 41.1 15.2626C41.1 17.6344 39.2151 19.7778 35.5219 19.7121C33.0872 19.6629 31.3599 18.8402 30.4343 18.0419C30.4028 18.0148 30.0505 17.656 30.2393 17.2244C30.4554 16.6688 30.8203 16.0321 31.1066 15.694C31.2657 15.4769 31.6858 15.4424 31.9042 15.5777C32.6671 16.0518 33.9227 16.8121 35.3701 16.8625C35.4843 16.8664 35.5975 16.8671 35.7087 16.8642C37.0106 16.8326 37.7983 16.339 37.7818 15.5074C37.7677 14.7748 36.7355 14.3469 35.0917 14.0371C32.47 13.5432 30.3606 12.6791 30.3606 10.0418ZM54.1779 13.6609C52.3292 13.6851 50.6341 14.1904 50.5853 15.6352C50.5847 16.7817 51.5148 17.3448 52.8201 17.2711C54.0723 17.1505 55.0272 16.6074 55.4479 15.8868C55.6035 15.6198 55.6272 14.6204 55.6177 14.1933C55.6153 14.1024 55.4356 13.9304 55.3569 13.8973C54.9641 13.7318 54.6735 13.681 54.1779 13.6609ZM48.0264 7.83924C48.8909 7.06564 50.605 5.86151 53.3368 5.92498C56.9418 5.99994 58.8463 7.69001 59.0236 11.7329C59.0967 13.4002 58.9756 18.0507 58.9468 19.2093C58.9425 19.3756 58.8862 19.4905 58.6622 19.4948C58.0686 19.5186 56.697 19.5092 56.0668 19.5009C55.7488 19.4855 55.7119 19.3277 55.7078 19.1625C55.7051 19.0545 55.6958 18.734 55.6891 18.4728C55.6855 18.3342 55.5553 18.3382 55.522 18.3737C54.6764 19.2766 53.2915 19.7126 51.8187 19.7126C49.5803 19.7126 47.3487 18.3958 47.3555 15.788C47.3624 13.1173 49.2561 11.8 51.3364 11.4894C52.6685 11.2911 54.17 11.4674 55.3071 11.9192C55.3798 11.9484 55.5284 11.9062 55.5296 11.8031C55.5342 11.4628 55.5177 10.8142 55.4524 10.5068C55.2855 9.72365 54.6321 9.09345 53.2596 8.92364C52.9769 8.88882 52.6923 8.87733 52.4074 8.89997C51.3163 8.98573 50.0033 9.83652 49.4595 10.155C49.3316 10.2298 49.1312 10.1751 49.0664 10.0916C48.749 9.68162 47.9514 8.48264 47.8886 8.29104C47.8259 8.09996 47.9147 7.93975 48.0264 7.83924ZM60.2123 12.8108C60.1909 9.08608 62.7861 5.94385 67.0003 5.91623C69.6298 5.89908 71.5401 7.0912 71.877 7.65347C71.9454 7.78555 71.9103 7.89584 71.8629 8.02878C71.6403 8.49876 71.078 9.40684 70.6773 9.92142C70.5067 10.1406 70.3214 9.95281 70.1061 9.80958C69.5087 9.41164 68.3735 8.92501 67.2564 8.92501C65.2296 8.92535 63.7203 10.3151 63.7371 12.8719C63.7529 15.3254 65.1985 16.6738 67.2634 16.7227C68.3428 16.7498 69.3886 16.1294 69.9513 15.6211C70.1279 15.4669 70.3108 15.5441 70.5127 15.7019C70.9089 16.1069 71.4772 16.7321 71.7923 17.1625C71.9986 17.4016 71.8442 17.6356 71.77 17.7296C70.9151 18.8114 69.2639 19.7219 67.0788 19.7342C62.5034 19.7663 60.2334 16.5488 60.2123 12.8108ZM82.0526 19.5663C82.2674 19.5502 84.5592 19.2339 85.2626 19.0728C85.4373 19.033 85.4994 18.8862 85.4017 18.7407C85.0089 18.1517 83.9762 16.479 82.8945 14.9815C81.8996 13.6047 80.8511 12.3937 80.512 11.9278C80.4293 11.8146 80.4338 11.7031 80.5238 11.6153C81.1689 10.984 83.8674 8.33821 84.882 7.24558C85.2748 6.82053 85.039 6.63768 84.7053 6.53836C84.0609 6.34625 83.0185 6.1068 82.4257 5.98176C82.1758 5.92892 81.8748 5.94745 81.6562 6.17215C80.6418 7.11813 77.5459 10.2254 76.6217 11.1542C76.4553 11.3218 76.3584 11.2846 76.3575 11.0451C76.35 9.25435 76.3146 1.58737 76.2507 0.32629C76.2462 0.159564 76.0457 0.0329758 75.9327 0.0269723C75.3515 -0.00338824 73.8834 -0.0121363 73.3048 0.0218263C73.1427 0.0401799 72.9878 0.205362 72.9738 0.344986C72.8403 2.36147 73.0304 17.164 73.1096 19.2347C73.1153 19.3845 73.2268 19.5006 73.369 19.509C73.9462 19.5424 75.3738 19.5402 76.0404 19.5277C76.3683 19.5277 76.4085 19.2972 76.4085 19.2972L76.4579 15.3251C76.4579 15.3251 76.4917 15.1484 76.5464 15.0901C76.7814 14.8371 77.4315 14.1403 77.7087 13.871C77.7752 13.8064 77.8802 13.811 77.9481 13.9024C78.2775 14.3467 79.2166 15.791 80.0871 17.0808C80.8869 18.2658 81.6336 19.3174 81.6857 19.3917C81.8062 19.5632 81.9466 19.5696 82.0526 19.5663ZM43.0755 19.5526C43.2771 19.5593 44.8063 19.5575 45.4838 19.5567C45.7119 19.5611 45.8305 19.3884 45.838 19.2359C45.9819 16.3326 45.9203 2.50985 45.8294 0.327147C45.8219 0.138466 45.7411 0.0676247 45.6123 0.0504719C45.0308 -0.027402 43.3783 -0.0092202 42.8486 0.129375C42.745 0.156305 42.6839 0.235036 42.6807 0.336238C42.551 5.96237 42.6385 18.9334 42.6659 19.179C42.6932 19.425 42.8215 19.544 43.0755 19.5526Z" fill="#919EAB"/>
<path d="M2.14985 13.78C1.20748 13.7872 0.409182 13.2256 0.114839 12.3491C0.103919 12.316 0.0937395 12.2826 0.0843067 12.2491C-0.236452 11.1266 0.385511 9.9523 1.50027 9.57631L19.3804 3.586C19.5927 3.52459 19.8124 3.4925 20.0334 3.49063C21.0008 3.48309 21.8211 4.05702 22.1226 4.95206L22.1494 5.03851C22.4839 6.20765 21.6528 7.25124 20.6571 7.58572C20.6564 7.58623 20.4753 7.64747 2.8761 13.6563C2.64218 13.736 2.39699 13.7778 2.14985 13.78Z" fill="#919EAB"/>
<path d="M5.13 22.5734C4.18025 22.5802 3.37921 22.0265 3.0883 21.1626C3.07726 21.1297 3.06696 21.0966 3.05743 21.0632C2.73221 19.9274 3.35348 18.7407 4.47202 18.3642L22.3528 12.3191C22.5839 12.2419 22.8225 12.2024 23.0625 12.2002C24.0148 12.193 24.8515 12.7748 25.1467 13.6486L25.1741 13.7395C25.3469 14.3434 25.2448 15.0222 24.9014 15.5579C24.6455 15.9562 23.8383 16.3068 23.8383 16.3068L5.88953 22.4439C5.64474 22.5267 5.38843 22.5702 5.13 22.5734Z" fill="#919EAB"/>
<path d="M20.0148 22.6116C19.5513 22.6161 19.0984 22.4737 18.7207 22.205C18.3431 21.9362 18.0603 21.5548 17.9127 21.1154L11.9453 3.38965L11.9154 3.29016C11.5921 2.15979 12.2139 0.980701 13.3283 0.605054C13.5513 0.530096 13.7818 0.490987 14.0139 0.488929C14.3587 0.486356 14.6923 0.564058 15.0065 0.719291C15.2654 0.847301 15.4964 1.02522 15.6862 1.24282C15.8761 1.46042 16.021 1.71341 16.1127 1.98723L22.0797 19.7114L22.097 19.7684C22.4322 20.942 21.8118 22.1218 20.6973 22.4974C20.4772 22.5709 20.2469 22.6095 20.0148 22.6116Z" fill="#919EAB"/>
<path d="M11.1445 25.5972C10.6807 25.6016 10.2275 25.4591 9.84972 25.1901C9.47195 24.9211 9.18904 24.5395 9.04152 24.0998L3.07559 6.3747C2.98315 6.10125 2.94555 5.81225 2.96495 5.52425C2.98435 5.23624 3.06036 4.95489 3.18863 4.6963C3.31691 4.43772 3.49493 4.20697 3.7125 4.01727C3.93006 3.82757 4.18291 3.68265 4.45657 3.59079C4.67702 3.5171 4.90767 3.47844 5.14011 3.47621C5.60365 3.47164 6.05674 3.61395 6.43443 3.88273C6.81211 4.15152 7.095 4.53299 7.24253 4.97246L13.2086 22.6982C13.3011 22.9718 13.3387 23.2609 13.3192 23.5491C13.2998 23.8372 13.2237 24.1187 13.0952 24.3773C12.9668 24.636 12.7886 24.8668 12.5708 25.0565C12.353 25.2461 12.1 25.391 11.8261 25.4826C11.6061 25.5564 11.3765 25.5952 11.1445 25.5972Z" fill="#919EAB"/>
<path d="M17.0729 18.6198L21.2339 17.1972L19.8737 13.1577L15.7079 14.5654L17.0729 18.6198Z" fill="#919EAB"/>
<path d="M8.21639 21.648L12.377 20.2255L11.0065 16.1551L6.84176 17.5634L8.21639 21.648Z" fill="#919EAB"/>
<path d="M14.1104 9.82102L18.2717 8.40026L16.9274 4.40794L12.7584 5.8047L14.1104 9.82102Z" fill="#919EAB"/>
<path d="M5.25292 12.8451L9.41419 11.4244L8.05346 7.38112L3.88447 8.7777L5.25292 12.8451Z" fill="#919EAB"/>
</svg>
