<svg width="64" height="64" viewBox="0 0 64 64" fill="none" xmlns="http://www.w3.org/2000/svg">
<path d="M56.629 45.1644C56.278 45.0189 55.874 45.0993 55.6052 45.3679L45.3395 55.6337C45.0708 55.9024 44.9905 56.3064 45.136 56.6574C45.2812 57.0086 45.624 57.2373 46.0038 57.2373H56.2696C56.7885 57.2373 57.209 56.8168 57.209 56.298V46.0322C57.2089 45.6523 56.98 45.3098 56.629 45.1644ZM48.2713 55.3587L55.33 48.3V55.3587H48.2713Z" fill="#770508"/>
<path d="M63.4203 30.108C63.0693 29.9625 62.6652 30.0429 62.3965 30.3115L59.5831 33.1249V13.996C59.5831 13.4771 59.1625 13.0566 58.6437 13.0566H51.4261L54.0461 10.4366C54.0465 10.4362 54.0469 10.4357 54.0472 10.4353L56.5717 7.91082C57.1126 7.36994 57.4105 6.65044 57.4105 5.88544C57.4105 5.12044 57.1126 4.40118 56.5717 3.86006L53.6525 0.940803C53.1116 0.399926 52.3921 0.102051 51.6271 0.102051C50.8621 0.102051 50.1427 0.399926 49.6017 0.940803L37.4861 13.0565H8.32752V3.76331C8.32752 3.24443 7.90689 2.82393 7.38814 2.82393C3.31438 2.82418 0 6.13831 0 10.2123V50.1107C0 50.18 0.00800002 50.2475 0.02225 50.3125C0.152 52.0412 0.899877 53.6473 2.14975 54.8665C3.48576 56.1695 5.24939 56.8872 7.11589 56.8872H35.8207L30.4146 62.2933C30.1459 62.562 30.0656 62.9659 30.2109 63.3171C30.3563 63.6681 30.6989 63.8969 31.0788 63.8969H63.0608C63.5795 63.8969 64.0001 63.4764 64.0001 62.9576V30.9759C64.0001 30.596 63.7711 30.2534 63.4203 30.108ZM50.9305 2.26943C51.3145 1.88518 51.9401 1.88518 52.3241 2.26943L55.2435 5.18881C55.6277 5.57294 55.6277 6.19831 55.2435 6.58256L53.3821 8.44407L49.0688 4.13093L50.9305 2.26943ZM47.7403 5.45944L52.0535 9.77245L50.3299 11.4961L46.017 7.18306L47.7403 5.45944ZM62.1216 41.5311H60.3885C59.8696 41.5311 59.4491 41.9516 59.4491 42.4705C59.4491 42.9894 59.8696 43.4099 60.3885 43.4099H62.1216V46.2406H60.3885C59.8696 46.2406 59.4491 46.6611 59.4491 47.18C59.4491 47.6989 59.8696 48.1194 60.3885 48.1194H62.1216V50.95H60.3885C59.8696 50.95 59.4491 51.3705 59.4491 51.8894C59.4491 52.4083 59.8696 52.8288 60.3885 52.8288H62.1216V55.6595H60.3885C59.8696 55.6595 59.4491 56.0802 59.4491 56.5989C59.4491 57.1178 59.8696 57.5383 60.3885 57.5383H62.1216V62.0186H33.3466L42.8351 52.5302C43.202 52.1632 43.202 51.5685 42.8351 51.2017C42.793 51.1595 42.7477 51.123 42.7003 51.0905C42.3346 50.84 41.8313 50.8769 41.5065 51.2017L37.6995 55.0087H7.11601C4.26701 55.0087 1.9735 52.7844 1.88325 49.9405C1.88863 49.762 1.9025 49.585 1.92475 49.41C1.92488 49.409 1.925 49.408 1.92513 49.407C1.93563 49.3239 1.94825 49.2411 1.96263 49.1589C1.96425 49.1495 1.966 49.1402 1.96763 49.1308C1.98075 49.0574 1.9955 48.9844 2.01163 48.9116C2.01613 48.8914 2.02088 48.8712 2.02563 48.851C2.03988 48.7895 2.05525 48.7284 2.07175 48.6675C2.08075 48.6345 2.09013 48.6019 2.09975 48.569C2.1135 48.5213 2.12775 48.4737 2.14288 48.4265C2.158 48.3794 2.17413 48.3328 2.1905 48.2861C2.20188 48.2535 2.21313 48.2209 2.22538 48.1885C2.24825 48.127 2.2725 48.0661 2.2975 48.0058C2.30463 47.9884 2.31163 47.9708 2.319 47.9534C2.35113 47.8784 2.3845 47.8043 2.41975 47.731C2.42125 47.7279 2.42263 47.7248 2.42413 47.7216C3.15888 46.2011 4.57201 45.0675 6.26789 44.7158C6.27264 44.7148 6.27739 44.7136 6.28214 44.7126C6.35989 44.6968 6.43839 44.6831 6.51739 44.6705C6.53051 44.6684 6.54364 44.6658 6.55701 44.6638C6.62839 44.6529 6.70051 44.6444 6.77264 44.6363C6.79289 44.634 6.81301 44.6309 6.83339 44.6289C6.90301 44.6219 6.97326 44.6173 7.04351 44.6129C7.06576 44.6115 7.08801 44.6091 7.11026 44.608C7.20226 44.6034 7.29501 44.601 7.38814 44.601C7.90689 44.601 8.32752 44.1805 8.32752 43.6616V36.8505C8.32752 36.3316 7.90689 35.9111 7.38814 35.9111C6.86939 35.9111 6.44876 36.3316 6.44876 36.8505V42.7814C4.86251 42.982 3.39013 43.6895 2.22913 44.8233C2.107 44.9425 1.99125 45.0665 1.8785 45.1925V10.2123C1.8785 7.49469 3.85676 5.23006 6.44864 4.78281V33.0931C6.44864 33.6119 6.86926 34.0326 7.38801 34.0326C7.90677 34.0326 8.32739 33.612 8.32739 33.0932V14.9353H35.6074L30.4144 20.1283C30.0476 20.4953 30.0476 21.09 30.4144 21.4568C30.7813 21.8236 31.3761 21.8236 31.7428 21.4568L38.5395 14.6602C38.5392 14.6603 38.5397 14.66 38.5395 14.6602L44.6882 8.51144L49.0011 12.8246L48.4951 13.3306C48.4947 13.331 48.4942 13.3313 48.4939 13.3317L29.5528 32.273L25.2398 27.96L28.9733 24.2265C29.3402 23.8595 29.3402 23.2648 28.9733 22.898C28.6064 22.5312 28.0117 22.5312 27.6449 22.898L23.247 27.2957C23.2235 27.3192 23.2015 27.3441 23.1809 27.3696C23.174 27.3781 23.1679 27.3872 23.1614 27.3961C23.1482 27.4137 23.1352 27.4315 23.123 27.45C23.1162 27.4607 23.1099 27.4717 23.1034 27.4829C23.093 27.5004 23.083 27.5181 23.0739 27.5362C23.0679 27.548 23.0625 27.5599 23.057 27.5721C23.0487 27.5905 23.0409 27.6092 23.0338 27.628C23.0313 27.6346 23.028 27.6409 23.0257 27.6475L19.9478 36.3667C19.9313 36.4137 19.9194 36.4615 19.9105 36.5096H16.7865C16.2678 36.5096 15.8472 36.9301 15.8472 37.449C15.8472 37.9679 16.2678 38.3884 16.7865 38.3884H42.8008C43.3197 38.3884 43.7402 37.9679 43.7402 37.449C43.7402 36.9301 43.3197 36.5096 42.8008 36.5096H24.1367L29.8654 34.4874C29.8702 34.4856 29.8747 34.4832 29.8794 34.4815C29.9017 34.4732 29.9236 34.464 29.9452 34.4541C29.9538 34.4501 29.9624 34.4464 29.9708 34.4422C29.9933 34.431 30.0154 34.4186 30.0372 34.4054C30.0442 34.4011 30.0514 34.3972 30.0583 34.3929C30.0809 34.3784 30.1029 34.3625 30.1246 34.3457C30.1299 34.3416 30.1356 34.338 30.1408 34.3337C30.1669 34.3127 30.1926 34.2901 30.2168 34.2659L49.5473 14.9355H57.7042V35.0037L44.2672 48.4409C43.9003 48.8079 43.9003 49.4025 44.2672 49.7694C44.2901 49.7923 44.314 49.8138 44.3386 49.8339C44.5108 49.9743 44.7212 50.0445 44.9315 50.0445C45.1417 50.0445 45.3522 49.9743 45.5243 49.8339C45.549 49.8139 45.5728 49.7923 45.5957 49.7694C45.5953 49.7698 45.5961 49.769 45.5957 49.7694L62.1216 33.2434V41.5311ZM27.8347 33.2116L25.1439 34.1615L23.3512 32.3687L24.3011 29.678L27.8347 33.2116Z" fill="#770508"/>
</svg>
