<svg width="64" height="64" viewBox="0 0 64 64" fill="none" xmlns="http://www.w3.org/2000/svg">
<path d="M25.2512 3.75C24.7335 3.75 24.3137 4.16975 24.3137 4.6875C24.3137 5.20525 24.7335 5.625 25.2512 5.625C25.769 5.625 26.1887 5.20525 26.1887 4.6875C26.1887 4.16975 25.769 3.75 25.2512 3.75ZM59.3125 5.38H50.9362V2.4375C50.9362 1.0935 49.8428 0 48.4987 0H15.5013C14.1573 0 13.0638 1.0935 13.0638 2.4375V5.38H4.6875C2.10275 5.38 0 7.48275 0 10.0675V45.37C0 47.3374 1.18713 49.0195 2.91738 49.7154L0.691 53.5716C-0.72425 55.9847 0.13075 59.1975 2.57675 60.6097C5.00625 62.0124 8.17937 61.21 9.61487 58.724L14.6184 50.0576H26.6105L25.8965 55.3645H24.8519C23.9843 55.3645 23.2165 55.9484 22.9848 56.7841L21.6645 61.5448C21.5011 62.1331 21.6196 62.7494 21.9891 63.2354C22.3586 63.7214 22.9209 64 23.5315 64H40.4685C41.0791 64 41.6414 63.7212 42.0109 63.2352C42.3804 62.7492 42.4987 62.133 42.3356 61.5448L41.0153 56.7842C40.7835 55.9482 40.0159 55.3644 39.1481 55.3644H38.1035L37.3895 50.0575H59.3125C61.8973 50.0575 64 47.9548 64 45.37V10.0675C64 7.48275 61.8973 5.38 59.3125 5.38ZM50.9362 11.005H58.375V42.5575H50.9362V11.005ZM14.9388 2.4375C14.9388 2.12738 15.1911 1.875 15.5013 1.875H48.4987C48.8089 1.875 49.0612 2.12738 49.0612 2.4375V7.5H14.9388V2.4375ZM22.5406 13.5744C29.4094 13.5744 34.9975 19.1626 34.9975 26.0314C34.9975 32.9001 29.4094 38.4883 22.5406 38.4883C14.5701 38.4883 8.59087 31.0291 10.4047 23.2139C10.5219 22.7095 10.2079 22.2058 9.7035 22.0888C9.19913 21.9718 8.6955 22.2857 8.57837 22.7901C7.43 27.7375 9.0845 33.0254 12.6624 36.406L10.9754 39.3274C9.86575 39.1316 8.71513 39.6649 8.153 40.6469L7.05 42.5575H5.625V11.005H13.0638V15.2781C12.0389 16.1856 11.1333 17.249 10.3816 18.4505C10.1071 18.8894 10.2402 19.4679 10.6792 19.7425C11.1181 20.017 11.6967 19.8839 11.9712 19.4449C14.2551 15.7925 18.1779 13.5744 22.5406 13.5744ZM16.7064 39.121L15.2684 41.6114L12.6835 40.119L14.1241 37.6242C14.9264 38.2081 15.791 38.7114 16.7064 39.121ZM1.875 45.37V10.0675C1.875 8.51663 3.13675 7.255 4.6875 7.255H13.0638V9.13H5.1875C4.39488 9.13 3.75 9.77487 3.75 10.5675V42.995C3.75 43.7876 4.39488 44.4325 5.1875 44.4325H5.9675L3.87313 48.0601C2.71688 47.7069 1.875 46.6192 1.875 45.37ZM15.4532 44.8616C15.4532 44.8616 8.00875 57.7557 7.99113 57.7864C7.08763 59.3514 5.07938 59.8894 3.51437 58.9859C1.96562 58.0918 1.41612 56.0484 2.31487 54.5091L9.77687 41.5844C10.004 41.1857 10.533 41.0392 10.9285 41.2711C10.9303 41.2721 10.9319 41.2734 10.9336 41.2745C10.9364 41.2761 10.9394 41.2771 10.9423 41.2788L15.1321 43.6979C15.1357 43.7 15.1389 43.7025 15.1425 43.7045C15.1441 43.7054 15.1458 43.706 15.1474 43.7069C15.5486 43.9417 15.6859 44.4585 15.4532 44.8616ZM39.1483 57.2394C39.1763 57.2394 39.201 57.2581 39.2084 57.285V57.2851L40.5288 62.0459C40.5406 62.076 40.501 62.1285 40.4685 62.125H23.5315C23.4989 62.1284 23.459 62.0765 23.4714 62.0457L24.7917 57.2849C24.7992 57.258 24.824 57.2393 24.8519 57.2393H39.1483V57.2394ZM27.7882 55.3644L28.5023 50.0575H35.4976L36.2116 55.3644H27.7882ZM62.125 45.37C62.125 46.9209 60.8633 48.1825 59.3125 48.1825H15.7009L17.077 45.799C17.3258 45.3681 17.4412 44.8971 17.4389 44.4325H40.0942C40.6121 44.4325 41.0317 44.0127 41.0317 43.495C41.0317 42.9772 40.6121 42.5575 40.0942 42.5575H16.8873L18.4911 39.7799C19.7759 40.159 21.1348 40.3634 22.5406 40.3634C30.4432 40.3634 36.8725 33.9341 36.8725 26.0315C36.8725 18.1287 30.4431 11.6995 22.5406 11.6995C19.7937 11.6995 17.1771 12.472 14.9388 13.876V9.375H49.0612V42.5575H44.4692C43.9514 42.5575 43.5317 42.9772 43.5317 43.495C43.5317 44.0127 43.9514 44.4325 44.4692 44.4325H58.8125C59.6051 44.4325 60.25 43.7876 60.25 42.995V10.5675C60.25 9.77487 59.6051 9.13 58.8125 9.13H50.9362V7.255H59.3125C60.8633 7.255 62.125 8.51663 62.125 10.0675V45.37ZM17.7512 3.75C17.2335 3.75 16.8137 4.16975 16.8137 4.6875C16.8137 5.20525 17.2335 5.625 17.7512 5.625C18.269 5.625 18.6887 5.20525 18.6887 4.6875C18.6887 4.16975 18.269 3.75 17.7512 3.75ZM21.5012 3.75C20.9835 3.75 20.5637 4.16975 20.5637 4.6875C20.5637 5.20525 20.9835 5.625 21.5012 5.625C22.019 5.625 22.4387 5.20525 22.4387 4.6875C22.4387 4.16975 22.019 3.75 21.5012 3.75ZM46.2487 19.4039H39C38.4821 19.4039 38.0625 19.8236 38.0625 20.3414C38.0625 20.8591 38.4821 21.2789 39 21.2789H46.2487C46.7666 21.2789 47.1862 20.8591 47.1862 20.3414C47.1862 19.8236 46.7666 19.4039 46.2487 19.4039ZM46.2487 25.0289H39.875C39.3571 25.0289 38.9375 25.4486 38.9375 25.9664C38.9375 26.4841 39.3571 26.9039 39.875 26.9039H46.2487C46.7666 26.9039 47.1862 26.4841 47.1862 25.9664C47.1862 25.4486 46.7666 25.0289 46.2487 25.0289ZM22.5406 35.2504C27.624 35.2504 31.7596 31.1147 31.7596 26.0315C31.7596 20.9481 27.624 16.8125 22.5406 16.8125C17.4571 16.8125 13.3215 20.9481 13.3215 26.0315C13.3215 31.1147 17.4571 35.2504 22.5406 35.2504ZM22.5406 18.6874C26.5901 18.6874 29.8846 21.9819 29.8846 26.0314C29.8846 30.0809 26.5901 33.3753 22.5406 33.3753C18.4911 33.3753 15.1965 30.0808 15.1965 26.0314C15.1965 21.9819 18.4911 18.6874 22.5406 18.6874ZM46.2487 30.6539H38.875C38.3571 30.6539 37.9375 31.0736 37.9375 31.5914C37.9375 32.1091 38.3571 32.5289 38.875 32.5289H46.2487C46.7666 32.5289 47.1862 32.1091 47.1862 31.5914C47.1862 31.0736 46.7666 30.6539 46.2487 30.6539ZM47.1862 14.7164C47.1862 14.1986 46.7666 13.7789 46.2487 13.7789H35.5638C35.0459 13.7789 34.6263 14.1986 34.6263 14.7164C34.6263 15.2341 35.0459 15.6539 35.5638 15.6539H46.2487C46.7666 15.6539 47.1862 15.2341 47.1862 14.7164ZM47.1862 37.2164C47.1862 36.6986 46.7666 36.2789 46.2487 36.2789H35.5638C35.0459 36.2789 34.6263 36.6986 34.6263 37.2164C34.6263 37.7341 35.0459 38.1539 35.5638 38.1539H46.2487C46.7666 38.1539 47.1862 37.7341 47.1862 37.2164Z" fill="#063963"/>
</svg>
