<svg width="64" height="64" viewBox="0 0 64 64" fill="none" xmlns="http://www.w3.org/2000/svg">
<path d="M63.6338 11.7395L52.2588 0.366125C52.0244 0.13175 51.7065 0 51.375 0H14.25C12.1823 0 10.5 1.68225 10.5 3.75V6.133C4.35938 8.54175 0 14.5269 0 21.5114C0 22.2016 0.55975 22.7614 1.25 22.7614H16.5114C17.2016 22.7614 17.7614 22.2016 17.7614 21.5114V6.25C17.7614 5.55975 17.2016 5 16.5114 5C15.3066 5 14.1321 5.13087 13 5.37712V3.75C13 3.06075 13.5608 2.5 14.25 2.5H50.125V10.125C50.125 12.1927 51.8073 13.875 53.875 13.875H61.5V60.25C61.5 60.9393 60.9393 61.5 60.25 61.5H14.25C13.5608 61.5 13 60.9393 13 60.25V49.5416C13 48.8514 12.4403 48.2916 11.75 48.2916C11.0597 48.2916 10.5 48.8514 10.5 49.5416V60.25C10.5 62.3177 12.1823 64 14.25 64H60.25C62.3177 64 64 62.3177 64 60.25V12.6234C64 12.2919 63.8683 11.9739 63.6338 11.7395ZM15.2612 7.55538V20.2614H2.55525C3.15287 13.5304 8.53037 8.153 15.2612 7.55538ZM53.875 11.375C53.1857 11.375 52.625 10.8142 52.625 10.125V4.2675L59.7335 11.375H53.875Z" fill="#02665B"/>
<path d="M12.6336 44.1162C12.4012 43.8836 12.0787 43.75 11.75 43.75C11.4213 43.75 11.0988 43.8836 10.8663 44.1162C10.6337 44.3487 10.5 44.6712 10.5 45C10.5 45.3288 10.6336 45.6512 10.8663 45.8836C11.0988 46.1162 11.4213 46.25 11.75 46.25C12.0787 46.25 12.4012 46.1162 12.6336 45.8836C12.8663 45.6512 13 45.3288 13 45C13 44.6712 12.8663 44.3487 12.6336 44.1162Z" fill="#02665B"/>
<path d="M20.9883 9.47794C20.2981 9.47794 19.7383 10.0377 19.7383 10.7279V24.7392H5.72708C5.03683 24.7392 4.47708 25.2989 4.47708 25.9892C4.47708 35.0936 11.884 42.5006 20.9883 42.5006C30.0927 42.5006 37.4997 35.0936 37.4997 25.9892C37.4997 16.8848 30.0927 9.47794 20.9883 9.47794ZM22.2383 12.0333C25.1646 12.2931 27.8347 13.4568 29.9678 15.2421L22.2383 22.9714V12.0333ZM20.9883 40.0006C13.6837 40.0006 7.66658 34.3819 7.03246 27.2392H20.9883C21.3333 27.2392 21.6456 27.0994 21.8718 26.8734C21.8716 26.8737 21.872 26.8733 21.8718 26.8734L31.736 17.0096C33.7723 19.4429 34.9997 22.5754 34.9997 25.9892C34.9997 33.7151 28.7142 40.0006 20.9883 40.0006Z" fill="#02665B"/>
<path d="M54.7589 39.4502C52.6911 39.4502 51.0089 41.1325 51.0089 43.2002C51.0089 43.7185 51.1146 44.2123 51.3055 44.6617L44.1039 51.8633C43.609 51.6222 43.0535 51.4866 42.467 51.4866C41.8944 51.4866 41.3516 51.6161 40.8658 51.8465L36.0835 47.0642C36.2493 46.6412 36.3413 46.1814 36.3413 45.7001C36.3413 43.6324 34.659 41.9501 32.5913 41.9501C30.5235 41.9501 28.8413 43.6324 28.8413 45.7001C28.8413 46.2603 28.9656 46.7919 29.1869 47.2697L24.6 51.8566C24.1114 51.6228 23.5646 51.4917 22.9879 51.4917C20.9201 51.4917 19.2379 53.174 19.2379 55.2417C19.2379 57.3095 20.9201 58.9917 22.9879 58.9917C25.0556 58.9917 26.7379 57.3095 26.7379 55.2417C26.7379 54.6621 26.6056 54.1129 26.3699 53.6225L30.9311 49.0612C31.432 49.3097 31.9955 49.4501 32.5915 49.4501C33.2646 49.4501 33.8963 49.271 34.4429 48.9592L39.0903 53.6066C38.8513 54.0997 38.717 54.6527 38.717 55.2366C38.717 57.3043 40.3993 58.9866 42.467 58.9866C44.5348 58.9866 46.217 57.3043 46.217 55.2366C46.217 54.6668 46.0888 54.1266 45.8604 53.6426L52.9948 46.5082C53.5209 46.79 54.1215 46.9502 54.7589 46.9502C56.8266 46.9502 58.5089 45.268 58.5089 43.2002C58.5089 41.1325 56.8266 39.4502 54.7589 39.4502ZM22.9878 56.4918C22.2985 56.4918 21.7378 55.9311 21.7378 55.2418C21.7378 54.5526 22.2985 53.9918 22.9878 53.9918C23.3234 53.9918 23.6278 54.1255 23.8525 54.3415C23.8575 54.3467 23.8619 54.3524 23.867 54.3575C23.873 54.3635 23.8795 54.3685 23.8856 54.3742C24.1031 54.5992 24.2378 54.905 24.2378 55.2418C24.2378 55.931 23.677 56.4918 22.9878 56.4918ZM32.5913 46.9501C31.902 46.9501 31.3413 46.3894 31.3413 45.7001C31.3413 45.0108 31.902 44.4501 32.5913 44.4501C33.2805 44.4501 33.8413 45.0108 33.8413 45.7001C33.8413 46.3894 33.2805 46.9501 32.5913 46.9501ZM42.4668 56.4866C41.7775 56.4866 41.2168 55.9258 41.2168 55.2366C41.2168 54.5473 41.7775 53.9866 42.4668 53.9866C43.156 53.9866 43.7168 54.5473 43.7168 55.2366C43.7168 55.9258 43.156 56.4866 42.4668 56.4866ZM54.7586 44.4501C54.0694 44.4501 53.5086 43.8894 53.5086 43.2001C53.5086 42.5108 54.0695 41.9501 54.7586 41.9501C55.4479 41.9501 56.0086 42.5108 56.0086 43.2001C56.0086 43.8894 55.4479 44.4501 54.7586 44.4501Z" fill="#02665B"/>
<path d="M48.5117 29.375H41.9143C41.224 29.375 40.6643 29.9347 40.6643 30.625C40.6643 31.3153 41.2239 31.875 41.9143 31.875H48.5117C49.2019 31.875 49.7617 31.3153 49.7617 30.625C49.7617 29.9347 49.2019 29.375 48.5117 29.375Z" fill="#02665B"/>
<path d="M55.086 29.7412C54.8536 29.5087 54.5311 29.375 54.2024 29.375C53.8736 29.375 53.5511 29.5086 53.3186 29.7412C53.0861 29.9737 52.9524 30.2962 52.9524 30.625C52.9524 30.9538 53.086 31.2763 53.3186 31.5086C53.5511 31.7411 53.8724 31.875 54.2024 31.875C54.5311 31.875 54.8536 31.7412 55.086 31.5086C55.3185 31.2763 55.4524 30.9538 55.4524 30.625C55.4524 30.2962 55.3186 29.9737 55.086 29.7412Z" fill="#02665B"/>
<path d="M57.1835 17.375H41.9143C41.224 17.375 40.6643 17.9347 40.6643 18.625C40.6643 19.3153 41.2239 19.875 41.9143 19.875H57.1835C57.8738 19.875 58.4335 19.3153 58.4335 18.625C58.4335 17.9347 57.8738 17.375 57.1835 17.375Z" fill="#02665B"/>
<path d="M57.1835 23.375H41.9143C41.224 23.375 40.6643 23.9347 40.6643 24.625C40.6643 25.3153 41.2239 25.875 41.9143 25.875H57.1835C57.8738 25.875 58.4335 25.3153 58.4335 24.625C58.4335 23.9347 57.8738 23.375 57.1835 23.375Z" fill="#02665B"/>
</svg>
