<svg width="61" height="18" viewBox="0 0 61 18" fill="none" xmlns="http://www.w3.org/2000/svg">
<path d="M48.4445 17.3333H44.3601L37.5288 7.05314V17.3333H33.4445V0.666626H37.5288L44.3601 10.9943V0.666626H48.4445V17.3333Z" fill="#212B36"/>
<path d="M54.6434 3.91924V7.29056H60.1111V10.4245H54.6434V14.0807H60.6667V17.3333H50.6667V0.666626H60.6667V3.91924H54.6434Z" fill="#212B36"/>
<path d="M22.912 17.3333C21.3843 17.3333 19.9799 16.9779 18.6991 16.267C17.4336 15.5561 16.4228 14.5671 15.6667 13.2999C14.9259 12.0173 14.5556 10.5801 14.5556 8.98837C14.5556 7.39665 14.9259 5.9672 15.6667 4.70001C16.4228 3.43281 17.4336 2.44379 18.6991 1.73292C19.9799 1.02206 21.3843 0.666626 22.912 0.666626C24.4398 0.666626 25.8364 1.02206 27.1019 1.73292C28.3827 2.44379 29.3858 3.43281 30.1111 4.70001C30.8519 5.9672 31.2222 7.39665 31.2222 8.98837C31.2222 10.5801 30.8519 12.0173 30.1111 13.2999C29.3704 14.5671 28.3673 15.5561 27.1019 16.267C25.8364 16.9779 24.4398 17.3333 22.912 17.3333ZM22.912 13.7172C24.2083 13.7172 25.2423 13.2845 26.0139 12.4191C26.8009 11.5537 27.1945 10.4101 27.1945 8.98837C27.1945 7.55119 26.8009 6.40762 26.0139 5.55768C25.2423 4.69228 24.2083 4.25958 22.912 4.25958C21.6003 4.25958 20.5509 4.68455 19.7639 5.5345C18.9923 6.38444 18.6065 7.53573 18.6065 8.98837C18.6065 10.4256 18.9923 11.5768 19.7639 12.4422C20.5509 13.2922 21.6003 13.7172 22.912 13.7172Z" fill="#212B36"/>
<path d="M5.22984 14.0095H12.3333V17.3333H0.666672V14.2469L7.72312 3.99046H0.666672V0.666626H12.3333V3.75305L5.22984 14.0095Z" fill="#212B36"/>
</svg>
