<svg width="8" height="5" viewBox="0 0 8 5" fill="none" xmlns="http://www.w3.org/2000/svg">
<path d="M3.99994 4.33329C3.9122 4.3338 3.82523 4.31698 3.744 4.28381C3.66278 4.25063 3.5889 4.20175 3.52661 4.13996L0.859941 1.47329C0.797781 1.41113 0.748474 1.33734 0.714834 1.25613C0.681194 1.17491 0.663879 1.08787 0.663879 0.999961C0.663879 0.912054 0.681194 0.825009 0.714834 0.743794C0.748474 0.662579 0.797781 0.588786 0.859941 0.526627C0.9221 0.464468 0.995893 0.415161 1.07711 0.381521C1.15832 0.34788 1.24537 0.330566 1.33327 0.330566C1.42118 0.330566 1.50823 0.34788 1.58944 0.381521C1.67066 0.415161 1.74445 0.464468 1.80661 0.526627L3.99994 2.73329L6.19994 0.613294C6.26127 0.545101 6.33601 0.490295 6.41948 0.452304C6.50296 0.414313 6.59337 0.393955 6.68507 0.392502C6.77678 0.39105 6.86779 0.408533 6.95243 0.44386C7.03707 0.479188 7.1135 0.531599 7.17696 0.597815C7.24042 0.664031 7.28953 0.742629 7.32123 0.828691C7.35292 0.914754 7.36652 1.00643 7.36117 1.09799C7.35581 1.18955 7.33163 1.27901 7.29012 1.3608C7.24861 1.44258 7.19068 1.51492 7.11994 1.57329L4.45327 4.14663C4.33136 4.26417 4.16928 4.33091 3.99994 4.33329Z" fill="#212B36"/>
</svg>
