<svg width="326" height="325" viewBox="0 0 326 325" fill="none" xmlns="http://www.w3.org/2000/svg">
<path opacity="0.48" d="M306.751 126.454L298.303 68.7693L279.418 70.6911C277.825 70.3918 274.795 72.0684 274.078 73.7585L249.279 132.205C248.512 134.018 249.69 136.099 251.474 136.086L258.555 135.786V272.018C258.555 274.446 260.298 276.188 262.442 275.912L279.417 279.728C281.447 279.463 300.456 269.105 300.456 266.764V130.2L304.75 130.178C306.378 130.169 307.447 128.176 306.751 126.454Z" fill="#919EAB"/>
<g style="mix-blend-mode:multiply" opacity="0.3">
<path d="M277.287 135.176L258.556 135.791V272.023C258.556 274.451 260.299 276.193 262.443 275.917L279.418 279.733C280.253 279.621 283.979 277.798 288.063 275.528L277.287 135.176Z" fill="#DFE3E8"/>
</g>
<path d="M322.958 134.884L318.619 134.91V270.835C318.619 273.162 317.091 275.263 315.101 275.522L281.094 279.975C278.971 280.254 277.286 278.519 277.286 276.104V135.175L272.68 135.207C270.914 135.222 269.745 133.152 270.505 131.346L296.335 70.0412C297.167 68.0687 299.652 68.1936 300.479 70.2471L324.99 131.171C325.675 132.884 324.571 134.871 322.958 134.884Z" fill="#DFE3E8"/>
<path opacity="0.48" d="M224.991 287.212L207.257 283.049C205.024 283.337 203.209 281.615 203.209 279.2V167.916C203.209 165.503 205.024 163.491 207.257 163.424C219.47 163.087 253.928 161.686 265.06 163.244L249.06 273.44C249.06 275.761 224.991 287.212 224.991 287.212Z" fill="#919EAB"/>
<path d="M268.105 167.217V277.517C268.105 278.163 267.859 278.792 267.625 279.37C267.028 280.856 265.691 282.002 264.196 282.193L226.618 287.117C224.403 287.406 222.688 285.697 222.688 283.291V168.745C222.688 166.345 224.375 164.343 226.59 164.275C231.93 164.122 258.386 163.314 264.279 163.15C266.351 163.077 268.105 164.904 268.105 167.217Z" fill="#DFE3E8"/>
<path opacity="0.48" d="M165.568 295.015L146.866 290.843C144.408 291.16 142.416 289.364 142.416 286.831L142.981 208.854C142.981 206.321 144.983 204.149 147.431 204L189.208 201.48C191.5 201.341 210.72 204.018 210.72 204.018L192.8 280.503C192.796 282.937 167.884 294.711 165.568 295.015Z" fill="#919EAB"/>
<path d="M211.973 207.268V284.604C211.973 287.03 210.233 289.233 207.961 289.528L166.729 294.942C164.301 295.262 162.474 293.479 162.474 290.957V210.499C162.474 207.975 164.346 205.812 166.775 205.66C175.039 205.031 199.371 203.747 207.989 203.136C210.259 202.995 211.973 204.848 211.973 207.268Z" fill="#DFE3E8"/>
<path opacity="0.48" d="M97.7389 302.972L80.2393 299.449C77.5225 299.8 75.312 297.925 75.312 295.26V254.742C75.312 252.077 77.5225 249.716 80.2393 249.469C93.2555 248.219 134.61 243.484 146.387 247.106L130.939 288.273C130.939 290.828 100.3 302.637 97.7389 302.972Z" fill="#919EAB"/>
<path d="M150.737 251.294V292.398C150.737 293.192 150.626 293.966 150.273 294.663C149.223 296.941 146.916 297.711 144.583 297.813L100.58 303.563C97.891 303.914 95.626 302.051 95.626 299.4V256.552C95.8307 250.767 102.312 251.157 106.448 250.766C111.98 250.265 140.148 247.661 146.276 247.101C148.769 246.875 150.737 248.751 150.737 251.294Z" fill="#DFE3E8"/>
<path opacity="0.48" d="M57.5554 269.481L6.35039 274.828C4.16433 275.053 2.27864 276.448 1.39977 278.264C0.325092 278.795 1.0827 301.502 0.870217 302.753C0.870217 305.566 3.22204 307.865 6.35039 308.986L24.4441 312.623C27.2865 312.252 62.6128 299.541 62.6128 296.851L71.0979 286.527L79.683 271.819C79.683 271.819 60.3534 269.188 57.5554 269.481Z" fill="#919EAB"/>
<path d="M83.3791 276.288V301.004C83.3791 303.684 81.0807 306.145 78.3095 306.507C71.0782 307.439 35.5427 312.094 27.5794 313.133C24.589 313.526 22.146 311.58 22.146 308.783V282.96C22.146 280.168 24.5735 277.644 27.5628 277.324C31.7013 276.912 73.0184 272.517 78.3139 271.977C81.0818 271.678 83.3791 273.614 83.3791 276.288Z" fill="#DFE3E8"/>
<g style="mix-blend-mode:multiply" opacity="0.3">
<path d="M318.624 247.588V270.825C318.624 273.151 317.095 275.252 315.105 275.511L281.098 279.965C278.975 280.244 277.29 278.509 277.29 276.094V135.409C306.59 140.135 276.897 219.208 292.173 225.571C296.216 229.875 311.99 234.717 318.624 247.588Z" fill="#DFE3E8"/>
</g>
<g style="mix-blend-mode:multiply" opacity="0.3">
<path d="M267.512 279.367C266.916 280.854 265.635 281.999 264.14 282.19L226.59 287.114C224.375 287.403 222.688 285.694 222.688 283.288V168.742C222.783 162.335 230.81 164.62 234.771 164.025C241.059 168.799 242.955 175.662 240.166 184.412C213.43 268.693 265.563 225.396 267.512 279.367Z" fill="#DFE3E8"/>
</g>
<g style="mix-blend-mode:multiply" opacity="0.3">
<path d="M211.973 277.997C211.799 281.71 213.244 288.799 207.961 289.527L166.729 294.941C164.301 295.261 162.474 293.479 162.474 290.956V210.498C162.474 207.974 164.346 205.811 166.775 205.659L179.545 204.872C193.432 215.251 167.237 241.056 183.906 262.733C195.394 277.673 206.87 262.409 211.973 277.997Z" fill="#DFE3E8"/>
</g>
<g style="mix-blend-mode:multiply" opacity="0.3">
<path d="M144.583 297.82L100.58 303.57C97.891 303.921 95.626 302.057 95.626 299.406V256.558C95.8162 250.783 102.324 251.157 106.448 250.772C109.935 273.103 139.767 265.732 144.583 297.82Z" fill="#DFE3E8"/>
</g>
<g style="mix-blend-mode:multiply" opacity="0.3">
<path d="M67.2225 307.945L27.5652 313.131C24.5759 313.524 22.1484 311.578 22.1484 308.781V282.958C22.2452 276.405 30.8604 277.138 35.3482 276.502C40.9319 287.402 60.5541 287.402 67.2225 307.945Z" fill="#DFE3E8"/>
</g>
<path d="M230.441 305.534C230.441 305.534 231.259 308.887 231.285 310.103C231.31 311.318 218.094 313.01 217.888 312.116C217.682 311.221 219.89 309.592 221.492 308.95C225.198 307.501 227.914 306.532 230.441 305.534Z" fill="#22B8CF"/>
<path d="M226.953 302.405L227.71 306.596C227.71 306.596 229.333 307.496 230.628 306.596L230.943 301.942L226.953 302.405Z" fill="#FDBAB9"/>
<path d="M254.547 309.124C254.547 309.124 255.365 312.477 255.39 313.692C255.416 314.907 242.199 316.604 241.997 315.704C241.794 314.804 243.999 313.18 245.601 312.539C249.307 311.09 252.019 310.12 254.547 309.124Z" fill="#22B8CF"/>
<path d="M251.058 305.998L251.815 310.188C251.815 310.188 253.438 311.088 254.733 310.188L255.048 305.534L251.058 305.998Z" fill="#FDBAB9"/>
<path d="M220.622 191.931L216.769 201.738C216.918 232.728 220.329 272.571 225.718 304.029L231.932 303.235C234.461 296.956 237.285 287.525 236.716 276.212C236.124 264.412 232.47 263.135 231.802 251.844C230.934 237.217 236.682 232.828 238.517 214.987C239.219 208.166 239.355 199.321 237.523 188.751L220.622 191.931Z" fill="#212B36"/>
<path opacity="0.04" d="M237.525 188.749L228.396 190.469C223.642 200.639 222.903 210.884 224.227 215.281C226.099 221.502 229.888 223.237 230.192 229.612C230.493 235.913 226.958 237.847 225.22 245.45C224.018 250.715 224.816 255.4 226.464 264.559C230.079 287.485 238.986 291.388 225.17 300.641C225.351 301.774 225.531 302.91 225.717 304.03L231.932 303.235C234.46 296.956 237.285 287.526 236.715 276.212C236.124 264.412 232.47 263.135 231.802 251.845C230.934 237.217 236.682 232.829 238.517 214.987C239.221 208.164 239.357 199.318 237.525 188.749Z" fill="white"/>
<path d="M229.321 196.921C238.464 230.759 246.355 273.929 249.791 308.182L256.652 307.824C271.029 273.308 255.95 265.376 257.628 234.383C258.317 204.662 264.03 178.668 229.321 196.921Z" fill="#212B36"/>
<path d="M162.915 160.575C162.915 160.575 157.889 160.14 157.163 159.316C156.436 158.492 155.966 158.448 155.857 157.693C155.748 156.938 153.632 157.302 154.512 158.94C155.392 160.578 153.406 159.719 153.017 159.679C152.127 159.588 148.702 159.487 148.801 159.701C148.9 159.915 147.268 162.064 149.691 163.181C151.816 164.155 151.194 163.726 152.576 163.792C153.958 163.858 158.235 162.442 158.235 162.442L161.899 162.724L162.915 160.575Z" fill="#FDBAB9"/>
<path d="M159.97 158.203L159.303 163.286C177.273 181.402 214.217 169.767 219.5 145.002C221.218 134.733 219.677 118.907 207.994 127.52C187.077 144.961 198.267 160.786 159.97 158.203Z" fill="#22B8CF"/>
<path d="M215.278 205.096C212.8 201.607 215.267 197.841 215.34 190.839C215.424 182.902 212.32 181.837 208.318 169.01C203.992 155.429 199.886 136.983 212.698 125.156C218.086 121.299 246.194 121.546 250.643 123.886C251.277 124.161 264.468 130.091 266.236 141.356C264.74 163.76 248.227 152.056 258.671 195.197C264.166 213.313 252.006 209.57 227.966 208.769C220.414 208.299 217.126 207.699 215.278 205.096Z" fill="#22B8CF"/>
<path opacity="0.2" d="M241.627 169.518C242.67 172.452 245.743 174.457 248.338 181.587C248.895 183.127 252.887 194.088 249.085 197.175C246.888 198.957 244.562 196.106 238.893 196.169C227.07 196.394 222.702 209.24 214.23 200.375C214.106 207.689 218.372 208.015 227.967 208.774C247.234 209.981 256.867 210.585 259.595 205.51C260.727 203.403 260.025 201.756 258.675 195.207C257.269 188.387 255.102 177.879 255.299 170.902C256.339 152.647 274.212 148.848 262.726 133.373C247.479 141.098 238.349 160.302 241.627 169.518Z" fill="#063963"/>
<path d="M272.607 204.963C272.607 204.963 275.676 206.005 276.001 211.145C275.5 211.1 274.332 211.127 274.332 211.127C274.332 211.127 274.549 207.39 272.364 206.633C272.54 206.199 272.607 204.963 272.607 204.963Z" fill="#FDAB76"/>
<path d="M261.227 204.477L261.46 207.316C264.873 206.158 269.532 206.105 272.871 207.069C273.332 206.698 273.292 204.916 273.086 204.73C269.419 203.184 264.54 203.36 261.227 204.477Z" fill="#FA541C"/>
<path d="M261.08 205.291C261.06 204.6 261.236 204.088 261.543 204.913C261.69 205.08 261.703 206.946 261.605 206.985C261.377 208.05 261.031 206.004 261.08 205.291Z" fill="#B3200E"/>
<path d="M258.224 211.238C258.874 211.367 260.449 211.75 260.449 211.75C260.449 211.75 259.42 208.414 261.36 206.906C261.496 206.495 261.405 205.336 261.168 204.903C260.353 205.359 258.555 206.909 258.224 211.238Z" fill="#FDAB76"/>
<path d="M244.617 211.976C244.617 211.976 244.698 210.21 247.464 210.242C247.899 210.568 247.921 212.009 247.921 212.009L244.617 211.976Z" fill="#770508"/>
<path d="M242.152 246.739L249.722 251.256L254.268 234.196L246.761 211.362L244.617 211.978C245.001 212.551 239.995 247.595 242.152 246.739Z" fill="#FA541C"/>
<path d="M246.76 211.362L287.027 211.789L293.147 246.865L249.722 251.256L246.76 211.362Z" fill="#B3200E"/>
<path d="M247.463 210.24C246.935 210.179 245.825 210.277 245.226 210.871C247.41 209.949 247.472 212.863 247.605 214.306C247.812 216.457 249.083 229.818 249.083 229.818C249.178 230.944 250.018 231.793 251.009 231.767C252.031 231.4 288.184 230.139 289.082 229.335C290.678 229.174 287.599 213.171 287.826 212.231C287.669 211.342 287.003 210.698 286.228 210.689L247.463 210.24Z" fill="#770508"/>
<path d="M247.876 210.248C247.293 210.229 246.304 210.152 245.685 210.556C247.772 210.09 247.843 212.628 248.021 214.312C248.228 216.461 249.498 229.82 249.498 229.82C249.593 230.945 250.433 231.793 251.423 231.767C252.459 231.407 288.973 231.335 289.881 230.484C291.536 230.45 287.99 213.106 288.218 212.233C288.062 211.343 287.396 210.699 286.621 210.69L247.876 210.248Z" fill="#FA541C"/>
<path d="M272.727 233.955C264.851 236.027 266.896 236.07 266.338 228.633C266.305 227.755 267.028 227.444 267.725 227.534L272.471 228.148C272.923 228.14 273.302 227.891 273.323 228.441L273.516 233.648C273.537 234.199 273.178 233.913 272.727 233.955Z" fill="#B3200E"/>
<path d="M273.085 234.724L267.856 235.203C267.352 235.249 266.918 234.804 266.896 234.215L266.688 228.635C266.666 228.044 267.065 227.555 267.571 227.546L272.814 227.457C273.265 227.449 273.649 227.893 273.669 228.445L273.862 233.65C273.884 234.2 273.535 234.684 273.085 234.724Z" fill="#FDAB76"/>
<path d="M266.765 197.358C266.765 197.358 266.32 200.302 265.886 200.58C265.452 200.858 264.073 202.414 264.348 203.415C264.623 204.415 263.578 206.697 265.529 207.25C267.479 207.804 269.72 208.395 269.946 206.627C270.153 203.66 269.022 200.792 270.503 198.358L266.765 197.358Z" fill="#FDBAB9"/>
<path d="M248.338 123.004C242.182 155.911 261.045 154.122 267.237 172.478C268.372 179.396 268.866 193.036 265.528 197.458C268.532 198.672 268.852 198.605 271.123 198.605C290.946 176.989 288.872 135.053 248.338 123.004Z" fill="#22B8CF"/>
<path d="M240.217 122.869C232.104 120.722 230.276 118.945 229.203 111.072C229.203 111.072 224.879 112.235 225.512 114.494C226.145 116.753 225.067 121.934 222.585 123.091C220.847 123.901 218.691 124.226 218.227 124.767C217.607 124.951 218.903 126.734 223.357 129.268C238.976 126.682 241.003 124.508 240.217 122.869Z" fill="#FDBAB9"/>
<path d="M223.424 110.015C221.421 108.318 221.142 108.124 220.888 107.502C219.873 105.004 221.556 101.333 224.07 100.261C224.201 100.205 225.886 99.5047 226.606 100.21C227.217 100.809 226.463 101.765 226.954 102.976C227.413 104.109 228.417 104.115 230.385 105.49C232.006 106.622 233.013 107.326 233.317 108.406C233.947 110.634 231.497 114.135 229.09 114.239C228.227 114.272 227.957 113.841 223.424 110.015Z" fill="#063963"/>
<path d="M228.885 114.6C228.885 114.6 227.087 117.024 224.018 116.513C221.269 116.063 221.459 109.748 223.35 108.588C224.824 107.79 226.148 108.506 227.744 109.306C228.581 109.615 228.834 109.542 229.072 109.789C229.37 110.096 229.544 110.801 228.827 112.578C231.129 110.888 231.918 114.031 228.885 114.6Z" fill="#FDBAB9"/>
<path d="M227.589 128.743C227.589 128.743 226.718 133.449 225.356 133.54C224.565 133.591 223.777 133.683 222.995 133.815L221.471 128.061C221.471 128.061 223.457 129.698 227.589 128.743Z" fill="#116E95"/>
<path d="M226.003 133.144C226.003 133.144 229.033 167.563 239.657 173.073C239.385 174.176 239.657 183.13 239.657 183.13C239.657 183.13 229.756 180.114 229.19 180.317C228.624 180.521 217.195 161.356 222.996 133.817L226.003 133.144Z" fill="#063963"/>
<path d="M144.661 161.637C144.661 161.637 148.777 157.968 149.61 156.629C150.443 155.29 150.467 157.915 149.632 158.445C148.798 158.975 161.403 157.208 159.181 159.421C156.959 161.634 155.358 163.716 152.375 163.855C144.614 164.079 144.793 167.919 144.661 161.637Z" fill="#FDBAB9"/>
<path d="M63.1928 136.085C22.671 152.976 49.8172 213.25 89.0284 185.655C90.9007 183.496 91.8886 181.103 92.4426 179.092L90.3289 173.404C87.7456 170.253 84.229 169.503 82.3511 169.035C77.7209 167.881 74.2299 169.966 71.5743 167.709C70.107 166.459 69.8155 164.661 69.5552 163.054C68.6652 157.583 71.7212 154.216 71.9437 150.841C72.9349 144.719 71.5354 136.82 63.1928 136.085Z" fill="#FA541C"/>
<path d="M57.1861 317.425C57.007 316.423 53.8086 315.512 52.2244 316.862C51.439 317.528 50.8972 318.878 51.3522 319.488C51.5168 319.713 50.8393 320.1 51.489 320.108C53.6439 320.13 57.3653 318.42 57.1861 317.425Z" fill="#FA541C"/>
<path d="M53.8341 317.79L50.5444 317.32C52.0686 315.465 51.7871 309.556 51.7871 309.556L55.2848 310.344C55.208 310.791 53.6416 315.739 53.8341 317.79Z" fill="#FDBAB9"/>
<path d="M54.1258 317.375C54.1258 317.375 50.1664 316.452 49.738 317.246C49.3097 318.041 48.9771 320.172 51.4891 320.1C54.0012 320.028 54.3494 318.049 54.1258 317.375Z" fill="#FA541C"/>
<path d="M102.319 321.178C102.003 320.213 98.7103 319.767 97.3286 321.32C96.6422 322.091 96.2929 323.505 96.828 324.044C97.0216 324.241 96.4052 324.719 97.0505 324.638C99.1854 324.359 102.634 322.139 102.319 321.178Z" fill="#FA541C"/>
<path d="M99.0509 322.016H95.729C96.9817 319.962 95.8836 314.152 95.8836 314.152L99.457 314.438C99.4448 314.89 98.577 320.012 99.0509 322.016Z" fill="#FDBAB9"/>
<path d="M107.66 194.956C119.675 230.868 109.551 244.421 109.868 282.331C110.382 292.831 100.877 317.046 100.038 317.58C98.4395 317.712 97.3471 317.619 95.3757 317.068C86.7572 306.189 91.284 286.41 89.8132 266.681C89.732 264.506 84.2263 224.336 84.2263 224.336C82.2683 259.603 69.43 301.716 55.2334 312.459C55.0554 312.534 53.4189 313.135 52.0806 312.242C51.7355 312.021 51.4588 311.706 51.2818 311.333C50.8157 310.964 51.4198 279.913 56.7408 256.544C64.4638 222.625 61.1007 214.687 63.5471 199.539C65.6653 186.426 107.66 194.956 107.66 194.956Z" fill="#212B36"/>
<path d="M109.72 200.08C102.079 205.369 75.9705 207.957 63.5428 199.538C66.8525 191.253 64.6764 181.647 62.9698 176.598C59.9449 165.94 54.5604 145.035 58.1227 139.663C63.2513 131.863 93.1487 130.424 99.8637 137.362C99.975 137.465 98.6466 138.184 99.3075 138.959C111.98 151.421 112.965 188.921 109.72 200.08Z" fill="#FA541C"/>
<path d="M99.283 321.567C99.283 321.567 95.2335 321.213 94.9198 322.061C94.6061 322.908 94.5705 325.062 97.0491 324.637C99.5277 324.213 99.5967 322.201 99.283 321.567Z" fill="#FA541C"/>
<path d="M89.5907 127.566C91.5932 123.889 89.9823 119.376 88.9232 117.857L88.2368 117.124C87.7506 116.733 85.9372 116.207 85.5078 116.17C84.2841 116.108 81.7832 120.558 80.3525 127.422C79.5311 129.156 78.8014 130.932 78.1664 132.744C63.3702 133.939 67.9915 136.405 76.8859 138.113C88.3692 139.407 101.632 135.285 84.4431 133.394L84.9037 130.095C85.4366 129.974 88.4893 129.451 89.5907 127.566Z" fill="#FDBAB9"/>
<path d="M91.1496 115.853C90.5934 117.947 89.0236 119.921 88.4318 120.148C88.4162 120.137 87.5229 120.584 87.2792 120.99C86.4771 122.189 88.1436 124.303 87.5874 124.786C87.1835 125.137 85.9186 124.183 85.6583 124.508C85.408 124.814 86.3903 125.858 86.1033 126.221C85.8808 126.499 85.2389 126.017 84.6571 126.377C84.3322 126.602 83.648 128.083 83.1785 128.432C82.1384 129.47 79.9912 129.372 79.7298 128.77C79.7064 128.25 79.9245 127.982 79.6375 126.996C78.6796 124.987 76.053 123.146 75.915 120.738C75.727 118.938 76.3255 116.547 77.4514 115.225C79.218 113.199 81.5209 115.006 84.2554 113.264C87.4105 111.252 86.9143 107.204 88.3506 107.159C89.9314 107.114 92.1842 111.98 91.1496 115.853Z" fill="#770508"/>
<path d="M86.9721 124.093C86.6506 123.25 85.5826 123.673 85.3367 124.584C85.023 127.307 88.3872 127.752 86.9721 124.093Z" fill="#FDBAB9"/>
<path d="M86.9632 122.456C87.3526 123.039 88.138 126.732 89.522 125.726C90.353 125.04 90.5043 125.101 90.5321 125.147C90.5599 125.23 90.5555 124.707 90.5688 124.325C91.2363 126.456 91.6902 130.443 88.1069 130.677C88.1069 130.677 87.6441 130.66 85.8896 129.837C91.1818 128.013 86.6105 127.656 86.9632 122.456Z" fill="#770508"/>
<g opacity="0.2">
<path d="M65.1814 192.454C65.1502 192.454 65.1194 192.448 65.0908 192.435C65.0622 192.422 65.0366 192.404 65.0157 192.38C64.9947 192.357 64.9788 192.329 64.969 192.299C64.9592 192.27 64.9558 192.238 64.9589 192.206C65.5641 186.703 64.436 182.702 63.4404 179.173C61.667 172.37 60.945 169.568 59.442 164.027C59.3686 163.757 59.7969 163.629 59.867 163.914C61.36 169.664 61.4323 169.374 63.1867 176.542C64.2959 181.49 66.532 185.972 65.1814 192.454Z" fill="#770508"/>
<path d="M109.72 200.08C102.079 205.369 75.9706 207.957 63.5428 199.538C63.9878 198.174 64.3371 196.884 64.6075 195.664C74.0737 202.37 78.0331 195.847 84.1463 194.314C90.5065 192.717 98.6867 196.035 93.7072 181.177C88.7276 166.318 96.9924 167.4 96.9924 167.4L110.575 169.751C112.066 183.984 110.865 195.963 109.72 200.08Z" fill="#770508"/>
</g>
<path d="M144.746 161.066C146.599 162.378 147.594 164.16 148.11 165.298C130.855 204.152 74.9973 177.382 91.0941 141.206C91.7126 140.272 93.7485 137.197 96.908 136.843C98.9027 136.618 101.619 137.453 105.91 142.535C114.852 153.123 111.695 159.735 116.975 162.832C124.897 167.477 136.668 155.349 144.746 161.066Z" fill="#FA541C"/>
<path d="M156.637 158.33C156.637 158.33 155.703 156.515 154.402 157.404C153.102 158.293 151.277 158.905 152.492 159.22C153.707 159.535 156.637 158.33 156.637 158.33Z" fill="#FDBAB9"/>
<path d="M101.395 58.9333L92.0209 75.3614L76.021 66.7502L78.8323 77.3744L94.83 85.98L104.206 69.5587L101.395 58.9333Z" fill="#22B8CF"/>
<path d="M208.72 33.6062L196.406 28.5923C161.887 -17.7529 84.645 20.3411 96.344 76.6591C96.7434 78.734 95.365 80.8223 93.2646 81.3163C88.3696 82.2953 88.393 76.5353 87.9558 73.172C80.462 4.52402 177.286 -29.4461 208.72 33.6062Z" fill="#22B8CF"/>
<path d="M202.921 74.3654L212.295 57.9362L228.295 66.5486L225.484 55.9243L209.486 47.3198L200.11 63.74L202.921 74.3654Z" fill="#FDAB76"/>
<path d="M205.062 103.831C179.005 143.663 116.528 142.952 95.8032 100.1L108.838 105.882C144.069 150.566 219.543 112.2 207.974 56.6338C207.575 54.56 208.952 52.4761 211.054 51.9777C215.949 50.9954 215.922 56.7609 216.363 60.1219C217.977 75.3438 214.045 90.6804 205.062 103.831Z" fill="#FDAB76"/>
<path d="M194.908 67.8868C193.495 130.699 103.437 120.604 104.222 61.6982C106.494 -2.0844 195.136 9.41638 194.908 67.8868Z" fill="#FFC81A"/>
<path d="M201.534 65.7541C200.121 128.566 110.062 118.471 110.848 59.5654C113.117 -4.21828 201.762 7.28475 201.534 65.7541Z" fill="#FFE475"/>
<path d="M199.611 65.6199C198.259 125.581 112.312 115.917 113.066 59.7159C115.228 -1.14565 199.823 9.80154 199.611 65.6199Z" fill="#FFC81A"/>
<path d="M198.231 65.5265C196.924 123.451 113.913 114.094 114.643 59.8239C116.729 1.04853 198.435 11.6019 198.231 65.5265Z" fill="#FFE475"/>
<path d="M157.597 27.656C160.677 27.9755 159.599 32.2795 159.776 34.3307C164.041 34.8198 168.245 35.7519 172.322 37.1122C172.839 37.2862 173.284 37.63 173.587 38.0891C173.889 38.5481 174.031 39.0962 173.99 39.6462L173.478 44.9426C172.772 48.5342 169.208 45.6706 167.114 45.2486C164.727 44.5314 162.267 44.0883 159.782 43.9276V56.0236C166.066 57.8026 170.684 60.1948 173.664 63.2036C184.258 75.4099 175.358 90.9491 159.275 91.0199C159.02 93.0059 160.346 97.895 157.094 97.8354C153.837 97.7026 155.091 92.9553 154.869 90.8973C149.812 90.7116 145.011 90.0781 140.267 88.6885C139.171 88.3678 138.419 87.3124 138.519 86.1782L139.122 79.3695C139.254 77.8977 140.716 77.0415 142.098 77.5939C143.697 78.2332 145.331 78.7761 146.993 79.2199C149.558 79.9053 152.18 80.3487 154.825 80.5442L154.864 67.089C148.831 65.5789 144.325 63.3428 141.347 60.3805C138.366 57.4047 136.873 53.5996 136.87 48.9652C136.948 38.2363 144.947 33.9909 155.407 34.0123C155.635 32.1321 154.403 27.4242 157.597 27.656ZM155.408 43.8027C152.105 44.0413 149.503 45.5941 149.485 48.9877C149.485 50.4272 149.967 51.6301 150.932 52.5963C151.896 53.5624 153.388 54.3325 155.407 54.9063L155.408 43.8027ZM159.275 68.1669V80.506C161.302 80.506 162.858 80.0184 163.941 79.0432C166.083 77.2429 166.093 72.8208 164.052 70.8292C163.047 69.7482 161.454 68.8608 159.275 68.1669Z" fill="#FFC81A"/>
<g style="mix-blend-mode:multiply" opacity="0.16">
<path d="M150.517 71.1435C155.19 48.4412 176.808 43.7007 149.405 19.8586C93.327 27.8083 111.459 112.282 164.504 105.361C155.174 95.9724 149.345 82.8592 150.517 71.1435Z" fill="#B7860D"/>
</g>
</svg>
