<svg width="103" height="22" viewBox="0 0 103 22" fill="none" xmlns="http://www.w3.org/2000/svg">
<path d="M101.825 14.5555C101.507 14.5555 101.249 14.8135 101.249 15.1311C101.249 15.4487 101.507 15.7067 101.825 15.7067C102.142 15.7067 102.4 15.4487 102.4 15.1311C102.4 14.8135 102.142 14.5555 101.825 14.5555ZM101.825 15.6154C101.557 15.6154 101.34 15.3976 101.34 15.1311C101.34 14.8634 101.558 14.6468 101.825 14.6468C102.092 14.6468 102.31 14.8646 102.31 15.1311C102.31 15.3976 102.092 15.6154 101.825 15.6154ZM102.012 15.0325C102.012 14.9279 101.938 14.8658 101.828 14.8658H101.644V15.3903H101.734V15.2005H101.833L101.928 15.3903H102.025L101.921 15.181C101.977 15.1554 102.012 15.1043 102.012 15.0325ZM101.825 15.1189H101.736V14.9449H101.825C101.885 14.9449 101.922 14.9753 101.922 15.0313C101.922 15.0885 101.884 15.1189 101.825 15.1189ZM32.4685 8.73009V7.33794H30.3341V15.6203H32.4685V10.6541C32.4685 9.75476 33.0454 9.313 33.9447 9.313H35.1129V7.33797H34.115C33.3338 7.33794 32.6547 7.7456 32.4685 8.73009ZM37.1123 4.06201C36.3822 4.06201 35.8224 4.63884 35.8224 5.36899C35.8224 6.0821 36.3822 6.65893 37.1123 6.65893C37.8425 6.65893 38.4023 6.0821 38.4023 5.36899C38.4022 4.63881 37.8425 4.06201 37.1123 4.06201ZM36.0475 15.6203H38.1771V7.33794H36.0475V15.6203ZM48.3214 11.4791C48.3214 13.8436 46.4047 15.7603 44.0402 15.7603C43.0861 15.7603 42.2209 15.4475 41.5273 14.9193V18.0517H39.3977V7.33794H41.5273V8.03887C42.2209 7.51074 43.0861 7.19799 44.0402 7.19799C46.4047 7.19799 48.3214 9.11465 48.3214 11.4791ZM46.1784 11.4791C46.1784 10.1953 45.1367 9.15357 43.8528 9.15357C42.569 9.15357 41.5273 10.1953 41.5273 11.4791C41.5273 12.763 42.569 13.8046 43.8528 13.8046C45.1367 13.8046 46.1784 12.7642 46.1784 11.4791ZM85.3352 10.7526L84.0927 10.4119C83.275 10.1989 82.9574 9.94823 82.9574 9.51623C82.9574 9.09517 83.4052 8.80068 84.0453 8.80068C84.655 8.80068 85.1332 9.19982 85.1332 9.71092V9.75837H87.0961V9.71092C87.0961 8.20801 85.8707 7.19796 84.0453 7.19796C82.2382 7.19796 80.9251 8.20678 80.9251 9.59772C80.9251 10.6796 81.6419 11.4949 82.8929 11.8332L84.083 12.1581C84.9872 12.4088 85.3231 12.6863 85.3231 13.184C85.3231 13.7085 84.8375 14.0614 84.1146 14.0614C83.3613 14.0614 82.8539 13.5843 82.8539 12.8761V12.8286H80.7705V12.8761C80.7705 14.5749 82.1384 15.7626 84.0976 15.7626C85.9851 15.7626 87.3553 14.6029 87.3553 13.0063C87.3553 12.2226 87.0048 11.198 85.3352 10.7526ZM55.876 7.33794H58.0056V15.6203H55.876V14.9193C55.1824 15.4475 54.3171 15.7602 53.3631 15.7602C50.9986 15.7602 49.082 13.8436 49.082 11.4791C49.082 9.11459 50.9986 7.19796 53.3631 7.19796C54.3171 7.19796 55.1824 7.51071 55.876 8.03884V7.33794ZM55.876 11.4791C55.876 10.1941 54.8343 9.15357 53.5505 9.15357C52.2666 9.15357 51.225 10.1953 51.225 11.4791C51.225 12.763 52.2666 13.8046 53.5505 13.8046C54.8355 13.8046 55.876 12.7642 55.876 11.4791ZM65.6954 4.39057H67.825V15.6215H65.6954V14.9205C65.0017 15.4487 64.1365 15.7615 63.1824 15.7615C60.8179 15.7615 58.9013 13.8448 58.9013 11.4803C58.9013 9.11581 60.8179 7.19918 63.1824 7.19918C64.1365 7.19918 65.0017 7.51193 65.6954 8.04006V4.39057ZM65.6954 11.4791C65.6954 10.1953 64.6536 9.15357 63.3698 9.15357C62.086 9.15357 61.0443 10.1953 61.0443 11.4791C61.0443 12.763 62.0847 13.8046 63.3698 13.8046C64.6536 13.8046 65.6954 12.7642 65.6954 11.4791ZM77.7124 15.6203H79.842V7.33794H77.7124V15.6203ZM78.7772 4.06201C78.0471 4.06201 77.4873 4.63884 77.4873 5.36899C77.4873 6.0821 78.0471 6.65893 78.7772 6.65893C79.5074 6.65893 80.0672 6.0821 80.0672 5.36899C80.0672 4.63881 79.5074 4.06201 78.7772 4.06201ZM96.5601 11.4791C96.5601 13.8436 94.6435 15.7603 92.2789 15.7603C89.9145 15.7603 87.9978 13.8436 87.9978 11.4791C87.9978 9.11462 89.9145 7.19799 92.2789 7.19799C94.6435 7.19799 96.5601 9.11465 96.5601 11.4791ZM94.6045 11.4791C94.6045 10.1953 93.5628 9.15357 92.279 9.15357C90.9951 9.15357 89.9534 10.1953 89.9534 11.4791C89.9534 12.763 90.9939 13.8046 92.279 13.8046C93.5628 13.8046 94.6045 12.7642 94.6045 11.4791ZM31.3782 4.39057H23.209V6.29019H26.233V15.6203H28.3554V6.29019H31.3794V4.39057H31.3782ZM72.6914 13.352L70.7967 7.33797H68.56L71.4015 15.6203H73.9643L76.8228 7.33797H74.5861L72.6914 13.352ZM99.6803 8.73009V7.33794H97.5458V15.6203H99.6803V10.6541C99.6803 9.75476 100.257 9.313 101.156 9.313H102.325V7.33797H101.327C100.545 7.33794 99.8677 7.7456 99.6803 8.73009Z" fill="black"/>
<path d="M10.8914 21.7828C16.9066 21.7828 21.7828 16.9066 21.7828 10.8914C21.7828 4.87625 16.9066 0 10.8914 0C4.87625 0 0 4.87625 0 10.8914C0 16.9066 4.87625 21.7828 10.8914 21.7828Z" fill="#34E0A1"/>
<path d="M17.6177 8.76679L18.9319 7.3369H16.0174C14.5583 6.34023 12.7962 5.75977 10.8905 5.75977C8.98724 5.75977 7.23004 6.34148 5.77338 7.3369H2.85156L4.16584 8.76679C3.36025 9.50179 2.85523 10.5605 2.85523 11.7361C2.85523 13.9545 4.65385 15.7531 6.87229 15.7531C7.92615 15.7531 8.88628 15.3467 9.60305 14.6822L10.8906 16.0841L12.1781 14.6834C12.8948 15.3479 13.8537 15.7531 14.9076 15.7531C17.126 15.7531 18.9271 13.9545 18.9271 11.7361C18.9283 10.5593 18.4233 9.5006 17.6177 8.76679ZM6.87348 14.4547C5.37179 14.4547 4.15491 13.2378 4.15491 11.7361C4.15491 10.2344 5.37182 9.01747 6.87348 9.01747C8.37515 9.01747 9.59206 10.2344 9.59206 11.7361C9.59206 13.2378 8.37515 14.4547 6.87348 14.4547ZM10.8917 11.657C10.8917 9.86809 9.59087 8.33235 7.87379 7.67642C8.80229 7.2882 9.82085 7.07282 10.8905 7.07282C11.9602 7.07282 12.9799 7.2882 13.9085 7.67642C12.1926 8.33357 10.8917 9.86812 10.8917 11.657ZM14.9088 14.4547C13.4071 14.4547 12.1902 13.2378 12.1902 11.7361C12.1902 10.2344 13.4071 9.01747 14.9088 9.01747C16.4105 9.01747 17.6274 10.2344 17.6274 11.7361C17.6274 13.2378 16.4105 14.4547 14.9088 14.4547ZM14.9088 10.3098C14.1215 10.3098 13.4838 10.9475 13.4838 11.7349C13.4838 12.5222 14.1215 13.1599 14.9088 13.1599C15.6961 13.1599 16.3338 12.5222 16.3338 11.7349C16.3338 10.9487 15.6961 10.3098 14.9088 10.3098ZM8.29849 11.7361C8.29849 12.5234 7.66082 13.1611 6.87348 13.1611C6.08615 13.1611 5.44848 12.5234 5.44848 11.7361C5.44848 10.9487 6.08615 10.311 6.87348 10.311C7.66082 10.3098 8.29849 10.9487 8.29849 11.7361Z" fill="black"/>
</svg>
