<svg width="101" height="22" viewBox="0 0 101 22" fill="none" xmlns="http://www.w3.org/2000/svg">
<path d="M100.516 9.64641V7.88995H98.3353V5.15933L98.2619 5.18194L96.2132 5.80877L96.1728 5.82104V7.89005H92.9392V6.73743C92.9392 6.20074 93.0592 5.79003 93.2957 5.51613C93.5306 5.24551 93.8665 5.10793 94.295 5.10793C94.603 5.10793 94.9219 5.18049 95.2429 5.32357L95.3234 5.35951V3.50973L95.2855 3.49581C94.9861 3.38819 94.5788 3.33398 94.074 3.33398C93.4378 3.33398 92.8598 3.47243 92.3556 3.74682C91.8512 4.02159 91.4544 4.41385 91.1765 4.91257C90.8995 5.41072 90.7589 5.98606 90.7589 6.62275V7.88995H89.2401V9.64641H90.7589V17.046H92.9392V9.64641H96.1728V14.3487C96.1728 16.2854 97.0863 17.2668 98.8878 17.2668C99.1839 17.2668 99.4955 17.2321 99.8136 17.1642C100.137 17.0944 100.358 17.0248 100.488 16.9504L100.517 16.9334V15.1607L100.428 15.2193C100.31 15.2982 100.162 15.3626 99.9895 15.4105C99.8159 15.4593 99.671 15.4838 99.5587 15.4838C99.1367 15.4838 98.8245 15.3701 98.6308 15.1456C98.4348 14.9192 98.3354 14.5231 98.3354 13.9691V9.64641H100.516ZM84.3711 15.4841C83.5798 15.4841 82.9558 15.2217 82.5161 14.7048C82.0737 14.1853 81.8496 13.4446 81.8496 12.5036C81.8496 11.5327 82.0737 10.7728 82.5163 10.2442C82.9563 9.71897 83.5742 9.45241 84.3533 9.45241C85.1094 9.45241 85.7112 9.70699 86.1423 10.2095C86.5755 10.7146 86.7954 11.4684 86.7954 12.4506C86.7954 13.4448 86.5886 14.2086 86.1809 14.7195C85.776 15.2265 85.1671 15.4841 84.3711 15.4841ZM84.468 7.66938C82.9582 7.66938 81.7591 8.11178 80.904 8.98431C80.0496 9.85693 79.6163 11.0645 79.6163 12.5738C79.6163 14.0074 80.0392 15.1605 80.8734 16.0006C81.7076 16.8409 82.8428 17.2666 84.2473 17.2666C85.7108 17.2666 86.8861 16.818 87.7408 15.9334C88.5953 15.0498 89.0282 13.8536 89.0282 12.3795C89.0282 10.9236 88.622 9.76186 87.8204 8.9274C87.0184 8.09255 85.8903 7.66938 84.468 7.66938ZM76.101 7.66938C75.074 7.66938 74.2245 7.93208 73.5755 8.45003C72.9226 8.97107 72.5914 9.65443 72.5914 10.4814C72.5914 10.9112 72.6629 11.293 72.8036 11.6169C72.9451 11.9418 73.1641 12.2279 73.4551 12.4679C73.7439 12.7061 74.1897 12.9556 74.7804 13.2094C75.277 13.4137 75.6473 13.5866 75.8826 13.7228C76.1125 13.8563 76.2757 13.9905 76.3679 14.1212C76.4574 14.2491 76.5028 14.4242 76.5028 14.6402C76.5028 15.2554 76.0422 15.5547 75.0943 15.5547C74.7427 15.5547 74.3417 15.4813 73.9024 15.3365C73.4662 15.194 73.0545 14.9853 72.6817 14.7176L72.5912 14.6527V16.7518L72.6244 16.7673C72.9329 16.9097 73.3219 17.0298 73.7803 17.1243C74.2379 17.2189 74.6536 17.267 75.0148 17.267C76.1292 17.267 77.0267 17.003 77.6815 16.482C78.3405 15.9574 78.6745 15.2579 78.6745 14.4024C78.6745 13.7852 78.4947 13.2559 78.1404 12.8291C77.7884 12.4057 77.1775 12.017 76.3254 11.6735C75.6466 11.401 75.2118 11.1749 75.0324 11.0012C74.8594 10.8335 74.7716 10.5963 74.7716 10.2959C74.7716 10.0297 74.88 9.81635 75.1025 9.64361C75.3267 9.46999 75.6389 9.38168 76.0304 9.38168C76.3937 9.38168 76.7653 9.43907 77.135 9.55153C77.5043 9.66399 77.8288 9.81462 78.0996 9.99886L78.1887 10.0597V8.0685L78.1545 8.05381C77.9046 7.94666 77.5752 7.85498 77.175 7.78058C76.7766 7.70667 76.4153 7.66938 76.101 7.66938ZM66.9075 15.4841C66.1163 15.4841 65.4921 15.2217 65.0526 14.7048C64.6101 14.1853 64.3863 13.4448 64.3863 12.5036C64.3863 11.5327 64.6103 10.7728 65.053 10.2442C65.4926 9.71897 66.1105 9.45241 66.89 9.45241C67.6457 9.45241 68.2475 9.70699 68.6787 10.2095C69.112 10.7146 69.3318 11.4684 69.3318 12.4506C69.3318 13.4448 69.125 14.2086 68.7172 14.7195C68.3123 15.2265 67.7038 15.4841 66.9075 15.4841ZM67.0047 7.66938C65.4945 7.66938 64.2952 8.11178 63.4406 8.98431C62.5862 9.85693 62.1527 11.0645 62.1527 12.5738C62.1527 14.008 62.5758 15.1605 63.41 16.0006C64.2442 16.8409 65.3793 17.2666 66.7838 17.2666C68.2471 17.2666 69.4227 16.818 70.2774 15.9334C71.1317 15.0498 71.5649 13.8536 71.5649 12.3795C71.5649 10.9236 71.1585 9.76186 70.3567 8.9274C69.5545 8.09255 68.4266 7.66938 67.0047 7.66938ZM58.843 9.47559V7.88995H56.6893V17.0458H58.843V12.3623C58.843 11.5659 59.0236 10.9116 59.3799 10.4174C59.7317 9.9291 60.2005 9.68167 60.7728 9.68167C60.9668 9.68167 61.1846 9.71365 61.4204 9.77694C61.6538 9.83983 61.8229 9.90814 61.9226 9.98002L62.0132 10.0456V7.8743L61.9783 7.85933C61.7777 7.77411 61.4939 7.73112 61.1349 7.73112C60.5937 7.73112 60.1094 7.90502 59.6945 8.24743C59.3304 8.54838 59.0672 8.96102 58.8659 9.47559H58.843ZM52.8323 7.66938C51.8443 7.66938 50.963 7.88126 50.2133 8.29892C49.4621 8.71755 48.8812 9.31521 48.486 10.0752C48.0924 10.8333 47.8926 11.7189 47.8926 12.7065C47.8926 13.5716 48.0864 14.3655 48.4692 15.0651C48.8523 15.766 49.3945 16.3143 50.0809 16.6946C50.7662 17.0743 51.5584 17.2669 52.4355 17.2669C53.459 17.2669 54.3329 17.0623 55.0335 16.6587L55.0618 16.6425V14.6693L54.9713 14.7354C54.6539 14.9666 54.2992 15.1511 53.9176 15.2841C53.537 15.4169 53.1899 15.4841 52.8856 15.4841C52.0405 15.4841 51.3621 15.2196 50.8696 14.6983C50.3761 14.1763 50.1259 13.4433 50.1259 12.5209C50.1259 11.5927 50.3868 10.8409 50.9011 10.2861C51.4139 9.73298 52.0935 9.45241 52.9211 9.45241C53.629 9.45241 54.3189 9.69211 54.9715 10.1655L55.0618 10.2311V8.15207L55.0326 8.13564C54.7871 7.99816 54.4521 7.88464 54.0363 7.79855C53.6222 7.71266 53.2172 7.66938 52.8323 7.66938ZM46.4093 7.89005H44.2556V17.0458H46.4093V7.89005ZM45.3545 3.98961C45 3.98961 44.6908 4.11028 44.4368 4.34941C44.1818 4.5892 44.0524 4.89113 44.0524 5.24744C44.0524 5.59815 44.1802 5.89457 44.4329 6.12799C44.6839 6.36073 44.994 6.4787 45.3546 6.4787C45.715 6.4787 46.0263 6.36073 46.2803 6.12837C46.536 5.89457 46.6656 5.59825 46.6656 5.24744C46.6656 4.90359 46.5395 4.60476 46.2909 4.35907C46.0425 4.11386 45.7273 3.98961 45.3545 3.98961ZM39.9808 7.21452V17.0458H42.1788V4.26989H39.1367L35.2699 13.7595L31.5175 4.26989H28.3516V17.0457H30.4171V7.21355H30.488L34.4505 17.0458H36.0092L39.9099 7.21452H39.9808Z" fill="#706D6E"/>
<path d="M10.7724 10.1318H0.640625V0H10.7724V10.1318Z" fill="#F1511B"/>
<path d="M21.9597 10.1323H11.8281V0.000488281H21.9597V10.1323Z" fill="#80CC28"/>
<path d="M10.7721 21.3231H0.640625V11.1914H10.7721V21.3231Z" fill="#00ADEF"/>
<path d="M21.9597 21.3231H11.8281V11.1914H21.9597V21.3231Z" fill="#FBBC09"/>
</svg>
