<svg width="86" height="26" viewBox="0 0 86 26" fill="none" xmlns="http://www.w3.org/2000/svg">
<path d="M30.3602 10.0418C30.3602 7.50012 32.2134 5.72532 35.5812 5.72532C37.6362 5.72532 39.3177 6.38142 40.2287 7.02413C40.359 7.1159 40.5916 7.33854 40.4522 7.75261C40.2734 8.19859 39.9456 8.86927 39.7105 9.30495C39.5736 9.55881 39.224 9.52536 39.0449 9.43462C38.396 9.1058 37.3317 8.54954 36.354 8.44696C36.1064 8.42001 35.8573 8.40924 35.6083 8.41471C34.7473 8.43393 34.0279 8.7329 33.7745 9.38985C33.7249 9.51416 33.6972 9.64614 33.6927 9.77991C33.669 10.6456 34.8738 10.9587 36.3334 11.2094C39.0468 11.6743 41.0997 12.4698 41.0997 15.2626C41.0997 17.6344 39.2147 19.7778 35.5215 19.7121C33.0869 19.6629 31.3596 18.8402 30.434 18.0419C30.4024 18.0148 30.0501 17.656 30.239 17.2244C30.4551 16.6688 30.8199 16.0321 31.1062 15.694C31.2654 15.4769 31.6855 15.4424 31.9038 15.5777C32.6668 16.0518 33.9224 16.8121 35.3697 16.8625C35.484 16.8664 35.5972 16.8671 35.7083 16.8642C37.0102 16.8326 37.7979 16.339 37.7814 15.5074C37.7674 14.7748 36.7351 14.3469 35.0913 14.0371C32.4697 13.5432 30.3606 12.6791 30.3606 10.0418H30.3602ZM54.1776 13.6609C52.3288 13.6851 50.6338 14.1904 50.5849 15.6352C50.5844 16.7817 51.5144 17.3448 52.8198 17.2711C54.0719 17.1505 55.0268 16.6074 55.4476 15.8868C55.6032 15.6198 55.6268 14.6204 55.6174 14.1933C55.615 14.1024 55.4352 13.9304 55.3565 13.8973C54.9637 13.7318 54.673 13.6806 54.1774 13.6606L54.1776 13.6609ZM48.026 7.83924C48.8905 7.06564 50.6046 5.86151 53.3364 5.92498C56.9414 5.99994 58.8459 7.69001 59.0233 11.7329C59.0964 13.4002 58.9753 18.0507 58.9464 19.2093C58.9422 19.3756 58.8859 19.4905 58.6619 19.4948C58.0682 19.5186 56.6967 19.5092 56.0665 19.5009C55.7484 19.4855 55.7116 19.3277 55.7074 19.1625C55.7047 19.0545 55.6954 18.734 55.6888 18.4728C55.6852 18.3342 55.555 18.3382 55.5217 18.3737C54.676 19.2766 53.2911 19.7126 51.8184 19.7126C49.5799 19.7126 47.3483 18.3958 47.3552 15.788C47.362 13.1173 49.2557 11.8 51.336 11.4894C52.6681 11.2911 54.1697 11.4674 55.3068 11.9192C55.3795 11.9484 55.528 11.9062 55.5292 11.8031C55.5339 11.4628 55.5174 10.8142 55.452 10.5068C55.2851 9.72365 54.6318 9.09345 53.2592 8.92364C52.9765 8.88882 52.692 8.87733 52.4071 8.89997C51.316 8.98573 50.0029 9.83651 49.4592 10.155C49.3312 10.2298 49.1308 10.1751 49.066 10.0916C48.7487 9.68162 47.9511 8.48264 47.8883 8.29104C47.8255 8.09996 47.914 7.93907 48.0257 7.83855L48.026 7.83924ZM60.212 12.8108C60.1905 9.08608 62.7858 5.94385 66.9999 5.91623C69.6295 5.89908 71.5398 7.0912 71.8767 7.65347C71.9451 7.78555 71.9099 7.89584 71.8626 8.02878C71.6399 8.49876 71.0777 9.40684 70.677 9.92142C70.5063 10.1406 70.3211 9.95281 70.1058 9.80958C69.5084 9.41164 68.3732 8.92501 67.256 8.92501C65.2292 8.92535 63.7199 10.3151 63.7367 12.8719C63.7525 15.3254 65.1982 16.6738 67.263 16.7227C68.3425 16.7498 69.3883 16.1294 69.9509 15.6211C70.1276 15.4669 70.3104 15.5441 70.5123 15.7019C70.9085 16.1069 71.4768 16.7321 71.7919 17.1625C71.9983 17.4016 71.8439 17.6356 71.7696 17.7296C70.9147 18.8114 69.2636 19.7219 67.0785 19.7342C62.5031 19.7663 60.2334 16.5493 60.2123 12.8113L60.212 12.8108ZM82.0523 19.5663C82.267 19.5502 84.5588 19.2339 85.2623 19.0728C85.4369 19.033 85.499 18.8862 85.4014 18.7407C85.0086 18.1517 83.9758 16.479 82.8942 14.9815C81.8993 13.6047 80.8507 12.3937 80.5116 11.9278C80.4289 11.8146 80.4334 11.7031 80.5235 11.6153C81.1686 10.984 83.8671 8.33821 84.8817 7.24558C85.2745 6.82053 85.0386 6.63768 84.705 6.53836C84.0606 6.34625 83.0182 6.1068 82.4254 5.98176C82.1754 5.92892 81.8744 5.94745 81.6559 6.17215C80.6415 7.11813 77.5455 10.2254 76.6213 11.1542C76.455 11.3218 76.358 11.2846 76.3572 11.0451C76.3496 9.25435 76.3143 1.58737 76.2503 0.32629C76.2459 0.159564 76.0453 0.0329758 75.9323 0.0269723C75.3512 -0.00338824 73.883 -0.0121363 73.3045 0.0218263C73.1424 0.0401799 72.9875 0.205362 72.9734 0.344986C72.84 2.36147 73.03 17.164 73.1093 19.2347C73.1149 19.3845 73.2264 19.5006 73.3686 19.509C73.9458 19.5425 75.3735 19.5402 76.04 19.5277C76.368 19.5277 76.4081 19.2972 76.4081 19.2972L76.4575 15.3251C76.4575 15.3251 76.4913 15.1484 76.546 15.0901C76.781 14.8371 77.4311 14.1403 77.7083 13.871C77.7749 13.8064 77.8798 13.811 77.9478 13.9024C78.2771 14.3467 79.2162 15.791 80.0867 17.0808C80.8866 18.2658 81.6332 19.3174 81.6854 19.3917C81.8058 19.5632 81.9465 19.5701 82.0525 19.5668V19.5663H82.0523ZM43.0752 19.5526C43.2767 19.5593 44.8059 19.5575 45.4835 19.5567C45.7116 19.5611 45.8301 19.3884 45.8377 19.2359C45.9816 16.3326 45.92 2.50985 45.8291 0.327147C45.8215 0.138466 45.7407 0.0676247 45.6119 0.0504719C45.0304 -0.027402 43.3779 -0.00922019 42.8482 0.129375C42.7446 0.156305 42.6836 0.235036 42.6803 0.336238C42.5506 5.96237 42.6381 18.9334 42.6656 19.179C42.6928 19.425 42.8215 19.544 43.0755 19.5526H43.0752Z" fill="#443642"/>
<path d="M2.14976 13.7801C1.20738 13.7873 0.40909 13.2258 0.114747 12.3492C0.103828 12.3161 0.093648 12.2828 0.0842152 12.2492C-0.236543 11.1268 0.385419 9.95247 1.50018 9.57647L19.3803 3.58617C19.5926 3.52475 19.8123 3.49266 20.0333 3.4908C21.0007 3.48325 21.821 4.05719 22.1225 4.95222L22.1493 5.03867C22.4838 6.20782 21.6527 7.2514 20.657 7.58588C20.6563 7.58639 20.4752 7.64763 2.87601 13.6565C2.64209 13.7362 2.3969 13.778 2.14976 13.7801Z" fill="#70CADB"/>
<path d="M5.12952 22.5734C4.17977 22.5803 3.37873 22.0266 3.08782 21.1626C3.07677 21.1298 3.06648 21.0966 3.05694 21.0633C2.73172 19.9274 3.353 18.7408 4.47154 18.3643L22.3524 12.3191C22.5834 12.2419 22.822 12.2025 23.062 12.2003C24.0143 12.1931 24.851 12.7749 25.1462 13.6486L25.1737 13.7396C25.3464 14.3435 25.2443 15.0222 24.9009 15.5579C24.645 15.9562 23.8378 16.3068 23.8378 16.3068L5.88905 22.4439C5.64426 22.5268 5.38794 22.5706 5.12952 22.5738V22.5734Z" fill="#E01765"/>
<path d="M20.0149 22.6115C19.5514 22.616 19.0984 22.4736 18.7208 22.2049C18.3432 21.9361 18.0603 21.5547 17.9128 21.1153L11.9453 3.38955L11.9155 3.29006C11.5921 2.15969 12.2139 0.980604 13.3283 0.604956C13.5513 0.529998 13.7819 0.49089 14.0139 0.488831C14.3587 0.486258 14.6923 0.563961 15.0066 0.719194C15.2654 0.847203 15.4964 1.02512 15.6862 1.24273C15.8761 1.46033 16.021 1.71331 16.1128 1.98713L22.0797 19.7113L22.097 19.7683C22.4322 20.9419 21.8118 22.1217 20.6974 22.4973C20.4772 22.5709 20.2469 22.6094 20.0149 22.6115Z" fill="#E8A723"/>
<path d="M11.1435 25.5972C10.6797 25.6016 10.2265 25.4591 9.84872 25.1901C9.47095 24.9211 9.18803 24.5394 9.04052 24.0997L3.07459 6.37467C2.98215 6.10122 2.94455 5.81222 2.96395 5.52421C2.98334 5.23621 3.05936 4.95486 3.18763 4.69627C3.3159 4.43768 3.49392 4.20693 3.71149 4.01724C3.92906 3.82754 4.18191 3.68261 4.45556 3.59076C4.67602 3.51707 4.90667 3.4784 5.1391 3.47618C5.60265 3.4716 6.05574 3.61391 6.43343 3.8827C6.81111 4.15149 7.094 4.53296 7.24153 4.97242L13.2076 22.6982C13.3001 22.9718 13.3377 23.2609 13.3182 23.5491C13.2988 23.8372 13.2227 24.1187 13.0942 24.3773C12.9658 24.636 12.7876 24.8668 12.5698 25.0564C12.352 25.2461 12.099 25.3909 11.8251 25.4826C11.6051 25.5563 11.3748 25.595 11.1428 25.597H11.1435V25.5972Z" fill="#3EB890"/>
<path d="M17.0721 18.6198L21.233 17.1972L19.8728 13.1577L15.707 14.5654L17.0721 18.6198Z" fill="#CC2027"/>
<path d="M8.21643 21.6482L12.377 20.2257L11.0065 16.1553L6.8418 17.5635L8.21643 21.6482Z" fill="#361238"/>
<path d="M14.1098 9.8208L18.271 8.40003L16.9268 4.40771L12.7578 5.80447L14.1098 9.8208Z" fill="#65863A"/>
<path d="M5.25322 12.8454L9.41449 11.4246L8.05376 7.38135L3.88477 8.77792L5.25322 12.8454Z" fill="#1A937D"/>
</svg>
