<svg width="80" height="26" viewBox="0 0 80 26" fill="none" xmlns="http://www.w3.org/2000/svg">
<path d="M10.3002 0H10.9976C13.419 0.0526384 15.8009 1.02645 17.5117 2.75036C16.88 3.39518 16.2352 4.01368 15.6167 4.6585C14.656 3.78997 13.498 3.11883 12.2346 2.88195C10.366 2.48717 8.35255 2.84247 6.78656 3.9084C5.0758 5.02697 3.91776 6.92195 3.66772 8.94853C3.39137 10.9488 3.95723 13.0543 5.26004 14.6072C6.5102 16.1205 8.41835 17.068 10.3923 17.1338C12.2346 17.2391 14.1559 16.6732 15.4982 15.3836C16.551 14.4756 17.0379 13.0938 17.1958 11.7515C15.0113 11.7515 12.8268 11.7647 10.6423 11.7515V9.04065H19.8409C20.3147 11.9489 19.6304 15.2257 17.4195 17.3049C15.9457 18.7788 13.9059 19.6473 11.8267 19.8184C9.81327 20.0158 7.73405 19.6341 5.94434 18.6603C3.79932 17.5154 2.08857 15.581 1.24635 13.3044C0.456773 11.212 0.443614 8.84325 1.18055 6.73772C1.85169 4.81642 3.14134 3.11883 4.79945 1.93446C6.39177 0.763257 8.32623 0.118436 10.3002 0Z" fill="#3780FF"/>
<path d="M63.0703 0.684082H65.8864V19.476C64.9521 19.476 64.0046 19.4892 63.0703 19.4629C63.0835 13.212 63.0703 6.94806 63.0703 0.684082Z" fill="#38B137"/>
<path d="M26.1041 7.19828C27.8412 6.86929 29.723 7.23776 31.1574 8.27737C32.4602 9.19854 33.3683 10.6461 33.6446 12.2252C33.9999 14.0544 33.5525 16.0547 32.3681 17.5022C31.0916 19.1209 28.9993 19.9894 26.9595 19.8578C25.0908 19.7525 23.2748 18.8182 22.1694 17.2917C20.9192 15.6073 20.6166 13.2912 21.3009 11.3172C21.9852 9.19854 23.9196 7.57991 26.1041 7.19828ZM26.4989 9.6986C25.7883 9.88284 25.1303 10.2908 24.6566 10.8698C23.3801 12.3963 23.459 14.8835 24.8671 16.3047C25.6699 17.1206 26.8806 17.5022 27.9991 17.2785C29.0387 17.0943 29.9468 16.3968 30.4468 15.4757C31.3154 13.9097 31.0653 11.7515 29.7362 10.5277C28.8808 9.73808 27.6307 9.40909 26.4989 9.6986Z" fill="#FA3913"/>
<path d="M40.0531 7.19827C42.0402 6.81664 44.2115 7.36935 45.6986 8.76427C48.1199 10.9356 48.3831 15.0019 46.3171 17.5023C45.0669 19.0814 43.0403 19.9499 41.0401 19.8578C39.1319 19.8052 37.2501 18.8577 36.1184 17.2917C34.8419 15.5678 34.5655 13.1991 35.2893 11.1856C36.0131 9.13274 37.9081 7.56674 40.0531 7.19827ZM40.4479 9.6986C39.7373 9.88283 39.0793 10.2908 38.6055 10.8566C37.3422 12.3568 37.3949 14.8045 38.7503 16.2389C39.553 17.0943 40.8032 17.5154 41.9612 17.2785C42.9877 17.0812 43.9089 16.3968 44.4089 15.4757C45.2643 13.8965 45.0143 11.7383 43.672 10.5145C42.8166 9.72492 41.5664 9.40909 40.4479 9.6986Z" fill="#FCBD06"/>
<path d="M51.8852 7.96145C53.3986 7.01396 55.412 6.75076 57.0438 7.56666C57.557 7.79037 57.9781 8.172 58.3861 8.55363C58.3992 8.19832 58.3861 7.82985 58.3992 7.46138C59.2809 7.47454 60.1626 7.46138 61.0575 7.47454V19.0813C61.0443 20.8316 60.5969 22.6871 59.3336 23.9636C57.9518 25.3716 55.8331 25.8059 53.925 25.5164C51.8852 25.2137 50.1087 23.7267 49.3191 21.8449C50.1087 21.4632 50.9377 21.1606 51.7536 20.8052C52.2142 21.8843 53.1486 22.8055 54.3198 23.0161C55.491 23.2266 56.8464 22.9371 57.6097 21.9633C58.4256 20.9632 58.4256 19.5946 58.3861 18.3707C57.7807 18.9629 57.0833 19.4893 56.2411 19.6867C54.4119 20.1999 52.3985 19.5682 50.9904 18.3312C49.5691 17.0942 48.7269 15.1861 48.8059 13.2911C48.8454 11.1461 50.056 9.08002 51.8852 7.96145ZM54.6093 9.64588C53.8065 9.77748 53.0564 10.2249 52.5432 10.8434C51.3062 12.3173 51.3062 14.6729 52.5564 16.1204C53.267 16.9758 54.4119 17.4495 55.5173 17.3311C56.5569 17.2258 57.5176 16.5678 58.0308 15.6598C58.8993 14.1202 58.7546 12.0278 57.5834 10.6855C56.8596 9.85644 55.7015 9.44849 54.6093 9.64588Z" fill="#3780FF"/>
<path d="M69.2687 8.63251C70.8479 7.15863 73.2824 6.65856 75.309 7.43498C77.2304 8.15876 78.4542 9.98795 79.0727 11.8698C76.2171 13.0542 73.3746 14.2254 70.5189 15.4097C70.9137 16.1598 71.519 16.8441 72.3349 17.1205C73.4798 17.5284 74.8484 17.3837 75.8091 16.6204C76.1907 16.3309 76.4934 15.9493 76.7829 15.5808C77.5067 16.0677 78.2305 16.5415 78.9543 17.0284C77.9278 18.5681 76.2039 19.6471 74.3484 19.8182C72.2955 20.0683 70.1109 19.2787 68.7818 17.6732C66.5973 15.1465 66.8079 10.9091 69.2687 8.63251ZM70.6768 11.067C70.2294 11.7119 70.0451 12.5014 70.0583 13.2779C71.9665 12.4883 73.8746 11.6987 75.7828 10.896C75.467 10.159 74.7037 9.7116 73.9273 9.59316C72.6771 9.36945 71.3743 10.0406 70.6768 11.067Z" fill="#FA3913"/>
</svg>
