<svg width="466" height="466" viewBox="0 0 466 466" fill="none" xmlns="http://www.w3.org/2000/svg">
<path fill-rule="evenodd" clip-rule="evenodd" d="M372.701 63.8206C408.674 88.7814 442.346 119.733 451.267 159.004C460.476 197.943 444.648 245.535 429.971 286.138C415.581 326.741 402.343 360.688 382.773 389.975C363.491 419.262 337.59 443.89 308.811 450.879C280.033 457.535 248.376 446.553 204.632 447.551C160.888 448.882 105.344 462.195 67.3562 441.228C29.6557 420.261 9.2227 365.014 13.8273 313.761C18.1442 262.508 47.2109 215.249 69.6585 166.992C92.3938 119.067 108.51 70.144 139.016 42.5207C169.521 14.8974 214.704 8.57405 256.434 14.5646C298.163 20.888 336.727 39.1926 372.701 63.8206Z" fill="#919EAB" fill-opacity="0.08"/>
<path fill-rule="evenodd" clip-rule="evenodd" d="M316.915 45.103V448.428C314.242 449.396 311.54 450.217 308.812 450.88C304.75 451.819 300.631 452.407 296.428 452.727L296.428 45.7722L316.915 45.103Z" fill="#FDAB76"/>
<path fill-rule="evenodd" clip-rule="evenodd" d="M147.768 58.7293C148.84 59.7454 150.242 60.2834 151.719 60.2443C153.196 60.205 154.569 59.5933 155.586 58.5223C156.6 57.4497 157.14 56.0485 157.1 54.5724C157.061 53.0972 156.448 51.7251 155.378 50.7095C153.164 48.6128 149.658 48.7058 147.56 50.9162C147.371 51.116 147.199 51.3257 147.045 51.5446C145.496 53.7487 145.754 56.8224 147.768 58.7293ZM157.028 59.8886C155.645 61.3455 153.78 62.1769 151.771 62.2298C149.765 62.2834 147.857 61.5523 146.399 60.171C143.392 57.3209 143.267 52.5646 146.118 49.5496C148.97 46.5442 153.737 46.418 156.744 49.268C158.202 50.6486 159.033 52.5138 159.087 54.5198C159.131 56.1505 158.656 57.7156 157.733 59.0267C157.521 59.3279 157.286 59.6162 157.028 59.8886Z" fill="#FEE9D1"/>
<path fill-rule="evenodd" clip-rule="evenodd" d="M325.153 30.9356C325.153 37.6003 321.765 43.5664 316.661 47.0753C313.79 49.052 310.377 50.247 306.723 50.3562C304.909 50.4103 303.154 50.1959 301.502 49.7408C300.257 49.4012 299.07 48.9268 297.95 48.3346C297.669 48.1807 297.385 48.0271 297.108 47.856C291.889 44.7144 288.419 38.9089 288.419 32.1627C288.419 21.8059 296.601 13.1143 306.723 12.7405C316.883 12.3652 325.153 20.5074 325.153 30.9356Z" fill="#B3200E"/>
<path fill-rule="evenodd" clip-rule="evenodd" d="M316.716 30.2493C316.716 35.4308 314.082 40.0693 310.115 42.7973C307.881 44.3343 305.228 45.2634 302.386 45.3482C300.977 45.3904 299.612 45.2236 298.328 44.8697C297.359 44.6057 296.437 44.2368 295.566 43.7764C295.347 43.657 295.127 43.5374 294.913 43.4043C290.854 40.962 288.156 36.4483 288.156 31.2032C288.156 23.1511 294.518 16.3937 302.386 16.1031C310.286 15.8114 316.716 22.1416 316.716 30.2493Z" fill="#FA541C"/>
<path fill-rule="evenodd" clip-rule="evenodd" d="M358.607 113.374C358.577 113.374 358.546 113.372 358.516 113.367L339.747 110.461L316.916 106.926L296.429 103.756L193.708 87.8526C193.299 87.7895 192.923 87.5915 192.631 87.2876L169.145 62.7162C168.838 62.3941 168.676 61.9489 168.703 61.4908L168.831 59.2155L168.974 59.2899C168.98 59.3394 169.001 59.3877 169.038 59.426L193.604 84.2909C193.943 84.6346 194.377 84.8584 194.848 84.9311L359.678 110.449C359.686 110.45 359.695 110.45 359.703 110.45C359.804 110.45 359.879 110.361 359.878 110.265L360.062 110.509L359.193 112.947C359.1 113.205 358.864 113.374 358.607 113.374ZM344.076 85.2719L343.248 83.9649C343.039 83.6348 343.124 83.187 343.439 82.9571L366.425 66.1513L365.375 69.472C365.345 69.5463 364.557 70.1643 363.285 71.1259C358.843 74.4832 348.517 82.0315 344.076 85.2719Z" fill="#B3200E"/>
<path fill-rule="evenodd" clip-rule="evenodd" d="M359.702 110.45C359.694 110.45 359.685 110.45 359.677 110.449L194.847 84.9311C194.376 84.8584 193.942 84.6347 193.603 84.2909L169.038 59.426C169 59.3878 168.979 59.3395 168.972 59.2899C168.965 59.203 169.003 59.1121 169.085 59.0638L200.368 40.4547C200.721 40.2449 201.118 40.136 201.518 40.136C201.629 40.136 201.741 40.1445 201.853 40.1618L366.579 65.6634C366.732 65.687 366.777 65.8941 366.648 65.9877L366.425 66.1513L343.438 82.9571C343.123 83.187 343.038 83.6348 343.247 83.9649L359.847 110.17C359.867 110.2 359.875 110.233 359.877 110.265C359.878 110.361 359.803 110.45 359.702 110.45ZM206.039 66.0852C205.748 66.0852 205.49 66.2981 205.442 66.5944L204.877 70.1769C204.825 70.5046 205.052 70.8151 205.38 70.8668L284.879 83.4029C284.91 83.4079 284.94 83.4103 284.972 83.4103C285.263 83.4103 285.521 83.1974 285.568 82.9013L286.133 79.3186C286.185 78.9909 285.96 78.6806 285.631 78.6288L206.134 66.0925C206.102 66.0876 206.071 66.0852 206.039 66.0852ZM208.464 52.5882C208.172 52.5882 207.914 52.801 207.869 53.0972L207.261 56.9401C207.209 57.2677 207.436 57.5781 207.763 57.6298L287.903 70.2671C287.935 70.2721 287.966 70.2745 287.996 70.2745C288.287 70.2745 288.545 70.0616 288.593 69.7653L289.199 65.9224C289.251 65.5948 289.026 65.2844 288.698 65.2328L208.558 52.5956C208.527 52.5905 208.495 52.5882 208.464 52.5882Z" fill="#FA541C"/>
<path fill-rule="evenodd" clip-rule="evenodd" d="M312.891 80.1498C312.891 83.6027 310.09 86.4019 306.635 86.4019C303.181 86.4019 300.38 83.6027 300.38 80.1498C300.38 76.6969 303.181 73.8978 306.635 73.8978C310.09 73.8978 312.891 76.6969 312.891 80.1498Z" fill="#FDAB76"/>
<path fill-rule="evenodd" clip-rule="evenodd" d="M287.996 70.2762C287.966 70.2762 287.935 70.2739 287.903 70.2688L207.763 57.6316C207.436 57.5799 207.209 57.2694 207.261 56.9419L207.869 53.0989C207.914 52.8028 208.173 52.59 208.464 52.59C208.495 52.59 208.527 52.5923 208.558 52.5974L288.698 65.2346C289.026 65.2862 289.251 65.5966 289.199 65.9242L288.593 69.7671C288.546 70.0633 288.287 70.2762 287.996 70.2762Z" fill="#FDAB76"/>
<path fill-rule="evenodd" clip-rule="evenodd" d="M284.972 83.4124C284.94 83.4124 284.91 83.41 284.879 83.405L205.38 70.8689C205.052 70.8172 204.826 70.5067 204.878 70.179L205.443 66.5965C205.49 66.3002 205.748 66.0873 206.039 66.0873C206.071 66.0873 206.102 66.0897 206.134 66.0946L285.631 78.6309C285.961 78.6827 286.186 78.993 286.134 79.3207L285.568 82.9034C285.521 83.1995 285.263 83.4124 284.972 83.4124Z" fill="#FDAB76"/>
<path fill-rule="evenodd" clip-rule="evenodd" d="M183.16 213.162L184.83 213.571L208.773 189.445L351.495 176.378L370.543 174.001C370.938 173.951 371.283 174.272 371.263 174.67L371.097 177.782C371.038 178.207 352.936 199.554 352.936 199.554L375.441 217.855L375.18 220.363C375.148 220.662 374.922 220.893 374.638 220.917L356.253 222.472L213.214 234.567C212.812 234.601 212.412 234.5 212.068 234.278L184.26 216.405C183.895 216.17 183.641 215.785 183.561 215.346L183.16 213.162Z" fill="#116E95"/>
<path fill-rule="evenodd" clip-rule="evenodd" d="M209.959 187.552L370.823 173.949C371.154 173.921 371.352 174.306 371.14 174.559L353.427 195.587C353.185 195.875 353.208 196.325 353.477 196.586L375.169 217.596C375.276 217.698 375.211 217.879 375.063 217.891L213.62 231.542C213.158 231.581 212.697 231.469 212.297 231.222L183.404 213.318C183.279 213.24 183.26 213.066 183.364 212.964L208.624 188.171C208.99 187.812 209.459 187.595 209.959 187.552Z" fill="#22B8CF"/>
<path fill-rule="evenodd" clip-rule="evenodd" d="M215.791 204.716C215.481 204.716 215.215 204.476 215.19 204.161L214.867 200.034C214.84 199.702 215.091 199.411 215.421 199.386L305.084 192.381C305.1 192.38 305.116 192.38 305.132 192.38C305.442 192.38 305.708 192.62 305.733 192.935L306.056 197.062C306.083 197.392 305.832 197.685 305.502 197.71L215.839 204.715C215.823 204.716 215.807 204.716 215.791 204.716Z" fill="#77F0ED"/>
<path fill-rule="evenodd" clip-rule="evenodd" d="M216.571 218.803C216.261 218.803 215.995 218.562 215.97 218.247L215.669 214.396C215.642 214.064 215.892 213.773 216.223 213.747L305.17 206.798C305.186 206.798 305.201 206.796 305.217 206.796C305.529 206.796 305.795 207.039 305.818 207.353L306.121 211.205C306.146 211.535 305.896 211.826 305.565 211.853L216.618 218.801C216.602 218.803 216.587 218.803 216.571 218.803Z" fill="#77F0ED"/>
<path fill-rule="evenodd" clip-rule="evenodd" d="M237.391 173.403C237.103 173.403 236.846 173.222 236.766 172.953L236.048 170.546L236.27 170.316C236.261 170.415 236.336 170.513 236.445 170.513C236.451 170.513 236.456 170.513 236.46 170.511L413.146 155.844C413.65 155.803 414.129 155.613 414.518 155.302L442.601 132.777C442.643 132.743 442.668 132.697 442.678 132.65L442.838 132.587L442.785 134.791C442.774 135.235 442.566 135.655 442.213 135.948L415.299 158.255C414.965 158.53 414.549 158.698 414.112 158.735L316.915 166.804L296.428 168.504L257.568 171.731L237.449 173.4C237.429 173.401 237.41 173.403 237.391 173.403ZM255.082 147.137C249.376 142.741 233.916 130.804 233.803 130.474L232.915 127.069L232.954 127.068C232.931 127.179 232.965 127.304 233.072 127.385L255.944 144.947C256.256 145.185 256.308 145.63 256.061 145.934L255.082 147.137Z" fill="#B7860D"/>
<path fill-rule="evenodd" clip-rule="evenodd" d="M236.445 170.516C236.336 170.516 236.26 170.419 236.27 170.32C236.275 170.288 236.286 170.257 236.309 170.229L256.061 145.937C256.308 145.634 256.256 145.189 255.944 144.951L233.072 127.389C232.965 127.307 232.931 127.183 232.954 127.071C232.983 126.944 233.085 126.832 233.239 126.82L296.428 121.574L316.915 119.873L400.884 112.903L409.447 112.192C409.518 112.186 409.588 112.183 409.659 112.183C410.135 112.183 410.599 112.315 410.996 112.565L442.58 132.429C442.661 132.479 442.694 132.57 442.678 132.654C442.668 132.701 442.643 132.746 442.601 132.781L414.518 155.305C414.129 155.617 413.65 155.807 413.146 155.848L236.46 170.515C236.456 170.516 236.451 170.516 236.445 170.516ZM406.756 138.702C406.74 138.702 406.725 138.703 406.709 138.703L319.834 145.491C319.503 145.516 319.253 145.808 319.28 146.139L319.593 150.148C319.618 150.462 319.883 150.703 320.195 150.703C320.21 150.703 320.226 150.703 320.242 150.702L407.117 143.914C407.449 143.889 407.698 143.598 407.672 143.266L407.358 139.259C407.334 138.942 407.068 138.702 406.756 138.702ZM406.613 123.84C406.597 123.84 406.581 123.841 406.566 123.843L318.99 130.684C318.66 130.709 318.411 131.002 318.436 131.332L318.771 135.624C318.797 135.939 319.063 136.181 319.373 136.181C319.388 136.181 319.404 136.179 319.42 136.178L406.996 129.337C407.326 129.312 407.576 129.021 407.55 128.689L407.214 124.397C407.189 124.082 406.925 123.84 406.613 123.84Z" fill="#FFC81A"/>
<path fill-rule="evenodd" clip-rule="evenodd" d="M319.372 136.181C319.062 136.181 318.796 135.939 318.771 135.624L318.435 131.332C318.41 131.002 318.659 130.709 318.989 130.684L406.565 123.843C406.581 123.841 406.596 123.84 406.612 123.84C406.924 123.84 407.188 124.082 407.214 124.397L407.549 128.689C407.576 129.021 407.325 129.312 406.995 129.337L319.419 136.178C319.403 136.18 319.388 136.181 319.372 136.181Z" fill="#FFE475"/>
<path fill-rule="evenodd" clip-rule="evenodd" d="M320.194 150.703C319.882 150.703 319.618 150.462 319.593 150.147L319.279 146.138C319.253 145.808 319.503 145.515 319.834 145.49L406.709 138.703C406.724 138.703 406.74 138.701 406.756 138.701C407.068 138.701 407.334 138.942 407.357 139.258L407.672 143.265C407.697 143.597 407.449 143.888 407.116 143.914L320.241 150.701C320.226 150.703 320.21 150.703 320.194 150.703Z" fill="#FFE475"/>
<path fill-rule="evenodd" clip-rule="evenodd" d="M311.669 143.652C311.669 146.978 308.972 149.675 305.644 149.675C302.316 149.675 299.618 146.978 299.618 143.652C299.618 140.327 302.316 137.631 305.644 137.631C308.972 137.631 311.669 140.327 311.669 143.652Z" fill="#FFE475"/>
<path fill-rule="evenodd" clip-rule="evenodd" d="M319.55 176.703C314.733 170.773 310.208 171.03 310.208 171.03C302.612 201.783 262.419 228.877 222.97 240.718C225.434 251.674 231.172 270.221 243.578 284.872C309.202 248.817 319.55 176.703 319.55 176.703Z" fill="#FDBAB9"/>
<path fill-rule="evenodd" clip-rule="evenodd" d="M318.353 178.187C318.847 179.812 312.918 182.223 309.505 175.563C309.413 172.386 307.611 158.761 309.533 156.192C319.779 142.508 339.552 125.421 339.552 125.421C342.837 128.721 340.075 131.905 340.075 131.905L330.467 141.718C332.424 145.329 334.822 148.386 335.917 152.743C336.747 156.042 336.187 159.555 334.494 162.535C332.795 165.525 330.481 169.411 328.298 172.449C324.167 178.2 318.353 178.187 318.353 178.187Z" fill="#FDBAB9"/>
<path fill-rule="evenodd" clip-rule="evenodd" d="M172.297 248.338C122.688 247.047 67.81 260.364 67.81 260.364C54.7452 332.412 60.4932 413.908 62.7175 438.591C63.134 443.212 66.5936 446.966 71.1611 447.804C96.7963 452.513 123.831 449.656 137.431 447.587C142.721 446.783 146.952 442.79 148.076 437.562C157.062 395.756 182.736 303.529 182.736 303.529C207.006 300.753 227.044 293.953 243.578 284.869C231.172 270.218 225.434 251.671 222.97 240.716C205.377 245.996 187.598 248.737 172.297 248.338Z" fill="#116E95"/>
<path fill-rule="evenodd" clip-rule="evenodd" d="M86.3826 308.557L67.81 260.364C67.81 260.364 21.1656 291.39 13.1631 331.216C21.9139 331.945 37.8263 334.374 53.3481 342.392C56.9553 323.586 86.3826 308.557 86.3826 308.557Z" fill="#116E95"/>
<path fill-rule="evenodd" clip-rule="evenodd" d="M126.451 354.126C126.451 354.126 74.1376 383.017 56.8204 357.755C53.2252 352.51 52.403 347.324 53.3482 342.395C37.8264 334.377 21.9139 331.947 13.1631 331.219C10.7506 343.227 11.8431 356.031 18.7922 369.028C49.009 425.543 133.214 367.011 133.214 367.011L126.451 354.126Z" fill="#FDBAB9"/>
<path fill-rule="evenodd" clip-rule="evenodd" d="M122.646 375.756C122.646 375.756 118.675 359.444 120.277 353.657C121.878 347.868 124.981 340.428 135.322 342.082C145.663 343.735 157.862 348.089 157.862 348.089C157.862 348.089 157.245 355.627 149.386 353.194L154.26 356.964C154.26 356.964 153.563 362.999 146.925 359.776L151.458 364.773C151.458 364.773 148.607 369.73 143.722 366.551C138.838 363.371 136.497 377.721 122.646 375.756Z" fill="#FDBAB9"/>
<path fill-rule="evenodd" clip-rule="evenodd" d="M115.759 399.787L144.256 300.328C144.58 299.2 145.544 298.377 146.71 298.24C151.874 297.639 166.835 295.948 184.109 294.488C204.917 292.729 229.08 291.303 243.519 292.517C245.571 292.688 246.811 294.859 245.898 296.705C237.688 313.305 203.914 380.837 186.999 402.96C186.439 403.692 185.573 404.121 184.65 404.112L118.531 403.498C116.608 403.479 115.23 401.635 115.759 399.787Z" fill="#22B8CF"/>
<path fill-rule="evenodd" clip-rule="evenodd" d="M182.209 324.177C182.209 328.793 185.954 332.536 190.575 332.536C195.196 332.536 198.939 328.793 198.939 324.177C198.939 319.559 195.196 315.816 190.575 315.816C185.954 315.816 182.209 319.559 182.209 324.177Z" fill="#77F0ED"/>
<path fill-rule="evenodd" clip-rule="evenodd" d="M147.48 329.689L153.283 310.019C153.995 307.604 155.938 305.79 158.354 305.287C176.539 301.495 226.314 300.691 226.814 300.683L226.781 298.46C224.728 298.491 176.292 299.276 157.899 303.112C154.681 303.782 152.095 306.19 151.15 309.391L145.347 329.062L147.48 329.689Z" fill="#77F0ED"/>
<path fill-rule="evenodd" clip-rule="evenodd" d="M122.423 207.609L106.2 253.085C105.932 253.837 106.234 254.677 106.932 255.072C111.212 257.49 126.65 264.511 145.448 252.851C147.406 251.636 148.751 249.638 149.067 247.356L154.557 207.914L122.423 207.609Z" fill="#FDBAB9"/>
<path fill-rule="evenodd" clip-rule="evenodd" d="M157.177 165.68C157.177 165.68 174.202 198.457 171.854 211.611C169.505 224.764 148.03 223.612 129.371 212.734L116.597 177.395L157.177 165.68Z" fill="#FDBAB9"/>
<path fill-rule="evenodd" clip-rule="evenodd" d="M130.364 195.451C131.131 195.121 131.421 194.191 130.971 193.489C129.602 191.356 127.039 187.004 126.246 183.209C126.246 183.209 123.148 181.186 134.222 178.648C145.295 176.11 161.81 172.164 165.363 162.799C168.827 153.668 160.176 130.539 145.846 148.765C145.302 149.459 144.247 149.465 143.715 148.76C141.424 145.721 135.383 139.397 126.879 143.115C118.919 146.592 117.971 152.389 118.052 155.315C118.075 156.176 117.299 156.838 116.455 156.668C112.455 155.866 102.845 155.118 98.2638 164.935C94.4888 173.018 96.8484 177.638 99.0147 179.907C99.7169 180.641 99.3941 181.839 98.4196 182.127C95.7779 182.907 92.3565 185.107 92.6379 191.276C93.0272 199.805 102.571 199.144 105.29 198.781C105.736 198.722 106.183 198.88 106.48 199.215C108.783 201.812 119.168 212.845 130.508 214.27C131.49 214.395 132.262 213.432 131.948 212.492L127.172 198.173C126.95 197.508 127.274 196.784 127.918 196.505L130.364 195.451Z" fill="#063963"/>
<path fill-rule="evenodd" clip-rule="evenodd" d="M132.32 197.496C132.32 197.496 120.059 188.915 119.088 196.034C118.12 203.152 130.105 206.464 136.083 203.863L132.32 197.496Z" fill="#FDBAB9"/>
<path fill-rule="evenodd" clip-rule="evenodd" d="M93.4132 39.6702C93.2503 39.3081 93.2275 38.8831 93.3838 38.484C93.6232 37.8795 94.1985 37.5118 94.8086 37.5118C94.9946 37.5118 95.1835 37.5458 95.3675 37.6178C95.3783 37.6222 95.3891 37.6264 95.4001 37.6306C94.7297 38.3123 94.068 38.9915 93.4132 39.6702Z" fill="#FDAB76"/>
<path fill-rule="evenodd" clip-rule="evenodd" d="M127.935 119.619C127.533 118.673 127.142 117.729 126.769 116.789C127.296 115.519 127.783 114.223 128.218 112.926C128.428 112.285 129.027 111.88 129.669 111.88C129.829 111.88 129.993 111.906 130.153 111.96C130.955 112.229 131.388 113.096 131.119 113.898C130.578 115.513 129.961 117.126 129.286 118.695C129.25 118.775 129.21 118.853 129.162 118.923C128.887 119.346 128.424 119.6 127.935 119.619ZM131.716 107.071C131.622 107.071 131.528 107.063 131.432 107.045C130.6 106.889 130.053 106.09 130.21 105.26C130.508 103.667 130.743 102.044 130.907 100.433C130.987 99.6436 131.65 99.0565 132.426 99.0565C132.478 99.0565 132.53 99.0585 132.584 99.0645C133.424 99.1507 134.037 99.9001 133.951 100.742C133.778 102.437 133.532 104.148 133.217 105.823C133.179 106.027 133.103 106.212 132.999 106.376C132.72 106.803 132.239 107.071 131.716 107.071Z" fill="#FDAB76"/>
<path fill-rule="evenodd" clip-rule="evenodd" d="M33.1154 140.255C32.7496 140.255 32.3825 140.122 32.0897 139.858C31.4736 139.301 30.8589 138.722 30.2626 138.137C29.66 137.544 29.6486 136.578 30.2431 135.973C30.5429 135.668 30.9386 135.514 31.3349 135.514C31.7219 135.514 32.1092 135.66 32.4071 135.953C32.9732 136.51 33.5575 137.059 34.1425 137.588C34.7078 138.099 34.8028 138.936 34.4002 139.555C34.3565 139.624 34.307 139.688 34.2513 139.75C33.9492 140.084 33.5332 140.255 33.1154 140.255Z" fill="#FDAB76"/>
<path fill-rule="evenodd" clip-rule="evenodd" d="M14.1963 87.1723C14.1202 87.1723 14.0433 87.1663 13.9659 87.1542C13.1302 87.028 12.5549 86.2486 12.6807 85.413C12.9392 83.7019 13.2762 81.9767 13.682 80.2896C13.8507 79.5883 14.4775 79.1174 15.1683 79.1174C15.287 79.1174 15.4074 79.1314 15.5278 79.1595C16.3489 79.3578 16.8551 80.1833 16.6573 81.0049C16.2722 82.6078 15.9526 84.2449 15.7073 85.8699C15.6739 86.0923 15.5935 86.2967 15.4783 86.475C15.2014 86.8998 14.7215 87.1723 14.1963 87.1723Z" fill="#FDAB76"/>
<path fill-rule="evenodd" clip-rule="evenodd" d="M17.6577 74.2947C17.471 74.2947 17.2812 74.2606 17.0971 74.1885C16.311 73.8779 15.9249 72.9902 16.2347 72.2028C16.8701 70.5938 17.5832 68.9888 18.3534 67.434C18.6181 66.895 19.1603 66.5844 19.7237 66.5844C19.9528 66.5844 20.1854 66.6345 20.4044 66.7447C21.1612 67.1194 21.4708 68.0371 21.0955 68.7945C20.3631 70.2712 19.6855 71.796 19.0822 73.3269C19.0437 73.425 18.9958 73.5152 18.9407 73.5994C18.6564 74.0382 18.1687 74.2947 17.6577 74.2947Z" fill="#FDAB76"/>
<path fill-rule="evenodd" clip-rule="evenodd" d="M23.8934 62.5069C23.597 62.5069 23.2977 62.4209 23.034 62.2416C22.3445 61.7725 22.159 60.8392 22.6112 60.1431L22.6294 60.1163C23.6044 58.6817 24.6526 57.2739 25.744 55.9312C26.0467 55.5591 26.4878 55.3662 26.9326 55.3662C27.272 55.3662 27.6132 55.4784 27.8972 55.7092C28.5095 56.2069 28.6365 57.0811 28.2157 57.7287C28.1863 57.774 28.1538 57.8185 28.1194 57.8618C27.0823 59.1373 26.0864 60.4744 25.1599 61.8367C24.864 62.2723 24.3829 62.5069 23.8934 62.5069Z" fill="#FDAB76"/>
<path fill-rule="evenodd" clip-rule="evenodd" d="M32.5779 52.3979C32.1674 52.3979 31.7578 52.2336 31.4565 51.909C30.881 51.2895 30.9201 50.3241 31.5366 49.7462C32.8058 48.5676 34.142 47.4297 35.508 46.3646C35.7873 46.1466 36.1189 46.0408 36.4479 46.0408C36.9033 46.0408 37.3538 46.2431 37.6555 46.6299C38.0681 47.1584 38.0785 47.873 37.7325 48.4051C37.6425 48.5438 37.5277 48.6698 37.39 48.7774C36.0932 49.7891 34.8243 50.8695 33.6193 51.989C33.3245 52.2625 32.9508 52.3979 32.5779 52.3979Z" fill="#FDAB76"/>
<path fill-rule="evenodd" clip-rule="evenodd" d="M110.692 49.8062C110.353 49.8062 110.013 49.6944 109.728 49.4649C108.453 48.4318 107.113 47.4386 105.746 46.5129C105.055 46.0446 104.868 45.1099 105.321 44.4128L105.338 44.3876C105.633 43.951 106.115 43.7156 106.606 43.7156C106.901 43.7156 107.2 43.8011 107.463 43.9792C108.901 44.9536 110.311 45.999 111.656 47.0868C112.269 47.5841 112.397 48.4597 111.976 49.1081C111.946 49.1528 111.916 49.1964 111.882 49.2385C111.58 49.6122 111.137 49.8062 110.692 49.8062Z" fill="#FDAB76"/>
<path fill-rule="evenodd" clip-rule="evenodd" d="M43.2973 44.4895C42.7681 44.4895 42.2535 44.2148 41.9704 43.7237C41.548 42.9915 41.7989 42.0558 42.5313 41.6334C44.0318 40.7676 45.5885 39.9561 47.157 39.221C47.367 39.1228 47.5878 39.0761 47.8052 39.0761C48.3805 39.0761 48.9315 39.4021 49.192 39.9575C49.425 40.4546 49.3671 41.0131 49.0886 41.4419C48.9381 41.6731 48.7239 41.8668 48.4554 41.9925C46.9651 42.6908 45.4867 43.462 44.0605 44.2845C43.8196 44.4234 43.5567 44.4895 43.2973 44.4895Z" fill="#FDAB76"/>
<path fill-rule="evenodd" clip-rule="evenodd" d="M99.4606 42.6232C99.2332 42.6232 99.0024 42.5721 98.7846 42.4647C97.3055 41.7344 95.7806 41.0605 94.2518 40.4612C93.8643 40.3093 93.5734 40.0164 93.4149 39.6643C94.0697 38.9857 94.7313 38.3064 95.4017 37.6248C96.9991 38.2521 98.593 38.957 100.139 39.72C100.897 40.0941 101.208 41.012 100.834 41.7698C100.807 41.8249 100.777 41.8776 100.744 41.9277C100.456 42.3703 99.9672 42.6232 99.4606 42.6232Z" fill="#FDAB76"/>
<path fill-rule="evenodd" clip-rule="evenodd" d="M55.5118 39.157C54.8581 39.157 54.2532 38.7352 54.05 38.0782C53.8002 37.2703 54.2528 36.4135 55.0605 36.1645C56.7182 35.6519 58.4157 35.2049 60.1051 34.8358C60.2153 34.8116 60.3253 34.7999 60.4337 34.7999C61.137 34.7999 61.7703 35.288 61.9264 36.0038C62.0176 36.4195 61.93 36.8333 61.7148 37.1643C61.503 37.4903 61.1682 37.736 60.7585 37.8254C59.1531 38.1764 57.5399 38.601 55.9642 39.0885C55.8137 39.135 55.6614 39.157 55.5118 39.157Z" fill="#FDAB76"/>
<path fill-rule="evenodd" clip-rule="evenodd" d="M86.929 38.0961C86.8116 38.0961 86.6921 38.0824 86.5727 38.054C84.9724 37.6723 83.3362 37.3557 81.7082 37.1128C80.8726 36.9884 80.2958 36.2094 80.4206 35.3736C80.5346 34.6148 81.1874 34.069 81.933 34.069C82.0079 34.069 82.0835 34.0744 82.1598 34.0859C83.8742 34.3415 85.5977 34.6751 87.2828 35.0769C88.1048 35.2731 88.6121 36.0984 88.4165 36.9207C88.3746 37.0958 88.3043 37.2569 88.2113 37.3996C87.9318 37.8296 87.4487 38.0961 86.929 38.0961Z" fill="#FDAB76"/>
<path fill-rule="evenodd" clip-rule="evenodd" d="M68.6062 36.6547C67.8143 36.6547 67.1437 36.0446 67.0817 35.2421C67.0174 34.3996 67.648 33.6644 68.4897 33.5987C70.049 33.4787 71.6308 33.418 73.1987 33.418C73.368 33.418 73.5367 33.4186 73.7056 33.4202C74.5508 33.4274 75.2302 34.1183 75.2227 34.9634C75.22 35.2656 75.1302 35.5467 74.9767 35.7829C74.7034 36.2035 74.2296 36.4808 73.6924 36.4808C73.6882 36.4808 73.6842 36.4808 73.6799 36.4808C73.5136 36.4794 73.3469 36.4786 73.1802 36.4786C71.6961 36.4786 70.2001 36.5365 68.7252 36.6501C68.6853 36.6531 68.6456 36.6547 68.6062 36.6547Z" fill="#FDAB76"/>
<path fill-rule="evenodd" clip-rule="evenodd" d="M13.5581 97.898C12.736 97.898 12.056 97.2448 12.0301 96.4173C12.0043 95.5858 11.9949 94.7422 12.0027 93.9087C12.0091 93.0672 12.6935 92.3919 13.5319 92.3919C13.5369 92.3919 13.5419 92.3919 13.5469 92.3919C14.3919 92.3999 15.0707 93.0912 15.0627 93.9368C15.0557 94.7302 15.0641 95.5317 15.0894 96.3211C15.0996 96.6457 15.0078 96.9483 14.8435 97.2007C14.5798 97.6075 14.1282 97.882 13.6072 97.898C13.5908 97.898 13.5746 97.898 13.5581 97.898Z" fill="#FDAB76"/>
<path fill-rule="evenodd" clip-rule="evenodd" d="M76.8379 155.562C76.0366 155.562 75.3637 154.939 75.3123 154.127C75.2588 153.284 75.8993 152.556 76.7425 152.504C78.3571 152.402 79.9891 152.23 81.5939 151.991C81.6698 151.981 81.7451 151.975 81.8195 151.975C82.5657 151.975 83.2191 152.522 83.3313 153.282C83.3882 153.666 83.2972 154.037 83.1011 154.34C82.8704 154.694 82.4937 154.953 82.0417 155.019C80.3532 155.269 78.6352 155.45 76.9361 155.558C76.9032 155.56 76.8703 155.562 76.8379 155.562ZM68.7085 155.52C68.6708 155.52 68.6327 155.518 68.5946 155.514C66.8925 155.39 65.1759 155.189 63.493 154.921C62.6583 154.789 62.0896 154.003 62.2229 153.17C62.3429 152.416 62.9937 151.879 63.7327 151.879C63.8128 151.879 63.8937 151.885 63.9753 151.899C65.573 152.154 67.2029 152.344 68.8199 152.462C69.6628 152.524 70.2954 153.258 70.2333 154.101C70.2134 154.368 70.1271 154.612 69.991 154.821C69.7165 155.243 69.24 155.52 68.7085 155.52ZM89.7614 153.302C89.0977 153.302 88.4868 152.869 88.2923 152.2C88.0562 151.386 88.5231 150.537 89.335 150.302C90.8888 149.851 92.4445 149.326 93.9577 148.747C94.1381 148.677 94.3232 148.645 94.5055 148.645C95.1209 148.645 95.7009 149.02 95.9346 149.627C96.1167 150.104 96.046 150.615 95.7881 151.012C95.6182 151.272 95.3671 151.484 95.0537 151.605C93.4612 152.216 91.8246 152.767 90.1889 153.242C90.0465 153.282 89.9026 153.302 89.7614 153.302ZM55.8074 153.109C55.6595 153.109 55.5092 153.087 55.3604 153.041C53.7318 152.546 52.1029 151.973 50.5182 151.34C49.7336 151.026 49.3513 150.136 49.6652 149.35C49.9041 148.753 50.4797 148.389 51.0879 148.389C51.2764 148.389 51.4682 148.423 51.6539 148.497C53.1593 149.1 54.7062 149.643 56.253 150.114C57.0613 150.36 57.517 151.216 57.2705 152.025C57.2276 152.166 57.1663 152.296 57.0902 152.412C56.8086 152.847 56.3232 153.109 55.8074 153.109ZM101.879 148.286C101.339 148.286 100.816 148 100.537 147.493C100.13 146.752 100.401 145.822 101.141 145.415C102.563 144.634 103.966 143.784 105.312 142.888C105.572 142.716 105.866 142.634 106.157 142.634C106.653 142.634 107.138 142.872 107.433 143.317C107.782 143.842 107.764 144.501 107.442 144.998C107.331 145.169 107.185 145.319 107.006 145.437C105.589 146.381 104.111 147.275 102.615 148.096C102.381 148.224 102.128 148.286 101.879 148.286ZM43.7577 147.928C43.5022 147.928 43.2432 147.864 43.0051 147.729C41.9135 147.11 40.8271 146.451 39.7772 145.768C39.3969 145.521 39.0206 145.271 38.6475 145.016C37.9494 144.542 37.7492 143.59 38.2447 142.89C38.5407 142.456 39.0214 142.221 39.5105 142.221C39.8072 142.221 40.107 142.307 40.3709 142.488C40.7251 142.728 41.0834 142.969 41.4448 143.203C42.4433 143.852 43.4752 144.477 44.5131 145.067C45.2485 145.483 45.507 146.417 45.0904 147.152C45.0748 147.178 45.0585 147.206 45.0413 147.233C44.7514 147.679 44.2613 147.928 43.7577 147.928ZM112.601 140.747C112.177 140.747 111.756 140.57 111.453 140.23C110.894 139.596 110.954 138.629 111.586 138.07C112.802 136.996 113.984 135.857 115.1 134.689C115.401 134.373 115.803 134.214 116.206 134.214C116.587 134.214 116.967 134.355 117.264 134.639C117.805 135.154 117.883 135.972 117.49 136.577C117.44 136.657 117.38 136.731 117.314 136.801C116.138 138.033 114.894 139.232 113.613 140.362C113.323 140.618 112.96 140.747 112.601 140.747ZM121.404 131.026C121.093 131.026 120.781 130.932 120.508 130.736C119.825 130.241 119.67 129.285 120.163 128.6C121.105 127.296 122.007 125.931 122.852 124.528C123.137 124.052 123.644 123.787 124.165 123.787C124.433 123.787 124.706 123.859 124.954 124.007C125.678 124.444 125.91 125.384 125.473 126.107C125.106 126.716 124.732 127.316 124.349 127.905C123.802 128.748 123.229 129.584 122.646 130.391C122.347 130.806 121.879 131.026 121.404 131.026ZM127.88 119.615C127.677 119.615 127.473 119.575 127.274 119.491C126.499 119.156 126.14 118.257 126.475 117.479C126.575 117.249 126.673 117.019 126.77 116.786C127.142 117.726 127.533 118.67 127.936 119.615C127.918 119.615 127.9 119.615 127.88 119.615Z" fill="#FDAB76"/>
<path fill-rule="evenodd" clip-rule="evenodd" d="M132.687 93.9457C131.868 93.9457 131.191 93.2965 131.16 92.4709C131.13 91.6855 131.086 90.884 131.024 90.0905C130.958 89.247 131.589 88.5136 132.431 88.4475C132.471 88.4435 132.511 88.4435 132.551 88.4435C133.342 88.4435 134.012 89.0526 134.076 89.8541C134.14 90.6897 134.188 91.5312 134.218 92.3587C134.23 92.6853 134.138 92.9919 133.972 93.2484C133.711 93.6511 133.262 93.9256 132.745 93.9437C132.725 93.9457 132.707 93.9457 132.687 93.9457Z" fill="#FDAB76"/>
<path fill-rule="evenodd" clip-rule="evenodd" d="M114.78 75.3793C114.688 75.0888 114.42 74.8884 114.115 74.8824L105.413 74.69C103.322 71.2036 100.661 68.0257 97.4759 65.3147L98.7178 56.7042C98.7612 56.402 98.6084 56.1057 98.3371 55.966L89.0533 51.1882C88.782 51.0483 88.452 51.0962 88.2316 51.3072L81.9468 57.3219C77.8885 56.3062 73.7554 55.9872 69.7034 56.3122L64.4899 49.3416C64.3072 49.0971 63.9894 48.9957 63.6991 49.0889L53.7557 52.2748C53.4653 52.368 53.2656 52.6352 53.259 52.9402L53.0678 61.6429C49.5814 63.7334 46.4033 66.3947 43.6911 69.5806L35.0812 68.3383C34.779 68.2942 34.4827 68.4465 34.343 68.719L29.565 78.0021C29.4253 78.2746 29.4732 78.6032 29.6842 78.8237L35.6989 85.1093C34.6832 89.1668 34.3643 93.3004 34.6893 97.3519L27.7186 102.566C27.4743 102.748 27.3725 103.066 27.4659 103.357L30.6518 113.299C30.7448 113.59 31.0123 113.79 31.317 113.796L40.0199 113.989C42.1104 117.475 44.7719 120.653 47.957 123.364L46.7151 131.974C46.6714 132.276 46.8243 132.573 47.0956 132.713L56.3795 137.49C56.6508 137.63 56.9808 137.582 57.2013 137.372L63.4861 131.357C67.5444 132.373 71.6776 132.691 75.7297 132.367L80.9429 139.338C81.1257 139.582 81.4432 139.684 81.734 139.59L91.6772 136.404C91.9677 136.312 92.1671 136.043 92.1739 135.739L92.365 127.037C95.8515 124.945 99.0293 122.284 101.742 119.098L110.352 120.34C110.653 120.384 110.949 120.232 111.09 119.96L115.868 110.677C116.007 110.404 115.961 110.075 115.748 109.855L109.733 103.569C110.749 99.5119 111.068 95.3783 110.743 91.3268L117.714 86.1131C117.958 85.9308 118.061 85.6122 117.966 85.3217L114.78 75.3793Z" fill="#FDAB76"/>
<path fill-rule="evenodd" clip-rule="evenodd" d="M80.5881 101.276C76.7608 105.616 70.1161 106.034 65.7747 102.205C63.6716 100.352 62.4167 97.7911 62.241 94.992C62.0648 92.1948 62.9884 89.4958 64.8432 87.3939C68.6707 83.0518 75.3153 82.6351 79.6566 86.4622C83.6059 89.9446 84.3082 95.7574 81.5204 100.047C81.2441 100.472 80.9329 100.883 80.5881 101.276Z" fill="#FEE9D1"/>
<path fill-rule="evenodd" clip-rule="evenodd" d="M94.1146 108.488C94.5935 107.75 95.0379 106.987 95.4457 106.193C95.5739 105.945 95.6982 105.694 95.8186 105.44C96.4115 104.192 96.904 102.897 97.2885 101.577L97.3045 101.523C97.3192 101.473 97.3338 101.421 97.3478 101.371C97.3761 101.27 97.4033 101.17 97.4304 101.07C97.5013 100.807 97.3901 100.539 97.1737 100.399C97.121 100.365 97.0621 100.339 96.9984 100.321C96.672 100.232 96.3369 100.427 96.2486 100.753C95.7963 102.432 95.16 104.075 94.3571 105.634C90.3721 113.379 82.8145 118.111 74.7238 118.859C70.2237 119.276 65.5585 118.458 61.2507 116.242C60.4951 115.853 59.7647 115.428 59.0624 114.972C54.3333 111.898 50.8344 107.33 49.0904 101.885C47.0865 95.6339 47.6379 88.9736 50.6425 83.1368C56.8492 71.0786 71.6974 66.3258 83.7489 72.5272C84.492 72.9099 85.213 73.3287 85.9089 73.7816C88.9254 75.7432 91.4794 78.342 93.3783 81.4016C93.4274 81.4798 93.4913 81.5439 93.5646 81.592C93.757 81.7162 94.0128 81.7282 94.2208 81.598C94.5078 81.4197 94.5973 81.043 94.4182 80.7544C92.4245 77.5425 89.7433 74.8135 86.5765 72.7557C85.8459 72.2808 85.0893 71.84 84.3095 71.4392C71.6565 64.9272 56.0639 69.9264 49.5541 82.5758C46.3994 88.7051 45.821 95.694 47.9245 102.26C49.7552 107.975 53.4286 112.77 58.3932 115.998C59.1308 116.476 59.8976 116.921 60.6901 117.33C66.8196 120.486 73.8103 121.063 80.3744 118.961C86.0906 117.13 90.8877 113.455 94.1146 108.488Z" fill="#FEE9D1"/>
<path fill-rule="evenodd" clip-rule="evenodd" d="M163.285 19.0355C163.251 18.8189 163.291 18.5891 163.416 18.3879C163.582 18.1421 163.859 17.9822 164.149 17.9537C163.859 18.3138 163.574 18.6714 163.285 19.0355Z" fill="#FDAB76"/>
<path fill-rule="evenodd" clip-rule="evenodd" d="M139.552 93.4231C139.252 93.3971 138.951 93.367 138.653 93.333C138.488 93.3149 138.338 93.2568 138.212 93.1667C138.156 92.7058 138.1 92.2369 138.049 91.7661C138.224 91.5697 138.48 91.4495 138.757 91.4495C138.791 91.4495 138.825 91.4515 138.861 91.4535C139.015 91.4715 139.172 91.4876 139.326 91.5036C139.396 92.1528 139.472 92.794 139.552 93.4231Z" fill="#FDAB76"/>
<path fill-rule="evenodd" clip-rule="evenodd" d="M148.41 93.2312C147.945 93.2312 147.538 92.8866 147.476 92.4117C147.406 91.8947 147.77 91.4198 148.287 91.3497C149.84 91.1433 151.399 90.8388 152.922 90.446C153.002 90.426 153.08 90.416 153.158 90.416C153.579 90.416 153.964 90.6985 154.074 91.1253C154.142 91.3918 154.09 91.6623 153.95 91.8767C153.826 92.067 153.633 92.2153 153.395 92.2754C151.8 92.6882 150.165 93.0068 148.536 93.2232C148.494 93.2292 148.452 93.2312 148.41 93.2312ZM157.757 90.8147C157.38 90.8147 157.022 90.5863 156.877 90.2136C156.685 89.7287 156.925 89.1797 157.412 88.9893C158.873 88.4183 160.314 87.749 161.694 87.0037C161.836 86.9275 161.989 86.8915 162.141 86.8915C162.478 86.8915 162.802 87.0718 162.975 87.3884C163.143 87.703 163.117 88.0716 162.934 88.3522C162.85 88.4804 162.734 88.5906 162.592 88.6687C161.143 89.4482 159.632 90.1495 158.102 90.7506C157.987 90.7947 157.871 90.8147 157.757 90.8147ZM166.249 86.2363C165.952 86.2363 165.661 86.096 165.477 85.8375C165.175 85.4107 165.275 84.8236 165.702 84.5191C166.98 83.6134 168.216 82.6196 169.382 81.5616C169.563 81.3973 169.791 81.3172 170.018 81.3172C170.274 81.3172 170.53 81.4214 170.717 81.6257C171.011 81.9503 171.037 82.4252 170.809 82.7759C170.767 82.842 170.713 82.9061 170.653 82.9622C169.432 84.0703 168.134 85.1122 166.794 86.0619C166.629 86.1802 166.437 86.2363 166.249 86.2363ZM173.388 79.7402C173.169 79.7402 172.949 79.6661 172.771 79.5118C172.376 79.1712 172.336 78.5761 172.67 78.1794C173.692 76.9932 174.652 75.7288 175.526 74.4224C175.708 74.1479 176.007 74.0016 176.311 74.0016C176.494 74.0016 176.676 74.0537 176.836 74.1619C177.267 74.4485 177.385 75.0295 177.105 75.4623L177.097 75.4724C176.181 76.8429 175.175 78.1673 174.105 79.4116C173.917 79.63 173.652 79.7402 173.388 79.7402ZM178.752 71.7174C178.609 71.7174 178.463 71.6834 178.325 71.6132C177.86 71.3788 177.674 70.8097 177.91 70.3449C178.619 68.9443 179.253 67.4856 179.79 66.0109C179.93 65.6302 180.293 65.3897 180.679 65.3897C180.785 65.3897 180.894 65.4078 181 65.4478C181.491 65.6262 181.743 66.1672 181.565 66.6581C181.004 68.2029 180.341 69.7317 179.595 71.1985C179.579 71.2305 179.563 71.2586 179.545 71.2866C179.367 71.5611 179.064 71.7174 178.752 71.7174ZM182.05 62.6424C181.98 62.6424 181.91 62.6346 181.837 62.6182C181.328 62.5012 181.012 61.9934 181.128 61.4851C181.481 59.9553 181.743 58.3886 181.906 56.8283C181.958 56.3428 182.368 55.9815 182.845 55.9815C182.879 55.9815 182.911 55.9831 182.943 55.9865C183.462 56.041 183.841 56.5057 183.785 57.0249C183.615 58.6615 183.34 60.3051 182.972 61.9095C182.945 62.0203 182.901 62.1221 182.841 62.2122C182.669 62.4777 182.37 62.6424 182.05 62.6424Z" fill="#FDAB76"/>
<path fill-rule="evenodd" clip-rule="evenodd" d="M173.45 27.725C173.184 27.725 172.919 27.6132 172.733 27.3954C172.234 26.8143 171.711 26.2408 171.18 25.691C170.817 25.3159 170.823 24.7166 171.202 24.3546C171.384 24.177 171.623 24.0887 171.859 24.0887C172.106 24.0887 172.352 24.185 172.539 24.3766C173.096 24.9537 173.645 25.5552 174.168 26.1641C174.446 26.4903 174.464 26.9516 174.242 27.2944C174.194 27.3681 174.136 27.4367 174.065 27.4974C173.887 27.6501 173.669 27.725 173.45 27.725Z" fill="#FDAB76"/>
<path fill-rule="evenodd" clip-rule="evenodd" d="M106.45 38.1709C106.327 38.1709 106.202 38.1466 106.082 38.0957C105.601 37.8921 105.377 37.3379 105.58 36.857C106.144 35.5264 106.79 34.2035 107.498 32.9292C107.604 32.7348 107.714 32.5433 107.824 32.3515C107.988 32.0463 108.307 31.878 108.636 31.878C108.799 31.878 108.966 31.9199 109.116 32.0071C109.567 32.2683 109.721 32.8462 109.461 33.2987C109.356 33.4774 109.254 33.6583 109.152 33.8437C108.474 35.0635 107.858 36.325 107.321 37.594C107.299 37.6463 107.272 37.6956 107.243 37.7415C107.066 38.0128 106.765 38.1709 106.45 38.1709ZM111.35 29.6685C111.154 29.6685 110.953 29.6066 110.783 29.478C110.366 29.1642 110.288 28.5769 110.597 28.1539C111.607 26.8149 112.707 25.5285 113.867 24.3309C114.053 24.1395 114.3 24.0433 114.546 24.0433C114.782 24.0433 115.021 24.1319 115.203 24.3096C115.534 24.629 115.58 25.1309 115.34 25.5024C115.305 25.5527 115.267 25.6008 115.225 25.6457C114.119 26.7876 113.069 28.0145 112.108 29.2926C111.921 29.5387 111.637 29.6685 111.35 29.6685Z" fill="#FDAB76"/>
<path fill-rule="evenodd" clip-rule="evenodd" d="M168.23 22.6655C168.022 22.6655 167.813 22.5969 167.637 22.4563C166.611 21.6301 165.531 20.8471 164.427 20.1296C164.195 19.9781 163.958 19.829 163.72 19.6815C163.477 19.5311 163.327 19.289 163.285 19.0277C163.573 18.6637 163.858 18.306 164.148 17.9459C164.18 17.9429 164.211 17.9413 164.243 17.9413C164.405 17.9413 164.569 17.9834 164.717 18.0754C164.966 18.2299 165.212 18.3862 165.457 18.5444C166.615 19.2968 167.747 20.1178 168.823 20.9844C169.204 21.2907 169.284 21.8329 169.023 22.2345C169.005 22.2613 168.987 22.2874 168.967 22.3134C168.779 22.5448 168.506 22.6655 168.23 22.6655Z" fill="#FDAB76"/>
<path fill-rule="evenodd" clip-rule="evenodd" d="M118.179 22.621C117.903 22.621 117.628 22.5004 117.442 22.2684C117.115 21.8614 117.18 21.2685 117.586 20.9391C118.887 19.8924 120.269 18.916 121.692 18.0368C121.848 17.9414 122.019 17.8959 122.189 17.8959C122.506 17.8959 122.814 18.055 122.992 18.3441C123.191 18.6655 123.175 19.0595 122.982 19.3562C122.908 19.4698 122.81 19.5696 122.686 19.6453C121.329 20.4833 120.013 21.414 118.771 22.4125C118.596 22.5527 118.388 22.621 118.179 22.621Z" fill="#FDAB76"/>
<path fill-rule="evenodd" clip-rule="evenodd" d="M159.891 17.4909C159.759 17.4909 159.625 17.4628 159.497 17.4033C158.046 16.7327 156.543 16.1456 155.026 15.6591C154.527 15.4994 154.255 14.968 154.415 14.4707C154.543 14.0714 154.914 13.8141 155.315 13.8141C155.411 13.8141 155.507 13.8287 155.603 13.8594C157.192 14.3691 158.769 14.9842 160.29 15.6879C160.763 15.9071 160.969 16.4688 160.751 16.9431C160.731 16.9843 160.709 17.0242 160.685 17.0617C160.506 17.334 160.206 17.4909 159.891 17.4909Z" fill="#FDAB76"/>
<path fill-rule="evenodd" clip-rule="evenodd" d="M126.522 17.4692C126.165 17.4692 125.822 17.2646 125.662 16.9178C125.446 16.4431 125.652 15.8817 126.127 15.6647C127.646 14.9682 129.225 14.3582 130.819 13.8511C130.914 13.8208 131.01 13.8066 131.104 13.8066C131.507 13.8066 131.877 14.0633 132.006 14.4652C132.094 14.7464 132.046 15.0383 131.897 15.2673C131.783 15.4442 131.607 15.5839 131.391 15.653C129.87 16.1365 128.365 16.7186 126.914 17.383C126.788 17.4415 126.654 17.4692 126.522 17.4692ZM144.747 12.729C144.813 12.4529 144.998 12.2269 145.24 12.1037C145.076 12.3119 144.912 12.5198 144.747 12.729Z" fill="#FDAB76"/>
<path fill-rule="evenodd" clip-rule="evenodd" d="M150.546 14.5004C150.488 14.5004 150.43 14.4952 150.37 14.4842C148.803 14.1895 147.2 13.9905 145.607 13.8919C145.086 13.8597 144.689 13.4112 144.722 12.8905C144.726 12.8356 144.734 12.7819 144.746 12.7302C144.91 12.521 145.074 12.313 145.238 12.1048C145.367 12.0397 145.511 12.0032 145.663 12.0032C145.683 12.0032 145.703 12.0038 145.723 12.0052C147.394 12.108 149.076 12.3176 150.719 12.6262C151.232 12.7228 151.57 13.2167 151.474 13.7298C151.45 13.8544 151.404 13.9693 151.338 14.0699C151.165 14.3341 150.869 14.5004 150.546 14.5004Z" fill="#FDAB76"/>
<path fill-rule="evenodd" clip-rule="evenodd" d="M135.87 14.4962C135.426 14.4962 135.029 14.1792 134.943 13.7252C134.849 13.2134 135.185 12.7185 135.698 12.622C137.339 12.3142 139.02 12.1058 140.691 12.0018C140.711 12.0006 140.731 12 140.752 12C141.246 12 141.663 12.3861 141.693 12.887C141.705 13.097 141.649 13.2954 141.543 13.4595C141.385 13.7021 141.12 13.8695 140.808 13.8887C139.215 13.9875 137.612 14.1862 136.047 14.48C135.989 14.491 135.929 14.4962 135.87 14.4962Z" fill="#FDAB76"/>
<path fill-rule="evenodd" clip-rule="evenodd" d="M143.15 93.578C141.95 93.578 140.746 93.5259 139.554 93.4197C139.474 92.7906 139.397 92.1494 139.327 91.5002C140.588 91.6244 141.864 91.6885 143.134 91.6885C143.283 91.6885 143.429 91.6865 143.577 91.6845C143.581 91.6845 143.587 91.6845 143.587 91.6845C144.106 91.6845 144.527 92.1013 144.533 92.6202C144.535 92.8146 144.479 92.9949 144.381 93.1452C144.214 93.4017 143.928 93.572 143.599 93.576C143.449 93.578 143.299 93.578 143.15 93.578ZM138.213 93.1632C137.941 92.9709 137.778 92.6403 137.818 92.2856C137.841 92.0832 137.925 91.9049 138.051 91.7626C138.101 92.2335 138.157 92.7024 138.213 93.1632Z" fill="#FDAB76"/>
<path fill-rule="evenodd" clip-rule="evenodd" d="M183.054 52.9961C182.539 52.9959 182.118 52.5845 182.108 52.0688C182.094 51.2967 182.056 50.5221 181.998 49.7661C181.958 49.2455 182.349 48.7919 182.868 48.75C182.892 48.7482 182.916 48.7472 182.942 48.7472C183.431 48.7472 183.844 49.1241 183.884 49.6194C183.946 50.4125 183.984 51.2244 184 52.0331C184.002 52.2293 183.946 52.4122 183.848 52.5651C183.681 52.8194 183.397 52.9893 183.072 52.9959C183.066 52.9959 183.06 52.9961 183.054 52.9961Z" fill="#FDAB76"/>
<path fill-rule="evenodd" clip-rule="evenodd" d="M171.05 39.923C170.986 39.7287 170.808 39.5952 170.604 39.5906L164.781 39.4628C163.382 37.1298 161.601 35.0033 159.469 33.1884L160.3 27.4269C160.331 27.2247 160.228 27.0266 160.046 26.933L153.835 23.7359C153.652 23.6423 153.432 23.6744 153.283 23.8154L149.078 27.8403C146.363 27.1606 143.598 26.9472 140.885 27.1646L137.396 22.5002C137.274 22.3367 137.062 22.2688 136.867 22.3311L130.215 24.463C130.02 24.5251 129.886 24.7041 129.882 24.9083L129.754 30.7316C127.422 32.1304 125.294 33.9115 123.478 36.0428L117.718 35.2117C117.515 35.1826 117.317 35.2848 117.225 35.4664L114.027 41.6789C113.933 41.8604 113.965 42.081 114.107 42.2287L118.131 46.4343C117.451 49.1499 117.239 51.9156 117.455 54.627L112.791 58.1154C112.628 58.2379 112.56 58.4505 112.622 58.6448L114.754 65.2989C114.816 65.4933 114.995 65.6255 115.199 65.6315L121.022 65.7578C122.422 68.0921 124.202 70.218 126.334 72.0334L125.502 77.794C125.474 77.9964 125.576 78.1948 125.757 78.289L131.97 81.4849C132.15 81.579 132.373 81.547 132.519 81.4067L136.725 77.3813C139.44 78.0605 142.207 78.2749 144.918 78.0565L148.406 82.7211C148.529 82.8854 148.741 82.9536 148.935 82.8895L155.59 80.7575C155.784 80.6954 155.916 80.5171 155.922 80.3127L156.051 74.4899C158.383 73.0913 160.509 71.31 162.324 69.1781L168.085 70.0096C168.287 70.0397 168.486 69.9375 168.58 69.7552L171.776 63.5427C171.87 63.3611 171.838 63.1403 171.698 62.9929L167.672 58.7873C168.351 56.0717 168.566 53.306 168.347 50.5945L173.012 47.1059C173.176 46.9837 173.244 46.7711 173.182 46.5767L171.05 39.923Z" fill="#FDAB76"/>
<path fill-rule="evenodd" clip-rule="evenodd" d="M148.266 57.3465C147.004 58.7795 145.258 59.6343 143.353 59.7541C141.447 59.8741 139.608 59.2448 138.175 57.9814C135.22 55.3748 134.935 50.8561 137.54 47.8908C140.149 44.9344 144.675 44.6498 147.631 47.2564C149.063 48.5192 149.919 50.2642 150.039 52.1699C150.135 53.7192 149.739 55.2239 148.907 56.5025C148.717 56.7962 148.502 57.0786 148.266 57.3465Z" fill="#FEE9D1"/>
<path fill-rule="evenodd" clip-rule="evenodd" d="M157.681 62.3622C158.006 61.8606 158.308 61.3385 158.589 60.7961C159.144 59.7187 159.59 58.5836 159.915 57.4194C159.929 57.3671 159.943 57.3146 159.957 57.2621C160.067 56.8566 159.895 56.4418 159.56 56.2242C159.48 56.1713 159.388 56.1302 159.29 56.1038C158.787 55.9679 158.27 56.2683 158.132 56.7708C157.839 57.8606 157.426 58.9234 156.908 59.9303V59.9307C156.879 59.986 156.849 60.0413 156.821 60.0958C155.571 62.4676 153.778 64.438 151.606 65.8867C150.426 66.6721 149.131 67.3033 147.751 67.7601L147.717 67.7702C147.682 67.7822 147.648 67.7922 147.614 67.8042C143.567 69.1006 139.255 68.744 135.476 66.7984C134.987 66.5479 134.514 66.2734 134.059 65.9768C130.998 63.9872 128.733 61.0291 127.603 57.5048C126.307 53.4565 126.664 49.1461 128.609 45.367C130.555 41.5908 133.855 38.7918 137.902 37.494C141.95 36.1972 146.262 36.5539 150.041 38.4993C150.522 38.7463 150.989 39.0176 151.439 39.3104C153.391 40.5801 155.046 42.2624 156.274 44.2433C156.35 44.3653 156.449 44.4643 156.563 44.5372C156.859 44.7304 157.254 44.7476 157.575 44.548C158.018 44.2715 158.156 43.6905 157.879 43.246C156.505 41.0297 154.655 39.1469 152.471 37.7264C151.966 37.3984 151.443 37.0953 150.906 36.8184C146.677 34.6419 141.854 34.2428 137.325 35.6941C132.797 37.1456 129.102 40.2695 126.928 44.5016C124.752 48.73 124.351 53.5525 125.804 58.0816C127.066 62.0245 129.601 65.3337 133.025 67.5598C133.534 67.8904 134.063 68.1969 134.61 68.4795C142.797 72.6933 152.768 69.9221 157.681 62.3622Z" fill="#FEE9D1"/>
</svg>
