<svg width="640" height="482" viewBox="0 0 640 482" fill="none" xmlns="http://www.w3.org/2000/svg">
<g clip-path="url(#clip0_17958_10564)">
<rect x="432.552" y="102.149" width="57.3793" height="367.008" rx="12" fill="#FEE9D1"/>
<rect x="348.69" y="152.999" width="57.3793" height="316.158" rx="12" fill="#FEE9D1"/>
<rect x="264.828" y="220.034" width="57.3793" height="249.379" rx="12" fill="#FEE9D1"/>
<path fill-rule="evenodd" clip-rule="evenodd" d="M427.271 467.089C427.271 467.089 427.416 466.525 427.748 465.487C428.126 465.477 428.732 465.451 429.541 465.388C428.781 465.929 428.024 466.495 427.271 467.089Z" fill="#B3200E"/>
<path fill-rule="evenodd" clip-rule="evenodd" d="M421.92 468.849H383.518C372.769 468.849 363.023 462.535 358.609 452.715L284.12 286.947L326.518 258.336L425.766 453.15C426.664 454.907 427.993 456.353 429.585 457.388C428.798 460.057 428.025 462.766 427.272 465.487C427.272 465.487 427.298 465.491 427.354 465.491C427.43 465.491 427.562 465.488 427.749 465.484C427.417 466.522 427.272 467.086 427.272 467.086C428.025 466.493 428.782 465.926 429.542 465.385C430.058 465.343 430.657 465.286 431.338 465.207C429.242 467.109 426.604 468.348 423.766 468.727C423.157 468.806 422.542 468.849 421.92 468.849Z" fill="#B3200E"/>
<path fill-rule="evenodd" clip-rule="evenodd" d="M427.353 465.492C427.298 465.492 427.271 465.489 427.271 465.489C428.024 462.767 428.797 460.058 429.584 457.389C429.922 457.607 430.274 457.808 430.636 457.989C429.156 461.337 428.242 463.937 427.748 465.486C427.561 465.489 427.429 465.492 427.353 465.492ZM429.541 465.387C430.807 464.487 432.083 463.66 433.376 462.902C432.777 463.749 432.093 464.523 431.337 465.209C430.656 465.288 430.057 465.344 429.541 465.387Z" fill="#B3200E"/>
<path fill-rule="evenodd" clip-rule="evenodd" d="M427.748 465.486C428.242 463.937 429.156 461.337 430.636 457.989C432.133 458.74 433.808 459.152 435.544 459.152L434.35 461.311L434.179 461.617C433.933 462.062 433.666 462.49 433.376 462.902C432.083 463.66 430.807 464.487 429.541 465.387C428.732 465.449 428.126 465.476 427.748 465.486Z" fill="#B3200E"/>
<rect x="180.966" y="195.006" width="57.3793" height="274.151" rx="12" fill="#FEE9D1"/>
<rect x="97.1035" y="260.228" width="57.3793" height="208.929" rx="12" fill="#FEE9D1"/>
<path fill-rule="evenodd" clip-rule="evenodd" d="M336.546 278.015C329.076 272.106 318.162 273.843 312.889 281.781L203.368 446.624C194.596 459.828 179.814 467.759 163.983 467.759H148.573L136.031 431.565C136.031 431.565 237.848 275.166 264.089 251.508C264.089 251.508 290.223 227.912 315.991 245.752C322.8 250.465 327.967 257.193 331.125 264.855L336.546 278.015Z" fill="#FA541C"/>
<path fill-rule="evenodd" clip-rule="evenodd" d="M16.9127 334.223C16.9127 334.223 35.2454 311.268 70.7709 307.696C70.7709 307.696 87.6435 313.456 121.258 373.799C154.873 434.141 177.185 461.656 203.368 446.626L201.2 450.231C194.056 462.114 181.222 469.38 167.376 469.38H152.895C136.951 469.38 121.985 461.702 112.674 448.735C86.512 412.3 32.9837 339.881 16.9127 334.223Z" fill="#FA541C"/>
<path d="M429.264 460.213C430.162 461.969 433.718 458.699 435.31 459.733C436.902 460.768 509.243 313.908 509.243 313.908L524.844 280.062C503.625 278.715 486.83 261.046 486.83 239.447C486.83 216.97 505.016 198.75 527.452 198.75C549.55 198.75 567.529 216.425 568.065 238.433C571.259 236.165 573.446 232.517 573.696 228.271L581.603 94.0011C581.9 88.9343 577.818 85.5673 573.604 85.5673C571.426 85.5673 569.213 86.4662 567.552 88.4934L455.098 225.801C452.569 228.888 454.763 233.531 458.749 233.531H480.366L473.225 247.237C479.906 251.349 484.363 258.739 484.363 267.171C484.363 280.082 473.916 290.549 461.025 290.549C457.7 290.549 454.539 289.852 451.674 288.596L396.138 395.188L429.264 460.213Z" fill="#FA541C"/>
<path fill-rule="evenodd" clip-rule="evenodd" d="M71.0139 463.73C71.0139 463.73 70.587 466.103 70.4182 468.923C70.3465 470.126 71.2353 471.171 72.4313 471.286C76.5958 471.691 86.0751 472.436 92.1281 471.563C92.9757 471.441 93.3125 470.396 92.6859 469.813C90.19 467.483 84.1628 462.952 74.242 461.961L71.0139 463.73Z" fill="#063963"/>
<path fill-rule="evenodd" clip-rule="evenodd" d="M68.9451 458.375L71.0505 463.546C71.339 464.254 72.0567 464.692 72.8162 464.613C73.332 464.561 73.9425 464.462 74.5362 464.28C75.7246 463.918 76.3946 462.656 76.039 461.466L74.45 456.141L68.9451 458.375Z" fill="#FDBAB9"/>
<path fill-rule="evenodd" clip-rule="evenodd" d="M32.9477 467.846C32.9477 467.846 37.1639 471.382 38.8069 475.913C39.2585 477.162 38.3036 478.473 36.9797 478.473H28.3029C27.033 478.473 26.0597 477.33 26.2807 476.077C26.8336 472.947 28.4273 467.859 32.9477 467.846Z" fill="#063963"/>
<path fill-rule="evenodd" clip-rule="evenodd" d="M27.7217 463.246C27.7217 463.246 28.5733 467.022 29.2282 469.52C29.347 469.972 29.8295 470.222 30.2696 470.064C31.5827 469.593 32.651 469.385 33.428 469.491C33.7868 469.537 34.1006 469.237 34.1052 468.874L34.1868 462.604L27.7217 463.246Z" fill="#FDBAB9"/>
<path fill-rule="evenodd" clip-rule="evenodd" d="M50.1483 378.273L75.7938 456.653C75.7938 456.653 70.875 459.879 68.5314 459.744L38.0705 396.756C38.0705 396.756 32.7399 435.567 35.3229 463.431L26.5978 464.1C26.5978 464.1 12.4112 392.89 23.1566 368.502L50.1483 378.273Z" fill="#212B36"/>
<path fill-rule="evenodd" clip-rule="evenodd" d="M54.9556 309.302C54.9556 309.302 34.1779 311.15 37.1172 325.979C37.1172 325.979 25.6318 347.635 20.2617 373.14C20.0874 373.971 20.6423 374.781 21.4767 374.923L56.0789 380.861C57.0331 381.022 57.9538 380.426 58.1965 379.487L66.4638 347.477L69.6856 362.361L79.9222 359.689L71.3046 315.955C71.3046 315.955 70.1024 309.575 54.9556 309.302Z" fill="#116E95"/>
<path fill-rule="evenodd" clip-rule="evenodd" d="M64.5526 385.528C63.4626 384.928 62.1867 384.76 60.9795 385.063L58.5721 385.663C58.0603 385.791 57.5534 385.439 57.4945 384.911L55.0032 362.698C51.8879 364.178 47.3938 364.003 45.912 363.894L51.6459 390.082H71.7114L64.5526 385.528Z" fill="#FDBAB9"/>
<path fill-rule="evenodd" clip-rule="evenodd" d="M117.865 337.341L117.259 335.321C116.91 334.161 116.052 333.219 114.928 332.767L103.959 328.348C103.959 328.348 103.794 326.938 106.277 325.979C108.76 325.024 108.18 322.236 108.18 322.236C108.18 322.236 104.787 323.788 99.8205 326.246C96.9799 327.653 95.3863 330.134 94.5413 332.003L69.6855 362.359L72.6038 364.369C76.4411 367.011 81.719 365.713 83.8998 361.591L97.3648 335.723C104.125 337.76 110.966 338.148 117.865 337.341Z" fill="#FDBAB9"/>
<path fill-rule="evenodd" clip-rule="evenodd" d="M61.6864 295.14L55.2957 313.059C55.2957 313.059 60.9548 317.491 65.0845 315.992L68.3047 305.721C68.3047 305.721 65.845 293.167 61.6864 295.14Z" fill="#FDBAB9"/>
<path fill-rule="evenodd" clip-rule="evenodd" d="M80.7608 288.705C80.7608 288.981 74.6046 306.162 74.6046 306.162L64.8864 302.435L68.3059 285.28C68.3059 285.28 80.7608 284.083 80.7608 288.705Z" fill="#FDBAB9"/>
<path fill-rule="evenodd" clip-rule="evenodd" d="M70.0111 289.461L67.5049 298.349C67.4727 298.463 67.4566 298.578 67.4563 298.697C67.4553 299.422 67.6345 301.916 70.1709 301.577C72.4724 301.27 74.5772 301.023 75.916 301.653C76.5169 301.936 76.8044 302.631 76.5797 303.257C76.0202 304.819 74.694 308.312 73.0793 311.172C72.7517 311.752 72.0333 311.976 71.4274 311.703C69.6022 310.869 65.8018 309.007 63.0947 306.79C62.7279 306.49 62.5513 306.019 62.6388 305.551C63.0647 303.277 64.3334 296.363 64.3893 294.381C64.442 292.521 62.3585 291.1 61.4408 290.566C61.1402 290.391 60.9264 290.103 60.8448 289.764C60.557 288.567 60.3126 285.858 63.7631 285.26C64.4851 285.135 64.9558 284.443 64.8091 283.723C64.5173 282.291 64.6107 280.184 67.325 279.408C70.0841 278.619 71.8202 280.283 72.703 281.559C73.0602 282.074 73.7283 282.242 74.3003 281.986C74.6259 281.84 75.0193 281.833 75.442 282.191C76.012 282.672 76.8794 282.525 77.2978 281.908C78.1023 280.721 79.5641 279.537 82.0383 280.339C86.4291 281.762 86.219 286.834 84.6095 289.591C83.0001 292.348 78.3273 290.534 76.1156 288.707C74.4335 287.318 71.8728 288.149 70.7419 288.627C70.3834 288.778 70.1166 289.086 70.0111 289.461Z" fill="#063963"/>
<path fill-rule="evenodd" clip-rule="evenodd" d="M63.5079 297.624C63.5079 297.624 66.1064 292.699 64.3881 291.153C62.6698 289.606 59.7588 289.859 59.8371 293.71C59.9344 298.5 63.5079 297.624 63.5079 297.624Z" fill="#FDBAB9"/>
<path fill-rule="evenodd" clip-rule="evenodd" d="M57.717 481.501C57.5206 481.501 57.321 481.458 57.1289 481.366C56.373 481.01 56.024 480.055 56.349 479.227L87.5974 399.796C87.9224 398.969 88.7983 398.59 89.5548 398.942C90.3107 399.298 90.6597 400.257 90.3347 401.084L59.0866 480.516C58.8439 481.132 58.2943 481.501 57.717 481.501Z" fill="#22B8CF"/>
<path fill-rule="evenodd" clip-rule="evenodd" d="M92.921 481.501C92.3434 481.501 91.7938 481.132 91.5513 480.516L60.3029 401.084C59.9779 400.257 60.3269 399.298 61.0831 398.942C61.8383 398.586 62.7149 398.969 63.0406 399.796L94.2887 479.227C94.614 480.054 94.2647 481.01 93.5088 481.366C93.317 481.458 93.1174 481.501 92.921 481.501Z" fill="#22B8CF"/>
<path fill-rule="evenodd" clip-rule="evenodd" d="M190.727 481.501C190.531 481.501 190.331 481.458 190.139 481.366C189.383 481.01 189.034 480.055 189.359 479.227L220.606 399.796C220.932 398.969 221.807 398.59 222.563 398.942C223.32 399.298 223.669 400.257 223.346 401.084L192.097 480.516C191.854 481.132 191.304 481.501 190.727 481.501Z" fill="#22B8CF"/>
<path fill-rule="evenodd" clip-rule="evenodd" d="M225.93 481.501C225.354 481.501 224.805 481.132 224.561 480.516L193.313 401.084C192.988 400.257 193.337 399.298 194.093 398.942C194.848 398.586 195.725 398.969 196.05 399.796L227.298 479.227C227.624 480.054 227.275 481.01 226.519 481.366C226.328 481.458 226.127 481.501 225.93 481.501Z" fill="#22B8CF"/>
<path fill-rule="evenodd" clip-rule="evenodd" d="M169.772 468.001H173.466V427.974H169.772V468.001Z" fill="#22B8CF"/>
<path fill-rule="evenodd" clip-rule="evenodd" d="M187.8 468.773H155.44V468.599C155.44 467.363 156.439 466.365 157.672 466.365H185.395C186.723 466.365 187.8 467.442 187.8 468.773Z" fill="#22B8CF"/>
<path fill-rule="evenodd" clip-rule="evenodd" d="M192.6 426.587C192.6 428.775 190.812 430.568 188.627 430.568H155.888C153.703 430.568 151.915 428.775 151.915 426.587V422.989C151.915 420.798 153.703 419.008 155.888 419.008H188.627C190.812 419.008 192.6 420.798 192.6 422.989V426.587Z" fill="#77F0ED"/>
<path fill-rule="evenodd" clip-rule="evenodd" d="M155.889 419.009C155.819 418.887 141.59 417.295 141.59 417.295C141.59 417.295 142.056 421.628 140.601 427.593C139.145 433.56 118.255 459.408 118.255 459.408L120.445 466.367C113.672 468.73 107.01 469.106 100.455 467.57L114.03 459.408C114.03 459.408 126.735 416.036 134.517 408.299L148.779 403.356L155.889 419.009Z" fill="#FDBAB9"/>
<path fill-rule="evenodd" clip-rule="evenodd" d="M142.413 404.448C142.413 404.448 137.19 405.258 131.317 409.192C130.392 409.809 129.884 410.89 130.023 411.997C130.727 417.574 133.62 435.634 143.156 453.274C143.657 454.204 143.803 455.287 143.58 456.321L141.924 464.044L138.85 466.929H146.765L152.034 452.649L149.781 451.935C148.033 451.38 146.835 449.771 146.804 447.935L146.538 432.618C146.765 425.79 142.359 421.081 142.359 421.081L155 420.467L142.413 404.448Z" fill="#FDBAB9"/>
<path fill-rule="evenodd" clip-rule="evenodd" d="M135.76 468.326C135.04 469.271 143.517 470.517 147.8 468.454C147.8 468.454 153.74 458.104 153.74 452.777C153.74 452.777 153.266 451.693 149.78 451.94C149.78 451.94 147.785 464.187 145.682 465.561C143.575 466.934 139.793 465.699 139.793 465.699C139.793 465.699 136.823 466.934 135.76 468.326Z" fill="#063963"/>
<path fill-rule="evenodd" clip-rule="evenodd" d="M187.801 393.77C187.801 393.77 195.998 405.986 196.671 411.558C197.344 417.13 194.425 419.394 185.824 419.766C177.222 420.139 154.259 420.135 154.259 420.135L134.661 403.356C134.661 403.356 148.944 398.248 152.657 396.805C156.37 395.362 187.801 393.77 187.801 393.77Z" fill="#212B36"/>
<path fill-rule="evenodd" clip-rule="evenodd" d="M119.618 464.02C119.618 464.02 121.976 466.31 120.383 468.857C120.383 468.857 101.701 472.172 96.6293 470.667C96.6293 470.667 97.6825 468.261 103.394 465.519L102.973 465.842C102.439 466.254 102.752 467.108 103.423 467.068C107.187 466.854 114.976 466.162 119.618 464.02Z" fill="#063963"/>
<path fill-rule="evenodd" clip-rule="evenodd" d="M171.234 325.147C172.473 325.535 176.938 327.14 176.361 330.017C176.285 330.399 176.644 330.722 177.019 330.62C178.943 330.103 183.193 329.447 185.828 332.755C188.154 335.675 186.415 338.43 184.998 339.942C184.656 340.308 184.944 340.901 185.44 340.838C188.977 340.39 196.663 340.285 197.92 347.498C199.093 354.224 194.42 356.118 191.648 356.656C191.179 356.745 191.069 357.364 191.473 357.618C192.855 358.498 194.457 360.313 193.81 363.898C192.795 369.513 181.803 369.055 180.518 368.98C180.437 368.976 180.36 368.953 180.289 368.91L162.683 358.853C162.545 358.774 162.45 358.639 162.423 358.481L158.869 337.916C158.84 337.751 158.892 337.58 159.009 337.458L170.698 325.288C170.837 325.143 171.043 325.087 171.234 325.147Z" fill="#063963"/>
<path fill-rule="evenodd" clip-rule="evenodd" d="M165.905 391.837C165.905 391.837 156.359 382.732 151.66 376.698C149.119 373.439 148.322 369.146 149.497 365.181C151.642 357.939 155.454 350.442 155.802 349.272C156.335 347.483 167.039 347.559 167.039 347.559C167.039 347.559 188.102 361.254 196.378 384.452L187.084 387.352C187.084 387.352 181.584 378.109 176.15 372.23C176.15 372.23 185.553 384.673 185.884 389.767L165.905 391.837Z" fill="#22B8CF"/>
<path fill-rule="evenodd" clip-rule="evenodd" d="M154.233 339.589C154.344 339.961 157.138 349.24 157.356 349.432C157.575 349.623 163.483 349.942 166.264 348.038L161.546 338.142L154.233 339.589Z" fill="#FDBAB9"/>
<path fill-rule="evenodd" clip-rule="evenodd" d="M158.823 320.102C158.823 320.102 153.78 322.234 150.35 329.536C146.921 336.838 149.482 340.209 152.699 340.67C155.915 341.135 160.726 341.063 165.815 336.347C170.903 331.632 165.38 317.571 158.823 320.102Z" fill="#FDBAB9"/>
<path fill-rule="evenodd" clip-rule="evenodd" d="M162.393 332.448C162.393 332.448 166.198 321.765 156.745 321.64L154.52 323.198C154.52 323.198 151.052 317.273 156.745 314.446C162.438 311.619 169.101 313.955 171.524 321.64C173.946 329.324 174.36 334.468 170.329 338.142C166.299 341.82 164.638 337.651 164.638 337.651C164.638 337.651 166.833 334.214 165.939 332.372C165.046 330.533 162.985 332.754 162.985 332.754L162.393 332.448Z" fill="#063963"/>
<path fill-rule="evenodd" clip-rule="evenodd" d="M163.454 333.638C163.454 333.638 165.378 328.135 167.944 330.326C170.511 332.518 165.858 335.411 164.037 336.347L163.454 333.638Z" fill="#FDBAB9"/>
<path fill-rule="evenodd" clip-rule="evenodd" d="M146.181 392.828L153.195 386.056L162.898 390.162C162.898 390.162 172.556 391.661 178.084 390.162C183.611 388.663 183.611 388.663 183.611 388.663L196.103 384.768L198.064 390.323C198.562 391.734 198.062 393.299 196.845 394.166C195.764 394.933 194.497 395.78 193.69 396.133C192.045 396.855 153.139 395.635 153.139 395.635L146.181 392.828Z" fill="#FDBAB9"/>
<path fill-rule="evenodd" clip-rule="evenodd" d="M172.724 396.02C172.693 396.023 172.661 396.023 172.63 396.023L131.944 395.977C130.938 395.977 130.123 395.16 130.125 394.152C130.125 393.143 130.945 392.313 131.948 392.329L172.634 392.375C173.64 392.375 174.454 393.193 174.453 394.201C174.452 395.176 173.686 395.974 172.724 396.02Z" fill="#770508"/>
<path fill-rule="evenodd" clip-rule="evenodd" d="M95.3677 359.012H129.251C131.751 359.012 134.026 360.456 135.093 362.723L150.757 395.998H108.648C107.038 395.998 105.59 395.009 104.998 393.51L92.8511 362.719C92.1495 360.94 93.4583 359.012 95.3677 359.012Z" fill="#770508"/>
<path fill-rule="evenodd" clip-rule="evenodd" d="M119.242 376.075C119.976 378.362 119.433 380.58 118.03 381.035C116.627 381.486 114.894 380 114.159 377.716C113.425 375.429 113.968 373.209 115.371 372.757C116.774 372.306 118.508 373.792 119.242 376.075Z" fill="#FDAB76"/>
<path fill-rule="evenodd" clip-rule="evenodd" d="M91.1226 394.719H51.0804V390.58H91.1226C90.2655 390.58 90.2655 394.719 91.1226 394.719Z" fill="#FDAB76"/>
<path fill-rule="evenodd" clip-rule="evenodd" d="M51.4076 394.718C51.2267 394.718 51.0787 394.57 51.0787 394.389V390.909C51.0787 390.728 51.2267 390.58 51.4076 390.58H92.0131C92.194 390.58 92.342 390.431 92.342 390.25V389.973C92.342 389.792 92.194 389.644 92.0131 389.644H48.7861C47.8309 389.644 47.0566 390.418 47.0566 391.377V394.023C47.0566 394.923 47.7865 395.654 48.6871 395.654H92.0131C92.194 395.654 92.342 395.506 92.342 395.325V395.048C92.342 394.867 92.194 394.718 92.0131 394.718H51.4076Z" fill="#770508"/>
<path fill-rule="evenodd" clip-rule="evenodd" d="M229.587 397.51C229.692 397.049 229.551 396.571 229.206 396.208C228.863 395.846 228.35 395.635 227.808 395.635H44.5572C43.8457 395.635 43.1833 395.948 42.8001 396.472C42.4169 396.993 42.3655 397.648 42.6639 398.208L44.6499 401.949C45.1045 402.805 46.0897 403.352 47.1738 403.352H226.551C227.561 403.352 228.426 402.733 228.62 401.869L229.587 397.51Z" fill="#77F0ED"/>
<path fill-rule="evenodd" clip-rule="evenodd" d="M277.191 177.024C277.191 181.566 273.517 185.247 268.984 185.247C264.452 185.247 260.774 181.566 260.774 177.024C260.774 172.484 264.452 168.802 268.984 168.802C273.517 168.802 277.191 172.484 277.191 177.024Z" fill="#22B8CF"/>
<path fill-rule="evenodd" clip-rule="evenodd" d="M122.575 189.764L121.489 187.775L197.799 146.004L268.739 177.244L329.65 117.386L329.771 117.316L401.293 75.0299L402.441 76.983L331.038 119.198L269.229 179.936L197.907 148.529L122.575 189.764Z" fill="#22B8CF"/>
<path fill-rule="evenodd" clip-rule="evenodd" d="M130.242 188.77C130.242 193.311 126.567 196.993 122.034 196.993C117.501 196.993 113.827 193.311 113.827 188.77C113.827 184.229 117.501 180.548 122.034 180.548C126.567 180.548 130.242 184.229 130.242 188.77Z" fill="#22B8CF"/>
<path fill-rule="evenodd" clip-rule="evenodd" d="M206.062 147.265C206.062 151.806 202.387 155.487 197.854 155.487C193.321 155.487 189.647 151.806 189.647 147.265C189.647 142.724 193.321 139.043 197.854 139.043C202.387 139.043 206.062 142.724 206.062 147.265Z" fill="#22B8CF"/>
<path fill-rule="evenodd" clip-rule="evenodd" d="M336.599 118.294C336.599 122.835 332.922 126.516 328.389 126.516C323.857 126.516 320.183 122.835 320.183 118.294C320.183 113.753 323.857 110.072 328.389 110.072C332.922 110.072 336.599 113.753 336.599 118.294Z" fill="#22B8CF"/>
<path fill-rule="evenodd" clip-rule="evenodd" d="M410.076 76.0066C410.076 80.5477 406.402 84.2288 401.866 84.2288C397.333 84.2288 393.659 80.5477 393.659 76.0066C393.659 71.4654 397.333 67.7843 401.866 67.7843C406.402 67.7843 410.076 71.4654 410.076 76.0066Z" fill="#22B8CF"/>
<path fill-rule="evenodd" clip-rule="evenodd" d="M331.455 427.8C330.376 429.398 326.09 465.593 325.419 478.962C325.377 479.868 326.097 480.619 327.002 480.619C327.781 480.619 328.442 480.052 328.564 479.281L336.402 428.95L331.455 427.8Z" fill="#22B8CF"/>
<path fill-rule="evenodd" clip-rule="evenodd" d="M365.917 427.8C366.996 429.398 371.282 465.593 371.953 478.962C371.999 479.868 371.275 480.619 370.374 480.619C369.594 480.619 368.93 480.052 368.811 479.281L360.97 428.95L365.917 427.8Z" fill="#22B8CF"/>
<path fill-rule="evenodd" clip-rule="evenodd" d="M324.973 424.97L324.97 425.366C324.944 428.206 327.385 430.536 330.444 430.586L366.681 431.205C369.694 431.254 372.207 429.073 372.352 426.279L372.372 425.916C372.523 423 370.053 420.545 366.912 420.489L330.657 419.836C327.556 419.78 325 422.09 324.973 424.97Z" fill="#77F0ED"/>
<path fill-rule="evenodd" clip-rule="evenodd" d="M395.469 477.644C389.029 477.644 386.177 477.091 384.904 476.587C385.151 477.648 386.095 478.485 387.285 478.485H410.073C410.84 478.485 411.327 477.746 411.142 477.081C408.544 477.292 403.028 477.644 395.469 477.644Z" fill="#063963"/>
<path fill-rule="evenodd" clip-rule="evenodd" d="M411.141 477.081C411.105 476.946 411.049 476.814 410.954 476.692C409.217 474.471 405.73 470.984 400.987 471.054C394.037 471.149 391.616 471.904 386.215 471.093L384.942 475.324C384.81 475.756 384.81 476.188 384.902 476.586C386.175 477.091 389.027 477.644 395.468 477.644C403.026 477.644 408.543 477.292 411.141 477.081Z" fill="#063963"/>
<path fill-rule="evenodd" clip-rule="evenodd" d="M387.777 466.537L386.215 471.866C386.215 471.866 389.678 473.444 392.727 472.175L393.326 467.562L387.777 466.537Z" fill="#FDBAB9"/>
<path fill-rule="evenodd" clip-rule="evenodd" d="M435.012 474.291C429.989 478.334 427.424 479.692 426.118 480.1C426.97 480.766 428.223 480.825 429.154 480.077L446.916 465.779C447.515 465.295 447.436 464.421 446.876 464.019C444.982 465.812 440.903 469.549 435.012 474.291Z" fill="#063963"/>
<path fill-rule="evenodd" clip-rule="evenodd" d="M446.878 464.021C446.766 463.938 446.641 463.873 446.493 463.836C443.756 463.204 438.868 462.686 435.214 465.715C429.856 470.15 428.438 472.256 423.725 475.017L425.363 479.096C425.53 479.515 425.797 479.851 426.119 480.101C427.425 479.693 429.991 478.335 435.013 474.292C440.904 469.55 444.983 465.813 446.878 464.021Z" fill="#063963"/>
<path fill-rule="evenodd" clip-rule="evenodd" d="M354.328 405.835C354.328 405.835 392.895 408.992 400.805 412.722C408.716 416.452 394.349 468.747 394.349 468.747C394.349 468.747 392.194 469.785 387.402 468.293C387.402 468.293 392.316 429.702 388.658 421.332L346.901 414.491L354.328 405.835Z" fill="#212B36"/>
<path fill-rule="evenodd" clip-rule="evenodd" d="M419.891 467.671C420.25 467.997 423.723 475.016 423.723 475.016C423.723 475.016 427.591 474.179 428.378 471.724L424.898 465.391L419.891 467.671Z" fill="#FDBAB9"/>
<path fill-rule="evenodd" clip-rule="evenodd" d="M331.1 405.512C331.1 405.512 329.843 408.544 329.893 412.567C329.965 418.136 334.432 422.654 339.984 422.931L385.577 425.013C386.537 425.06 387.353 425.725 387.593 426.661C388.665 430.813 393.902 443.562 419.502 469.002C420.183 469.677 421.242 469.792 422.055 469.278L425.699 466.975C426.081 466.731 426.202 466.23 425.976 465.838L399.428 420.427C398.033 418.12 395.793 416.456 393.185 415.787L354.329 405.835L331.1 405.512Z" fill="#212B36"/>
<path fill-rule="evenodd" clip-rule="evenodd" d="M383.994 335.588C383.994 335.588 371.149 343.22 366.169 347.412L376.461 353.165C376.461 353.165 382.023 346.73 387.322 344.047L383.994 335.588Z" fill="#FDBAB9"/>
<path fill-rule="evenodd" clip-rule="evenodd" d="M330.273 405.833C330.273 405.833 342.581 408.839 354.33 405.833C354.33 405.833 370.767 383.696 377.128 377.669C377.128 377.669 387.272 393.707 409.853 395.981L411.113 393.16C411.113 393.16 393.137 384.859 387.601 372.103C382.069 359.348 379.845 353.907 374.809 350.579C371.675 348.506 369.796 347.089 368.826 346.318C368.297 345.893 367.563 345.847 366.984 346.2C361.639 349.462 336.499 366.712 330.273 405.833Z" fill="#116E95"/>
<g opacity="0.12">
<path fill-rule="evenodd" clip-rule="evenodd" d="M38.2324 396.074H38.2012C38.065 396.054 37.9683 395.929 37.9857 395.794L38.981 387.882C38.9978 387.743 39.1208 387.648 39.2583 387.664C39.3945 387.681 39.4909 387.806 39.4738 387.944L38.4784 395.856C38.4627 395.981 38.3558 396.074 38.2324 396.074Z" fill="black"/>
<path fill-rule="evenodd" clip-rule="evenodd" d="M66.6393 346.046L66.5841 346.039C66.4453 346.01 66.3571 345.871 66.387 345.733L69.2714 332.463C69.302 332.325 69.4372 332.236 69.5783 332.265C69.7168 332.298 69.8052 332.434 69.775 332.575L66.8906 345.842C66.8643 345.964 66.7577 346.046 66.6393 346.046Z" fill="black"/>
<path fill-rule="evenodd" clip-rule="evenodd" d="M47.9257 364.227C46.5077 364.227 45.4953 364.119 45.3861 364.106L45.2015 364.086L37.6359 328.748C37.606 328.609 37.6944 328.471 37.8336 328.441C37.974 328.412 38.1095 328.501 38.1395 328.639L45.6268 363.611C46.7528 363.71 52.7652 364.109 55.9394 361.858L49.3855 331.157L50.7535 328.573C50.8199 328.448 50.9759 328.398 51.1018 328.464C51.2275 328.533 51.2755 328.688 51.2087 328.814L49.9282 331.232L56.5124 362.076L56.3808 362.175C54.0875 363.901 50.393 364.227 47.9257 364.227Z" fill="black"/>
<path fill-rule="evenodd" clip-rule="evenodd" d="M376.458 376.836C376.514 376.836 376.573 376.817 376.619 376.78C376.738 376.691 376.761 376.523 376.669 376.405C372.843 371.406 370.646 365.725 370.627 365.669C370.571 365.53 370.416 365.461 370.278 365.514C370.14 365.567 370.071 365.722 370.127 365.86C370.146 365.919 372.373 371.669 376.244 376.731C376.297 376.8 376.376 376.836 376.458 376.836Z" fill="black"/>
</g>
<path fill-rule="evenodd" clip-rule="evenodd" d="M408.492 391.685L411.035 391.007L418.752 389.217C419.679 389.003 420.656 389.168 421.462 389.675L428.1 393.857L409.775 393.827L408.492 391.685Z" fill="#FDBAB9"/>
<path fill-rule="evenodd" clip-rule="evenodd" d="M401.416 397.461C401.445 397.461 401.475 397.464 401.505 397.464L440.65 397.425C441.617 397.425 442.403 396.637 442.4 395.671C442.4 394.703 441.611 393.902 440.647 393.918L401.501 393.958C400.534 393.958 399.751 394.745 399.751 395.711C399.751 396.65 400.488 397.415 401.416 397.461Z" fill="#FEE9D1"/>
<path fill-rule="evenodd" clip-rule="evenodd" d="M455.938 360.591L455.901 360.668L440.428 393.871C440.048 394.692 440.403 395.664 441.228 396.045C442.05 396.424 443.042 396.073 443.409 395.246L458.882 362.043C459.262 361.222 458.907 360.25 458.082 359.868C457.285 359.502 456.342 359.825 455.938 360.591Z" fill="#FEE9D1"/>
<path fill-rule="evenodd" clip-rule="evenodd" d="M427.787 399.426C427.959 400.137 444.293 461.508 448.434 477.064C448.911 478.857 447.579 480.617 445.747 480.617C444.471 480.617 443.356 479.737 443.046 478.481L424.916 404.833L427.787 399.426Z" fill="#22B8CF"/>
<path fill-rule="evenodd" clip-rule="evenodd" d="M418.845 399.425C418.674 400.137 402.339 461.507 398.198 477.064C397.721 478.857 399.053 480.616 400.885 480.616C402.165 480.616 403.277 479.736 403.586 478.481L421.716 404.833L418.845 399.425Z" fill="#22B8CF"/>
<path d="M418.297 397.418H428.471V404.908C428.471 406.467 427.224 407.732 425.685 407.732H420.399C419.238 407.732 418.297 406.78 418.297 405.604V397.418Z" fill="#22B8CF"/>
<path fill-rule="evenodd" clip-rule="evenodd" d="M393.286 395.456H450.089C450.881 395.456 451.575 396 451.773 396.781L452.565 399.895C452.852 401.015 452.013 402.106 450.871 402.1L392.585 401.76C391.457 401.754 390.632 400.676 390.908 399.566L391.599 396.791C391.793 396.007 392.49 395.456 393.286 395.456Z" fill="#77F0ED"/>
<path fill-rule="evenodd" clip-rule="evenodd" d="M392.783 332.579C392.783 332.579 392.901 341.713 391.428 345.862C389.954 350.008 389.724 353.006 384.704 351.853C379.685 350.703 376.721 346.712 376.277 341.776C376.277 341.776 375.54 334.148 377.359 331.913C379.175 329.682 392.783 332.579 392.783 332.579Z" fill="#FDBAB9"/>
<path fill-rule="evenodd" clip-rule="evenodd" d="M379.089 339.547L379.681 339.794C379.681 339.794 379.343 333.764 381.852 333.784C384.362 333.803 393.569 335.639 396.664 333.395C399.644 331.23 399.644 326.814 397.733 324.774C397.611 324.643 397.404 324.639 397.269 324.751L396.917 325.041C396.68 325.236 396.322 325.041 396.358 324.735C396.391 324.442 396.065 324.237 395.825 324.405C394.888 325.071 392.756 325.901 388.372 324.943C382.155 323.582 377.356 324.316 375.59 328.274C375.474 328.524 375.149 328.551 374.988 328.327C374.669 327.888 374.04 327.48 372.807 327.865C370.662 328.531 369.86 332.268 372.139 336.578C372.248 336.782 372.139 337.043 371.909 337.082C371.11 337.23 369.761 337.81 371.646 340.137C373.577 342.516 375.109 342.991 375.728 343.083C375.892 343.106 376.05 343.014 376.106 342.855L377.372 339.221C377.435 339.033 377.645 338.941 377.83 339.017L379.089 339.547Z" fill="#063963"/>
<path fill-rule="evenodd" clip-rule="evenodd" d="M378.926 340.348C378.926 340.348 379.713 334.878 376.926 335.333C374.14 335.788 375.755 341.34 377.453 342.273L378.926 340.348Z" fill="#FDBAB9"/>
<path fill-rule="evenodd" clip-rule="evenodd" d="M460.869 291.476C457.467 291.476 454.234 290.763 451.303 289.478C442.882 285.784 437 277.361 437 267.561C437 254.354 447.686 243.647 460.869 243.647C465.445 243.647 469.718 244.936 473.349 247.17C480.183 251.377 484.742 258.936 484.742 267.561C484.742 280.769 474.055 291.476 460.869 291.476ZM460.869 244.442C448.124 244.442 437.794 254.793 437.794 267.561C437.794 280.33 448.124 290.68 460.869 290.68C473.615 290.68 483.948 280.33 483.948 267.561C483.948 254.793 473.615 244.442 460.869 244.442Z" fill="#B7860D"/>
<path fill-rule="evenodd" clip-rule="evenodd" d="M460.87 290.68C448.125 290.68 437.795 280.33 437.795 267.561C437.795 254.793 448.125 244.442 460.87 244.442C473.616 244.442 483.949 254.793 483.949 267.561C483.949 280.33 473.616 290.68 460.87 290.68ZM461.375 248.498C450.588 248.498 441.843 257.258 441.843 268.065C441.843 278.872 450.588 287.632 461.375 287.632C472.162 287.632 480.907 278.872 480.907 268.065C480.907 257.258 472.162 248.498 461.375 248.498ZM460.87 245.447C452.489 245.447 444.932 250.107 441.153 257.61C440.961 257.99 441.113 258.455 441.493 258.648C441.607 258.704 441.725 258.731 441.843 258.731C442.122 258.731 442.395 258.576 442.529 258.306C446.049 251.328 453.074 246.993 460.87 246.993C462.115 246.993 463.364 247.106 464.575 247.326C464.625 247.335 464.672 247.34 464.719 247.34C465.086 247.34 465.406 247.076 465.473 246.704C465.551 246.284 465.271 245.882 464.854 245.806C463.549 245.568 462.209 245.447 460.87 245.447Z" fill="#FFC81A"/>
<path fill-rule="evenodd" clip-rule="evenodd" d="M441.837 258.733C441.719 258.733 441.601 258.706 441.487 258.65C441.106 258.457 440.955 257.992 441.147 257.612C444.925 250.109 452.482 245.449 460.864 245.449C462.203 245.449 463.542 245.57 464.848 245.808C465.265 245.884 465.544 246.286 465.467 246.706C465.4 247.079 465.08 247.342 464.713 247.342C464.666 247.342 464.619 247.337 464.569 247.328C463.357 247.108 462.109 246.996 460.864 246.996C453.068 246.996 446.042 251.33 442.523 258.308C442.388 258.578 442.116 258.733 441.837 258.733Z" fill="#FFE475"/>
<path fill-rule="evenodd" clip-rule="evenodd" d="M461.375 287.637C450.588 287.637 441.843 278.876 441.843 268.069C441.843 257.262 450.588 248.502 461.375 248.502C472.162 248.502 480.907 257.262 480.907 268.069C480.907 278.876 472.162 287.637 461.375 287.637Z" fill="#FFE475"/>
<path fill-rule="evenodd" clip-rule="evenodd" d="M459.453 282.611V280.483C457.239 280.394 455.049 279.87 453.491 279.187C452.936 278.944 452.653 278.319 452.811 277.733L453.353 275.75C453.548 275.022 454.339 274.646 455.032 274.938C456.576 275.586 458.484 276.099 460.54 276.099C462.673 276.099 464.265 275.374 464.265 273.889C464.265 272.548 463.033 271.751 460.069 270.954C455.836 269.795 452.801 267.947 452.801 264.215C452.801 260.846 455.257 258.274 459.527 257.585V255.456C459.527 254.771 460.079 254.216 460.765 254.216H462.014C462.697 254.216 463.252 254.771 463.252 255.456V257.368C465.301 257.45 466.792 257.801 467.976 258.218C468.585 258.432 468.915 259.086 468.746 259.708L468.252 261.542C468.06 262.249 467.303 262.637 466.62 262.377C465.53 261.965 463.989 261.534 461.987 261.534C459.453 261.534 458.73 262.585 458.73 263.527C458.73 264.686 460.251 265.483 463.541 266.498C468.242 267.911 470.193 269.867 470.193 273.382C470.193 276.606 467.808 279.504 463.178 280.229V282.611C463.178 283.297 462.626 283.852 461.94 283.852H460.691C460.008 283.852 459.453 283.297 459.453 282.611Z" fill="#B7860D"/>
<path fill-rule="evenodd" clip-rule="evenodd" d="M527.243 281.23C526.336 281.23 525.435 281.202 524.538 281.145C502.53 279.747 485.111 261.422 485.111 239.02C485.111 215.708 503.973 196.81 527.243 196.81C550.162 196.81 568.81 215.142 569.366 237.968C569.373 238.317 569.38 238.668 569.38 239.02C569.38 246.469 567.452 253.468 564.071 259.543C559.421 267.902 552.015 274.513 543.087 278.146C538.194 280.135 532.849 281.23 527.243 281.23ZM527.243 198.213C504.748 198.213 486.509 216.483 486.509 239.02C486.509 261.557 504.748 279.826 527.243 279.826C549.739 279.826 567.977 261.557 567.977 239.02C567.977 216.483 549.739 198.213 527.243 198.213Z" fill="#B7860D"/>
<path fill-rule="evenodd" clip-rule="evenodd" d="M527.244 279.825C504.748 279.825 486.51 261.556 486.51 239.018C486.51 216.481 504.748 198.211 527.244 198.211C549.74 198.211 567.978 216.481 567.978 239.018C567.978 261.556 549.74 279.825 527.244 279.825ZM528.131 205.37C509.091 205.37 493.657 220.833 493.657 239.907C493.657 258.982 509.091 274.445 528.131 274.445C547.171 274.445 562.608 258.982 562.608 239.907C562.608 220.833 547.171 205.37 528.131 205.37ZM527.244 200.565C512.67 200.565 499.532 208.669 492.958 221.715C492.763 222.1 492.917 222.572 493.302 222.767C493.418 222.825 493.538 222.851 493.657 222.851C493.94 222.851 494.217 222.694 494.357 222.42C500.661 209.907 513.263 202.133 527.244 202.133C529.475 202.133 531.713 202.334 533.886 202.731C533.937 202.741 533.985 202.746 534.033 202.746C534.405 202.746 534.729 202.477 534.797 202.101C534.876 201.675 534.592 201.267 534.169 201.19C531.901 200.774 529.571 200.565 527.244 200.565Z" fill="#FFC81A"/>
<path fill-rule="evenodd" clip-rule="evenodd" d="M493.66 222.854C493.54 222.854 493.421 222.827 493.305 222.77C492.92 222.574 492.766 222.103 492.96 221.717C499.535 208.672 512.672 200.567 527.247 200.567C529.573 200.567 531.903 200.777 534.172 201.192C534.595 201.269 534.878 201.677 534.8 202.104C534.732 202.48 534.408 202.748 534.036 202.748C533.988 202.748 533.94 202.743 533.889 202.734C531.716 202.336 529.478 202.135 527.247 202.135C513.266 202.135 500.664 209.909 494.359 222.423C494.219 222.696 493.943 222.854 493.66 222.854Z" fill="#FFE475"/>
<path fill-rule="evenodd" clip-rule="evenodd" d="M528.132 274.449C509.092 274.449 493.658 258.986 493.658 239.911C493.658 220.836 509.092 205.373 528.132 205.373C547.172 205.373 562.609 220.836 562.609 239.911C562.609 258.986 547.172 274.449 528.132 274.449Z" fill="#FFE475"/>
<path fill-rule="evenodd" clip-rule="evenodd" d="M524.747 265.588V261.83C520.837 261.673 516.969 260.749 514.222 259.544C513.24 259.114 512.742 258.011 513.022 256.976L513.977 253.476C514.325 252.192 515.72 251.528 516.945 252.043C519.667 253.187 523.035 254.092 526.661 254.092C530.427 254.092 533.235 252.813 533.235 250.191C533.235 247.825 531.065 246.419 525.832 245.012C518.364 242.966 513.001 239.704 513.001 233.118C513.001 227.17 517.341 222.63 524.873 221.416V217.657C524.873 216.448 525.852 215.468 527.06 215.468H529.264C530.468 215.468 531.447 216.448 531.447 217.657V221.031C535.067 221.176 537.701 221.796 539.789 222.532C540.86 222.909 541.447 224.065 541.15 225.162L540.273 228.399C539.935 229.648 538.605 230.331 537.397 229.873C535.47 229.144 532.751 228.385 529.213 228.385C524.747 228.385 523.471 230.24 523.471 231.903C523.471 233.949 526.149 235.355 531.959 237.146C540.256 239.64 543.705 243.093 543.705 249.296C543.705 254.988 539.492 260.103 531.321 261.383V265.588C531.321 266.797 530.342 267.777 529.134 267.777H526.931C525.723 267.777 524.747 266.797 524.747 265.588Z" fill="#B7860D"/>
<path fill-rule="evenodd" clip-rule="evenodd" d="M555.26 371.799C551.188 371.799 547.254 371.216 543.534 370.128C526.894 365.268 514.542 350.314 513.526 332.329C513.48 331.531 513.457 330.731 513.457 329.923C513.457 328.483 513.529 327.06 513.671 325.656C515.411 308.448 527.551 294.314 543.699 289.668C545.314 289.203 546.968 288.834 548.655 288.565C550.807 288.223 553.01 288.045 555.26 288.045C564.661 288.045 573.338 291.155 580.325 296.404C590.485 304.044 597.06 316.215 597.06 329.923C597.06 353.049 578.344 371.799 555.26 371.799ZM555.26 289.438C532.939 289.438 514.848 307.562 514.848 329.923C514.848 352.281 532.939 370.408 555.26 370.408C577.578 370.408 595.672 352.281 595.672 329.923C595.672 307.562 577.578 289.438 555.26 289.438Z" fill="#B7860D"/>
<path fill-rule="evenodd" clip-rule="evenodd" d="M555.261 370.407C532.94 370.407 514.849 352.28 514.849 329.922C514.849 307.56 532.94 289.436 555.261 289.436C577.579 289.436 595.673 307.56 595.673 329.922C595.673 352.28 577.579 370.407 555.261 370.407ZM556.143 296.538C537.252 296.538 521.938 311.877 521.938 330.801C521.938 349.726 537.252 365.069 556.143 365.069C575.03 365.069 590.345 349.726 590.345 330.801C590.345 311.877 575.03 296.538 556.143 296.538ZM555.261 291.793C540.808 291.793 527.783 299.828 521.263 312.763C521.076 313.136 521.227 313.59 521.599 313.778C521.707 313.834 521.822 313.861 521.938 313.861C522.214 313.861 522.477 313.706 522.612 313.445C528.871 301.021 541.38 293.305 555.261 293.305C557.475 293.305 559.695 293.505 561.856 293.899C561.902 293.908 561.948 293.912 561.994 293.912C562.353 293.912 562.665 293.655 562.734 293.292C562.807 292.88 562.537 292.487 562.126 292.413C559.876 292.001 557.567 291.793 555.261 291.793Z" fill="#FFC81A"/>
<path fill-rule="evenodd" clip-rule="evenodd" d="M521.936 313.861C521.821 313.861 521.706 313.835 521.597 313.779C521.225 313.591 521.074 313.136 521.262 312.764C527.781 299.828 540.806 291.794 555.259 291.794C557.565 291.794 559.874 292.001 562.124 292.413C562.535 292.487 562.805 292.88 562.733 293.292C562.664 293.655 562.351 293.912 561.993 293.912C561.947 293.912 561.9 293.908 561.854 293.899C559.693 293.505 557.473 293.305 555.259 293.305C541.379 293.305 528.87 301.022 522.61 313.446C522.475 313.706 522.212 313.861 521.936 313.861Z" fill="#FFE475"/>
<path fill-rule="evenodd" clip-rule="evenodd" d="M556.145 365.066C537.255 365.066 521.94 349.723 521.94 330.799C521.94 311.874 537.255 296.535 556.145 296.535C575.032 296.535 590.347 311.874 590.347 330.799C590.347 349.723 575.032 365.066 556.145 365.066Z" fill="#FFE475"/>
<path fill-rule="evenodd" clip-rule="evenodd" d="M552.782 356.274V352.544C548.903 352.389 545.065 351.473 542.341 350.277C541.368 349.851 540.871 348.757 541.151 347.729L542.095 344.256C542.443 342.984 543.825 342.325 545.042 342.836C547.746 343.969 551.081 344.869 554.683 344.869C558.419 344.869 561.205 343.6 561.205 340.997C561.205 338.651 559.051 337.257 553.857 335.86C546.45 333.83 541.131 330.594 541.131 324.06C541.131 318.158 545.437 313.653 552.91 312.451V308.72C552.91 307.521 553.88 306.549 555.077 306.549H557.262C558.459 306.549 559.432 307.521 559.432 308.72V312.068C563.021 312.213 565.633 312.826 567.708 313.558C568.771 313.93 569.35 315.077 569.057 316.168L568.185 319.377C567.85 320.616 566.531 321.295 565.33 320.84C563.422 320.119 560.722 319.364 557.215 319.364C552.782 319.364 551.515 321.206 551.515 322.854C551.515 324.883 554.176 326.281 559.939 328.057C568.172 330.532 571.59 333.955 571.59 340.111C571.59 345.755 567.409 350.833 559.304 352.102V356.274C559.304 357.473 558.334 358.445 557.137 358.445H554.949C553.752 358.445 552.782 357.473 552.782 356.274Z" fill="#B7860D"/>
<path fill-rule="evenodd" clip-rule="evenodd" d="M608.889 303.561C598.446 303.561 589.226 298.326 583.697 290.332C580.269 285.377 578.263 279.362 578.263 272.878C578.263 265.488 580.868 258.708 585.213 253.412C586.614 251.703 588.197 250.15 589.93 248.779C595.143 244.656 601.732 242.195 608.889 242.195C610.827 242.195 612.725 242.376 614.563 242.721C628.766 245.386 639.516 257.875 639.516 272.878C639.516 289.824 625.806 303.561 608.889 303.561ZM608.889 243.215C592.535 243.215 579.279 256.496 579.279 272.878C579.279 289.26 592.535 302.541 608.889 302.541C625.244 302.541 638.499 289.26 638.499 272.878C638.499 256.496 625.244 243.215 608.889 243.215Z" fill="#B7860D"/>
<path fill-rule="evenodd" clip-rule="evenodd" d="M608.886 302.539C592.532 302.539 579.276 289.259 579.276 272.877C579.276 256.494 592.532 243.214 608.886 243.214C625.24 243.214 638.496 256.494 638.496 272.877C638.496 289.259 625.24 302.539 608.886 302.539ZM609.531 248.417C595.689 248.417 584.47 259.657 584.47 273.523C584.47 287.388 595.689 298.629 609.531 298.629C623.372 298.629 634.592 287.388 634.592 273.523C634.592 259.657 623.372 248.417 609.531 248.417ZM608.886 244.739C598.219 244.739 588.608 250.668 583.795 260.214C583.608 260.586 583.759 261.041 584.131 261.229C584.239 261.285 584.355 261.31 584.47 261.31C584.746 261.31 585.012 261.158 585.144 260.895C589.696 251.862 598.794 246.25 608.886 246.25C610.494 246.25 612.109 246.395 613.682 246.682C613.731 246.691 613.777 246.696 613.823 246.696C614.182 246.696 614.494 246.436 614.56 246.074C614.632 245.663 614.363 245.27 613.951 245.195C612.29 244.892 610.587 244.739 608.886 244.739Z" fill="#FFC81A"/>
<path fill-rule="evenodd" clip-rule="evenodd" d="M584.47 261.31C584.355 261.31 584.24 261.284 584.132 261.229C583.76 261.041 583.609 260.586 583.796 260.214C588.608 250.668 598.22 244.738 608.887 244.738C610.587 244.738 612.291 244.892 613.952 245.195C614.363 245.269 614.633 245.663 614.561 246.074C614.495 246.436 614.182 246.696 613.824 246.696C613.778 246.696 613.732 246.691 613.682 246.682C612.11 246.395 610.495 246.25 608.887 246.25C598.795 246.25 589.697 251.862 585.145 260.895C585.013 261.158 584.747 261.31 584.47 261.31Z" fill="#FFE475"/>
<path fill-rule="evenodd" clip-rule="evenodd" d="M609.531 298.625C595.69 298.625 584.47 287.384 584.47 273.519C584.47 259.653 595.69 248.413 609.531 248.413C623.372 248.413 634.592 259.653 634.592 273.519C634.592 287.384 623.372 298.625 609.531 298.625Z" fill="#FFE475"/>
<path fill-rule="evenodd" clip-rule="evenodd" d="M607.072 292.186V289.455C604.226 289.341 601.417 288.669 599.421 287.793C598.707 287.481 598.342 286.679 598.549 285.927L599.24 283.383C599.493 282.449 600.506 281.966 601.398 282.34C603.378 283.172 605.825 283.831 608.463 283.831C611.2 283.831 613.242 282.9 613.242 280.994C613.242 279.275 611.663 278.252 607.858 277.23C602.43 275.742 598.533 273.371 598.533 268.584C598.533 264.261 601.687 260.96 607.164 260.077V257.346C607.164 256.467 607.874 255.754 608.752 255.754H610.354C611.229 255.754 611.943 256.467 611.943 257.346V259.798C614.571 259.903 616.485 260.354 618.005 260.889C618.785 261.163 619.209 262.003 618.992 262.801L618.357 265.154C618.11 266.061 617.143 266.558 616.265 266.226C614.867 265.695 612.887 265.144 610.318 265.144C607.072 265.144 606.141 266.492 606.141 267.7C606.141 269.188 608.091 270.211 612.315 271.512C618.344 273.325 620.85 275.835 620.85 280.344C620.85 284.481 617.788 288.2 611.848 289.13V292.186C611.848 293.065 611.137 293.778 610.262 293.778H608.657C607.782 293.778 607.072 293.065 607.072 292.186Z" fill="#B7860D"/>
<path fill-rule="evenodd" clip-rule="evenodd" d="M345.824 41.2931C345.824 41.2931 340.041 52.4237 331.43 49.054C322.815 45.6846 314.957 40.1427 310.964 41.8734C310.964 41.8734 326.187 22.6539 345.972 36.8692L345.824 41.2931Z" fill="#FDAB76"/>
<path fill-rule="evenodd" clip-rule="evenodd" d="M363.872 12.2423C367.714 13.8612 368.891 26.1231 368.891 26.1231C368.891 26.1231 356.01 30.2781 350.731 28.496C346.36 27.0201 334.666 18.3826 330.775 15.4561C329.969 14.8505 329.502 13.8981 329.515 12.8888C329.518 12.7669 329.607 12.6667 329.729 12.6588C332.433 12.4815 360.217 10.7024 363.872 12.2423ZM363.147 68.4837C367.029 66.9653 368.525 54.738 368.525 54.738C368.525 54.738 355.756 50.2505 350.431 51.8952C346.023 53.2571 334.109 61.5888 330.146 64.4131C329.324 64.9977 328.833 65.9378 328.82 66.9468C328.82 67.069 328.906 67.1712 329.028 67.1824C331.725 67.4296 359.453 69.9283 363.147 68.4837ZM339.912 14.1604C339.817 14.1647 339.731 14.1228 339.679 14.0543C339.642 14.0092 339.619 13.9525 339.616 13.8905C339.609 13.7347 339.728 13.6019 339.886 13.5946L339.91 13.5935L339.91 13.5935C340.604 13.5614 355.392 12.876 361.838 12.8267C363.009 12.8179 364.075 13.5007 364.555 14.5657C365.48 16.6187 366.726 19.755 367.42 23.0404C367.453 23.1936 367.354 23.3436 367.203 23.3758C367.049 23.4085 366.897 23.3109 366.868 23.1574C366.147 19.7511 364.786 16.4582 364.039 14.7987C363.651 13.938 362.789 13.386 361.845 13.3933C355.286 13.4434 340.063 14.1532 339.912 14.1604ZM339.201 66.5162C339.119 66.5103 339.046 66.4697 339 66.4108C338.958 66.357 338.935 66.2872 338.938 66.2134C338.951 66.0572 339.086 65.9399 339.24 65.9514L339.246 65.9518C339.601 65.9776 354.636 67.0683 361.147 67.287C362.094 67.3189 362.969 66.7897 363.377 65.9389C364.167 64.2998 365.614 61.0438 366.42 57.6563C366.456 57.5044 366.611 57.4105 366.762 57.4467C366.913 57.483 367.005 57.6359 366.972 57.7878C366.15 61.227 364.686 64.5256 363.887 66.1854C363.38 67.2375 362.298 67.8926 361.127 67.8531C354.562 67.6326 339.352 66.5274 339.201 66.5162Z" fill="#B3200E"/>
<path fill-rule="evenodd" clip-rule="evenodd" d="M409.822 55.1195C404.115 56.9035 397.533 58.101 390.205 58.0272C367.463 57.7985 350.786 53.6897 346.076 52.3943C345.224 52.1601 344.579 51.472 344.375 50.611C342.77 43.8228 342.81 37.0488 344.481 30.2893C344.793 29.018 345.8 28.0317 347.073 27.7279C352.592 26.4111 368.894 23.0605 390.652 23.4062C397.922 23.5215 404.431 24.8693 410.059 26.7772C413.065 38.1102 411.22 49.0072 409.822 55.1195Z" fill="#FA541C"/>
<path fill-rule="evenodd" clip-rule="evenodd" d="M410.059 26.7745C422.496 30.9891 430.65 37.9388 433.262 40.3911C433.775 40.8702 433.762 41.6815 433.239 42.1474C430.571 44.5226 422.292 51.2202 409.822 55.1168C411.22 49.0045 413.066 38.1075 410.059 26.7745Z" fill="#B3200E"/>
<path fill-rule="evenodd" clip-rule="evenodd" d="M392.074 29.2893C386.183 29.2129 381.341 34.2855 381.259 40.6193C381.18 46.9531 385.887 52.1496 391.778 52.2258C397.669 52.3022 402.511 47.2295 402.593 40.8958C402.675 34.562 397.965 29.3654 392.074 29.2893Z" fill="#B3200E"/>
<path fill-rule="evenodd" clip-rule="evenodd" d="M392.346 31.3023C387.652 31.2414 383.794 35.2833 383.728 40.3303C383.662 45.3769 387.415 49.5177 392.109 49.5786C396.803 49.6393 400.661 45.5974 400.727 40.5507C400.793 35.5037 397.04 31.3633 392.346 31.3023Z" fill="#FDAB76"/>
<path fill-rule="evenodd" clip-rule="evenodd" d="M393.729 46.8601C393.798 46.9467 393.913 46.9879 394.028 46.955C396.926 46.1068 398.979 43.3131 399.018 40.1602C399.028 39.3664 398.916 38.5844 398.683 37.8367C398.637 37.6871 398.475 37.6047 398.327 37.6515C398.179 37.6983 398.094 37.8568 398.143 38.0061C398.357 38.6965 398.462 39.4194 398.452 40.1529C398.416 43.059 396.531 45.6326 393.87 46.4112C393.719 46.4551 393.634 46.6123 393.676 46.7622C393.686 46.7991 393.706 46.8317 393.729 46.8601Z" fill="#FA541C"/>
<path fill-rule="evenodd" clip-rule="evenodd" d="M370.59 32.9022C366.698 32.8518 363.501 36.2027 363.445 40.3873C363.393 44.5716 366.501 48.0045 370.396 48.055C374.287 48.1054 377.484 44.7541 377.54 40.5698C377.592 36.3856 374.481 32.9529 370.59 32.9022Z" fill="#B3200E"/>
<path fill-rule="evenodd" clip-rule="evenodd" d="M370.77 34.2296C367.668 34.1894 365.119 36.8595 365.076 40.1939C365.033 43.5281 367.514 46.2634 370.612 46.3036C373.714 46.3438 376.263 43.6737 376.306 40.3393C376.349 37.0051 373.872 34.2698 370.77 34.2296Z" fill="#FDAB76"/>
<path fill-rule="evenodd" clip-rule="evenodd" d="M371.605 44.5717C371.675 44.6587 371.793 44.6998 371.905 44.6666C373.862 44.0952 375.247 42.2119 375.273 40.0872C375.28 39.5527 375.204 39.0254 375.046 38.5216C375 38.3727 374.839 38.2896 374.691 38.3364C374.543 38.3835 374.457 38.542 374.507 38.6913C374.645 39.1378 374.714 39.6051 374.707 40.0799C374.684 41.9582 373.467 43.6203 371.747 44.1228C371.599 44.167 371.51 44.3242 371.556 44.4741C371.566 44.511 371.582 44.5436 371.605 44.5717Z" fill="#FA541C"/>
<g opacity="0.24">
<path fill-rule="evenodd" clip-rule="evenodd" d="M345.225 30.2157C345.412 29.9663 345.768 29.9162 346.017 30.1043C346.741 30.6517 347.475 31.2402 348.192 31.8547L348.429 32.0574L348.373 32.4354C348.33 32.7448 348.044 32.959 347.735 32.9135C347.531 32.8845 347.373 32.7534 347.297 32.5784C346.646 32.0284 345.988 31.5012 345.337 31.0085C345.297 30.9795 345.264 30.9463 345.235 30.91C345.077 30.7126 345.067 30.4266 345.225 30.2157ZM340.442 27.2167C340.59 26.9416 340.936 26.8397 341.209 26.989C342.028 27.4342 342.856 27.9278 343.672 28.4577C343.932 28.6284 344.008 28.9783 343.84 29.2406C343.669 29.5029 343.32 29.5781 343.057 29.4077C342.268 28.8946 341.462 28.4152 340.669 27.9842C340.6 27.9469 340.544 27.8978 340.498 27.8405C340.36 27.6682 340.33 27.423 340.442 27.2167ZM346.442 37.8764L346.85 35.0745C346.896 34.7651 347.182 34.5506 347.491 34.5951C347.8 34.6399 348.014 34.9272 347.968 35.237L347.563 38.0389C347.517 38.3483 347.231 38.5628 346.922 38.518C346.774 38.4966 346.649 38.4195 346.56 38.3114C346.468 38.1931 346.422 38.0379 346.442 37.8764ZM335.225 25.0761C335.321 24.7782 335.64 24.6148 335.936 24.7107C336.827 24.999 337.735 25.3411 338.626 25.7279C338.913 25.8522 339.044 26.1853 338.923 26.4727C338.798 26.7597 338.465 26.8918 338.179 26.7676C337.317 26.3952 336.446 26.066 335.587 25.7886C335.479 25.7533 335.387 25.6877 335.321 25.6037C335.206 25.4604 335.163 25.264 335.225 25.0761ZM345.633 43.4806L346.037 40.6787C346.083 40.3693 346.369 40.1548 346.679 40.1993C346.988 40.2441 347.202 40.5314 347.156 40.8412L346.751 43.6431C346.705 43.9525 346.419 44.167 346.11 44.1222C345.962 44.1008 345.837 44.024 345.751 43.9156C345.656 43.7973 345.61 43.6421 345.633 43.4806ZM329.683 24.0329C329.716 23.7218 329.992 23.4941 330.301 23.5254C331.249 23.6193 332.209 23.7683 333.153 23.9673C333.456 24.0312 333.653 24.3321 333.587 24.6382C333.525 24.944 333.222 25.1404 332.92 25.0755C332.015 24.8847 331.097 24.7423 330.189 24.6524C330.032 24.6366 329.897 24.5575 329.805 24.4425C329.716 24.3311 329.67 24.1861 329.683 24.0329ZM324.048 24.2194C324.012 23.909 324.233 23.6269 324.542 23.5897C325.499 23.4743 326.469 23.4104 327.42 23.3995C327.732 23.3962 327.989 23.6477 327.992 23.9597C327.996 24.2721 327.746 24.5288 327.433 24.5324C326.522 24.5426 325.594 24.6036 324.677 24.7146C324.476 24.7384 324.285 24.653 324.167 24.5051C324.104 24.4257 324.062 24.3281 324.048 24.2194ZM343.86 49.7904C344.603 48.6245 344.978 47.7486 345.047 47.5222L345.225 46.2826C345.271 45.9732 345.557 45.7583 345.866 45.8035C346.175 45.8479 346.389 46.1356 346.346 46.4457L346.169 47.6567L346.159 47.655C346.037 48.4657 344.827 50.3776 344.814 50.3987C344.646 50.6626 344.297 50.74 344.034 50.5723C343.978 50.5377 343.935 50.4955 343.896 50.4481C343.748 50.2642 343.728 49.9999 343.86 49.7904ZM318.569 25.5678C318.47 25.2709 318.634 24.9509 318.93 24.853C319.848 24.5505 320.782 24.2915 321.703 24.083C322.006 24.0134 322.308 24.2065 322.377 24.5103C322.447 24.8152 322.256 25.1186 321.95 25.1872C321.065 25.3882 320.167 25.6376 319.282 25.9293C319.052 26.0051 318.809 25.9243 318.664 25.7451C318.624 25.6933 318.592 25.634 318.569 25.5678ZM340.307 53.9684C340.985 53.3657 341.63 52.7043 342.225 52.0021C342.429 51.7642 342.784 51.7355 343.024 51.9382C343.261 52.1422 343.291 52.4984 343.087 52.7366C342.455 53.4787 341.774 54.1779 341.057 54.8149C340.824 55.0228 340.465 55.0014 340.258 54.7681L340.238 54.745C340.054 54.5114 340.08 54.1694 340.307 53.9684ZM313.411 27.8682C313.266 27.5907 313.375 27.2487 313.651 27.1037C314.506 26.6545 315.381 26.24 316.243 25.8703C316.529 25.7474 316.861 25.8812 316.983 26.1685C317.108 26.4558 316.973 26.7893 316.687 26.9122C315.852 27.2698 315.006 27.6721 314.174 28.1077C313.931 28.2353 313.635 28.1674 313.47 27.9601C313.447 27.9318 313.427 27.9015 313.411 27.8682ZM335.456 57.718C335.327 57.434 335.449 57.0982 335.735 56.9677C336.561 56.5894 337.367 56.1429 338.13 55.6404C338.39 55.469 338.748 55.5369 338.913 55.8032C339.084 56.0645 339.011 56.4154 338.751 56.5871C337.939 57.1209 337.084 57.5954 336.206 57.9981C335.965 58.1082 335.686 58.035 335.528 57.837C335.502 57.8014 335.475 57.7615 335.456 57.718ZM308.632 30.8886C308.454 30.6329 308.513 30.2796 308.77 30.0997C309.559 29.5422 310.365 29.012 311.158 28.5226C311.424 28.3588 311.779 28.4409 311.937 28.7085C312.098 28.9747 312.016 29.3237 311.75 29.4875C310.977 29.9643 310.191 30.482 309.421 31.026C309.174 31.1993 308.839 31.1489 308.655 30.9169L308.632 30.8886ZM329.999 59.1244C329.953 58.815 330.163 58.527 330.472 58.4809C330.67 58.4515 330.867 58.4209 331.064 58.3876C331.778 58.2696 332.485 58.1115 333.166 57.9164C333.466 57.831 333.781 58.005 333.864 58.3059C333.949 58.6064 333.775 58.9198 333.475 59.0058C332.755 59.2124 332.005 59.3805 331.252 59.505C331.045 59.539 330.841 59.5709 330.64 59.6012C330.433 59.6319 330.236 59.5469 330.114 59.3943C330.055 59.3188 330.012 59.2269 329.999 59.1244ZM324.361 59.3363C324.374 59.0239 324.637 58.7817 324.95 58.7952C325.848 58.8348 326.779 58.8262 327.716 58.7708C328.025 58.7524 328.295 58.9896 328.311 59.3024C328.331 59.6144 328.094 59.8823 327.782 59.9011C326.805 59.9591 325.838 59.9677 324.9 59.9268C324.733 59.9196 324.581 59.8378 324.486 59.7146C324.404 59.6114 324.354 59.479 324.361 59.3363ZM304.286 33.6421C304.928 33.0799 305.579 32.5322 306.227 32.0142L306.48 31.8122C306.724 31.6188 307.079 31.6593 307.273 31.9032V31.9048C307.467 32.1503 307.428 32.5065 307.181 32.7003L306.934 32.899C306.3 33.4061 305.658 33.9433 305.03 34.4946C304.796 34.7005 304.438 34.6765 304.234 34.4412L304.217 34.4214C304.03 34.1865 304.056 33.8424 304.286 33.6421ZM317.108 53.1904C317.023 52.8895 317.197 52.5768 317.499 52.4918C318.371 52.2446 318.999 51.8495 319.414 51.5879C319.591 51.4775 319.733 51.3895 319.845 51.3355C319.907 51.3065 319.96 51.2844 320.006 51.2686C320.299 51.1678 320.605 51.3328 320.707 51.6291C320.805 51.925 320.631 52.2545 320.338 52.3554C320.253 52.3959 320.147 52.4644 320.016 52.5471C319.575 52.8249 318.835 53.2902 317.805 53.5818C317.582 53.6454 317.348 53.5631 317.21 53.3904C317.164 53.3331 317.131 53.2655 317.108 53.1904ZM318.799 58.3833C318.874 58.0795 319.177 57.8923 319.483 57.9651C320.286 58.1589 321.174 58.3606 322.203 58.5211C322.512 58.5695 322.723 58.8595 322.677 59.1679C322.627 59.4767 322.338 59.6886 322.029 59.6404C320.96 59.4737 320.045 59.2658 319.216 59.0667C319.091 59.0361 318.983 58.9646 318.907 58.8697C318.802 58.7382 318.756 58.5606 318.799 58.3833ZM316.332 55.5863C317.088 54.7998 317.74 54.1091 318.266 53.5327C318.476 53.3021 318.835 53.2856 319.065 53.4968C319.289 53.7094 319.312 54.0659 319.101 54.2969C318.569 54.8808 317.911 55.5791 317.144 56.3729C316.927 56.598 316.572 56.6042 316.345 56.3871L316.296 56.3327C316.121 56.1139 316.131 55.7936 316.332 55.5863ZM300.168 37.5934C300.826 36.9034 301.504 36.2239 302.181 35.5734C302.408 35.3572 302.764 35.3642 302.981 35.5902C303.201 35.8166 303.191 36.1745 302.964 36.391C302.3 37.0306 301.632 37.6985 300.981 38.3773C300.767 38.603 300.408 38.6106 300.185 38.3941L300.132 38.3381C299.958 38.12 299.968 37.8007 300.168 37.5934ZM311.608 52.3C311.724 52.01 312.052 51.8686 312.342 51.9846C313.24 52.3445 314.108 52.5751 314.921 52.6707C315.23 52.707 315.454 52.989 315.417 53.2991C315.378 53.6098 315.098 53.8319 314.789 53.7957C313.878 53.6886 312.914 53.4329 311.924 53.0365C311.829 52.9986 311.753 52.9386 311.694 52.8648C311.569 52.7106 311.529 52.4964 311.608 52.3ZM314.352 57.6093C314.516 57.4465 314.753 57.4023 314.954 57.4784C315.447 57.3279 315.996 57.2929 316.651 57.3644C316.96 57.3984 317.184 57.6775 317.151 57.9882C317.118 58.299 316.838 58.5237 316.529 58.4898C315.736 58.4034 315.194 58.5095 314.707 58.844L313.987 57.9767L314.352 57.6093ZM306.655 49.591C306.786 49.3063 307.122 49.1804 307.405 49.3102C308.049 49.6035 308.668 49.9449 309.243 50.3238C309.47 50.4741 309.694 50.6151 309.911 50.7486C310.178 50.9107 310.263 51.259 310.102 51.5263C309.941 51.7938 309.592 51.8792 309.326 51.7171C309.095 51.5767 308.859 51.4274 308.622 51.2699C308.095 50.9229 307.526 50.6105 306.938 50.3407C306.852 50.3028 306.783 50.2467 306.73 50.1795C306.602 50.018 306.566 49.7917 306.655 49.591ZM296.382 41.8614C296.991 41.1219 297.616 40.3917 298.234 39.6918C298.441 39.4582 298.8 39.4367 299.033 39.6447C299.267 39.8542 299.287 40.2105 299.08 40.4441C298.468 41.1334 297.856 41.8525 297.257 42.5807C297.057 42.8226 296.701 42.8569 296.461 42.6582C296.428 42.6325 296.402 42.6044 296.379 42.5745C296.215 42.3695 296.211 42.0713 296.382 41.8614ZM301.149 48.4261C301.172 48.1144 301.445 47.8824 301.757 47.9078C302.757 47.9895 303.724 48.1427 304.632 48.3619C304.938 48.4347 305.125 48.7408 305.05 49.0456C304.977 49.3494 304.671 49.5363 304.369 49.4628C303.517 49.2572 302.609 49.1138 301.665 49.0367C301.504 49.0235 301.362 48.9435 301.27 48.8262C301.181 48.7171 301.135 48.5761 301.149 48.4261ZM295.511 48.7767C295.465 48.4676 295.678 48.1796 295.988 48.1345C296.961 47.9912 297.928 47.8982 298.859 47.858C299.172 47.8442 299.435 48.0861 299.451 48.3991C299.464 48.7115 299.221 48.9758 298.908 48.9893C298.017 49.0278 297.09 49.1171 296.152 49.2549C295.945 49.2855 295.751 49.1998 295.629 49.0479C295.567 48.9721 295.527 48.8799 295.511 48.7767ZM292.922 46.3953C293.461 45.6298 294.031 44.8564 294.613 44.0959C294.803 43.8477 295.155 43.8003 295.405 43.9904C295.652 44.1812 295.701 44.5354 295.511 44.7842C294.938 45.5332 294.379 46.2958 293.846 47.0494C293.665 47.3044 293.31 47.3651 293.057 47.1845C293.014 47.1528 292.975 47.1166 292.942 47.0757C292.787 46.8836 292.774 46.6058 292.922 46.3953ZM290.873 49.4859C290.873 49.4859 291.024 49.2285 291.323 48.7649C291.491 48.5016 291.84 48.4248 292.103 48.5935C292.218 48.6683 292.297 48.7777 292.337 48.899C292.58 48.8331 292.856 48.7609 293.159 48.6871C293.461 48.6133 293.767 48.8005 293.84 49.104C293.915 49.4078 293.728 49.7136 293.425 49.7877C292.57 49.9956 291.965 50.1818 291.675 50.2711C291.593 50.2965 291.534 50.3143 291.504 50.3222L290.159 50.686L290.873 49.4859Z" fill="#FA541C"/>
<path fill-rule="evenodd" clip-rule="evenodd" d="M283.273 49.0558L279.563 49.966C279.218 50.0513 278.869 49.8388 278.784 49.4911C278.698 49.1438 278.909 48.7932 279.257 48.7082L279.3 48.6976L282.915 47.7961L282.958 47.7849C283.31 47.6975 283.665 47.9111 283.75 48.262C283.839 48.613 283.625 48.9685 283.273 49.0558Z" fill="#FA541C"/>
<path fill-rule="evenodd" clip-rule="evenodd" d="M275.809 50.6169L272.019 51.0272C271.671 51.0644 271.358 50.813 271.322 50.4647C271.286 50.1167 271.536 49.8043 271.884 49.7668L271.921 49.7625L275.628 49.3473L275.667 49.343C276.019 49.3038 276.335 49.5572 276.374 49.9088C276.414 50.2604 276.16 50.5774 275.812 50.6166L275.809 50.6169Z" fill="#FA541C"/>
<path fill-rule="evenodd" clip-rule="evenodd" d="M268.213 51.2111L264.414 51.1828C264.072 51.1801 263.796 50.9007 263.799 50.558C263.802 50.2156 264.082 49.9398 264.421 49.9424L264.453 49.9428L268.187 49.9566L268.223 49.9569C268.568 49.9582 268.848 50.24 268.845 50.5863C268.845 50.9327 268.562 51.2124 268.216 51.2111H268.213Z" fill="#FA541C"/>
<path fill-rule="evenodd" clip-rule="evenodd" d="M260.618 50.9584L256.842 50.5593C256.507 50.5241 256.267 50.2255 256.303 49.8927C256.339 49.5595 256.635 49.318 256.967 49.3533L256.993 49.3556L260.717 49.7355L260.747 49.7385C261.082 49.7727 261.325 50.0736 261.293 50.4107C261.256 50.7478 260.957 50.993 260.622 50.9587L260.618 50.9584Z" fill="#FA541C"/>
<path fill-rule="evenodd" clip-rule="evenodd" d="M253.087 49.9997L249.357 49.2912C249.038 49.2302 248.827 48.9201 248.886 48.5985C248.949 48.2769 249.258 48.066 249.577 48.127L249.597 48.1306L253.284 48.8173L253.307 48.8213C253.633 48.8819 253.847 49.195 253.787 49.5205C253.725 49.8461 253.412 50.0603 253.087 49.9997Z" fill="#FA541C"/>
<path fill-rule="evenodd" clip-rule="evenodd" d="M245.657 48.4474L241.993 47.4819C241.684 47.4008 241.5 47.0841 241.582 46.7751C241.661 46.466 241.977 46.2811 242.286 46.3622L245.934 47.3092L245.953 47.3142C246.266 47.3952 246.453 47.7145 246.371 48.0279C246.292 48.341 245.973 48.5291 245.661 48.448L245.657 48.4474Z" fill="#FA541C"/>
<path fill-rule="evenodd" clip-rule="evenodd" d="M238.358 46.4049L234.759 45.2245C234.463 45.1273 234.302 44.8083 234.398 44.5118C234.496 44.2152 234.815 44.0537 235.111 44.1506L235.124 44.1549L238.697 45.3125L238.713 45.3171C239.012 45.4146 239.177 45.7369 239.078 46.0374C238.983 46.338 238.66 46.5027 238.361 46.4055L238.358 46.4049Z" fill="#FA541C"/>
<path fill-rule="evenodd" clip-rule="evenodd" d="M231.195 43.9505L227.662 42.5886C227.379 42.4792 227.238 42.1605 227.346 41.8765C227.455 41.5924 227.774 41.4507 228.057 41.5601L228.067 41.5637L231.579 42.9033L231.593 42.9079C231.879 43.0176 232.024 43.3399 231.915 43.6279C231.806 43.9162 231.484 44.0605 231.198 43.9508L231.195 43.9505Z" fill="#FA541C"/>
<path fill-rule="evenodd" clip-rule="evenodd" d="M224.162 41.1447L220.695 39.6286C220.422 39.5096 220.3 39.1929 220.418 38.9214C220.537 38.6492 220.853 38.525 221.122 38.6436L221.132 38.6472L224.583 40.142L224.596 40.1466C224.869 40.2655 224.997 40.5858 224.879 40.8619C224.76 41.1378 224.438 41.2646 224.165 41.1457L224.162 41.1447Z" fill="#FA541C"/>
<path fill-rule="evenodd" clip-rule="evenodd" d="M217.26 38.0427L213.856 36.3928C213.596 36.2669 213.487 35.9538 213.612 35.6935C213.737 35.4335 214.05 35.3245 214.31 35.4503L214.316 35.4536L217.711 37.0824L217.721 37.0867C217.984 37.2133 218.095 37.5299 217.967 37.7942C217.842 38.0582 217.526 38.1699 217.263 38.0433L217.26 38.0427Z" fill="#FA541C"/>
<path fill-rule="evenodd" clip-rule="evenodd" d="M210.481 34.6849L207.136 32.9186C206.887 32.7871 206.792 32.479 206.923 32.2299C207.054 31.9811 207.361 31.8855 207.61 32.0167L207.616 32.0197L210.961 33.7701C211.213 33.9022 211.311 34.2143 211.179 34.467C211.047 34.7198 210.736 34.818 210.483 34.6858L210.481 34.6849Z" fill="#FA541C"/>
<path fill-rule="evenodd" clip-rule="evenodd" d="M203.819 31.0986L200.53 29.2285C200.292 29.0934 200.209 28.7909 200.344 28.5527C200.478 28.3148 200.781 28.2311 201.018 28.3665L201.023 28.3688L204.306 30.2194L204.312 30.223C204.554 30.3591 204.64 30.6656 204.504 30.9074C204.368 31.1493 204.062 31.2353 203.82 31.0989L203.819 31.0986Z" fill="#FA541C"/>
<path fill-rule="evenodd" clip-rule="evenodd" d="M197.267 27.3127L194.03 25.3547C193.799 25.2153 193.725 24.9148 193.864 24.6838C194.004 24.4528 194.304 24.378 194.534 24.518L194.539 24.521L197.767 26.4688L197.773 26.4721C198.005 26.6122 198.079 26.9137 197.94 27.1457C197.8 27.3776 197.499 27.4524 197.267 27.3127Z" fill="#FA541C"/>
<path fill-rule="evenodd" clip-rule="evenodd" d="M190.818 23.3542L187.633 21.3125C187.408 21.1681 187.342 20.8683 187.486 20.6426C187.63 20.4168 187.93 20.3513 188.155 20.4956L188.159 20.4985L191.336 22.5304L191.342 22.5337C191.568 22.6783 191.634 22.9795 191.49 23.2059C191.345 23.4326 191.044 23.4989 190.818 23.3542Z" fill="#FA541C"/>
<path fill-rule="evenodd" clip-rule="evenodd" d="M184.473 19.2312L181.339 17.1127C181.119 16.9641 181.061 16.6649 181.209 16.4444C181.358 16.2243 181.656 16.1663 181.876 16.3149L181.881 16.3179L185.007 18.4268L185.012 18.4301C185.233 18.5791 185.291 18.8793 185.142 19.1007C184.994 19.3218 184.694 19.3802 184.473 19.2312Z" fill="#FA541C"/>
<path fill-rule="evenodd" clip-rule="evenodd" d="M178.231 14.9571L175.149 12.7678C174.935 12.6152 174.884 12.3173 175.036 12.1021C175.188 11.887 175.486 11.8362 175.701 11.9888L175.705 11.9917L178.78 14.1715L178.784 14.1748C179 14.3277 179.051 14.6269 178.899 14.8428C178.746 15.059 178.447 15.11 178.231 14.9571Z" fill="#FA541C"/>
<path fill-rule="evenodd" clip-rule="evenodd" d="M172.054 10.6536L168.835 8.74137L168.809 8.72588C168.584 8.59242 168.51 8.30211 168.643 8.07705C168.777 7.85198 169.066 7.77751 169.291 7.91097L172.563 9.8512C172.789 9.98466 172.863 10.2763 172.73 10.5023C172.597 10.7284 172.305 10.8032 172.08 10.6694L172.054 10.6536Z" fill="#FA541C"/>
<path fill-rule="evenodd" clip-rule="evenodd" d="M165.502 7.03803L162.04 5.53771C161.802 5.43457 161.693 5.1581 161.796 4.92018C161.898 4.68194 162.174 4.57221 162.412 4.67535L165.903 6.1839C166.142 6.28737 166.252 6.5645 166.149 6.80374C166.046 7.04297 165.769 7.15303 165.53 7.04989L165.502 7.03803Z" fill="#FA541C"/>
<path fill-rule="evenodd" clip-rule="evenodd" d="M158.544 4.281L154.949 3.24036L154.92 3.23213C154.674 3.16095 154.531 2.9026 154.603 2.65513C154.674 2.40799 154.931 2.26531 155.178 2.33681L158.832 3.38997C159.079 3.46147 159.222 3.72048 159.151 3.96894C159.08 4.2174 158.821 4.36074 158.573 4.28923L158.544 4.281Z" fill="#FA541C"/>
<path fill-rule="evenodd" clip-rule="evenodd" d="M151.295 2.43093L147.597 1.85459L147.568 1.85031C147.316 1.81076 147.144 1.57483 147.183 1.32241C147.222 1.07033 147.458 0.897327 147.709 0.93654L151.466 1.51815C151.719 1.55703 151.892 1.79429 151.853 2.04769C151.814 2.30109 151.577 2.47475 151.325 2.43521L151.295 2.43093Z" fill="#FA541C"/>
<path fill-rule="evenodd" clip-rule="evenodd" d="M143.87 1.51593L140.128 1.41312L140.099 1.41246C139.847 1.40521 139.647 1.19432 139.654 0.941243C139.661 0.688169 139.871 0.488808 140.124 0.495398L143.923 0.596232C144.177 0.602823 144.377 0.814376 144.37 1.06877C144.364 1.32283 144.153 1.52318 143.899 1.51659L143.87 1.51593Z" fill="#FA541C"/>
<path fill-rule="evenodd" clip-rule="evenodd" d="M136.386 1.54883L132.662 1.92152L132.633 1.92448C132.383 1.94953 132.161 1.7673 132.136 1.51719C132.111 1.26741 132.293 1.04466 132.542 1.01961L136.324 0.637367C136.574 0.611664 136.798 0.794879 136.823 1.04565C136.848 1.29674 136.666 1.52049 136.415 1.54553L136.386 1.54883Z" fill="#FA541C"/>
<path fill-rule="evenodd" clip-rule="evenodd" d="M125.322 3.37516L125.294 3.38143C125.051 3.43744 124.81 3.28619 124.754 3.04366C124.698 2.80081 124.848 2.55894 125.091 2.50292L128.793 1.64253C129.036 1.58585 129.279 1.73776 129.335 1.98128C129.392 2.2248 129.24 2.46832 128.997 2.52467L125.322 3.37516Z" fill="#FA541C"/>
<path fill-rule="evenodd" clip-rule="evenodd" d="M121.735 4.45042L118.197 5.76126C117.966 5.84694 117.709 5.72864 117.624 5.49731C117.538 5.26533 117.656 5.0083 117.887 4.92263L121.45 3.59827C121.682 3.51194 121.94 3.63057 122.027 3.86288C122.113 4.09552 121.994 4.35387 121.762 4.44021L121.735 4.45042Z" fill="#FA541C"/>
<path fill-rule="evenodd" clip-rule="evenodd" d="M114.805 7.27448L111.51 9.04237L111.481 9.05786C111.266 9.17319 110.997 9.09213 110.882 8.87629C110.767 8.66046 110.848 8.39189 111.063 8.27656L114.415 6.47407C114.631 6.35742 114.901 6.43881 115.017 6.65564C115.133 6.87214 115.052 7.14201 114.835 7.25834L114.805 7.27448Z" fill="#FA541C"/>
<path fill-rule="evenodd" clip-rule="evenodd" d="M108.347 11.0392L105.319 13.2424L105.297 13.2588C105.1 13.4015 104.826 13.358 104.684 13.1616C104.541 12.9649 104.585 12.6904 104.781 12.5474L107.852 10.3083C108.049 10.1649 108.324 10.2084 108.468 10.4055C108.611 10.6029 108.567 10.879 108.371 11.0227L108.347 11.0392Z" fill="#FA541C"/>
<path fill-rule="evenodd" clip-rule="evenodd" d="M102.428 15.6316L99.6866 18.1871L99.6682 18.2045C99.4922 18.3683 99.2166 18.3584 99.0531 18.1821C98.8893 18.0058 98.8991 17.7303 99.0748 17.5662L101.851 14.9736C102.028 14.8085 102.304 14.8183 102.469 14.995C102.633 15.1719 102.624 15.4491 102.447 15.6141L102.428 15.6316Z" fill="#FA541C"/>
<path fill-rule="evenodd" clip-rule="evenodd" d="M97.0976 20.8975L94.6648 23.7528L94.6487 23.7716C94.4941 23.9535 94.2217 23.9749 94.0405 23.8197C93.8592 23.6648 93.8375 23.3923 93.9921 23.2111L96.4545 20.3155C96.6094 20.1327 96.8828 20.1109 97.0653 20.2664C97.2472 20.422 97.2693 20.6958 97.114 20.8784L97.0976 20.8975Z" fill="#FA541C"/>
<path fill-rule="evenodd" clip-rule="evenodd" d="M90.3083 29.8608L90.2941 29.8816C90.1622 30.0783 89.8968 30.1307 89.7007 29.9986C89.5044 29.8668 89.4521 29.6012 89.5837 29.4048L91.697 26.2437C91.8292 26.0463 92.096 25.9936 92.293 26.1257C92.49 26.2582 92.5427 26.5251 92.4108 26.7231L90.3083 29.8608Z" fill="#FA541C"/>
<path fill-rule="evenodd" clip-rule="evenodd" d="M88.4102 33.0967L86.7169 36.4436L86.7044 36.468C86.5988 36.6769 86.3439 36.7606 86.135 36.6545C85.9261 36.5484 85.8426 36.2937 85.9485 36.0844L87.6629 32.6874C87.7688 32.4772 88.025 32.3928 88.2346 32.4992C88.4448 32.6053 88.5286 32.862 88.4227 33.0723L88.4102 33.0967Z" fill="#FA541C"/>
<path fill-rule="evenodd" clip-rule="evenodd" d="M85.2458 39.8946L84.0179 43.436L84.008 43.4646C83.9317 43.6844 83.6926 43.8004 83.4735 43.724C83.2541 43.6482 83.138 43.4086 83.2143 43.1892L84.4584 39.5895C84.5347 39.3687 84.7751 39.252 84.9952 39.3282C85.2156 39.4046 85.332 39.6455 85.2557 39.8659L85.2458 39.8946Z" fill="#FA541C"/>
<path fill-rule="evenodd" clip-rule="evenodd" d="M83.056 47.0577L82.3827 50.7411L82.3764 50.7751C82.335 51.0015 82.1182 51.1514 81.8923 51.1099C81.666 51.0684 81.5163 50.8515 81.5577 50.6252L82.2396 46.8739C82.2811 46.6462 82.4988 46.4952 82.7258 46.5368C82.9531 46.5783 83.1037 46.7964 83.0623 47.0241L83.056 47.0577Z" fill="#FA541C"/>
<path fill-rule="evenodd" clip-rule="evenodd" d="M82.0204 54.465L81.997 58.2041L81.9967 58.2427C81.9954 58.471 81.8098 58.6546 81.5819 58.6536C81.3543 58.6519 81.1707 58.4664 81.1723 58.2381L81.1921 54.4222C81.1934 54.1928 81.3796 54.008 81.6085 54.0093C81.8375 54.0106 82.022 54.1971 82.0207 54.4261L82.0204 54.465Z" fill="#FA541C"/>
<path fill-rule="evenodd" clip-rule="evenodd" d="M82.3302 61.9279L83.0292 65.5978L83.037 65.6383C83.0791 65.8604 82.9341 66.0746 82.7124 66.1171C82.4907 66.1596 82.2769 66.0143 82.2345 65.7922L81.5164 62.0416C81.4737 61.8188 81.6194 61.6033 81.8417 61.5605C82.0647 61.5177 82.2795 61.6636 82.3223 61.8867L82.3302 61.9279Z" fill="#FA541C"/>
<path fill-rule="evenodd" clip-rule="evenodd" d="M85.5257 72.6298L85.5412 72.6677C85.6267 72.8746 85.5287 73.1119 85.3221 73.1976C85.1155 73.2832 84.8791 73.1857 84.7935 72.9784L83.3311 69.4512C83.2446 69.2436 83.343 69.005 83.5505 68.9187C83.7581 68.8324 83.9959 68.9309 84.0821 69.1385L85.5257 72.6298Z" fill="#FA541C"/>
<path fill-rule="evenodd" clip-rule="evenodd" d="M87.3399 75.868C88.0313 76.8915 88.8142 77.8514 89.6881 78.7194C89.8457 78.8756 89.8467 79.1303 89.6908 79.2882C89.5345 79.446 89.2806 79.4473 89.123 79.2911C88.2086 78.3846 87.3912 77.3842 86.6715 76.3211C86.5465 76.1366 86.5945 75.8855 86.7791 75.76C86.9633 75.6348 87.2146 75.6835 87.3399 75.868Z" fill="#FA541C"/>
<path fill-rule="evenodd" clip-rule="evenodd" d="M92.5708 81.0164C93.6105 81.6702 94.7252 82.2027 95.887 82.5994C96.0949 82.6703 96.2061 82.8967 96.135 83.1052C96.0643 83.3135 95.8387 83.4249 95.6304 83.354C94.4101 82.9385 93.2385 82.3803 92.1464 81.6952C91.959 81.5779 91.9024 81.3307 92.0195 81.1432C92.1366 80.9557 92.3836 80.8987 92.5708 81.0164Z" fill="#FA541C"/>
<path fill-rule="evenodd" clip-rule="evenodd" d="M99.4791 83.3796C100.701 83.5055 101.938 83.4959 103.162 83.3618C103.378 83.3381 103.573 83.4946 103.597 83.7111C103.62 83.9279 103.464 84.1227 103.248 84.1468C101.972 84.2878 100.679 84.2993 99.3988 84.1692C99.1811 84.1468 99.0225 83.952 99.0449 83.7342C99.0669 83.5164 99.2613 83.3575 99.4791 83.3796Z" fill="#FA541C"/>
<path fill-rule="evenodd" clip-rule="evenodd" d="M106.772 82.5998C107.949 82.2308 109.092 81.7513 110.185 81.1756C110.376 81.0751 110.612 81.1489 110.712 81.3401C110.813 81.5309 110.74 81.7671 110.549 81.8676C109.416 82.4657 108.23 82.9646 107.007 83.3495C106.8 83.4144 106.58 83.2994 106.515 83.0925C106.45 82.8855 106.566 82.6651 106.772 82.5998Z" fill="#FA541C"/>
<path fill-rule="evenodd" clip-rule="evenodd" d="M113.301 79.1748C114.28 78.4202 115.196 77.5826 116.036 76.6751C116.181 76.5186 116.426 76.5093 116.583 76.655C116.739 76.8003 116.748 77.0455 116.603 77.202C115.734 78.1415 114.788 79.0091 113.776 79.7917C113.606 79.9225 113.362 79.8912 113.231 79.7212C113.1 79.5508 113.132 79.306 113.301 79.1748Z" fill="#FA541C"/>
<path fill-rule="evenodd" clip-rule="evenodd" d="M118.325 73.757L119.265 72.1529C119.598 71.6293 119.845 71.0569 120.123 70.5017L120.135 70.4792C120.229 70.2901 120.459 70.2137 120.648 70.3082C120.837 70.4031 120.913 70.6331 120.819 70.822C120.534 71.394 120.28 71.9809 119.938 72.5243L118.967 74.1821C118.86 74.3653 118.625 74.4269 118.441 74.3192C118.258 74.2117 118.197 73.9761 118.304 73.7926L118.325 73.757Z" fill="#FA541C"/>
<path fill-rule="evenodd" clip-rule="evenodd" d="M121.418 67.0151C121.757 65.8225 121.996 64.6023 122.121 63.3706C122.142 63.162 122.329 63.0101 122.537 63.0315C122.745 63.0522 122.897 63.2384 122.876 63.447C122.747 64.7256 122.5 65.9903 122.151 67.2237C122.094 67.4263 121.883 67.5443 121.681 67.4866C121.478 67.4293 121.361 67.2181 121.418 67.0151Z" fill="#FA541C"/>
<path fill-rule="evenodd" clip-rule="evenodd" d="M122.147 59.6742C122.037 58.4434 121.806 57.2242 121.461 56.0376C121.402 55.8382 121.517 55.6296 121.716 55.5716C121.915 55.5133 122.123 55.6273 122.181 55.8267C122.541 57.0591 122.782 58.3268 122.898 59.6063C122.917 59.8139 122.764 59.9978 122.556 60.0165C122.349 60.0353 122.166 59.8818 122.147 59.6742Z" fill="#FA541C"/>
<path fill-rule="evenodd" clip-rule="evenodd" d="M120.094 52.5949C119.535 51.4917 118.876 50.4385 118.136 49.4456C118.013 49.2809 118.047 49.0476 118.211 48.925C118.375 48.8018 118.608 48.8354 118.731 48.9998C119.496 50.0246 120.179 51.113 120.76 52.2558C120.854 52.4397 120.781 52.6651 120.597 52.7587C120.413 52.8526 120.188 52.7791 120.094 52.5949Z" fill="#FA541C"/>
<path fill-rule="evenodd" clip-rule="evenodd" d="M115.686 46.6495C114.801 45.7809 113.851 44.9769 112.852 44.2391C112.688 44.1181 112.653 43.8875 112.774 43.7237C112.895 43.5599 113.124 43.525 113.288 43.6456C114.314 44.4019 115.291 45.227 116.204 46.12C116.349 46.263 116.352 46.4973 116.21 46.6436C116.067 46.7899 115.833 46.7926 115.686 46.6495Z" fill="#FA541C"/>
<path fill-rule="evenodd" clip-rule="evenodd" d="M109.723 42.2263C108.637 41.621 107.515 41.0812 106.365 40.607C106.179 40.5306 106.09 40.3174 106.167 40.1312C106.243 39.945 106.456 39.8557 106.642 39.9325C107.817 40.4159 108.966 40.9669 110.078 41.586C110.255 41.6842 110.319 41.9077 110.221 42.0843C110.122 42.2612 109.899 42.3248 109.723 42.2263Z" fill="#FA541C"/>
<path fill-rule="evenodd" clip-rule="evenodd" d="M102.84 39.3794C101.647 39.0315 100.413 38.8061 99.2012 38.5128L99.1723 38.5059C98.9743 38.4578 98.8523 38.2578 98.9003 38.0594C98.948 37.8607 99.1476 37.7384 99.346 37.7865H99.3473C100.578 38.0884 101.817 38.3306 103.04 38.6818C103.233 38.7362 103.344 38.9366 103.29 39.1293C103.236 39.3221 103.036 39.4345 102.843 39.3804L102.84 39.3794Z" fill="#FA541C"/>
<path fill-rule="evenodd" clip-rule="evenodd" d="M95.503 37.9094L91.7729 37.5495L91.7482 37.5472C91.5338 37.5265 91.3765 37.3353 91.3973 37.1202C91.418 36.9053 91.6088 36.7478 91.8232 36.7682L91.8255 36.7686L95.6023 37.1541C95.8112 37.1755 95.9631 37.3624 95.9417 37.5716C95.9207 37.7799 95.7355 37.9318 95.5276 37.9117L95.503 37.9094Z" fill="#FA541C"/>
<path fill-rule="evenodd" clip-rule="evenodd" d="M88.0259 37.4213L84.278 37.5136L84.2547 37.5142C84.0277 37.5198 83.8389 37.3399 83.8333 37.1122C83.8277 36.8848 84.0073 36.6957 84.2346 36.6901H84.2369L88.0318 36.6176C88.2531 36.6136 88.436 36.7899 88.4403 37.0117C88.4443 37.2328 88.2696 37.4154 88.0492 37.4206L88.0259 37.4213Z" fill="#FA541C"/>
<path fill-rule="evenodd" clip-rule="evenodd" d="M80.5445 37.8171L76.8296 38.3242L76.8066 38.3272C76.5701 38.3595 76.352 38.1937 76.3198 37.9565C76.2876 37.7195 76.4534 37.5014 76.6898 37.4691L76.6922 37.4688L80.4554 36.9765C80.6863 36.9461 80.8981 37.1093 80.9284 37.3406C80.9583 37.5713 80.7968 37.7825 80.5672 37.8138L80.5445 37.8171Z" fill="#FA541C"/>
<path fill-rule="evenodd" clip-rule="evenodd" d="M73.1466 39.026L69.507 39.9253L69.484 39.9312C69.2409 39.9912 68.9952 39.8426 68.9353 39.5991C68.8755 39.3556 69.0238 39.1094 69.2669 39.0498L69.2692 39.0491L72.9597 38.159C73.1975 38.1014 73.4367 38.248 73.4939 38.4863C73.5508 38.7235 73.4058 38.9621 73.1696 39.0204L73.1466 39.026Z" fill="#FA541C"/>
<path fill-rule="evenodd" clip-rule="evenodd" d="M65.9193 41.0177L62.3978 42.3005L62.3735 42.3094C62.1274 42.3991 61.8554 42.2722 61.766 42.0254C61.6765 41.7789 61.8035 41.5064 62.0495 41.4168L62.0521 41.4161L65.6286 40.1356C65.8697 40.0489 66.1348 40.1748 66.221 40.4167C66.3068 40.6572 66.1825 40.9218 65.943 41.0091L65.9193 41.0177Z" fill="#FA541C"/>
<path fill-rule="evenodd" clip-rule="evenodd" d="M58.9557 43.7769L55.6046 45.4482L55.5783 45.4614C55.3336 45.5837 55.0362 45.4838 54.9145 45.2387C54.7928 44.9935 54.8925 44.6959 55.1369 44.5737L55.1395 44.5727L58.5518 42.8944C58.7919 42.7761 59.0824 42.8756 59.2001 43.1162C59.3176 43.3558 59.2195 43.6454 58.9814 43.7644L58.9557 43.7769Z" fill="#FA541C"/>
<path fill-rule="evenodd" clip-rule="evenodd" d="M52.3636 47.3175L49.2457 49.3843L49.2207 49.4011C48.9829 49.5586 48.6632 49.4934 48.506 49.2551C48.3488 49.0172 48.4139 48.6969 48.6514 48.5394L48.6537 48.5377L51.8341 46.4548C52.0676 46.3016 52.3807 46.3675 52.5334 46.6015C52.6857 46.8344 52.6209 47.1468 52.3893 47.3004L52.3636 47.3175Z" fill="#FA541C"/>
<path fill-rule="evenodd" clip-rule="evenodd" d="M46.2447 51.626L43.3558 54.0157L43.3367 54.0318C43.1081 54.2206 42.7696 54.1884 42.5811 53.9593C42.3923 53.7303 42.4246 53.3912 42.6532 53.2024L42.6555 53.2004L45.5964 50.7949C45.8217 50.6111 46.153 50.6443 46.3368 50.8701C46.5201 51.0948 46.4875 51.4253 46.2645 51.6095L46.2447 51.626Z" fill="#FA541C"/>
<path fill-rule="evenodd" clip-rule="evenodd" d="M37.8793 59.1794C37.6592 59.3955 37.3063 59.3919 37.0905 59.1715C36.8751 58.951 36.8784 58.5974 37.0984 58.3816L37.1007 58.3793L39.8232 55.7352C40.0403 55.5243 40.3867 55.5299 40.5972 55.7471C40.8067 55.9636 40.8021 56.3092 40.5873 56.5201L37.8793 59.1794Z" fill="#FA541C"/>
<path fill-rule="evenodd" clip-rule="evenodd" d="M35.316 61.8921L32.829 64.7082L32.8165 64.7221C32.605 64.9616 32.2399 64.9841 32.0008 64.7722C31.762 64.5603 31.7396 64.1945 31.9511 63.9553L31.9531 63.953L34.4799 61.1217C34.6888 60.8874 35.0476 60.8673 35.2815 61.0766C35.5147 61.2855 35.5354 61.6434 35.3285 61.8777L35.316 61.8921Z" fill="#FA541C"/>
<path fill-rule="evenodd" clip-rule="evenodd" d="M30.4321 67.6035L28.1227 70.5693L28.1121 70.5831C27.9095 70.8434 27.5339 70.8899 27.2737 70.6866C27.0135 70.4833 26.9671 70.1073 27.1701 69.8466L27.1721 69.844L29.5183 66.8634C29.7189 66.608 30.0887 66.5642 30.3433 66.7656C30.5972 66.9662 30.6416 67.3347 30.4429 67.5897L30.4321 67.6035Z" fill="#FA541C"/>
<path fill-rule="evenodd" clip-rule="evenodd" d="M25.8985 73.5999L23.7565 76.6902L23.7469 76.7037C23.5525 76.9841 23.168 77.0536 22.8881 76.8589C22.6082 76.6642 22.5388 76.2789 22.7332 75.9985L22.7351 75.9959L24.912 72.8898C25.1048 72.615 25.4837 72.5484 25.758 72.7415C26.0317 72.9343 26.0981 73.3116 25.908 73.5864L25.8985 73.5999Z" fill="#FA541C"/>
<path fill-rule="evenodd" clip-rule="evenodd" d="M21.6932 79.8382L19.7127 83.0359L19.7045 83.0494C19.519 83.3486 19.1262 83.4409 18.8275 83.255C18.5286 83.0695 18.4368 82.676 18.622 82.3765L18.6236 82.3736L20.6376 79.1597C20.8218 78.8658 21.209 78.7768 21.5021 78.9616C21.7945 79.1452 21.8836 79.5311 21.7017 79.8247L21.6932 79.8382Z" fill="#FA541C"/>
<path fill-rule="evenodd" clip-rule="evenodd" d="M17.8128 86.2787L15.9935 89.5716L15.9856 89.5858C15.81 89.9037 15.4103 90.0184 15.0933 89.8428C14.7758 89.6668 14.661 89.2664 14.8367 88.9485L14.8383 88.9455L16.6905 85.6341C16.8655 85.3221 17.2593 85.211 17.5711 85.386C17.8816 85.5603 17.9928 85.9531 17.8207 86.2645L17.8128 86.2787Z" fill="#FA541C"/>
<path fill-rule="evenodd" clip-rule="evenodd" d="M12.6016 96.2892L12.594 96.3044C12.4299 96.6408 12.0247 96.7795 11.6892 96.6144C11.354 96.45 11.2152 96.044 11.3796 95.7083L11.3813 95.7046L13.0677 92.3046C13.2315 91.9741 13.6315 91.8393 13.9611 92.0034C14.2897 92.1668 14.4242 92.5653 14.263 92.8948L12.6016 96.2892Z" fill="#FA541C"/>
<path fill-rule="evenodd" clip-rule="evenodd" d="M11.0351 99.707L9.55824 103.166L9.55068 103.183C9.3997 103.538 8.99052 103.702 8.63725 103.55C8.28365 103.399 8.11985 102.989 8.27082 102.635L8.27246 102.632L9.78192 99.1465C9.93289 98.7982 10.3368 98.6383 10.6845 98.7896C11.0309 98.9402 11.1904 99.3429 11.0424 99.6902L11.0351 99.707Z" fill="#FA541C"/>
<path fill-rule="evenodd" clip-rule="evenodd" d="M8.17605 106.666L6.8962 110.201L6.88863 110.221C6.75377 110.593 6.34328 110.785 5.97192 110.65C5.60023 110.515 5.40847 110.104 5.543 109.732L5.54431 109.728L6.85738 106.161C6.99224 105.794 7.39781 105.607 7.76358 105.742C8.12803 105.877 8.31552 106.281 8.18296 106.646L8.17605 106.666Z" fill="#FA541C"/>
<path fill-rule="evenodd" clip-rule="evenodd" d="M5.72868 113.769L4.67908 117.374L4.67184 117.399C4.55803 117.789 4.14983 118.014 3.76005 117.9C3.37028 117.786 3.14628 117.377 3.26008 116.986L3.26075 116.983L4.34357 113.334C4.45804 112.95 4.86196 112.73 5.24581 112.845C5.62868 112.959 5.84709 113.361 5.73558 113.745L5.72868 113.769Z" fill="#FA541C"/>
<path fill-rule="evenodd" clip-rule="evenodd" d="M3.76123 121.013L2.99614 124.68L2.99088 124.706C2.90536 125.114 2.50604 125.376 2.0985 125.291C1.69063 125.205 1.42847 124.809 1.51367 124.4C1.76727 123.155 2.04521 121.915 2.30967 120.673C2.39552 120.27 2.79155 120.013 3.19383 120.098C3.59644 120.185 3.85301 120.581 3.76716 120.984L3.76123 121.013Z" fill="#FA541C"/>
<path fill-rule="evenodd" clip-rule="evenodd" d="M2.38594 128.374L1.94287 132.127C1.89452 132.537 1.52349 132.83 1.11398 132.782C0.704465 132.733 0.411718 132.363 0.46007 131.953L0.899847 128.163C0.947542 127.751 1.32021 127.456 1.7317 127.503C2.14352 127.551 2.43824 127.924 2.39054 128.337L2.39021 128.338L2.38594 128.374Z" fill="#FA541C"/>
<path fill-rule="evenodd" clip-rule="evenodd" d="M1.68911 135.828L1.62628 139.608C1.61937 140.017 1.28321 140.343 0.875017 140.336C0.466822 140.329 0.141516 139.994 0.148423 139.585L0.204671 135.765C0.210592 135.355 0.548068 135.026 0.958237 135.032C1.3684 135.038 1.69601 135.376 1.69009 135.788V135.789L1.68911 135.828Z" fill="#FA541C"/>
<path fill-rule="evenodd" clip-rule="evenodd" d="M1.76549 143.306L2.10955 147.027L2.1135 147.069C2.15067 147.472 1.85463 147.829 1.45235 147.866C1.05008 147.903 0.693844 147.608 0.656675 147.205L0.297813 143.402C0.259328 142.996 0.556024 142.637 0.960277 142.599C1.36453 142.56 1.72339 142.858 1.76155 143.263L1.76187 143.264L1.76549 143.306Z" fill="#FA541C"/>
<path fill-rule="evenodd" clip-rule="evenodd" d="M2.6621 150.723L3.4262 154.38L3.43475 154.42C3.51666 154.813 3.26569 155.197 2.87426 155.279C2.48284 155.361 2.09964 155.111 2.01773 154.719L1.2293 150.982C1.14641 150.588 1.39771 150.201 1.79111 150.118C2.18417 150.035 2.57033 150.287 2.65355 150.68L2.65388 150.682L2.6621 150.723Z" fill="#FA541C"/>
<path fill-rule="evenodd" clip-rule="evenodd" d="M4.40035 157.984L5.5904 161.569C5.71507 161.945 5.51179 162.352 5.13648 162.477C4.76085 162.602 4.35562 162.399 4.23095 162.023L3.02083 158.401C2.89485 158.023 3.09813 157.614 3.47541 157.488C3.85269 157.361 4.26088 157.565 4.38719 157.943L4.40035 157.984Z" fill="#FA541C"/>
<path fill-rule="evenodd" clip-rule="evenodd" d="M6.95302 165.008L8.5322 168.439C8.69601 168.795 8.54075 169.218 8.18518 169.382C7.82961 169.546 7.40858 169.392 7.24477 169.035L5.64257 165.572C5.47679 165.214 5.63237 164.79 5.98959 164.624C6.3468 164.458 6.77046 164.614 6.93624 164.971L6.93657 164.973L6.95302 165.008Z" fill="#FA541C"/>
<path fill-rule="evenodd" clip-rule="evenodd" d="M10.2548 171.714L12.1807 174.963C12.3783 175.297 12.2688 175.728 11.9356 175.926C11.6024 176.124 11.1725 176.016 10.9748 175.682L9.02428 172.407C8.82463 172.072 8.93416 171.638 9.26867 171.438C9.60319 171.238 10.0364 171.347 10.2361 171.683L10.2367 171.684L10.2548 171.714Z" fill="#FA541C"/>
<path fill-rule="evenodd" clip-rule="evenodd" d="M14.2261 178.057L16.4312 181.084L16.4493 181.109C16.6753 181.42 16.6075 181.855 16.2977 182.081C15.9882 182.307 15.5543 182.241 15.3283 181.93L13.0804 178.857C12.8528 178.545 12.9202 178.108 13.2311 177.88C13.5419 177.651 13.9787 177.719 14.2067 178.03L14.2077 178.032L14.2261 178.057Z" fill="#FA541C"/>
<path fill-rule="evenodd" clip-rule="evenodd" d="M18.7659 184.017L21.2201 186.85L21.2378 186.87C21.4865 187.157 21.4556 187.592 21.1691 187.841C20.8826 188.09 20.4497 188.06 20.201 187.773L17.7055 184.903C17.4548 184.615 17.4847 184.178 17.7726 183.927C18.06 183.676 18.4965 183.706 18.7468 183.994L18.7478 183.995L18.7659 184.017Z" fill="#FA541C"/>
<path fill-rule="evenodd" clip-rule="evenodd" d="M23.7828 189.588L26.4406 192.232L26.457 192.248C26.7234 192.513 26.7248 192.944 26.4606 193.211C26.1962 193.477 25.7669 193.48 25.5005 193.215L22.8039 190.543C22.5355 190.277 22.5332 189.844 22.7987 189.575C23.0638 189.306 23.4963 189.304 23.7647 189.57L23.7657 189.571L23.7828 189.588Z" fill="#FA541C"/>
<path fill-rule="evenodd" clip-rule="evenodd" d="M29.1888 194.787L32.0159 197.256L32.0314 197.269C32.311 197.514 32.3402 197.939 32.0962 198.219C31.8524 198.499 31.4291 198.53 31.1492 198.285L28.2862 195.795C28.0043 195.55 27.9741 195.122 28.2188 194.84C28.4635 194.558 28.8901 194.528 29.172 194.773L29.173 194.774L29.1888 194.787Z" fill="#FA541C"/>
<path fill-rule="evenodd" clip-rule="evenodd" d="M34.9163 199.638L37.8818 201.945L37.8957 201.955C38.1858 202.18 38.2384 202.599 38.0134 202.889C37.7884 203.18 37.372 203.233 37.0819 203.008L34.0837 200.686C33.7917 200.46 33.7377 200.039 33.9637 199.747C34.1893 199.454 34.609 199.4 34.9011 199.627L34.9021 199.627L34.9163 199.638Z" fill="#FA541C"/>
<path fill-rule="evenodd" clip-rule="evenodd" d="M40.9066 204.177L43.9853 206.334L43.9978 206.342C44.2952 206.551 44.3679 206.961 44.1597 207.259C43.9518 207.557 43.5433 207.631 43.2456 207.422L40.1372 205.254C39.8379 205.045 39.7639 204.632 39.9728 204.332C40.1813 204.032 40.5931 203.958 40.8928 204.167L40.8937 204.168L40.9066 204.177Z" fill="#FA541C"/>
<path fill-rule="evenodd" clip-rule="evenodd" d="M47.1136 208.431L50.2612 210.515C50.5611 210.712 50.645 211.116 50.4483 211.416C50.2516 211.717 49.848 211.8 49.5477 211.603L46.3916 209.523C46.0903 209.324 46.0068 208.918 46.2051 208.616C46.4035 208.314 46.8087 208.23 47.11 208.429L47.1136 208.431Z" fill="#FA541C"/>
<path fill-rule="evenodd" clip-rule="evenodd" d="M53.4156 212.589L56.5736 214.657C56.871 214.851 56.9548 215.25 56.7611 215.547C56.5674 215.845 56.17 215.929 55.873 215.735L52.709 213.673C52.41 213.478 52.3252 213.077 52.5199 212.778C52.7146 212.478 53.1146 212.393 53.4136 212.588L53.4156 212.589Z" fill="#FA541C"/>
<path fill-rule="evenodd" clip-rule="evenodd" d="M59.7347 216.724L62.892 218.793C63.1857 218.985 63.268 219.378 63.0762 219.673C62.8841 219.967 62.4911 220.049 62.1977 219.857L59.0377 217.796C58.7416 217.604 58.6574 217.207 58.8495 216.911C59.0416 216.614 59.437 216.53 59.733 216.722L59.7347 216.724Z" fill="#FA541C"/>
<path fill-rule="evenodd" clip-rule="evenodd" d="M66.0456 220.869L69.1911 222.956C69.4799 223.148 69.5588 223.538 69.3677 223.827C69.1763 224.117 68.7859 224.195 68.4967 224.004L65.3519 221.925C65.0601 221.734 64.9782 221.342 65.169 221.05C65.3594 220.758 65.7508 220.676 66.0426 220.867L66.0456 220.869Z" fill="#FA541C"/>
<path fill-rule="evenodd" clip-rule="evenodd" d="M72.3239 225.059L75.4451 227.183C75.7283 227.376 75.8019 227.762 75.6095 228.046C75.4174 228.329 75.0319 228.403 74.7487 228.21L74.7458 228.208L71.6275 226.096L71.6243 226.093C71.3387 225.9 71.2641 225.512 71.4568 225.226C71.6499 224.94 72.0374 224.865 72.3229 225.059L72.3239 225.059Z" fill="#FA541C"/>
<path fill-rule="evenodd" clip-rule="evenodd" d="M78.5563 229.334L81.6453 231.514C81.9216 231.709 81.9877 232.092 81.793 232.368C81.5983 232.646 81.2164 232.712 80.9397 232.517L80.9358 232.514L77.8524 230.347L77.8475 230.344C77.5692 230.148 77.5018 229.763 77.6972 229.484C77.8926 229.205 78.2768 229.137 78.5554 229.333L78.5563 229.334Z" fill="#FA541C"/>
<path fill-rule="evenodd" clip-rule="evenodd" d="M84.706 233.725L87.7437 235.974C88.0124 236.173 88.069 236.552 87.8703 236.821C87.672 237.091 87.2934 237.148 87.0247 236.949L87.0191 236.945L83.99 234.711L83.9837 234.707C83.713 234.507 83.6548 234.126 83.8541 233.854C84.0535 233.583 84.4344 233.525 84.7051 233.724L84.706 233.725Z" fill="#FA541C"/>
<path fill-rule="evenodd" clip-rule="evenodd" d="M90.7548 238.261L93.7316 240.597C93.9911 240.801 94.0368 241.177 93.8332 241.437C93.63 241.698 93.2543 241.743 92.9948 241.54L92.9882 241.535L90.0213 239.216L90.0144 239.21C89.7526 239.006 89.7059 238.627 89.9102 238.365C90.1141 238.103 90.492 238.056 90.7539 238.261L90.7548 238.261Z" fill="#FA541C"/>
<path fill-rule="evenodd" clip-rule="evenodd" d="M96.6736 242.97L99.5902 245.372C99.8418 245.58 99.8783 245.952 99.6714 246.204C99.4645 246.456 99.0928 246.493 98.8409 246.286L98.8363 246.282L95.9256 243.894L95.9203 243.89C95.6667 243.682 95.6292 243.307 95.8371 243.053C96.0446 242.799 96.419 242.761 96.6726 242.969L96.6736 242.97Z" fill="#FA541C"/>
<path fill-rule="evenodd" clip-rule="evenodd" d="M102.481 247.818L105.332 250.308C105.574 250.519 105.599 250.888 105.388 251.131C105.177 251.374 104.809 251.399 104.566 251.187L104.559 251.181L101.719 248.71L101.711 248.704C101.467 248.492 101.44 248.121 101.653 247.876C101.865 247.631 102.235 247.605 102.48 247.817L102.481 247.818Z" fill="#FA541C"/>
<path fill-rule="evenodd" clip-rule="evenodd" d="M108.137 252.847L110.891 255.447C111.122 255.665 111.133 256.03 110.915 256.262C110.697 256.493 110.334 256.504 110.102 256.286L110.094 256.278L107.353 253.7L107.344 253.691C107.111 253.471 107.099 253.105 107.318 252.872C107.537 252.638 107.903 252.627 108.136 252.846L108.137 252.847Z" fill="#FA541C"/>
<path fill-rule="evenodd" clip-rule="evenodd" d="M113.586 258.115L116.21 260.852C116.427 261.079 116.42 261.439 116.193 261.656C115.967 261.874 115.608 261.866 115.391 261.64L115.381 261.629L112.773 258.921L112.762 258.909C112.543 258.682 112.55 258.319 112.777 258.1C113.004 257.881 113.366 257.887 113.585 258.115L113.586 258.115Z" fill="#FA541C"/>
<path fill-rule="evenodd" clip-rule="evenodd" d="M118.752 263.666L121.205 266.562C121.405 266.798 121.376 267.153 121.14 267.353C120.904 267.553 120.551 267.524 120.35 267.288L120.339 267.274L117.905 264.412L117.893 264.398C117.691 264.16 117.719 263.804 117.956 263.601C118.193 263.399 118.549 263.428 118.751 263.665L118.752 263.666Z" fill="#FA541C"/>
<path fill-rule="evenodd" clip-rule="evenodd" d="M123.555 269.544L125.787 272.618C125.966 272.866 125.912 273.211 125.665 273.391C125.418 273.571 125.073 273.517 124.893 273.269L124.88 273.252L122.67 270.218L122.656 270.2C122.475 269.951 122.53 269.602 122.778 269.421C123.026 269.239 123.374 269.294 123.555 269.542L123.555 269.544Z" fill="#FA541C"/>
<path fill-rule="evenodd" clip-rule="evenodd" d="M127.885 275.79L129.834 279.055C129.988 279.314 129.904 279.65 129.646 279.804C129.388 279.959 129.053 279.875 128.898 279.616L128.885 279.594L126.957 276.378L126.944 276.356C126.787 276.096 126.871 275.758 127.131 275.601C127.391 275.445 127.728 275.53 127.885 275.79Z" fill="#FA541C"/>
<path fill-rule="evenodd" clip-rule="evenodd" d="M131.615 282.413L133.21 285.869C133.333 286.135 133.217 286.451 132.951 286.575C132.685 286.698 132.371 286.583 132.247 286.318L132.234 286.291L130.647 282.898L130.634 282.871C130.507 282.6 130.624 282.277 130.894 282.15C131.165 282.023 131.487 282.14 131.614 282.411L131.615 282.413Z" fill="#FA541C"/>
<path fill-rule="evenodd" clip-rule="evenodd" d="M134.606 289.413L135.787 293.032C135.874 293.301 135.728 293.589 135.46 293.677C135.194 293.764 134.907 293.619 134.818 293.353L134.808 293.323L133.627 289.77L133.618 289.739C133.527 289.466 133.674 289.171 133.947 289.08C134.22 288.989 134.515 289.137 134.606 289.41L134.606 289.413Z" fill="#FA541C"/>
<path fill-rule="evenodd" clip-rule="evenodd" d="M136.738 296.719L137.456 300.458C137.507 300.725 137.333 300.982 137.067 301.035C136.803 301.084 136.547 300.913 136.495 300.646L136.489 300.616L135.763 296.942L135.757 296.911C135.703 296.639 135.879 296.375 136.15 296.322C136.421 296.268 136.684 296.445 136.738 296.716L136.738 296.719Z" fill="#FA541C"/>
<path fill-rule="evenodd" clip-rule="evenodd" d="M137.935 304.235L138.168 308.038C138.184 308.299 137.988 308.523 137.729 308.536C137.472 308.552 137.25 308.358 137.233 308.101L137.231 308.071L136.978 304.298C136.961 304.034 137.16 303.804 137.424 303.787C137.689 303.771 137.917 303.969 137.935 304.235Z" fill="#FA541C"/>
<path fill-rule="evenodd" clip-rule="evenodd" d="M138.139 311.854L137.863 315.644C137.845 315.891 137.63 316.075 137.383 316.059C137.138 316.042 136.953 315.828 136.969 315.581L136.971 315.558L137.223 311.814L137.225 311.791C137.242 311.538 137.46 311.347 137.713 311.363C137.965 311.379 138.156 311.6 138.139 311.851L138.139 311.854Z" fill="#FA541C"/>
<path fill-rule="evenodd" clip-rule="evenodd" d="M137.41 319.414L136.792 323.16C136.754 323.394 136.534 323.553 136.301 323.513C136.07 323.473 135.912 323.256 135.949 323.025L135.952 323.006L136.543 319.292L136.546 319.272C136.584 319.035 136.808 318.87 137.047 318.91C137.285 318.949 137.448 319.173 137.41 319.41L137.41 319.414Z" fill="#FA541C"/>
<path fill-rule="evenodd" clip-rule="evenodd" d="M136.008 326.877L135.045 330.555C134.988 330.772 134.766 330.901 134.549 330.845C134.333 330.789 134.203 330.568 134.259 330.35L134.264 330.327L135.196 326.69L135.202 326.67C135.259 326.446 135.486 326.311 135.708 326.367C135.931 326.426 136.065 326.653 136.008 326.877Z" fill="#FA541C"/>
<path fill-rule="evenodd" clip-rule="evenodd" d="M133.873 334.173L132.444 337.705C132.364 337.9 132.14 337.995 131.943 337.916C131.746 337.837 131.651 337.613 131.729 337.415L133.127 333.906L133.139 333.876C133.22 333.672 133.45 333.573 133.653 333.656C133.856 333.738 133.955 333.969 133.874 334.17L133.873 334.173Z" fill="#FA541C"/>
<path fill-rule="evenodd" clip-rule="evenodd" d="M130.692 341.097C130.044 342.194 129.326 343.255 128.517 344.251C128.39 344.406 128.16 344.429 128.004 344.303C127.848 344.175 127.825 343.947 127.951 343.789C128.727 342.827 129.419 341.792 130.045 340.718C130.15 340.537 130.379 340.478 130.558 340.583C130.737 340.685 130.798 340.916 130.693 341.097H130.692Z" fill="#FA541C"/>
<path fill-rule="evenodd" clip-rule="evenodd" d="M125.787 346.965C124.773 347.762 123.643 348.428 122.425 348.883C122.247 348.949 122.049 348.856 121.983 348.679C121.917 348.501 122.007 348.303 122.184 348.237C123.325 347.805 124.388 347.173 125.348 346.408C125.502 346.286 125.725 346.313 125.846 346.464C125.968 346.619 125.942 346.843 125.789 346.965H125.787Z" fill="#FA541C"/>
</g>
</g>
<defs>
<clipPath id="clip0_17958_10564">
<rect width="640" height="481.103" fill="white" transform="translate(0 0.447754)"/>
</clipPath>
</defs>
</svg>
