<svg width="83" height="64" viewBox="0 0 83 64" fill="none" xmlns="http://www.w3.org/2000/svg">
<path d="M7.2 17.544C7.36 17.448 7.6 17.4 7.92 17.4H13.728C13.888 17.4 14.016 17.464 14.112 17.592C14.24 17.688 14.304 17.816 14.304 17.976V50.424C14.304 50.584 14.24 50.728 14.112 50.856C14.016 50.952 13.888 51 13.728 51H8.112C7.952 51 7.808 50.952 7.68 50.856C7.584 50.728 7.536 50.584 7.536 50.424V24.12C7.536 24.056 7.504 23.992 7.44 23.928C7.376 23.864 7.312 23.848 7.248 23.88L2.496 25.176L2.304 25.224C2.016 25.224 1.872 25.048 1.872 24.696L1.728 20.568C1.728 20.248 1.872 20.024 2.16 19.896L7.2 17.544ZM40.5368 35.688C41.0168 37.256 41.2568 38.776 41.2568 40.248C41.2568 41.88 41.0008 43.352 40.4888 44.664C39.7528 46.712 38.4568 48.344 36.6008 49.56C34.7448 50.744 32.5688 51.336 30.0728 51.336C27.6408 51.336 25.4968 50.76 23.6408 49.608C21.8168 48.424 20.5208 46.824 19.7528 44.808C19.4328 43.976 19.1928 43.096 19.0328 42.168V42.072C19.0328 41.72 19.2248 41.544 19.6088 41.544H25.4168C25.7368 41.544 25.9448 41.72 26.0408 42.072C26.0728 42.264 26.1208 42.424 26.1848 42.552C26.2488 42.68 26.2968 42.792 26.3288 42.888C26.6488 43.72 27.1288 44.36 27.7688 44.808C28.4088 45.256 29.1608 45.48 30.0248 45.48C30.9208 45.48 31.7048 45.24 32.3768 44.76C33.0488 44.28 33.5448 43.608 33.8648 42.744C34.1848 42.104 34.3448 41.272 34.3448 40.248C34.3448 39.32 34.2008 38.488 33.9128 37.752C33.6888 36.92 33.2408 36.28 32.5688 35.832C31.8968 35.384 31.1128 35.16 30.2168 35.16C29.3208 35.16 28.4888 35.368 27.7208 35.784C26.9528 36.2 26.4408 36.744 26.1848 37.416C26.0888 37.736 25.8808 37.896 25.5608 37.896H19.6568C19.4968 37.896 19.3528 37.848 19.2248 37.752C19.1288 37.624 19.0808 37.48 19.0808 37.32V17.976C19.0808 17.816 19.1288 17.688 19.2248 17.592C19.3528 17.464 19.4968 17.4 19.6568 17.4H39.4808C39.6408 17.4 39.7688 17.464 39.8648 17.592C39.9928 17.688 40.0568 17.816 40.0568 17.976V22.632C40.0568 22.792 39.9928 22.936 39.8648 23.064C39.7688 23.16 39.6408 23.208 39.4808 23.208H26.0888C25.9288 23.208 25.8488 23.288 25.8488 23.448L25.8008 30.552C25.8008 30.776 25.8968 30.824 26.0888 30.696C27.5288 29.768 29.1928 29.304 31.0807 29.304C33.3208 29.304 35.2728 29.88 36.9368 31.032C38.6328 32.152 39.8328 33.704 40.5368 35.688ZM56.4758 51.528C52.9558 51.528 50.1718 50.552 48.1238 48.6C46.0758 46.616 45.0518 43.928 45.0518 40.536V27.864C45.0518 24.536 46.0758 21.896 48.1238 19.944C50.1718 17.992 52.9558 17.016 56.4758 17.016C59.9958 17.016 62.7798 17.992 64.8278 19.944C66.9078 21.896 67.9478 24.536 67.9478 27.864V40.536C67.9478 43.928 66.9078 46.616 64.8278 48.6C62.7798 50.552 59.9958 51.528 56.4758 51.528ZM56.4758 45.72C57.9158 45.72 59.0518 45.288 59.8838 44.424C60.7478 43.528 61.1798 42.344 61.1798 40.872V27.672C61.1798 26.2 60.7478 25.032 59.8838 24.168C59.0518 23.272 57.9158 22.824 56.4758 22.824C55.0678 22.824 53.9318 23.272 53.0678 24.168C52.2358 25.032 51.8198 26.2 51.8198 27.672V40.872C51.8198 42.344 52.2358 43.528 53.0678 44.424C53.9318 45.288 55.0678 45.72 56.4758 45.72Z" fill="#212B36"/>
<path d="M81.68 19.336C81.76 19.336 81.824 19.368 81.872 19.432C81.936 19.48 81.968 19.544 81.968 19.624V21.952C81.968 22.032 81.936 22.104 81.872 22.168C81.824 22.216 81.76 22.24 81.68 22.24H78.392C78.312 22.24 78.272 22.28 78.272 22.36V25.6C78.272 25.68 78.24 25.752 78.176 25.816C78.128 25.864 78.064 25.888 77.984 25.888H75.68C75.6 25.888 75.528 25.864 75.464 25.816C75.416 25.752 75.392 25.68 75.392 25.6V22.36C75.392 22.28 75.352 22.24 75.272 22.24H71.984C71.904 22.24 71.832 22.216 71.768 22.168C71.72 22.104 71.696 22.032 71.696 21.952V19.624C71.696 19.544 71.72 19.48 71.768 19.432C71.832 19.368 71.904 19.336 71.984 19.336H75.272C75.352 19.336 75.392 19.296 75.392 19.216V15.904C75.392 15.824 75.416 15.76 75.464 15.712C75.528 15.648 75.6 15.616 75.68 15.616H77.984C78.064 15.616 78.128 15.648 78.176 15.712C78.24 15.76 78.272 15.824 78.272 15.904V19.216C78.272 19.296 78.312 19.336 78.392 19.336H81.68Z" fill="#FA541C"/>
</svg>
