<svg width="91" height="64" viewBox="0 0 91 64" fill="none" xmlns="http://www.w3.org/2000/svg">
<path d="M22.896 34.968C23.536 36.44 23.856 38.136 23.856 40.056C23.856 41.784 23.568 43.384 22.992 44.856C22.224 46.904 20.928 48.504 19.104 49.656C17.312 50.808 15.184 51.384 12.72 51.384C10.288 51.384 8.144 50.776 6.288 49.56C4.464 48.344 3.152 46.696 2.352 44.616C1.904 43.368 1.648 42.024 1.584 40.584C1.584 40.2 1.776 40.008 2.16 40.008H7.824C8.208 40.008 8.4 40.2 8.4 40.584C8.528 41.64 8.704 42.424 8.928 42.936C9.216 43.768 9.68 44.424 10.32 44.904C10.992 45.352 11.776 45.576 12.672 45.576C14.464 45.576 15.696 44.792 16.368 43.224C16.816 42.264 17.04 41.144 17.04 39.864C17.04 38.36 16.8 37.128 16.32 36.168C15.584 34.664 14.352 33.912 12.624 33.912C12.272 33.912 11.904 34.024 11.52 34.248C11.136 34.44 10.672 34.728 10.128 35.112C10 35.208 9.872 35.256 9.744 35.256C9.552 35.256 9.408 35.16 9.312 34.968L6.48 30.984C6.416 30.888 6.384 30.776 6.384 30.648C6.384 30.456 6.448 30.296 6.576 30.168L14.208 23.496C14.272 23.432 14.288 23.368 14.256 23.304C14.256 23.24 14.208 23.208 14.112 23.208H2.832C2.672 23.208 2.528 23.16 2.4 23.064C2.304 22.936 2.256 22.792 2.256 22.632V17.976C2.256 17.816 2.304 17.688 2.4 17.592C2.528 17.464 2.672 17.4 2.832 17.4H22.848C23.008 17.4 23.136 17.464 23.232 17.592C23.36 17.688 23.424 17.816 23.424 17.976V23.256C23.424 23.512 23.312 23.752 23.088 23.976L16.8 29.736C16.736 29.8 16.704 29.864 16.704 29.928C16.736 29.992 16.816 30.024 16.944 30.024C19.728 30.568 21.712 32.216 22.896 34.968ZM37.1059 44.904C37.0419 44.968 37.0259 45.032 37.0579 45.096C37.0899 45.16 37.1539 45.192 37.2499 45.192H50.2579C50.4179 45.192 50.5459 45.256 50.6419 45.384C50.7699 45.48 50.8339 45.608 50.8339 45.768V50.424C50.8339 50.584 50.7699 50.728 50.6419 50.856C50.5459 50.952 50.4179 51 50.2579 51H28.6579C28.4979 51 28.3539 50.952 28.2259 50.856C28.1299 50.728 28.0819 50.584 28.0819 50.424V46.008C28.0819 45.72 28.1779 45.48 28.3699 45.288C29.9379 43.752 31.5379 42.088 33.1699 40.296C34.8019 38.472 35.8259 37.336 36.2419 36.888C37.1379 35.832 38.0499 34.824 38.9779 33.864C41.8899 30.632 43.3459 28.232 43.3459 26.664C43.3459 25.544 42.9459 24.632 42.1459 23.928C41.3459 23.192 40.3059 22.824 39.0259 22.824C37.7459 22.824 36.7059 23.192 35.9059 23.928C35.1059 24.632 34.7059 25.576 34.7059 26.76V27.96C34.7059 28.12 34.6419 28.264 34.5139 28.392C34.4179 28.488 34.2899 28.536 34.1299 28.536H28.4659C28.3059 28.536 28.1619 28.488 28.0339 28.392C27.9379 28.264 27.8899 28.12 27.8899 27.96V25.704C27.9859 23.976 28.5299 22.456 29.5219 21.144C30.5139 19.8 31.8259 18.776 33.4579 18.072C35.1219 17.368 36.9779 17.016 39.0259 17.016C41.2979 17.016 43.2659 17.448 44.9299 18.312C46.6259 19.144 47.9219 20.28 48.8179 21.72C49.7459 23.16 50.2099 24.76 50.2099 26.52C50.2099 27.864 49.8739 29.24 49.2019 30.648C48.5299 32.056 47.5219 33.576 46.1779 35.208C45.1859 36.456 44.1139 37.688 42.9619 38.904C41.8099 40.12 40.0979 41.88 37.8259 44.184L37.1059 44.904ZM55.8533 51C55.6933 51 55.5493 50.952 55.4213 50.856C55.3253 50.728 55.2773 50.584 55.2773 50.424V17.976C55.2773 17.816 55.3253 17.688 55.4213 17.592C55.5493 17.464 55.6933 17.4 55.8533 17.4H61.4693C61.6293 17.4 61.7573 17.464 61.8533 17.592C61.9813 17.688 62.0453 17.816 62.0453 17.976V34.152C62.0453 34.248 62.0773 34.312 62.1413 34.344C62.2053 34.344 62.2693 34.312 62.3333 34.248L68.8613 26.664C69.0853 26.44 69.3253 26.328 69.5813 26.328H75.9653C76.2853 26.328 76.4453 26.44 76.4453 26.664C76.4453 26.76 76.3973 26.888 76.3013 27.048L70.2053 34.776C70.1413 34.904 70.1253 35.016 70.1573 35.112L77.3093 50.328C77.3733 50.456 77.4053 50.552 77.4053 50.616C77.4053 50.872 77.2293 51 76.8773 51H70.9733C70.6533 51 70.4293 50.856 70.3013 50.568L65.5493 39.336C65.5173 39.272 65.4533 39.24 65.3573 39.24C65.2933 39.208 65.2453 39.224 65.2133 39.288L62.1413 43.128C62.0773 43.256 62.0453 43.352 62.0453 43.416V50.424C62.0453 50.584 61.9813 50.728 61.8533 50.856C61.7573 50.952 61.6293 51 61.4693 51H55.8533Z" fill="#212B36"/>
<path d="M89.68 19.336C89.76 19.336 89.824 19.368 89.872 19.432C89.936 19.48 89.968 19.544 89.968 19.624V21.952C89.968 22.032 89.936 22.104 89.872 22.168C89.824 22.216 89.76 22.24 89.68 22.24H86.392C86.312 22.24 86.272 22.28 86.272 22.36V25.6C86.272 25.68 86.24 25.752 86.176 25.816C86.128 25.864 86.064 25.888 85.984 25.888H83.68C83.6 25.888 83.528 25.864 83.464 25.816C83.416 25.752 83.392 25.68 83.392 25.6V22.36C83.392 22.28 83.352 22.24 83.272 22.24H79.984C79.904 22.24 79.832 22.216 79.768 22.168C79.72 22.104 79.696 22.032 79.696 21.952V19.624C79.696 19.544 79.72 19.48 79.768 19.432C79.832 19.368 79.904 19.336 79.984 19.336H83.272C83.352 19.336 83.392 19.296 83.392 19.216V15.904C83.392 15.824 83.416 15.76 83.464 15.712C83.528 15.648 83.6 15.616 83.68 15.616H85.984C86.064 15.616 86.128 15.648 86.176 15.712C86.24 15.76 86.272 15.824 86.272 15.904V19.216C86.272 19.296 86.312 19.336 86.392 19.336H89.68Z" fill="#FA541C"/>
</svg>
