<svg width="67" height="64" viewBox="0 0 67 64" fill="none" xmlns="http://www.w3.org/2000/svg">
<path d="M11.184 44.904C11.12 44.968 11.104 45.032 11.136 45.096C11.168 45.16 11.232 45.192 11.328 45.192H24.336C24.496 45.192 24.624 45.256 24.72 45.384C24.848 45.48 24.912 45.608 24.912 45.768V50.424C24.912 50.584 24.848 50.728 24.72 50.856C24.624 50.952 24.496 51 24.336 51H2.736C2.576 51 2.432 50.952 2.304 50.856C2.208 50.728 2.16 50.584 2.16 50.424V46.008C2.16 45.72 2.256 45.48 2.448 45.288C4.016 43.752 5.616 42.088 7.248 40.296C8.88 38.472 9.904 37.336 10.32 36.888C11.216 35.832 12.128 34.824 13.056 33.864C15.968 30.632 17.424 28.232 17.424 26.664C17.424 25.544 17.024 24.632 16.224 23.928C15.424 23.192 14.384 22.824 13.104 22.824C11.824 22.824 10.784 23.192 9.984 23.928C9.184 24.632 8.784 25.576 8.784 26.76V27.96C8.784 28.12 8.72 28.264 8.592 28.392C8.496 28.488 8.368 28.536 8.208 28.536H2.544C2.384 28.536 2.24 28.488 2.112 28.392C2.016 28.264 1.968 28.12 1.968 27.96V25.704C2.064 23.976 2.608 22.456 3.6 21.144C4.592 19.8 5.904 18.776 7.536 18.072C9.2 17.368 11.056 17.016 13.104 17.016C15.376 17.016 17.344 17.448 19.008 18.312C20.704 19.144 22 20.28 22.896 21.72C23.824 23.16 24.288 24.76 24.288 26.52C24.288 27.864 23.952 29.24 23.28 30.648C22.608 32.056 21.6 33.576 20.256 35.208C19.264 36.456 18.192 37.688 17.04 38.904C15.888 40.12 14.176 41.88 11.904 44.184L11.184 44.904ZM40.4914 51.528C36.9714 51.528 34.1874 50.552 32.1394 48.6C30.0914 46.616 29.0674 43.928 29.0674 40.536V27.864C29.0674 24.536 30.0914 21.896 32.1394 19.944C34.1874 17.992 36.9714 17.016 40.4914 17.016C44.0114 17.016 46.7954 17.992 48.8434 19.944C50.9234 21.896 51.9634 24.536 51.9634 27.864V40.536C51.9634 43.928 50.9234 46.616 48.8434 48.6C46.7954 50.552 44.0114 51.528 40.4914 51.528ZM40.4914 45.72C41.9314 45.72 43.0674 45.288 43.8994 44.424C44.7634 43.528 45.1954 42.344 45.1954 40.872V27.672C45.1954 26.2 44.7634 25.032 43.8994 24.168C43.0674 23.272 41.9314 22.824 40.4914 22.824C39.0834 22.824 37.9474 23.272 37.0834 24.168C36.2514 25.032 35.8354 26.2 35.8354 27.672V40.872C35.8354 42.344 36.2514 43.528 37.0834 44.424C37.9474 45.288 39.0834 45.72 40.4914 45.72Z" fill="#212B36"/>
<path d="M65.68 19.336C65.76 19.336 65.824 19.368 65.872 19.432C65.936 19.48 65.968 19.544 65.968 19.624V21.952C65.968 22.032 65.936 22.104 65.872 22.168C65.824 22.216 65.76 22.24 65.68 22.24H62.392C62.312 22.24 62.272 22.28 62.272 22.36V25.6C62.272 25.68 62.24 25.752 62.176 25.816C62.128 25.864 62.064 25.888 61.984 25.888H59.68C59.6 25.888 59.528 25.864 59.464 25.816C59.416 25.752 59.392 25.68 59.392 25.6V22.36C59.392 22.28 59.352 22.24 59.272 22.24H55.984C55.904 22.24 55.832 22.216 55.768 22.168C55.72 22.104 55.696 22.032 55.696 21.952V19.624C55.696 19.544 55.72 19.48 55.768 19.432C55.832 19.368 55.904 19.336 55.984 19.336H59.272C59.352 19.336 59.392 19.296 59.392 19.216V15.904C59.392 15.824 59.416 15.76 59.464 15.712C59.528 15.648 59.6 15.616 59.68 15.616H61.984C62.064 15.616 62.128 15.648 62.176 15.712C62.24 15.76 62.272 15.824 62.272 15.904V19.216C62.272 19.296 62.312 19.336 62.392 19.336H65.68Z" fill="#FA541C"/>
</svg>
