<svg width="64" height="64" viewBox="0 0 64 64" fill="none" xmlns="http://www.w3.org/2000/svg">
<path d="M62.1709 27.5218L55.7509 22.6677V1.25C55.7509 0.559624 55.1912 0 54.5009 0H9.50096C8.81058 0 8.25096 0.559624 8.25096 1.25V22.6678L1.67372 27.6408C0.627225 28.4307 0.00185156 29.6824 0.000976562 30.9901V59.799C0.000976562 62.1155 1.8856 64 4.20197 64H59.7997C62.1162 64 64.0007 62.1154 64.0007 59.799V30.9901C64.0009 29.6003 63.3175 28.3068 62.1709 27.5218ZM2.50097 37.3421L14.0372 46.0644L2.50097 54.7869V37.3421ZM16.1097 44.4973L15.7511 44.2262V7.50011H48.2508V44.2262L47.8921 44.4973L34.6083 34.4534C33.8512 33.8818 32.9507 33.5798 32.0058 33.5798C32.0034 33.5798 32.0008 33.5798 31.9982 33.5798C31.0513 33.5798 30.1507 33.8819 29.3929 34.4541L16.1097 44.4973ZM61.5009 37.3421V54.7866L49.9648 46.0643L61.5009 37.3421ZM60.6887 29.5354C60.7074 29.5496 60.7265 29.5631 60.7459 29.5762C61.2186 29.8937 61.5009 30.4222 61.5009 30.9902V34.2081L55.7509 38.5555V25.8019L60.6887 29.5354ZM53.2509 2.49999V40.4455L50.7508 42.3359V6.25011C50.7508 5.55974 50.1911 5.00011 49.5008 5.00011H14.5011C13.8107 5.00011 13.2511 5.55974 13.2511 6.25011V42.3359L10.751 40.4455V2.49999H53.2509ZM3.18072 29.6356L8.25096 25.8019V38.5553L2.50097 34.2078V30.9909C2.50135 30.4554 2.74885 29.9616 3.18072 29.6356ZM59.7997 61.5H4.20197C3.26397 61.5 2.50097 60.737 2.50097 59.799V57.921L30.8999 36.4487C31.2197 36.2073 31.5993 36.0798 32.0003 36.0798H32.0035C32.4024 36.0798 32.7822 36.2074 33.101 36.4482L61.5007 57.9209V59.799C61.5009 60.737 60.7377 61.5 59.7997 61.5Z" fill="#22B8CF"/>
<path d="M30.7796 27.5121L33.4314 30.1639C34.649 31.2906 36.3256 29.6125 35.1992 28.396L32.5641 25.7609C34.9695 23.5415 36.8574 22.6335 40.6146 21.0781C41.0004 20.9184 41.281 20.5766 41.3624 20.1671C41.4439 19.7576 41.3155 19.3344 41.0204 19.0392L33.0652 11.0841C32.77 10.7889 32.3465 10.6604 31.9374 10.7421C31.5279 10.8236 31.1861 11.1041 31.0264 11.4899C29.2827 15.7017 28.3525 17.5646 25.4762 20.4409L23.7085 22.2087C22.2465 23.6709 22.2465 26.0499 23.7085 27.512L24.5924 28.3959C25.9834 29.8466 28.5046 29.8465 29.8956 28.3959L30.7796 27.5121ZM32.6115 14.1661L37.9384 19.493C35.2312 20.6662 33.2087 21.7637 30.7964 23.9932L28.1112 21.3081C30.3409 18.8957 31.4384 16.8731 32.6115 14.1661ZM28.1279 26.6281C27.6675 27.109 26.8206 27.109 26.3602 26.6281L25.4764 25.7442C24.989 25.2569 24.989 24.4639 25.4764 23.9765L26.3602 23.0926L29.0119 25.7442L28.1279 26.6281Z" fill="#22B8CF"/>
</svg>
