<svg width="64" height="64" viewBox="0 0 64 64" fill="none" xmlns="http://www.w3.org/2000/svg">
<path d="M26.6807 4.27972C14.3142 4.27972 4.28919 14.3047 4.28919 26.6712C4.28919 39.0377 14.3142 49.0627 26.6807 49.0627C39.0472 49.0627 49.0722 39.0377 49.0722 26.6712C49.0587 14.3103 39.0416 4.29318 26.6807 4.27972ZM26.6807 6.41225C33.267 6.41745 39.4389 9.62743 43.2248 15.017L40.5592 17.6826C39.9105 17.2901 39.1678 17.0801 38.4096 17.0749C36.0541 17.0749 34.1445 18.9844 34.1445 21.3399C34.1483 22.099 34.3571 22.8428 34.7491 23.4927L27.7672 30.4746C26.4452 29.6685 24.7837 29.6685 23.4617 30.4746L18.6123 25.6252C19.0043 24.9753 19.2131 24.2315 19.2169 23.4724C19.2198 21.1216 17.3165 19.2135 14.9657 19.2106C13.0215 19.2082 11.3228 20.5233 10.8382 22.4062H6.88234C8.90117 13.0835 17.1419 6.42624 26.6807 6.41225ZM40.5421 21.3399C40.5421 22.5177 39.5874 23.4724 38.4096 23.4724C37.2318 23.4724 36.2771 22.5177 36.2771 21.3399C36.2771 20.1621 37.2318 19.2074 38.4096 19.2074C39.5874 19.2074 40.5421 20.1621 40.5421 21.3399ZM27.747 34.1351C27.747 35.3129 26.7923 36.2676 25.6144 36.2676C24.4366 36.2676 23.4819 35.3129 23.4819 34.1351C23.4819 32.9572 24.4366 32.0025 25.6144 32.0025C26.7923 32.0025 27.747 32.9572 27.747 34.1351ZM17.0843 23.4724C17.0843 24.6503 16.1296 25.605 14.9518 25.605C13.774 25.605 12.8193 24.6503 12.8193 23.4724C12.8193 22.2946 13.774 21.3399 14.9518 21.3399C16.1296 21.3399 17.0843 22.2946 17.0843 23.4724ZM36.5242 44.3853C33.513 46.0572 30.125 46.9332 26.6807 46.9301C15.4996 46.9377 6.42931 37.8799 6.42171 26.6988C6.42118 25.9772 6.4593 25.256 6.5358 24.5386H10.8382C11.3229 26.4159 13.0129 27.73 14.9518 27.7374C15.7109 27.7336 16.4547 27.5248 17.1046 27.1328L21.954 31.9822C21.562 32.632 21.3531 33.3759 21.3494 34.1349C21.3494 36.4904 23.2589 38.4 25.6144 38.4C27.9699 38.4 29.8795 36.4904 29.8795 34.1349C29.8758 33.3759 29.6669 32.632 29.2749 31.9822L36.2568 25.0003C36.9067 25.3923 37.6505 25.6011 38.4096 25.6048C40.7651 25.6048 42.6746 23.6953 42.6746 21.3398C42.6709 20.5807 42.462 19.8369 42.0701 19.187L44.3945 16.8636C49.8211 26.637 46.2974 38.9588 36.5242 44.3853Z" fill="#0CD66E"/>
<path d="M53.3372 10.677C55.2761 10.6697 56.9661 9.35567 57.4509 7.47825H63.9998V5.34572H57.4509C56.9661 3.4683 55.2761 2.15427 53.3372 2.14694C50.9817 2.14694 49.0722 4.05648 49.0722 6.41198C49.0759 7.17103 49.2847 7.91488 49.6767 8.56477L47.8033 10.4382C38.8394 -1.24018 22.1055 -3.44068 10.4271 5.52326C-1.25129 14.4872 -3.45179 31.2212 5.51215 42.8996C13.9735 53.923 29.4837 56.5971 41.1477 49.0433L54.4568 62.3524C56.6398 64.5354 60.179 64.5354 62.3621 62.3524C64.5451 60.1693 64.5451 56.6301 62.3621 54.4471L49.053 41.138C54.7653 32.3392 54.7653 21.0029 49.053 12.2039L51.1855 10.0714C51.835 10.4635 52.5786 10.6728 53.3372 10.677ZM53.3372 4.27946C54.515 4.27946 55.4697 5.23416 55.4697 6.41198C55.4697 7.58981 54.515 8.54451 53.3372 8.54451C52.1594 8.54451 51.2047 7.58981 51.2047 6.41198C51.2047 5.23416 52.1595 4.27946 53.3372 4.27946ZM60.8544 55.9548C62.22 57.2898 62.2449 59.4791 60.9099 60.8447C59.575 62.2103 57.3857 62.2352 56.0201 60.9003C56.0013 60.882 55.9829 60.8635 55.9645 60.8447L47.3811 52.2613L52.271 47.3714L60.8544 55.9548ZM50.7633 45.8637L45.8734 50.7536L42.922 47.8022C43.0723 47.687 43.2131 47.5601 43.3613 47.4418C43.5095 47.3234 43.6811 47.1816 43.84 47.0483C44.0735 46.8521 44.3038 46.6538 44.5299 46.4501C44.6461 46.3435 44.757 46.2369 44.8711 46.1303C45.3083 45.7208 45.7316 45.2975 46.141 44.8603C46.2476 44.7463 46.3543 44.6354 46.4609 44.5191C46.6645 44.2931 46.8629 44.0628 47.0591 43.8293C47.1927 43.6715 47.3239 43.5119 47.4525 43.3505C47.5698 43.2034 47.6967 43.0626 47.8118 42.9123L50.7633 45.8637ZM46.6283 40.9109C46.2924 41.3801 45.9459 41.8396 45.5802 42.2821C45.4735 42.4111 45.3594 42.5359 45.2496 42.6628C44.9233 43.0424 44.5864 43.4106 44.2388 43.7674C44.0874 43.9238 43.9334 44.0777 43.7771 44.2291C43.4216 44.5767 43.0535 44.9137 42.6725 45.2399C42.5456 45.3466 42.4208 45.4628 42.2918 45.5705C41.8493 45.9362 41.3897 46.2827 40.9206 46.6186C29.8826 54.5043 14.5419 51.9489 6.65625 40.9109C-1.22943 29.873 1.326 14.5322 12.3639 6.64656C23.4019 -1.23911 38.7426 1.31618 46.6283 12.3543C52.7301 20.8953 52.7301 32.3699 46.6283 40.9109Z" fill="#0CD66E"/>
</svg>
