<svg width="64" height="64" viewBox="0 0 64 64" fill="none" xmlns="http://www.w3.org/2000/svg">
<path d="M15.476 13.125H44.7948C47.438 13.125 49.5884 15.2839 49.5884 17.9375V30.757C49.5884 31.2749 50.0082 31.6945 50.5259 31.6945C51.0437 31.6945 51.4634 31.2749 51.4634 30.757V17.9375C51.4634 14.25 48.4719 11.25 44.7948 11.25H15.476C14.9583 11.25 14.5385 11.6696 14.5385 12.1875C14.5385 12.7054 14.9583 13.125 15.476 13.125Z" fill="#FA541C"/>
<path d="M38.2948 42.0695H20.6159C20.3407 42.0695 20.0795 42.1904 19.9014 42.4001L14.5892 48.6527L9.27725 42.4C9.09912 42.1903 8.83787 42.0694 8.56275 42.0694H6.66862C4.02537 42.0694 1.875 39.9105 1.875 37.2569V17.9375C1.875 15.2839 4.02537 13.125 6.66862 13.125H11.1285C11.6462 13.125 12.066 12.7054 12.066 12.1875C12.066 11.6696 11.6462 11.25 11.1285 11.25H6.66862C2.9915 11.25 0 14.25 0 17.9375V37.257C0 40.9445 2.9915 43.9445 6.66862 43.9445H8.12912L13.8749 50.7076C14.053 50.9174 14.3142 51.0382 14.5894 51.0382C14.8645 51.0382 15.1257 50.9174 15.3039 50.7076L21.0496 43.9445H38.2948C38.8125 43.9445 39.2323 43.5249 39.2323 43.007C39.2323 42.4891 38.8125 42.0695 38.2948 42.0695Z" fill="#FA541C"/>
<path d="M27.666 55.9163H19.143C18.6252 55.9163 18.2055 56.3359 18.2055 56.8538C18.2055 57.3717 18.6252 57.7913 19.143 57.7913H27.666C28.857 57.7913 29.826 58.7633 29.826 59.9582C29.826 61.153 28.857 62.1252 27.666 62.1252H4.035C2.844 62.1252 1.875 61.153 1.875 59.9582C1.875 58.7633 2.844 57.7913 4.035 57.7913H4.86438C5.16512 57.7913 5.44763 57.647 5.62388 57.4034L7.253 55.1523L8.88212 57.4034C9.05838 57.6469 9.34088 57.7913 9.64163 57.7913H14.8081C15.3259 57.7913 15.7456 57.3717 15.7456 56.8538C15.7456 56.3359 15.3259 55.9163 14.8081 55.9163H10.1204L8.0125 53.0035C7.83625 52.76 7.55375 52.6157 7.253 52.6157C6.95225 52.6157 6.66975 52.7599 6.4935 53.0035L4.38562 55.9163H4.035C1.81012 55.9163 0 57.7295 0 59.9582C0 62.1869 1.81012 64.0002 4.035 64.0002H27.666C29.8909 64.0002 31.701 62.1869 31.701 59.9582C31.701 57.7295 29.8909 55.9163 27.666 55.9163Z" fill="#FA541C"/>
<path d="M36.3325 8.08387H39.8591C40.3768 8.08387 40.7966 7.66425 40.7966 7.14638C40.7966 6.6285 40.3768 6.20888 39.8591 6.20888H36.3325C35.1415 6.20888 34.1725 5.23687 34.1725 4.042C34.1725 2.84712 35.1415 1.875 36.3325 1.875H59.9635C61.1545 1.875 62.1235 2.847 62.1235 4.04187C62.1235 5.23675 61.1545 6.20888 59.9635 6.20888H59.1341C58.8333 6.20888 58.5508 6.35312 58.3746 6.59675L56.7455 8.84787L55.1163 6.59662C54.9401 6.35312 54.6576 6.20875 54.3568 6.20875H44.1941C43.6763 6.20875 43.2566 6.62837 43.2566 7.14625C43.2566 7.66412 43.6763 8.08375 44.1941 8.08375H53.8781L55.986 10.9965C56.1622 11.24 56.4447 11.3844 56.7455 11.3844C57.0462 11.3844 57.3287 11.2401 57.505 10.9965L59.6128 8.08375H59.9635C62.1883 8.08375 63.9985 6.2705 63.9985 4.04175C63.9985 1.81325 62.1883 0 59.9635 0H36.3325C34.1076 0 32.2975 1.81325 32.2975 4.042C32.2975 6.27063 34.1076 8.08387 36.3325 8.08387Z" fill="#FA541C"/>
<path d="M13.7315 31.7424C13.2137 31.7424 12.794 32.162 12.794 32.6799C12.794 33.1978 13.2137 33.6174 13.7315 33.6174H18.7313C19.2491 33.6174 19.6688 33.1978 19.6688 32.6799V27.6799C19.6688 27.162 19.2491 26.7424 18.7313 26.7424H14.669V23.6174H18.7313C19.2491 23.6174 19.6688 23.1978 19.6688 22.6799C19.6688 22.162 19.2491 21.7424 18.7313 21.7424H13.7315C13.2137 21.7424 12.794 22.162 12.794 22.6799V27.6799C12.794 28.1978 13.2137 28.6174 13.7315 28.6174H17.7938V31.7424H13.7315Z" fill="#FA541C"/>
<path d="M28.1069 23.6174C28.6247 23.6174 29.0444 23.1978 29.0444 22.6799C29.0444 22.162 28.6247 21.7424 28.1069 21.7424H23.107C22.5893 21.7424 22.1695 22.162 22.1695 22.6799V32.6799C22.1695 33.1978 22.5893 33.6174 23.107 33.6174H28.1069C28.6247 33.6174 29.0444 33.1978 29.0444 32.6799C29.0444 32.162 28.6247 31.7424 28.1069 31.7424H24.0445V28.6174H28.1069C28.6247 28.6174 29.0444 28.1978 29.0444 27.6799C29.0444 27.162 28.6247 26.7424 28.1069 26.7424H24.0445V23.6174H28.1069Z" fill="#FA541C"/>
<path d="M32.4819 21.7424C31.9641 21.7424 31.5444 22.162 31.5444 22.6799V32.6799C31.5444 33.1978 31.9641 33.6174 32.4819 33.6174H37.4818C37.9995 33.6174 38.4193 33.1978 38.4193 32.6799V22.6799C38.4193 22.162 37.9995 21.7424 37.4818 21.7424H32.4819ZM36.5443 31.7424H33.4194V23.6174H36.5443V31.7424Z" fill="#FA541C"/>
<path d="M63.9987 43.1557C63.9985 42.6947 63.6633 42.3024 63.208 42.2302L61.9145 42.025L61.2972 40.5351L62.0664 39.474C62.3369 39.1009 62.296 38.5865 61.9702 38.2607L59.3224 35.6132C58.9962 35.2871 58.4813 35.2465 58.1083 35.5179L57.0494 36.2876L55.5602 35.6709L55.3543 34.3769C55.2819 33.9216 54.8893 33.5867 54.4284 33.5867L50.6849 33.5882C50.2239 33.5884 49.8313 33.9239 49.7593 34.3792L49.5544 35.6739L48.0665 36.2912L47.0067 35.522C46.6333 35.251 46.1184 35.2917 45.7927 35.6182L43.1468 38.2676C42.8212 38.5936 42.7808 39.1081 43.0515 39.4809L43.8212 40.5409L43.2045 42.032L41.9119 42.238C41.4567 42.3105 41.1218 42.7032 41.1219 43.1641L41.1234 46.9097C41.1235 47.3707 41.4589 47.7631 41.9142 47.8352L43.2075 48.0404L43.8249 49.5302L43.0557 50.5914C42.7852 50.9645 42.826 51.4789 43.1518 51.8046L45.7994 54.4522C46.1254 54.7781 46.6403 54.819 47.0135 54.5476L48.0724 53.7779L49.5615 54.3946L49.7674 55.6886C49.8399 56.1439 50.2324 56.4787 50.6933 56.4787L54.4368 56.4771C54.8978 56.4769 55.2903 56.1415 55.3623 55.6862L55.5673 54.3915L57.0553 53.7741L58.1152 54.5435C58.4884 54.8145 59.0033 54.7736 59.3292 54.4472L61.975 51.7979C62.3007 51.4719 62.341 50.9575 62.0704 50.5846L61.3008 49.5245L61.9174 48.0334L63.21 47.8275C63.6653 47.755 64.0003 47.3622 64 46.9014L63.9987 43.1557ZM61.1044 46.2644C60.7824 46.3156 60.5102 46.5306 60.3855 46.8319L59.3679 49.2926C59.2434 49.5937 59.2842 49.938 59.4755 50.2016L60.0834 51.0389L58.5687 52.5557L57.7319 51.9484C57.4678 51.7567 57.1232 51.7161 56.8219 51.8411L54.3643 52.8609C54.0632 52.9859 53.8487 53.2582 53.7977 53.5802L53.6358 54.6027L51.4935 54.6036L51.3309 53.582C51.2797 53.2601 51.0649 52.9879 50.7637 52.8631L48.3047 51.8449C48.1892 51.797 48.0674 51.7736 47.946 51.7736C47.7509 51.7736 47.5575 51.8345 47.3947 51.9529L46.5589 52.5604L45.0433 51.0447L45.6509 50.2065C45.8422 49.9426 45.8827 49.5984 45.7579 49.2974L44.739 46.838C44.6142 46.5367 44.3418 46.322 44.0198 46.271L42.9984 46.109L42.9975 43.964L44.0182 43.8012C44.3402 43.75 44.6124 43.535 44.7369 43.2337L45.7545 40.773C45.8792 40.4719 45.8383 40.1276 45.6468 39.864L45.0389 39.0267L46.5537 37.51L47.3904 38.1172C47.6545 38.3091 47.9993 38.3495 48.3004 38.2245L50.758 37.2047C51.0592 37.0797 51.2737 36.8072 51.3247 36.4852L51.4864 35.4629L53.6287 35.4621L53.7912 36.4837C53.8424 36.8056 54.0572 37.0779 54.3584 37.2026L56.8175 38.2209C57.119 38.3456 57.4635 38.3047 57.7274 38.113L58.5632 37.5055L60.0789 39.0211L59.4713 39.8592C59.28 40.1231 59.2395 40.4674 59.3643 40.7684L60.3834 43.2276C60.5083 43.5289 60.7807 43.7436 61.1027 43.7946L62.1242 43.9566L62.125 46.1017L61.1044 46.2644Z" fill="#FA541C"/>
<path d="M56.5415 44.0957C56.0238 44.0957 55.604 44.5153 55.604 45.0332C55.604 46.7111 54.239 48.0761 52.5613 48.0761C50.8835 48.0761 49.5185 46.7111 49.5185 45.0332C49.5185 43.3553 50.8835 41.9903 52.5613 41.9903C53.0007 41.9903 53.4243 42.0817 53.8202 42.262C54.2915 42.4767 54.8474 42.2683 55.0619 41.7971C55.2764 41.3257 55.0683 40.7698 54.597 40.5553C53.9555 40.2633 53.2706 40.1152 52.5613 40.1152C49.8497 40.1152 47.6435 42.3213 47.6435 45.0331C47.6435 47.7448 49.8497 49.951 52.5613 49.951C55.2729 49.951 57.479 47.7448 57.479 45.0331C57.479 44.5153 57.0593 44.0957 56.5415 44.0957Z" fill="#FA541C"/>
</svg>
