<svg width="60" height="61" viewBox="0 0 60 61" fill="none" xmlns="http://www.w3.org/2000/svg">
<path d="M35 53H33V43.2C33 42.9348 32.8946 42.6805 32.7071 42.4929C32.5196 42.3054 32.2652 42.2 32 42.2C31.7348 42.2 31.4804 42.3054 31.2929 42.4929C31.1054 42.6805 31 42.9348 31 43.2V53H5V33H13.32C13.5852 33 13.8396 32.8947 14.0271 32.7071C14.2146 32.5196 14.32 32.2652 14.32 32C14.32 31.7348 14.2146 31.4805 14.0271 31.2929C13.8396 31.1054 13.5852 31 13.32 31H4C3.73478 31 3.48043 31.1054 3.29289 31.2929C3.10536 31.4805 3 31.7348 3 32V53H1C0.734784 53 0.48043 53.1054 0.292893 53.2929C0.105357 53.4805 0 53.7348 0 54V56C0 57.3261 0.526784 58.5979 1.46447 59.5356C2.40215 60.4732 3.67392 61 5 61H31C32.3261 61 33.5979 60.4732 34.5355 59.5356C35.4732 58.5979 36 57.3261 36 56V54C36 53.7348 35.8946 53.4805 35.7071 53.2929C35.5196 53.1054 35.2652 53 35 53ZM34 56C34 56.7957 33.6839 57.5587 33.1213 58.1213C32.5587 58.684 31.7956 59 31 59H29V58C29 57.7348 28.8946 57.4805 28.7071 57.2929C28.5196 57.1054 28.2652 57 28 57C27.7348 57 27.4804 57.1054 27.2929 57.2929C27.1054 57.4805 27 57.7348 27 58V59H9V58C9 57.7348 8.89464 57.4805 8.70711 57.2929C8.51957 57.1054 8.26522 57 8 57C7.73478 57 7.48043 57.1054 7.29289 57.2929C7.10536 57.4805 7 57.7348 7 58V59H5C4.20435 59 3.44129 58.684 2.87868 58.1213C2.31607 57.5587 2 56.7957 2 56V55H34V56Z" fill="#FFC81A"/>
<path d="M52 7.00003H54C54.2652 7.00003 54.5196 6.89467 54.7071 6.70714C54.8946 6.5196 55 6.26525 55 6.00003C55 5.73482 54.8946 5.48046 54.7071 5.29293C54.5196 5.10539 54.2652 5.00003 54 5.00003H52C51.2043 5.00003 50.4413 5.3161 49.8787 5.87871C49.3161 6.44132 49 7.20438 49 8.00003V9.00003H48C47.7348 9.00003 47.4804 9.10539 47.2929 9.29293C47.1054 9.48046 47 9.73482 47 10C47 10.2652 47.1054 10.5196 47.2929 10.7071C47.4804 10.8947 47.7348 11 48 11H49V14C49 14.2652 49.1054 14.5196 49.2929 14.7071C49.4804 14.8947 49.7348 15 50 15C50.2652 15 50.5196 14.8947 50.7071 14.7071C50.8946 14.5196 51 14.2652 51 14V11H52C52.2652 11 52.5196 10.8947 52.7071 10.7071C52.8946 10.5196 53 10.2652 53 10C53 9.73482 52.8946 9.48046 52.7071 9.29293C52.5196 9.10539 52.2652 9.00003 52 9.00003H51V8.00003C51 7.73482 51.1054 7.48046 51.2929 7.29293C51.4804 7.10539 51.7348 7.00003 52 7.00003Z" fill="#FFC81A"/>
<path d="M57 1.00003H45C44.2043 1.00003 43.4413 1.3161 42.8787 1.87871C42.3161 2.44132 42 3.20438 42 4.00003V6.00003C42 6.26525 42.1054 6.5196 42.2929 6.70714C42.4804 6.89467 42.7348 7.00003 43 7.00003C43.2652 7.00003 43.5196 6.89467 43.7071 6.70714C43.8946 6.5196 44 6.26525 44 6.00003V4.00003C44 3.73482 44.1054 3.48046 44.2929 3.29293C44.4804 3.10539 44.7348 3.00003 45 3.00003H57C57.2652 3.00003 57.5196 3.10539 57.7071 3.29293C57.8946 3.48046 58 3.73482 58 4.00003V16C58 16.2652 57.8946 16.5196 57.7071 16.7071C57.5196 16.8947 57.2652 17 57 17H45C44.7348 17 44.4804 16.8947 44.2929 16.7071C44.1054 16.5196 44 16.2652 44 16V10C44 9.73482 43.8946 9.48046 43.7071 9.29293C43.5196 9.10539 43.2652 9.00003 43 9.00003C42.7348 9.00003 42.4804 9.10539 42.2929 9.29293C42.1054 9.48046 42 9.73482 42 10V16C42 16.7957 42.3161 17.5587 42.8787 18.1214C43.4413 18.684 44.2043 19 45 19H57C57.7957 19 58.5587 18.684 59.1213 18.1214C59.6839 17.5587 60 16.7957 60 16V4.00003C60 3.20438 59.6839 2.44132 59.1213 1.87871C58.5587 1.3161 57.7957 1.00003 57 1.00003Z" fill="#FFC81A"/>
<path d="M47 41C47 41.7912 47.2346 42.5645 47.6741 43.2223C48.1136 43.8801 48.7384 44.3928 49.4693 44.6956C50.2002 44.9983 51.0044 45.0775 51.7804 44.9232C52.5563 44.7688 53.269 44.3879 53.8284 43.8285C54.3878 43.2691 54.7688 42.5563 54.9232 41.7804C55.0775 41.0045 54.9983 40.2002 54.6955 39.4693C54.3928 38.7384 53.8801 38.1137 53.2223 37.6742C52.5645 37.2346 51.7911 37 51 37C49.9391 37 48.9217 37.4215 48.1716 38.1716C47.4214 38.9218 47 39.9392 47 41ZM53 41C53 41.3956 52.8827 41.7823 52.6629 42.1112C52.4432 42.4401 52.1308 42.6964 51.7654 42.8478C51.3999 42.9992 50.9978 43.0388 50.6098 42.9616C50.2219 42.8844 49.8655 42.694 49.5858 42.4143C49.3061 42.1346 49.1156 41.7782 49.0384 41.3902C48.9613 41.0023 49.0009 40.6001 49.1522 40.2347C49.3036 39.8692 49.56 39.5569 49.8889 39.3371C50.2178 39.1173 50.6044 39 51 39C51.5304 39 52.0392 39.2108 52.4142 39.5858C52.7893 39.9609 53 40.4696 53 41Z" fill="#FFC81A"/>
<path d="M57 32H45C44.2043 32 43.4413 32.3161 42.8787 32.8787C42.3161 33.4413 42 34.2044 42 35V47C42 47.7957 42.3161 48.5587 42.8787 49.1213C43.4413 49.684 44.2043 50 45 50H57C57.7957 50 58.5587 49.684 59.1213 49.1213C59.6839 48.5587 60 47.7957 60 47V45C60 44.7348 59.8946 44.4805 59.7071 44.2929C59.5196 44.1054 59.2652 44 59 44C58.7348 44 58.4804 44.1054 58.2929 44.2929C58.1054 44.4805 58 44.7348 58 45V47C58 47.2652 57.8946 47.5196 57.7071 47.7071C57.5196 47.8947 57.2652 48 57 48H45C44.7348 48 44.4804 47.8947 44.2929 47.7071C44.1054 47.5196 44 47.2652 44 47V35C44 34.7348 44.1054 34.4805 44.2929 34.2929C44.4804 34.1054 44.7348 34 45 34H57C57.2652 34 57.5196 34.1054 57.7071 34.2929C57.8946 34.4805 58 34.7348 58 35V41C58 41.2652 58.1054 41.5196 58.2929 41.7071C58.4804 41.8947 58.7348 42 59 42C59.2652 42 59.5196 41.8947 59.7071 41.7071C59.8946 41.5196 60 41.2652 60 41V35C60 34.2044 59.6839 33.4413 59.1213 32.8787C58.5587 32.3161 57.7957 32 57 32Z" fill="#FFC81A"/>
<path d="M22.47 12.8507C22.6291 12.9493 22.8128 13.0013 23 13.0007C23.1565 12.9998 23.3107 12.9621 23.45 12.8907L29.45 9.89071C29.6138 9.80679 29.7513 9.6793 29.8472 9.52226C29.9432 9.36523 29.994 9.18476 29.994 9.00071C29.994 8.81666 29.9432 8.63618 29.8472 8.47915C29.7513 8.32212 29.6138 8.19462 29.45 8.11071L23.45 5.11071C23.2978 5.034 23.1284 4.99747 22.9581 5.00461C22.7878 5.01174 22.6222 5.0623 22.4769 5.15147C22.3316 5.24064 22.2115 5.36547 22.128 5.51411C22.0446 5.66274 22.0005 5.83024 22 6.00071V12.0007C21.9996 12.1707 22.0426 12.3379 22.1249 12.4866C22.2071 12.6353 22.3259 12.7606 22.47 12.8507ZM24 7.62071L26.76 9.00071L24 10.3807V7.62071Z" fill="#FFC81A"/>
<path d="M25 18C26.78 18 28.5201 17.4722 30.0001 16.4832C31.4802 15.4943 32.6337 14.0887 33.3149 12.4442C33.9961 10.7996 34.1743 8.99002 33.8271 7.24419C33.4798 5.49836 32.6226 3.89472 31.364 2.63604C30.1053 1.37737 28.5016 0.520203 26.7558 0.172937C25.01 -0.17433 23.2004 0.00389951 21.5558 0.685088C19.9113 1.36628 18.5057 2.51983 17.5168 3.99987C16.5278 5.47991 16 7.21997 16 9C16 11.387 16.9482 13.6761 18.636 15.364C20.3239 17.0518 22.6131 18 25 18ZM25 2C26.3845 2 27.7378 2.41055 28.889 3.17972C30.0401 3.94889 30.9373 5.04214 31.4672 6.32122C31.997 7.6003 32.1356 9.00777 31.8655 10.3656C31.5954 11.7235 30.9287 12.9708 29.9497 13.9498C28.9708 14.9287 27.7235 15.5954 26.3656 15.8655C25.0078 16.1356 23.6003 15.997 22.3212 15.4672C21.0421 14.9373 19.9489 14.0401 19.1797 12.889C18.4105 11.7379 18 10.3845 18 9C18 7.14349 18.7375 5.36301 20.0503 4.05026C21.363 2.7375 23.1435 2 25 2Z" fill="#FFC81A"/>
<path d="M35 22C35.1552 22 35.3083 21.9639 35.4472 21.8944C35.586 21.825 35.7068 21.7242 35.8 21.6L38.8 17.6C38.9591 17.3878 39.0274 17.1211 38.9899 16.8586C38.9524 16.596 38.8121 16.3591 38.6 16.2C38.3878 16.0409 38.1211 15.9725 37.8585 16.0101C37.596 16.0476 37.3591 16.1878 37.2 16.4L34.2 20.4C34.0408 20.6122 33.9725 20.8789 34.01 21.1414C34.0475 21.404 34.1878 21.6409 34.4 21.8C34.5731 21.9298 34.7836 22 35 22Z" fill="#FFC81A"/>
<path d="M37.2 25.6C37.2931 25.7242 37.4139 25.825 37.5528 25.8944C37.6916 25.9639 37.8447 26 38 26C38.2163 26 38.4269 25.9298 38.6 25.8L42.6 22.8C42.8121 22.6409 42.9524 22.404 42.9899 22.1414C43.0274 21.8789 42.9591 21.6122 42.8 21.4C42.6408 21.1878 42.4039 21.0476 42.1414 21.0101C41.8788 20.9725 41.6121 21.0409 41.4 21.2L37.4 24.2C37.1878 24.3591 37.0475 24.596 37.01 24.8586C36.9725 25.1211 37.0408 25.3878 37.2 25.6Z" fill="#FFC81A"/>
<path d="M46.9999 27.7993C46.9762 27.6667 46.9259 27.5403 46.8521 27.4277C46.7782 27.315 46.6824 27.2184 46.5703 27.1437C46.4583 27.069 46.3323 27.0177 46.1999 26.9929C46.0675 26.9681 45.9315 26.9703 45.7999 26.9993L40.7999 27.9993C40.6686 28.0125 40.5412 28.0513 40.4249 28.1137C40.3086 28.1761 40.2057 28.2608 40.1221 28.3629C39.9533 28.5692 39.8734 28.8341 39.8999 29.0993C39.9265 29.3645 40.0573 29.6084 40.2635 29.7771C40.4698 29.9459 40.7347 30.0258 40.9999 29.9993H41.1999L46.1999 28.9993C46.3325 28.9756 46.4589 28.9253 46.5716 28.8514C46.6842 28.7776 46.7808 28.6818 46.8555 28.5697C46.9302 28.4576 46.9815 28.3316 47.0064 28.1993C47.0312 28.0669 47.029 27.9308 46.9999 27.7993Z" fill="#FFC81A"/>
<path d="M1 28H13C13.2652 28 13.5196 27.8947 13.7071 27.7071C13.8946 27.5196 14 27.2652 14 27V11C14 10.7348 13.8946 10.4805 13.7071 10.2929C13.5196 10.1054 13.2652 10 13 10H1C0.734784 10 0.48043 10.1054 0.292893 10.2929C0.105357 10.4805 0 10.7348 0 11V27C0 27.2652 0.105357 27.5196 0.292893 27.7071C0.48043 27.8947 0.734784 28 1 28ZM2 12H12V26H2V12Z" fill="#FFC81A"/>
<path d="M9 14H7C6.73478 14 6.48043 14.1054 6.29289 14.2929C6.10536 14.4805 6 14.7348 6 15C6 15.2652 6.10536 15.5196 6.29289 15.7071C6.48043 15.8947 6.73478 16 7 16H9C9.26522 16 9.51957 15.8947 9.70711 15.7071C9.89464 15.5196 10 15.2652 10 15C10 14.7348 9.89464 14.4805 9.70711 14.2929C9.51957 14.1054 9.26522 14 9 14Z" fill="#FFC81A"/>
<path d="M9 18H5C4.73478 18 4.48043 18.1054 4.29289 18.2929C4.10536 18.4805 4 18.7348 4 19C4 19.2652 4.10536 19.5196 4.29289 19.7071C4.48043 19.8947 4.73478 20 5 20H9C9.26522 20 9.51957 19.8947 9.70711 19.7071C9.89464 19.5196 10 19.2652 10 19C10 18.7348 9.89464 18.4805 9.70711 18.2929C9.51957 18.1054 9.26522 18 9 18Z" fill="#FFC81A"/>
<path d="M9 22H5C4.73478 22 4.48043 22.1054 4.29289 22.2929C4.10536 22.4805 4 22.7348 4 23C4 23.2652 4.10536 23.5196 4.29289 23.7071C4.48043 23.8947 4.73478 24 5 24H9C9.26522 24 9.51957 23.8947 9.70711 23.7071C9.89464 23.5196 10 23.2652 10 23C10 22.7348 9.89464 22.4805 9.70711 22.2929C9.51957 22.1054 9.26522 22 9 22Z" fill="#FFC81A"/>
<path d="M34.1202 27.7001C34.0545 27.5859 33.967 27.4857 33.8626 27.4052C33.7582 27.3248 33.639 27.2657 33.5118 27.2314C33.3846 27.197 33.2518 27.1881 33.1211 27.205C32.9905 27.2219 32.8644 27.2645 32.7502 27.3301C32.6359 27.3958 32.5357 27.4833 32.4553 27.5877C32.3749 27.6921 32.3158 27.8113 32.2814 27.9385C32.2471 28.0657 32.2381 28.1984 32.255 28.3291C32.272 28.4598 32.3145 28.5859 32.3802 28.7001L36.7902 36.3301L20.7902 42.3301C20.7902 42.3301 20.7902 42.3301 20.7202 42.3301H20.6402L16.3102 44.8301C16.0824 44.9618 15.8309 45.0472 15.5701 45.0815C15.3093 45.1159 15.0442 45.0984 14.7902 45.0301C14.2798 44.8922 13.8447 44.5579 13.5802 44.1001L11.5802 40.6401C11.3449 40.1874 11.2915 39.6619 11.4309 39.1712C11.5703 38.6804 11.892 38.2615 12.3302 38.0001L15.7902 36.0001L18.2902 40.3301C18.3783 40.4827 18.5051 40.6093 18.6579 40.6971C18.8107 40.7849 18.9839 40.8308 19.1602 40.8301C19.336 40.8308 19.509 40.7851 19.6615 40.6976C19.8141 40.6101 19.9409 40.484 20.0292 40.3318C20.1174 40.1797 20.164 40.007 20.1641 39.8311C20.1643 39.6552 20.1181 39.4824 20.0302 39.3301L17.4502 34.8701L30.0002 24.5201L30.4102 25.2301C30.4758 25.3444 30.5633 25.4446 30.6677 25.525C30.7721 25.6054 30.8913 25.6645 31.0185 25.6988C31.1457 25.7332 31.2785 25.7422 31.4092 25.7252C31.5398 25.7083 31.6659 25.6658 31.7802 25.6001C31.8944 25.5345 31.9946 25.4469 32.075 25.3425C32.1555 25.2382 32.2145 25.119 32.2489 24.9917C32.2833 24.8645 32.2922 24.7318 32.2753 24.6011C32.2583 24.4704 32.2158 24.3444 32.1502 24.2301L31.1502 22.5001C31.0769 22.3748 30.9772 22.267 30.858 22.1841C30.7389 22.1012 30.6031 22.0452 30.4602 22.0201C30.3164 21.993 30.1685 21.9978 30.0268 22.0341C29.8852 22.0704 29.7532 22.1373 29.6402 22.2301L15.6402 33.7701L11.3802 36.2301C10.6157 36.6754 10.0204 37.3616 9.68744 38.1812C9.3545 39.0009 9.3027 39.9079 9.54015 40.7601L8.54015 41.3301C8.02491 41.626 7.60913 42.0682 7.34552 42.6007C7.08192 43.1332 6.98237 43.7319 7.05949 44.3211C7.13662 44.9102 7.38694 45.4632 7.77872 45.9099C8.17051 46.3565 8.68611 46.6768 9.26015 46.8301C9.51464 46.8975 9.77689 46.9311 10.0402 46.9301C10.5662 46.9279 11.0829 46.7902 11.5402 46.5301L12.5402 45.9601C13.0205 46.4564 13.6247 46.8154 14.2902 47.0001C14.6319 47.0957 14.9853 47.1428 15.3402 47.1401C16.0431 47.1417 16.7336 46.9553 17.3402 46.6001L18.2102 46.1001L20.2102 49.5701C20.6076 50.2573 21.2613 50.7589 22.0279 50.9651C22.7945 51.1713 23.6116 51.0652 24.3002 50.6701C24.6418 50.4733 24.9412 50.2111 25.1814 49.8984C25.4216 49.5858 25.5978 49.2289 25.7 48.8481C25.8021 48.4673 25.8282 48.0701 25.7768 47.6793C25.7253 47.2884 25.5974 46.9115 25.4002 46.5701L23.5802 43.4001L38.5802 37.7701C38.7162 37.719 38.8394 37.6388 38.9413 37.5352C39.0432 37.4316 39.1213 37.307 39.1702 37.1701C39.2188 37.0349 39.2378 36.8907 39.2257 36.7475C39.2136 36.6042 39.1708 36.4653 39.1002 36.3401L34.1202 27.7001ZM10.5002 44.7901C10.3863 44.8559 10.2605 44.8987 10.1301 44.9158C9.9997 44.933 9.86718 44.9242 9.74015 44.8901C9.48395 44.8236 9.26459 44.6581 9.13015 44.4301C9.06432 44.3162 9.0216 44.1905 9.00444 44.0601C8.98728 43.9297 8.99602 43.7971 9.03015 43.6701C9.06429 43.5424 9.12341 43.4228 9.20408 43.3181C9.28475 43.2134 9.38539 43.1257 9.50015 43.0601L10.3702 42.5601L11.3702 44.2901L10.5002 44.7901ZM23.6602 47.5901C23.726 47.704 23.7687 47.8297 23.7859 47.9601C23.803 48.0906 23.7943 48.2231 23.7602 48.3501C23.6888 48.6043 23.5199 48.82 23.2902 48.9501C23.0617 49.0813 22.7908 49.1171 22.5361 49.0497C22.2815 48.9823 22.0637 48.8171 21.9302 48.5901L19.9302 45.1201L21.5902 44.1701H21.6702L23.6602 47.5901Z" fill="#FFC81A"/>
</svg>
