<svg width="64" height="64" viewBox="0 0 64 64" fill="none" xmlns="http://www.w3.org/2000/svg">
<g clip-path="url(#clip0_18209_3349)">
<path d="M15 42.4034V62.1239C15 63.9207 17.2975 64.6863 18.3746 63.2482L28.0078 50.4071L30.9443 48.9024L62.7399 3.94643L63.3312 0.450684L58.1651 3.30556L14.9895 40.7862L15 42.4034Z" fill="#919EAB"/>
<path d="M61.4046 0.149521C61.32 0.183396 1.11662 30.4103 1.03487 30.4513C-0.278002 31.1076 -0.358752 32.9543 0.890248 33.7251L14.9985 42.408L63.3298 0.455271C62.8384 0.0295213 62.1328 -0.152229 61.4046 0.149521Z" fill="#C4CDD5"/>
<path d="M63.396 0.542684C63.369 0.516309 63.3601 0.475434 63.3316 0.450684L62.9647 0.970684L28.0081 50.4069L49.642 63.7206C50.7687 64.4132 52.227 63.7528 52.4673 62.4699L63.97 2.22131C64.0922 1.58543 63.8345 0.969559 63.396 0.542684Z" fill="#C4CDD5"/>
</g>
<defs>
<clipPath id="clip0_18209_3349">
<rect width="64" height="64" fill="white"/>
</clipPath>
</defs>
</svg>
