<svg width="64" height="64" viewBox="0 0 64 64" fill="none" xmlns="http://www.w3.org/2000/svg">
<g clip-path="url(#clip0_18209_3410)">
<path d="M36.7496 27.2508H23.4913L16.8622 39.1832L15.5364 40.5089C13.3356 42.7098 13.3356 46.2629 15.5364 48.4639C17.7372 50.6647 21.2904 50.6648 23.4914 48.4639L24.8172 47.1382L36.7496 40.5091V27.2508ZM14.5613 35.7226C15.1724 35.6061 15.6838 35.1957 15.9311 34.6246C17.3191 31.4188 20.4045 26.6917 24.1865 21.9801C24.5697 21.5009 24.6953 20.8653 24.5205 20.2762C24.1626 19.0636 22.9978 18.9703 22.7583 18.8429C22.3893 18.7199 13.6044 15.9246 4.92957 24.5994C-1.62443 31.1534 2.11607 35.0442 2.27795 35.2061C3.01082 35.9389 4.19682 35.9389 4.92957 35.2061C7.12295 33.0128 10.6912 33.0128 12.8846 35.2061C13.3234 35.6448 13.9514 35.8378 14.5613 35.7226ZM43.7243 39.4799C43.1352 39.3052 42.4995 39.4307 42.0205 39.8139C37.1445 43.7267 32.5428 46.7331 29.3915 48.0614C28.8166 48.3048 28.3997 48.8176 28.2792 49.4299C28.1613 50.0423 28.3531 50.6742 28.7946 51.1157C30.9878 53.3089 30.9878 56.8773 28.7946 59.0707C28.0617 59.8036 28.0617 60.9896 28.7946 61.7223C28.9565 61.8841 32.8472 65.6247 39.4012 59.0707C48.0761 50.3958 45.2807 41.6109 45.1577 41.2446C45.0361 41.0162 44.9342 39.8352 43.7243 39.4799ZM63.7963 1.79506C63.6638 0.97306 63.0275 0.336685 62.2052 0.203935C61.7281 0.15081 54.6481 -0.77719 45.7916 1.82131L51.274 12.6069L62.1788 18.2086C64.7775 9.35219 63.8493 2.27219 63.7963 1.79506ZM39.4012 13.9926C36.4843 16.9094 36.4843 21.6823 39.4012 24.5992C42.3445 27.5424 47.091 27.5161 50.0078 24.5992C52.9511 21.6559 52.9511 16.9358 50.0078 13.9926C47.091 11.0757 42.3446 11.0493 39.4012 13.9926Z" fill="#919EAB"/>
<path d="M45.7913 1.82129C39.9842 3.49204 33.4347 6.70041 27.4684 12.6667C25.5062 14.6289 23.3582 17.0419 21.2634 19.6138C17.2859 24.5989 13.9979 29.6372 12.513 33.1373C12.1948 33.8268 12.3274 34.6488 12.8843 35.2057L16.8618 39.1832L26.1425 29.9023C28.3434 27.7014 31.8965 27.7014 34.0975 29.9023C36.3248 32.1295 36.3248 35.6299 34.0975 37.8573L24.8168 47.138L28.7943 51.1155C29.3245 51.6458 30.1465 51.8314 30.8359 51.5133C34.3095 50.0549 39.2418 46.8728 44.3859 42.7363C46.9578 40.6415 49.371 38.4937 51.3332 36.5315C57.2994 30.5653 60.5078 24.0158 62.1783 18.2085L45.7913 1.82129ZM50.0074 24.599C47.0905 27.5159 42.3442 27.5423 39.4008 24.599C36.4839 21.6822 36.4839 16.9093 39.4008 13.9924C42.344 11.0492 47.0905 11.0755 50.0074 13.9924C52.9507 16.9357 52.9507 21.6558 50.0074 24.599ZM12.9088 51.117C12.1759 50.3843 10.99 50.3843 10.2572 51.117L0.549412 60.7987C-0.183463 61.5315 -0.183463 62.7175 0.549412 63.4503C1.28229 64.183 2.46829 64.1832 3.20104 63.4503L12.9088 53.7687C13.6417 53.0358 13.6417 51.8498 12.9088 51.117ZM15.5604 56.4203L12.9088 59.0719C12.1759 59.8048 12.1759 60.9908 12.9088 61.7235C13.6417 62.4564 14.8277 62.4564 15.5604 61.7235L18.212 59.0719C18.9449 58.3392 18.9449 57.153 18.212 56.4203C17.4792 55.6875 16.2933 55.6875 15.5604 56.4203ZM4.95379 51.117L7.60541 48.4654C8.33829 47.7325 8.33829 46.5465 7.60541 45.8138C6.87254 45.0809 5.68654 45.0809 4.95379 45.8138L2.30216 48.4654C1.56929 49.1982 1.56929 50.3843 2.30216 51.117C3.03504 51.8498 4.22104 51.8498 4.95379 51.117Z" fill="#C4CDD5"/>
</g>
<defs>
<clipPath id="clip0_18209_3410">
<rect width="64" height="64" fill="white"/>
</clipPath>
</defs>
</svg>
