<svg width="64" height="64" viewBox="0 0 64 64" fill="none" xmlns="http://www.w3.org/2000/svg">
<g clip-path="url(#clip0_18209_3378)">
<path d="M62.6878 0.00802713C50.1945 -0.215973 35.9465 6.31469 26.9278 16.4454C18.3092 16.608 9.91718 20.1414 3.73851 26.32C3.37851 26.6747 3.25051 27.2054 3.40784 27.6854C3.56784 28.168 3.98384 28.5174 4.48518 28.5894L14.7625 30.0614L13.4932 31.4827C13.0212 32.0107 13.0452 32.8134 13.5465 33.3147L30.6852 50.4534C30.9438 50.712 31.2852 50.8427 31.6292 50.8427C31.9465 50.8427 32.2638 50.7307 32.5172 50.504L33.9385 49.2347L35.4105 59.512C35.4825 60.0134 35.8772 60.3814 36.3545 60.5414C36.4772 60.5814 36.6052 60.6 36.7358 60.6C37.1145 60.6 37.5012 60.4347 37.7678 60.1707C43.8612 54.0774 47.3945 45.6854 47.5572 37.0667C57.6985 28.0294 64.2825 13.7867 63.9918 1.30936C63.9732 0.600027 63.3998 0.0266938 62.6878 0.00802713ZM50.3998 23.0267C49.1012 24.3254 47.3945 24.976 45.6852 24.976C43.9758 24.976 42.2692 24.3254 40.9705 23.0267C38.3732 20.4267 38.3732 16.1974 40.9705 13.5974C43.5705 10.9974 47.7998 10.9974 50.3998 13.5974C52.9998 16.1974 52.9998 20.4294 50.3998 23.0267Z" fill="#C4CDD5"/>
<path d="M7.26385 45.0799C4.41051 47.9332 0.493181 60.8239 0.0558479 62.2826C-0.0854855 62.7519 0.0451812 63.2613 0.389181 63.6079C0.645181 63.8639 0.983848 63.9999 1.33318 63.9999C1.46118 63.9999 1.58918 63.9813 1.71718 63.9439C3.17585 63.5066 16.0665 59.5892 18.9198 56.7359C22.1332 53.5226 22.1332 48.2932 18.9198 45.0799C15.7038 41.8666 10.4772 41.8692 7.26385 45.0799Z" fill="#919EAB"/>
</g>
<defs>
<clipPath id="clip0_18209_3378">
<rect width="64" height="64" fill="white"/>
</clipPath>
</defs>
</svg>
