<svg width="18" height="14" viewBox="0 0 18 14" fill="none" xmlns="http://www.w3.org/2000/svg">
<path d="M16.5 0.610352H1.5C1.16848 0.610352 0.850537 0.742048 0.616116 0.976468C0.381696 1.21089 0.25 1.52883 0.25 1.86035V11.8604C0.25 12.1919 0.381696 12.5098 0.616116 12.7442C0.850537 12.9787 1.16848 13.1104 1.5 13.1104H16.5C16.8315 13.1104 17.1495 12.9787 17.3839 12.7442C17.6183 12.5098 17.75 12.1919 17.75 11.8604V1.86035C17.75 1.52883 17.6183 1.21089 17.3839 0.976468C17.1495 0.742048 16.8315 0.610352 16.5 0.610352ZM15.125 1.86035L9 6.09785L2.875 1.86035H15.125ZM1.5 11.8604V2.4291L8.64375 7.37285C8.74837 7.44543 8.87267 7.48432 9 7.48432C9.12733 7.48432 9.25163 7.44543 9.35625 7.37285L16.5 2.4291V11.8604H1.5Z" fill="#212B36"/>
</svg>
